<?xml version="1.0" encoding="utf-8" standalone="no"?>
<!DOCTYPE svg PUBLIC "-//W3C//DTD SVG 1.1//EN"
  "http://www.w3.org/Graphics/SVG/1.1/DTD/svg11.dtd">
<svg xmlns:xlink="http://www.w3.org/1999/xlink" width="394.423125pt" height="297.190125pt" viewBox="0 0 394.423125 297.190125" xmlns="http://www.w3.org/2000/svg" version="1.1">
 <metadata>
  <rdf:RDF xmlns:dc="http://purl.org/dc/elements/1.1/" xmlns:cc="http://creativecommons.org/ns#" xmlns:rdf="http://www.w3.org/1999/02/22-rdf-syntax-ns#">
   <cc:Work>
    <dc:type rdf:resource="http://purl.org/dc/dcmitype/StillImage"/>
    <dc:date>2026-03-21T09:14:24.081293</dc:date>
    <dc:format>image/svg+xml</dc:format>
    <dc:creator>
     <cc:Agent>
      <dc:title>Matplotlib v3.10.0, https://matplotlib.org/</dc:title>
     </cc:Agent>
    </dc:creator>
   </cc:Work>
  </rdf:RDF>
 </metadata>
 <defs>
  <style type="text/css">*{stroke-linejoin: round; stroke-linecap: butt}</style>
 </defs>
 <g id="figure_1">
  <g id="patch_1">
   <path d="M 0 297.190125 
L 394.423125 297.190125 
L 394.423125 0 
L 0 0 
z
" style="fill: #ffffff"/>
  </g>
  <g id="axes_1">
   <g id="patch_2">
    <path d="M 30.103125 273.312 
L 387.223125 273.312 
L 387.223125 7.2 
L 30.103125 7.2 
z
" style="fill: #ffffff"/>
   </g>
   <g id="matplotlib.axis_1">
    <g id="xtick_1">
     <g id="line2d_1">
      <defs>
       <path id="m7f649a5750" d="M 0 0 
L 0 3.5 
" style="stroke: #000000; stroke-width: 0.8"/>
      </defs>
      <g>
       <use xlink:href="#m7f649a5750" x="46.335852" y="273.312" style="stroke: #000000; stroke-width: 0.8"/>
      </g>
     </g>
     <g id="text_1">
      <!-- 0 -->
      <g transform="translate(43.154602 287.910437) scale(0.1 -0.1)">
       <defs>
        <path id="DejaVuSans-30" d="M 2034 4250 
Q 1547 4250 1301 3770 
Q 1056 3291 1056 2328 
Q 1056 1369 1301 889 
Q 1547 409 2034 409 
Q 2525 409 2770 889 
Q 3016 1369 3016 2328 
Q 3016 3291 2770 3770 
Q 2525 4250 2034 4250 
z
M 2034 4750 
Q 2819 4750 3233 4129 
Q 3647 3509 3647 2328 
Q 3647 1150 3233 529 
Q 2819 -91 2034 -91 
Q 1250 -91 836 529 
Q 422 1150 422 2328 
Q 422 3509 836 4129 
Q 1250 4750 2034 4750 
z
" transform="scale(0.015625)"/>
       </defs>
       <use xlink:href="#DejaVuSans-30"/>
      </g>
     </g>
    </g>
    <g id="xtick_2">
     <g id="line2d_2">
      <g>
       <use xlink:href="#m7f649a5750" x="111.292744" y="273.312" style="stroke: #000000; stroke-width: 0.8"/>
      </g>
     </g>
     <g id="text_2">
      <!-- 500 -->
      <g transform="translate(101.748994 287.910437) scale(0.1 -0.1)">
       <defs>
        <path id="DejaVuSans-35" d="M 691 4666 
L 3169 4666 
L 3169 4134 
L 1269 4134 
L 1269 2991 
Q 1406 3038 1543 3061 
Q 1681 3084 1819 3084 
Q 2600 3084 3056 2656 
Q 3513 2228 3513 1497 
Q 3513 744 3044 326 
Q 2575 -91 1722 -91 
Q 1428 -91 1123 -41 
Q 819 9 494 109 
L 494 744 
Q 775 591 1075 516 
Q 1375 441 1709 441 
Q 2250 441 2565 725 
Q 2881 1009 2881 1497 
Q 2881 1984 2565 2268 
Q 2250 2553 1709 2553 
Q 1456 2553 1204 2497 
Q 953 2441 691 2322 
L 691 4666 
z
" transform="scale(0.015625)"/>
       </defs>
       <use xlink:href="#DejaVuSans-35"/>
       <use xlink:href="#DejaVuSans-30" transform="translate(63.623047 0)"/>
       <use xlink:href="#DejaVuSans-30" transform="translate(127.246094 0)"/>
      </g>
     </g>
    </g>
    <g id="xtick_3">
     <g id="line2d_3">
      <g>
       <use xlink:href="#m7f649a5750" x="176.249636" y="273.312" style="stroke: #000000; stroke-width: 0.8"/>
      </g>
     </g>
     <g id="text_3">
      <!-- 1000 -->
      <g transform="translate(163.524636 287.910437) scale(0.1 -0.1)">
       <defs>
        <path id="DejaVuSans-31" d="M 794 531 
L 1825 531 
L 1825 4091 
L 703 3866 
L 703 4441 
L 1819 4666 
L 2450 4666 
L 2450 531 
L 3481 531 
L 3481 0 
L 794 0 
L 794 531 
z
" transform="scale(0.015625)"/>
       </defs>
       <use xlink:href="#DejaVuSans-31"/>
       <use xlink:href="#DejaVuSans-30" transform="translate(63.623047 0)"/>
       <use xlink:href="#DejaVuSans-30" transform="translate(127.246094 0)"/>
       <use xlink:href="#DejaVuSans-30" transform="translate(190.869141 0)"/>
      </g>
     </g>
    </g>
    <g id="xtick_4">
     <g id="line2d_4">
      <g>
       <use xlink:href="#m7f649a5750" x="241.206528" y="273.312" style="stroke: #000000; stroke-width: 0.8"/>
      </g>
     </g>
     <g id="text_4">
      <!-- 1500 -->
      <g transform="translate(228.481528 287.910437) scale(0.1 -0.1)">
       <use xlink:href="#DejaVuSans-31"/>
       <use xlink:href="#DejaVuSans-35" transform="translate(63.623047 0)"/>
       <use xlink:href="#DejaVuSans-30" transform="translate(127.246094 0)"/>
       <use xlink:href="#DejaVuSans-30" transform="translate(190.869141 0)"/>
      </g>
     </g>
    </g>
    <g id="xtick_5">
     <g id="line2d_5">
      <g>
       <use xlink:href="#m7f649a5750" x="306.16342" y="273.312" style="stroke: #000000; stroke-width: 0.8"/>
      </g>
     </g>
     <g id="text_5">
      <!-- 2000 -->
      <g transform="translate(293.43842 287.910437) scale(0.1 -0.1)">
       <defs>
        <path id="DejaVuSans-32" d="M 1228 531 
L 3431 531 
L 3431 0 
L 469 0 
L 469 531 
Q 828 903 1448 1529 
Q 2069 2156 2228 2338 
Q 2531 2678 2651 2914 
Q 2772 3150 2772 3378 
Q 2772 3750 2511 3984 
Q 2250 4219 1831 4219 
Q 1534 4219 1204 4116 
Q 875 4013 500 3803 
L 500 4441 
Q 881 4594 1212 4672 
Q 1544 4750 1819 4750 
Q 2544 4750 2975 4387 
Q 3406 4025 3406 3419 
Q 3406 3131 3298 2873 
Q 3191 2616 2906 2266 
Q 2828 2175 2409 1742 
Q 1991 1309 1228 531 
z
" transform="scale(0.015625)"/>
       </defs>
       <use xlink:href="#DejaVuSans-32"/>
       <use xlink:href="#DejaVuSans-30" transform="translate(63.623047 0)"/>
       <use xlink:href="#DejaVuSans-30" transform="translate(127.246094 0)"/>
       <use xlink:href="#DejaVuSans-30" transform="translate(190.869141 0)"/>
      </g>
     </g>
    </g>
    <g id="xtick_6">
     <g id="line2d_6">
      <g>
       <use xlink:href="#m7f649a5750" x="371.120312" y="273.312" style="stroke: #000000; stroke-width: 0.8"/>
      </g>
     </g>
     <g id="text_6">
      <!-- 2500 -->
      <g transform="translate(358.395312 287.910437) scale(0.1 -0.1)">
       <use xlink:href="#DejaVuSans-32"/>
       <use xlink:href="#DejaVuSans-35" transform="translate(63.623047 0)"/>
       <use xlink:href="#DejaVuSans-30" transform="translate(127.246094 0)"/>
       <use xlink:href="#DejaVuSans-30" transform="translate(190.869141 0)"/>
      </g>
     </g>
    </g>
   </g>
   <g id="matplotlib.axis_2">
    <g id="ytick_1">
     <g id="line2d_7">
      <defs>
       <path id="m246743ecd1" d="M 0 0 
L -3.5 0 
" style="stroke: #000000; stroke-width: 0.8"/>
      </defs>
      <g>
       <use xlink:href="#m246743ecd1" x="30.103125" y="253.668923" style="stroke: #000000; stroke-width: 0.8"/>
      </g>
     </g>
     <g id="text_7">
      <!-- 0.2 -->
      <g transform="translate(7.2 257.468142) scale(0.1 -0.1)">
       <defs>
        <path id="DejaVuSans-2e" d="M 684 794 
L 1344 794 
L 1344 0 
L 684 0 
L 684 794 
z
" transform="scale(0.015625)"/>
       </defs>
       <use xlink:href="#DejaVuSans-30"/>
       <use xlink:href="#DejaVuSans-2e" transform="translate(63.623047 0)"/>
       <use xlink:href="#DejaVuSans-32" transform="translate(95.410156 0)"/>
      </g>
     </g>
    </g>
    <g id="ytick_2">
     <g id="line2d_8">
      <g>
       <use xlink:href="#m246743ecd1" x="30.103125" y="222.012583" style="stroke: #000000; stroke-width: 0.8"/>
      </g>
     </g>
     <g id="text_8">
      <!-- 0.3 -->
      <g transform="translate(7.2 225.811802) scale(0.1 -0.1)">
       <defs>
        <path id="DejaVuSans-33" d="M 2597 2516 
Q 3050 2419 3304 2112 
Q 3559 1806 3559 1356 
Q 3559 666 3084 287 
Q 2609 -91 1734 -91 
Q 1441 -91 1130 -33 
Q 819 25 488 141 
L 488 750 
Q 750 597 1062 519 
Q 1375 441 1716 441 
Q 2309 441 2620 675 
Q 2931 909 2931 1356 
Q 2931 1769 2642 2001 
Q 2353 2234 1838 2234 
L 1294 2234 
L 1294 2753 
L 1863 2753 
Q 2328 2753 2575 2939 
Q 2822 3125 2822 3475 
Q 2822 3834 2567 4026 
Q 2313 4219 1838 4219 
Q 1578 4219 1281 4162 
Q 984 4106 628 3988 
L 628 4550 
Q 988 4650 1302 4700 
Q 1616 4750 1894 4750 
Q 2613 4750 3031 4423 
Q 3450 4097 3450 3541 
Q 3450 3153 3228 2886 
Q 3006 2619 2597 2516 
z
" transform="scale(0.015625)"/>
       </defs>
       <use xlink:href="#DejaVuSans-30"/>
       <use xlink:href="#DejaVuSans-2e" transform="translate(63.623047 0)"/>
       <use xlink:href="#DejaVuSans-33" transform="translate(95.410156 0)"/>
      </g>
     </g>
    </g>
    <g id="ytick_3">
     <g id="line2d_9">
      <g>
       <use xlink:href="#m246743ecd1" x="30.103125" y="190.356242" style="stroke: #000000; stroke-width: 0.8"/>
      </g>
     </g>
     <g id="text_9">
      <!-- 0.4 -->
      <g transform="translate(7.2 194.155461) scale(0.1 -0.1)">
       <defs>
        <path id="DejaVuSans-34" d="M 2419 4116 
L 825 1625 
L 2419 1625 
L 2419 4116 
z
M 2253 4666 
L 3047 4666 
L 3047 1625 
L 3713 1625 
L 3713 1100 
L 3047 1100 
L 3047 0 
L 2419 0 
L 2419 1100 
L 313 1100 
L 313 1709 
L 2253 4666 
z
" transform="scale(0.015625)"/>
       </defs>
       <use xlink:href="#DejaVuSans-30"/>
       <use xlink:href="#DejaVuSans-2e" transform="translate(63.623047 0)"/>
       <use xlink:href="#DejaVuSans-34" transform="translate(95.410156 0)"/>
      </g>
     </g>
    </g>
    <g id="ytick_4">
     <g id="line2d_10">
      <g>
       <use xlink:href="#m246743ecd1" x="30.103125" y="158.699902" style="stroke: #000000; stroke-width: 0.8"/>
      </g>
     </g>
     <g id="text_10">
      <!-- 0.5 -->
      <g transform="translate(7.2 162.499121) scale(0.1 -0.1)">
       <use xlink:href="#DejaVuSans-30"/>
       <use xlink:href="#DejaVuSans-2e" transform="translate(63.623047 0)"/>
       <use xlink:href="#DejaVuSans-35" transform="translate(95.410156 0)"/>
      </g>
     </g>
    </g>
    <g id="ytick_5">
     <g id="line2d_11">
      <g>
       <use xlink:href="#m246743ecd1" x="30.103125" y="127.043561" style="stroke: #000000; stroke-width: 0.8"/>
      </g>
     </g>
     <g id="text_11">
      <!-- 0.6 -->
      <g transform="translate(7.2 130.84278) scale(0.1 -0.1)">
       <defs>
        <path id="DejaVuSans-36" d="M 2113 2584 
Q 1688 2584 1439 2293 
Q 1191 2003 1191 1497 
Q 1191 994 1439 701 
Q 1688 409 2113 409 
Q 2538 409 2786 701 
Q 3034 994 3034 1497 
Q 3034 2003 2786 2293 
Q 2538 2584 2113 2584 
z
M 3366 4563 
L 3366 3988 
Q 3128 4100 2886 4159 
Q 2644 4219 2406 4219 
Q 1781 4219 1451 3797 
Q 1122 3375 1075 2522 
Q 1259 2794 1537 2939 
Q 1816 3084 2150 3084 
Q 2853 3084 3261 2657 
Q 3669 2231 3669 1497 
Q 3669 778 3244 343 
Q 2819 -91 2113 -91 
Q 1303 -91 875 529 
Q 447 1150 447 2328 
Q 447 3434 972 4092 
Q 1497 4750 2381 4750 
Q 2619 4750 2861 4703 
Q 3103 4656 3366 4563 
z
" transform="scale(0.015625)"/>
       </defs>
       <use xlink:href="#DejaVuSans-30"/>
       <use xlink:href="#DejaVuSans-2e" transform="translate(63.623047 0)"/>
       <use xlink:href="#DejaVuSans-36" transform="translate(95.410156 0)"/>
      </g>
     </g>
    </g>
    <g id="ytick_6">
     <g id="line2d_12">
      <g>
       <use xlink:href="#m246743ecd1" x="30.103125" y="95.387221" style="stroke: #000000; stroke-width: 0.8"/>
      </g>
     </g>
     <g id="text_12">
      <!-- 0.7 -->
      <g transform="translate(7.2 99.18644) scale(0.1 -0.1)">
       <defs>
        <path id="DejaVuSans-37" d="M 525 4666 
L 3525 4666 
L 3525 4397 
L 1831 0 
L 1172 0 
L 2766 4134 
L 525 4134 
L 525 4666 
z
" transform="scale(0.015625)"/>
       </defs>
       <use xlink:href="#DejaVuSans-30"/>
       <use xlink:href="#DejaVuSans-2e" transform="translate(63.623047 0)"/>
       <use xlink:href="#DejaVuSans-37" transform="translate(95.410156 0)"/>
      </g>
     </g>
    </g>
    <g id="ytick_7">
     <g id="line2d_13">
      <g>
       <use xlink:href="#m246743ecd1" x="30.103125" y="63.73088" style="stroke: #000000; stroke-width: 0.8"/>
      </g>
     </g>
     <g id="text_13">
      <!-- 0.8 -->
      <g transform="translate(7.2 67.530099) scale(0.1 -0.1)">
       <defs>
        <path id="DejaVuSans-38" d="M 2034 2216 
Q 1584 2216 1326 1975 
Q 1069 1734 1069 1313 
Q 1069 891 1326 650 
Q 1584 409 2034 409 
Q 2484 409 2743 651 
Q 3003 894 3003 1313 
Q 3003 1734 2745 1975 
Q 2488 2216 2034 2216 
z
M 1403 2484 
Q 997 2584 770 2862 
Q 544 3141 544 3541 
Q 544 4100 942 4425 
Q 1341 4750 2034 4750 
Q 2731 4750 3128 4425 
Q 3525 4100 3525 3541 
Q 3525 3141 3298 2862 
Q 3072 2584 2669 2484 
Q 3125 2378 3379 2068 
Q 3634 1759 3634 1313 
Q 3634 634 3220 271 
Q 2806 -91 2034 -91 
Q 1263 -91 848 271 
Q 434 634 434 1313 
Q 434 1759 690 2068 
Q 947 2378 1403 2484 
z
M 1172 3481 
Q 1172 3119 1398 2916 
Q 1625 2713 2034 2713 
Q 2441 2713 2670 2916 
Q 2900 3119 2900 3481 
Q 2900 3844 2670 4047 
Q 2441 4250 2034 4250 
Q 1625 4250 1398 4047 
Q 1172 3844 1172 3481 
z
" transform="scale(0.015625)"/>
       </defs>
       <use xlink:href="#DejaVuSans-30"/>
       <use xlink:href="#DejaVuSans-2e" transform="translate(63.623047 0)"/>
       <use xlink:href="#DejaVuSans-38" transform="translate(95.410156 0)"/>
      </g>
     </g>
    </g>
    <g id="ytick_8">
     <g id="line2d_14">
      <g>
       <use xlink:href="#m246743ecd1" x="30.103125" y="32.07454" style="stroke: #000000; stroke-width: 0.8"/>
      </g>
     </g>
     <g id="text_14">
      <!-- 0.9 -->
      <g transform="translate(7.2 35.873759) scale(0.1 -0.1)">
       <defs>
        <path id="DejaVuSans-39" d="M 703 97 
L 703 672 
Q 941 559 1184 500 
Q 1428 441 1663 441 
Q 2288 441 2617 861 
Q 2947 1281 2994 2138 
Q 2813 1869 2534 1725 
Q 2256 1581 1919 1581 
Q 1219 1581 811 2004 
Q 403 2428 403 3163 
Q 403 3881 828 4315 
Q 1253 4750 1959 4750 
Q 2769 4750 3195 4129 
Q 3622 3509 3622 2328 
Q 3622 1225 3098 567 
Q 2575 -91 1691 -91 
Q 1453 -91 1209 -44 
Q 966 3 703 97 
z
M 1959 2075 
Q 2384 2075 2632 2365 
Q 2881 2656 2881 3163 
Q 2881 3666 2632 3958 
Q 2384 4250 1959 4250 
Q 1534 4250 1286 3958 
Q 1038 3666 1038 3163 
Q 1038 2656 1286 2365 
Q 1534 2075 1959 2075 
z
" transform="scale(0.015625)"/>
       </defs>
       <use xlink:href="#DejaVuSans-30"/>
       <use xlink:href="#DejaVuSans-2e" transform="translate(63.623047 0)"/>
       <use xlink:href="#DejaVuSans-39" transform="translate(95.410156 0)"/>
      </g>
     </g>
    </g>
   </g>
   <g id="line2d_15">
    <path d="M 46.335852 101.072085 
L 46.59568 105.586447 
L 46.725594 105.813531 
L 46.855507 101.110105 
L 46.985421 111.007315 
L 47.115335 112.141246 
L 47.245249 111.180718 
L 47.375163 95.445283 
L 47.63499 109.103619 
L 47.894818 112.635265 
L 48.024731 108.163923 
L 48.154645 122.044475 
L 48.284559 120.405223 
L 48.414473 108.67866 
L 48.544387 114.686966 
L 48.6743 101.532631 
L 48.804214 125.7022 
L 48.934128 99.783337 
L 49.064042 117.079605 
L 49.193956 115.853143 
L 49.323869 118.872863 
L 49.583697 117.797991 
L 49.843524 108.72836 
L 49.973438 110.281891 
L 50.103352 151.543363 
L 50.233266 124.877131 
L 50.36318 125.126612 
L 50.493093 94.625063 
L 50.752921 119.579022 
L 50.882835 108.012634 
L 51.012748 120.365335 
L 51.142662 116.875918 
L 51.272576 106.078975 
L 51.40249 119.725235 
L 51.532404 111.401878 
L 51.662317 115.063433 
L 51.792231 115.10551 
L 51.922145 109.600393 
L 52.052059 119.674158 
L 52.181973 113.25376 
L 52.311886 115.091472 
L 52.4418 106.030898 
L 52.571714 118.813577 
L 52.701628 107.957028 
L 52.831541 109.865573 
L 52.961455 108.108713 
L 53.091369 111.810686 
L 53.351197 131.335077 
L 53.48111 120.493302 
L 53.611024 120.511529 
L 53.740938 115.348614 
L 54.000766 85.058752 
L 54.260593 108.775116 
L 54.390507 113.756515 
L 54.520421 131.627202 
L 54.650334 86.888653 
L 54.780248 110.677019 
L 54.910162 104.402495 
L 55.040076 117.104078 
L 55.16999 116.79282 
L 55.299903 149.816089 
L 55.559731 104.832682 
L 55.819558 121.531795 
L 55.949472 109.506805 
L 56.079386 115.576472 
L 56.2093 115.641606 
L 56.339214 107.98018 
L 56.469127 120.214367 
L 56.599041 88.530207 
L 56.858869 118.693893 
L 56.988783 111.337818 
L 57.118696 111.380613 
L 57.24861 129.331547 
L 57.378524 109.712926 
L 57.508438 118.946148 
L 57.768265 109.857139 
L 57.898179 140.398406 
L 58.158007 115.990375 
L 58.417834 108.671735 
L 58.547748 110.54809 
L 58.807576 119.480735 
L 59.067403 108.859591 
L 59.197317 121.92064 
L 59.327231 113.213853 
L 59.457144 113.83799 
L 59.587058 122.756144 
L 59.716972 105.48899 
L 59.846886 154.338489 
L 60.106713 103.867739 
L 60.236627 109.11845 
L 60.366541 121.401696 
L 60.496455 157.021441 
L 60.756282 104.461781 
L 61.01611 129.219373 
L 61.146024 125.233126 
L 61.275937 114.438466 
L 61.405851 114.973166 
L 61.535765 124.938964 
L 61.795593 110.298665 
L 61.925506 119.819182 
L 62.05542 120.110891 
L 62.185334 122.827618 
L 62.445161 103.407684 
L 62.575075 125.068874 
L 62.704989 120.810371 
L 62.834903 130.16858 
L 62.964817 104.995481 
L 63.224644 131.772717 
L 63.484472 111.968579 
L 63.614386 123.045079 
L 63.744299 94.676971 
L 63.874213 127.493194 
L 64.134041 117.478696 
L 64.263954 131.827662 
L 64.393868 108.931802 
L 64.523782 131.37289 
L 64.653696 117.418486 
L 64.78361 138.971087 
L 64.913523 121.405677 
L 65.043437 88.467148 
L 65.173351 129.952609 
L 65.303265 117.414693 
L 65.563092 134.687942 
L 65.693006 136.768418 
L 65.82292 136.309608 
L 65.952834 133.559521 
L 66.212661 126.333791 
L 66.342575 131.006197 
L 66.472489 125.474682 
L 66.602403 138.311175 
L 66.732316 131.968441 
L 66.86223 136.775248 
L 66.992144 148.199234 
L 67.122058 141.361198 
L 67.251971 124.071591 
L 67.381885 128.61886 
L 67.641713 162.174054 
L 67.771627 125.192653 
L 67.90154 140.103923 
L 68.031454 133.258019 
L 68.291282 165.737182 
L 68.421196 129.216298 
L 68.551109 140.969787 
L 68.681023 140.200625 
L 68.940851 168.428294 
L 69.070764 144.510885 
L 69.200678 144.314198 
L 69.330592 142.916862 
L 69.460506 139.646189 
L 69.59042 160.733235 
L 69.720333 146.431431 
L 69.850247 145.38207 
L 69.980161 142.487807 
L 70.110075 146.579134 
L 70.239988 164.951614 
L 70.62973 136.422971 
L 70.889557 169.279497 
L 71.019471 152.008475 
L 71.279299 147.422488 
L 71.409213 152.974116 
L 71.539126 138.868612 
L 71.66904 162.482085 
L 71.798954 132.270339 
L 72.058781 158.345492 
L 72.188695 155.354113 
L 72.318609 165.760466 
L 72.448523 146.763858 
L 72.578437 155.342226 
L 72.70835 142.535941 
L 72.838264 181.629849 
L 72.968178 174.053822 
L 73.098092 133.768605 
L 73.357919 163.911762 
L 73.487833 118.238121 
L 73.617747 153.729371 
L 73.747661 158.270678 
L 73.877574 151.744691 
L 74.007488 162.462027 
L 74.137402 133.053521 
L 74.267316 151.527381 
L 74.39723 143.680306 
L 74.527143 178.145036 
L 74.657057 153.365886 
L 74.916885 169.576659 
L 75.046798 158.29849 
L 75.176712 161.808097 
L 75.43654 126.680785 
L 75.566454 161.037143 
L 75.696367 148.540776 
L 75.826281 166.616621 
L 75.956195 163.064503 
L 76.086109 121.020983 
L 76.345936 162.677923 
L 76.47585 150.629384 
L 76.605764 169.554932 
L 76.735678 124.819374 
L 76.995505 164.548108 
L 77.125419 151.608762 
L 77.385247 178.87679 
L 77.51516 151.314146 
L 77.645074 147.920526 
L 77.904902 175.029548 
L 78.034815 206.749049 
L 78.164729 162.468009 
L 78.294643 167.015901 
L 78.424557 164.316835 
L 78.554471 144.887786 
L 78.684384 185.886559 
L 78.814298 166.125772 
L 78.944212 180.189274 
L 79.074126 152.324638 
L 79.20404 160.328889 
L 79.333953 73.094029 
L 79.463867 165.711775 
L 79.723695 158.431363 
L 79.853608 167.662284 
L 79.983522 122.945057 
L 80.113436 158.12305 
L 80.24335 153.768543 
L 80.373264 169.720476 
L 80.763005 143.933863 
L 81.022833 168.130245 
L 81.152746 172.718138 
L 81.28266 149.251445 
L 81.542488 179.806165 
L 81.802315 143.825934 
L 82.062143 157.780225 
L 82.192057 170.605359 
L 82.32197 169.299101 
L 82.581798 144.795839 
L 82.711712 177.819306 
L 83.101453 146.220404 
L 83.231367 172.302255 
L 83.361281 146.627853 
L 83.491194 169.322357 
L 83.621108 165.552137 
L 83.751022 171.528036 
L 83.880936 189.77135 
L 84.01085 164.958067 
L 84.140763 178.308834 
L 84.400591 146.423713 
L 84.530505 235.579279 
L 84.660418 157.817981 
L 84.790332 175.631741 
L 84.920246 152.052382 
L 85.05016 164.956652 
L 85.180074 224.324385 
L 85.309987 149.734501 
L 85.439901 182.355301 
L 85.569815 162.284275 
L 85.699729 164.906253 
L 85.829643 152.713106 
L 86.08947 185.715506 
L 86.219384 135.143072 
L 86.349298 156.428909 
L 86.479211 222.798977 
L 86.609125 164.437585 
L 86.739039 162.370269 
L 86.868953 162.723755 
L 86.998867 163.467585 
L 87.12878 187.651448 
L 87.258694 154.797224 
L 87.388608 176.173932 
L 87.518522 156.075103 
L 87.648435 183.786601 
L 87.778349 95.667198 
L 87.908263 170.187853 
L 88.038177 150.501021 
L 88.168091 193.812383 
L 88.298004 146.330861 
L 88.427918 174.571936 
L 88.557832 166.590507 
L 88.687746 175.300162 
L 88.947573 153.940587 
L 89.077487 191.883582 
L 89.467228 156.636257 
L 89.727056 175.979264 
L 89.986884 160.913194 
L 90.116797 173.056189 
L 90.246711 158.269678 
L 90.376625 225.194362 
L 90.506539 152.497758 
L 90.636453 180.27207 
L 90.766366 172.666967 
L 90.89628 156.93574 
L 91.026194 160.116088 
L 91.156108 175.387845 
L 91.286021 147.919733 
L 91.415935 167.443974 
L 91.545849 161.716414 
L 91.675763 206.981653 
L 91.805677 161.737839 
L 91.93559 161.87176 
L 92.065504 175.483575 
L 92.455245 144.438694 
L 92.715073 180.438954 
L 92.844987 178.955887 
L 92.974901 117.147683 
L 93.234728 174.285312 
L 93.364642 163.105967 
L 93.494556 163.308362 
L 93.62447 177.413187 
L 93.754383 171.893861 
L 93.884297 149.904507 
L 94.144125 177.486303 
L 94.274038 176.716245 
L 94.403952 149.143422 
L 94.66378 183.337244 
L 94.793694 167.752268 
L 94.923607 115.069226 
L 95.053521 166.678548 
L 95.183435 173.748772 
L 95.313349 168.296761 
L 95.443263 153.058723 
L 95.573176 209.398396 
L 95.70309 167.392179 
L 95.833004 163.050003 
L 95.962918 171.96927 
L 96.092831 159.380381 
L 96.222745 214.166155 
L 96.352659 173.396344 
L 96.482573 181.750976 
L 96.612487 148.05638 
L 96.7424 165.72721 
L 96.872314 160.829748 
L 97.002228 203.077474 
L 97.262055 133.827701 
L 97.521883 171.222487 
L 97.651797 159.192459 
L 97.911624 176.216952 
L 98.041538 162.222839 
L 98.301366 171.059754 
L 98.43128 166.790854 
L 98.561193 170.88136 
L 98.691107 167.129999 
L 98.821021 105.023783 
L 98.950935 171.456109 
L 99.210762 157.736582 
L 99.47059 176.506086 
L 99.730417 169.946551 
L 99.860331 154.899662 
L 100.120159 180.80226 
L 100.250073 161.427271 
L 100.379986 192.422603 
L 100.5099 151.035494 
L 100.639814 169.174031 
L 100.769728 140.412162 
L 100.899641 164.751832 
L 101.029555 157.963704 
L 101.289383 183.732769 
L 101.419297 74.244601 
L 101.54921 169.829254 
L 101.679124 143.036772 
L 101.809038 181.349357 
L 101.938952 178.335194 
L 102.068865 158.971356 
L 102.328693 169.847717 
L 102.458607 147.057511 
L 102.588521 186.048028 
L 102.718434 170.278309 
L 102.848348 140.729929 
L 103.108176 179.767853 
L 103.23809 176.586136 
L 103.368003 213.15021 
L 103.497917 174.595871 
L 103.627831 169.279987 
L 103.757745 169.695173 
L 104.017572 150.461982 
L 104.2774 179.841054 
L 104.407314 152.795788 
L 104.667141 188.127155 
L 104.797055 161.72549 
L 104.926969 163.594241 
L 105.056883 162.591466 
L 105.186796 179.047665 
L 105.31671 173.806812 
L 105.446624 154.486495 
L 105.576538 189.969254 
L 105.836365 158.296 
L 105.966279 200.535075 
L 106.096193 157.756752 
L 106.35602 168.332036 
L 106.485934 173.015735 
L 106.615848 223.873651 
L 106.745762 161.574588 
L 106.875675 158.160504 
L 107.005589 158.069953 
L 107.135503 194.844668 
L 107.265417 169.023346 
L 107.395331 174.122721 
L 107.525244 158.33836 
L 107.655158 184.604689 
L 107.785072 153.781487 
L 107.914986 163.434178 
L 108.0449 181.828243 
L 108.174813 157.746337 
L 108.304727 170.376256 
L 108.434641 158.52465 
L 108.564555 198.581236 
L 108.694468 155.170295 
L 108.954296 165.329855 
L 109.214124 207.431453 
L 109.344037 163.13944 
L 109.473951 171.030743 
L 109.603865 155.052969 
L 109.733779 196.821536 
L 109.863692 87.733836 
L 109.993606 160.459686 
L 110.12352 158.651485 
L 110.253434 189.959159 
L 110.383348 171.014837 
L 110.513261 126.014288 
L 110.773089 177.427602 
L 110.903003 165.36078 
L 111.032917 170.887813 
L 111.16283 183.394237 
L 111.292744 176.575711 
L 111.422658 184.292206 
L 111.552572 159.66192 
L 111.682485 157.678655 
L 111.812399 124.614008 
L 111.942313 178.379696 
L 112.072227 154.718692 
L 112.202141 192.899857 
L 112.332054 145.055132 
L 112.461968 192.676433 
L 112.591882 170.56481 
L 112.721796 177.768464 
L 112.85171 160.641495 
L 113.111537 173.158004 
L 113.241451 157.498705 
L 113.501278 162.819268 
L 113.631192 192.943066 
L 113.761106 168.497363 
L 113.89102 165.500616 
L 114.020934 176.824004 
L 114.280761 163.540276 
L 114.410675 164.84461 
L 114.540589 171.230742 
L 114.670502 150.46634 
L 114.800416 210.915615 
L 114.93033 141.049337 
L 115.060244 175.532464 
L 115.190158 151.670085 
L 115.320071 171.475355 
L 115.449985 169.230825 
L 115.579899 176.971462 
L 115.709813 203.958301 
L 115.839727 149.162705 
L 116.099554 177.747181 
L 116.229468 173.448902 
L 116.359382 223.778053 
L 116.489295 167.246419 
L 116.619209 180.370196 
L 116.749123 153.239579 
L 116.879037 178.726577 
L 117.008951 140.696739 
L 117.138864 146.627457 
L 117.398692 184.966666 
L 117.528606 173.498206 
L 117.65852 151.783353 
L 117.788433 164.260795 
L 117.918347 154.373585 
L 118.048261 196.490221 
L 118.178175 155.836867 
L 118.308088 187.219356 
L 118.438002 183.169059 
L 118.567916 174.310539 
L 118.69783 175.987962 
L 118.827744 151.5374 
L 118.957657 98.663426 
L 119.087571 180.653028 
L 119.217485 138.4095 
L 119.477312 183.662681 
L 119.607226 143.800103 
L 119.73714 175.983877 
L 119.867054 174.63474 
L 119.996968 161.338852 
L 120.126881 161.469046 
L 120.256795 183.966599 
L 120.516623 170.058546 
L 120.646537 168.93822 
L 120.77645 163.059673 
L 120.906364 163.488614 
L 121.036278 126.243806 
L 121.166192 189.389222 
L 121.296105 189.542266 
L 121.555933 154.997609 
L 121.685847 156.134407 
L 121.945674 173.663005 
L 122.075588 168.437332 
L 122.205502 207.356422 
L 122.46533 168.277383 
L 122.595243 168.050827 
L 122.725157 161.756019 
L 122.855071 173.503857 
L 123.114898 165.017012 
L 123.244812 180.598366 
L 123.50464 153.857263 
L 123.634554 177.035653 
L 123.894381 155.865963 
L 124.024295 177.951075 
L 124.154209 166.64433 
L 124.284122 183.401039 
L 124.54395 155.316829 
L 124.673864 176.649959 
L 124.803778 140.903784 
L 124.933691 153.203993 
L 125.063605 176.950452 
L 125.193519 171.522498 
L 125.323433 171.440353 
L 125.453347 180.936303 
L 125.58326 159.237206 
L 125.713174 177.953792 
L 125.843088 161.006689 
L 125.973002 172.640173 
L 126.102915 166.336582 
L 126.232829 153.806733 
L 126.362743 196.06695 
L 126.622571 150.322674 
L 126.752484 178.886036 
L 126.882398 158.256168 
L 127.012312 159.859248 
L 127.142226 201.627664 
L 127.27214 151.628574 
L 127.402053 209.593536 
L 127.531967 134.349834 
L 127.661881 189.180573 
L 127.791795 183.036969 
L 127.921708 165.481625 
L 128.051622 193.909169 
L 128.181536 159.92176 
L 128.441364 181.087045 
L 128.701191 146.714687 
L 128.831105 176.728575 
L 128.961019 154.521779 
L 129.090932 179.536127 
L 129.220846 165.913877 
L 129.480674 180.37164 
L 129.740501 153.412774 
L 129.870415 185.583953 
L 130.000329 160.554888 
L 130.130243 169.307234 
L 130.260157 153.761693 
L 130.39007 181.222918 
L 130.519984 177.456056 
L 130.649898 133.644694 
L 130.779812 170.773743 
L 130.909725 161.137505 
L 131.169553 173.865428 
L 131.429381 145.257612 
L 131.559294 182.694267 
L 131.819122 166.005333 
L 131.949036 218.52587 
L 132.07895 176.287662 
L 132.208863 173.827785 
L 132.468691 158.743139 
L 132.598605 191.314626 
L 132.728518 181.055383 
L 132.858432 159.96128 
L 133.11826 175.486415 
L 133.248174 130.61737 
L 133.508001 172.644937 
L 133.637915 174.357475 
L 133.767829 156.054517 
L 133.897742 224.586848 
L 134.027656 162.530747 
L 134.15757 181.303751 
L 134.287484 149.69016 
L 134.417398 182.611254 
L 134.547311 178.994163 
L 134.677225 159.237819 
L 134.807139 167.699031 
L 134.937053 185.156428 
L 135.066967 159.443478 
L 135.19688 218.085221 
L 135.326794 153.126405 
L 135.456708 180.959851 
L 135.586622 173.316907 
L 135.716535 175.893289 
L 135.846449 140.128679 
L 136.106277 188.76734 
L 136.236191 139.514901 
L 136.496018 189.82955 
L 136.755846 154.449701 
L 136.88576 198.443768 
L 137.015673 153.564856 
L 137.145587 153.282977 
L 137.405415 177.729482 
L 137.665242 162.295559 
L 137.795156 184.28013 
L 137.92507 157.490138 
L 138.054984 185.514866 
L 138.314811 159.850522 
L 138.444725 223.242853 
L 138.574639 170.622426 
L 138.704552 186.930892 
L 138.834466 155.980401 
L 138.96438 160.718715 
L 139.094294 201.324492 
L 139.354121 168.112273 
L 139.484035 159.994187 
L 139.613949 174.137448 
L 139.743863 145.648136 
L 139.873777 190.235585 
L 140.00369 181.58162 
L 140.133604 145.564831 
L 140.263518 163.63411 
L 140.393432 148.484226 
L 140.523345 167.178077 
L 140.653259 163.980161 
L 140.783173 183.507798 
L 140.913087 158.500743 
L 141.043001 192.999182 
L 141.172914 176.336438 
L 141.302828 174.839437 
L 141.432742 163.158941 
L 141.562656 172.273669 
L 141.69257 126.511571 
L 141.952397 175.5864 
L 142.082311 164.114431 
L 142.212225 172.451392 
L 142.342138 164.861157 
L 142.472052 189.272793 
L 142.601966 159.164391 
L 142.73188 158.009441 
L 143.121621 186.799934 
L 143.251535 138.486748 
L 143.641276 223.034194 
L 143.77119 144.505885 
L 144.031018 173.920024 
L 144.160931 181.565959 
L 144.290845 241.867634 
L 144.420759 166.635707 
L 144.550673 184.916428 
L 144.680587 180.073006 
L 144.8105 143.943561 
L 144.940414 165.337761 
L 145.070328 153.899623 
L 145.330155 186.678373 
L 145.460069 161.011689 
L 145.589983 178.812439 
L 145.719897 179.863385 
L 145.849811 149.423432 
L 145.979724 161.495019 
L 146.109638 189.759359 
L 146.239552 163.522078 
L 146.369466 172.79333 
L 146.49938 159.111182 
L 146.629293 171.990092 
L 146.759207 168.397642 
L 146.889121 194.844639 
L 147.019035 146.982376 
L 147.278862 172.235573 
L 147.408776 197.76927 
L 147.53869 196.461258 
L 147.668604 164.861459 
L 147.798517 173.515282 
L 147.928431 152.375433 
L 148.058345 193.450906 
L 148.188259 146.520283 
L 148.448086 170.891898 
L 148.578 180.085733 
L 148.707914 160.050454 
L 148.837828 186.545132 
L 148.967741 162.129769 
L 149.097655 169.697626 
L 149.227569 170.425503 
L 149.357483 183.316734 
L 149.487397 139.388141 
L 149.61731 179.854177 
L 149.747224 167.629868 
L 150.007052 168.069526 
L 150.136965 146.170798 
L 150.266879 191.149545 
L 150.396793 167.416944 
L 150.526707 164.26688 
L 150.656621 156.34117 
L 150.786534 165.077279 
L 150.916448 166.011192 
L 151.176276 172.839256 
L 151.306189 170.09217 
L 151.566017 184.733694 
L 151.695931 141.449579 
L 152.085672 202.990207 
L 152.3455 158.425589 
L 152.475414 192.940623 
L 152.605327 154.868207 
L 152.735241 191.1301 
L 152.995069 181.728711 
L 153.254896 150.162536 
L 153.38481 204.554597 
L 153.514724 164.703057 
L 153.644638 164.633998 
L 153.774551 178.268238 
L 153.904465 166.429727 
L 154.034379 205.54806 
L 154.164293 170.917862 
L 154.294207 178.048966 
L 154.42412 158.178844 
L 154.683948 182.863405 
L 154.813862 182.437833 
L 154.943775 169.749572 
L 155.073689 182.500307 
L 155.203603 149.186442 
L 155.333517 156.371605 
L 155.593344 193.364384 
L 155.723258 155.558385 
L 155.853172 163.101977 
L 155.983086 132.852381 
L 156.112999 145.003791 
L 156.242913 180.17234 
L 156.372827 164.597977 
L 156.502741 192.99503 
L 156.632655 143.330896 
L 156.762568 172.678995 
L 156.892482 165.270126 
L 157.022396 170.396747 
L 157.15231 168.062016 
L 157.282224 174.149071 
L 157.412137 190.049465 
L 157.542051 144.567133 
L 157.671965 146.967395 
L 157.931792 208.326336 
L 158.061706 155.938739 
L 158.19162 166.385763 
L 158.321534 157.688788 
L 158.451448 203.124448 
L 158.711275 152.413057 
L 158.971103 187.149627 
L 159.101017 155.681295 
L 159.23093 203.402996 
L 159.360844 189.802549 
L 159.620672 155.615821 
L 159.750585 174.644146 
L 159.880499 171.203976 
L 160.010413 175.261925 
L 160.140327 160.983829 
L 160.400154 184.627237 
L 160.530068 117.792198 
L 160.789896 196.818574 
L 160.919809 162.213471 
L 161.049723 168.650803 
L 161.179637 77.969216 
L 161.309551 172.690609 
L 161.439465 177.836033 
L 161.569378 150.032305 
L 161.699292 178.625346 
L 161.829206 181.651425 
L 162.089034 169.843811 
L 162.218947 178.659763 
L 162.348861 159.90775 
L 162.608689 175.5557 
L 162.868516 156.094896 
L 162.99843 182.375019 
L 163.258258 155.561857 
L 163.518085 173.316577 
L 163.647999 178.416999 
L 163.777913 222.167321 
L 163.907827 169.307517 
L 164.03774 161.941347 
L 164.167654 176.155657 
L 164.297568 174.775689 
L 164.427482 175.31121 
L 164.557395 170.555565 
L 164.687309 170.535724 
L 164.817223 170.075226 
L 164.947137 168.587848 
L 165.077051 187.095955 
L 165.206964 155.637237 
L 165.336878 178.379394 
L 165.466792 178.44834 
L 165.596706 182.548195 
L 165.726619 88.217289 
L 165.986447 189.463442 
L 166.246275 157.547763 
L 166.376188 226.479666 
L 166.636016 161.752151 
L 166.76593 185.009762 
L 166.895844 148.976283 
L 167.155671 183.90754 
L 167.285585 179.71152 
L 167.415499 157.667032 
L 167.545412 170.357123 
L 167.675326 114.752931 
L 167.80524 173.484177 
L 167.935154 172.351153 
L 168.065068 186.452779 
L 168.194981 149.578608 
L 168.324895 179.112299 
L 168.584723 160.149656 
L 168.714637 185.336057 
L 168.974464 162.175545 
L 169.104378 181.571328 
L 169.234292 159.047566 
L 169.494119 180.818836 
L 169.624033 124.360168 
L 169.753947 182.361603 
L 170.013774 160.261868 
L 170.143688 177.296229 
L 170.273602 134.268095 
L 170.403516 185.369407 
L 170.663343 149.268483 
L 170.923171 203.91595 
L 171.053085 168.631529 
L 171.182998 185.017686 
L 171.442826 155.053403 
L 171.57274 214.800594 
L 171.832567 163.621695 
L 171.962481 162.670451 
L 172.092395 164.461472 
L 172.222309 215.506084 
L 172.352222 149.860128 
L 172.482136 177.760313 
L 172.61205 180.673963 
L 172.741964 191.63312 
L 172.871878 50.308493 
L 173.001791 171.105746 
L 173.131705 170.901087 
L 173.261619 169.833971 
L 173.391533 164.293305 
L 173.521447 180.592809 
L 173.65136 170.309423 
L 173.781274 179.015833 
L 173.911188 179.449255 
L 174.171015 145.240026 
L 174.300929 185.69341 
L 174.430843 187.233998 
L 174.560757 169.182012 
L 174.690671 135.027445 
L 174.820584 209.550072 
L 175.080412 157.489931 
L 175.340239 174.119947 
L 175.470153 163.285946 
L 175.600067 173.096323 
L 175.729981 160.158882 
L 175.859895 181.316261 
L 176.119722 153.08295 
L 176.249636 192.33892 
L 176.37955 122.867563 
L 176.509464 182.911219 
L 176.639377 174.867164 
L 176.769291 230.699375 
L 176.899205 173.468677 
L 177.159032 179.398801 
L 177.41886 143.320292 
L 177.548774 166.820402 
L 177.678688 165.120299 
L 177.808601 178.781985 
L 177.938515 169.278459 
L 178.068429 198.001006 
L 178.198343 165.842016 
L 178.328257 185.637776 
L 178.45817 187.261074 
L 178.588084 143.74495 
L 178.717998 183.615548 
L 178.847912 159.459129 
L 179.107739 186.713921 
L 179.237653 151.464322 
L 179.367567 204.28069 
L 179.497481 154.552988 
L 179.627394 179.642065 
L 179.757308 164.876828 
L 179.887222 176.044483 
L 180.017136 226.160323 
L 180.147049 165.895499 
L 180.276963 183.723118 
L 180.406877 182.602933 
L 180.536791 151.320467 
L 180.666705 174.265717 
L 181.056446 158.247752 
L 181.18636 180.982248 
L 181.316274 229.255508 
L 181.446187 163.868053 
L 181.576101 190.337645 
L 181.706015 181.995929 
L 181.835929 149.966661 
L 181.965842 156.213957 
L 182.095756 168.073441 
L 182.22567 153.463286 
L 182.355584 163.119883 
L 182.615411 207.236776 
L 182.745325 167.875707 
L 182.875239 173.413165 
L 183.005153 157.23194 
L 183.135067 193.05692 
L 183.26498 106.326305 
L 183.394894 200.374333 
L 183.524808 166.866187 
L 183.654722 165.157999 
L 183.784635 146.73448 
L 183.914549 215.728649 
L 184.044463 175.167478 
L 184.174377 181.173312 
L 184.304291 159.696327 
L 184.434204 161.752944 
L 184.564118 211.459127 
L 184.694032 169.997185 
L 184.823946 173.582058 
L 184.953859 157.197335 
L 185.083773 175.665969 
L 185.213687 226.1979 
L 185.343601 150.752993 
L 185.473515 193.045146 
L 185.603428 170.216061 
L 185.733342 169.586584 
L 185.863256 179.305071 
L 185.99317 169.419634 
L 186.123084 171.641418 
L 186.252997 171.59885 
L 186.382911 168.023326 
L 186.512825 190.609863 
L 186.772652 168.915228 
L 186.902566 185.076264 
L 187.162394 148.905054 
L 187.292308 145.482111 
L 187.422221 181.087177 
L 187.552135 180.891971 
L 187.682049 173.164391 
L 187.811963 197.085961 
L 188.07179 165.629243 
L 188.201704 182.19054 
L 188.331618 152.009343 
L 188.461532 181.591168 
L 188.591445 159.888702 
L 188.721359 175.307464 
L 188.851273 168.177634 
L 189.111101 191.720566 
L 189.241014 188.958658 
L 189.370928 160.103786 
L 189.500842 170.125228 
L 189.630756 166.519457 
L 189.760669 167.102385 
L 189.890583 175.565635 
L 190.020497 175.683403 
L 190.150411 178.610516 
L 190.280325 154.276204 
L 190.540152 178.264201 
L 190.670066 163.286172 
L 190.79998 184.547197 
L 190.929894 158.715204 
L 191.059807 175.203036 
L 191.189721 165.647386 
L 191.449549 175.518142 
L 191.579462 165.629026 
L 191.709376 208.198096 
L 191.969204 157.235789 
L 192.099118 177.228868 
L 192.229031 171.39272 
L 192.358945 180.971059 
L 192.488859 162.646053 
L 193.008514 185.830114 
L 193.138428 177.915055 
L 193.268342 189.382203 
L 193.398255 172.921259 
L 193.528169 131.954271 
L 193.787997 175.456083 
L 194.047824 180.434661 
L 194.307652 113.741156 
L 194.437566 181.311242 
L 194.567479 168.437342 
L 194.827307 166.267853 
L 194.957221 168.934587 
L 195.087135 176.631176 
L 195.217048 154.141123 
L 195.476876 178.496398 
L 195.60679 210.566432 
L 195.736704 175.964527 
L 195.866617 185.89256 
L 195.996531 161.257094 
L 196.126445 175.312521 
L 196.256359 57.67638 
L 196.516186 183.310659 
L 196.6461 181.116678 
L 196.776014 159.360993 
L 196.905928 185.135483 
L 197.035841 172.601474 
L 197.165755 181.042741 
L 197.295669 150.632573 
L 197.425583 181.655538 
L 197.555496 162.254453 
L 197.68541 181.567384 
L 197.815324 178.927877 
L 197.945238 153.879283 
L 198.205065 177.557173 
L 198.334979 174.116834 
L 198.464893 191.43848 
L 198.594807 154.419662 
L 198.724721 160.173883 
L 198.854634 204.589476 
L 198.984548 167.449681 
L 199.114462 169.077857 
L 199.244376 178.302994 
L 199.374289 170.641974 
L 199.504203 176.283672 
L 199.764031 161.451394 
L 199.893945 170.04896 
L 200.023858 190.097542 
L 200.153772 142.529394 
L 200.283686 169.732948 
L 200.4136 172.954676 
L 200.543514 167.264703 
L 200.673427 184.87437 
L 200.803341 105.857797 
L 200.933255 175.691743 
L 201.063169 141.794592 
L 201.322996 191.961689 
L 201.45291 136.272437 
L 201.712738 177.889516 
L 201.842651 183.894294 
L 201.972565 172.998828 
L 202.102479 70.21256 
L 202.232393 183.862557 
L 202.362306 166.147952 
L 202.49222 166.563138 
L 202.622134 165.501654 
L 202.752048 186.132625 
L 203.011875 153.502381 
L 203.141789 166.16717 
L 203.271703 190.08273 
L 203.401617 188.122221 
L 203.791358 164.442556 
L 203.921272 177.1598 
L 204.051186 135.649092 
L 204.181099 174.84673 
L 204.311013 165.357309 
L 204.440927 178.708331 
L 204.570841 165.892471 
L 204.830668 168.220815 
L 204.960582 188.354739 
L 205.22041 154.328866 
L 205.480237 194.766476 
L 205.740065 151.977908 
L 205.999892 193.580978 
L 206.129806 150.156706 
L 206.25972 184.336453 
L 206.389634 178.893017 
L 206.519548 181.588687 
L 206.649461 96.234936 
L 206.909289 184.424852 
L 207.039203 183.472995 
L 207.169116 151.52223 
L 207.29903 159.181807 
L 207.428944 177.227746 
L 207.558858 167.458257 
L 207.688772 175.417846 
L 207.818685 168.273798 
L 207.948599 152.896905 
L 208.078513 186.031989 
L 208.208427 179.19884 
L 208.468254 153.34864 
L 208.598168 191.406186 
L 208.728082 163.031634 
L 208.857996 176.381562 
L 208.987909 162.559003 
L 209.117823 186.967573 
L 209.247737 150.54306 
L 209.377651 175.092418 
L 209.507565 177.630025 
L 209.767392 162.782568 
L 209.897306 182.769704 
L 210.02722 167.517278 
L 210.157134 197.246609 
L 210.287047 149.779484 
L 210.416961 169.834226 
L 210.546875 170.277611 
L 210.676789 172.575699 
L 210.806702 180.724691 
L 210.936616 153.22054 
L 211.196444 185.534159 
L 211.326358 182.814677 
L 211.456271 152.646122 
L 211.716099 177.683008 
L 211.846013 213.707628 
L 212.10584 163.594231 
L 212.235754 170.671031 
L 212.365668 195.181209 
L 212.495582 80.513427 
L 212.625495 192.488388 
L 212.755409 166.531203 
L 213.015237 160.300388 
L 213.145151 201.38991 
L 213.275064 167.032656 
L 213.404978 186.399221 
L 213.534892 164.623431 
L 213.664806 165.313722 
L 213.794719 196.062733 
L 213.924633 158.563614 
L 214.054547 188.231395 
L 214.184461 167.766646 
L 214.314375 178.082552 
L 214.444288 130.311359 
L 214.704116 177.75553 
L 214.83403 182.541403 
L 214.963944 162.080919 
L 215.093857 194.209304 
L 215.223771 153.90217 
L 215.483599 199.882588 
L 215.613512 140.426634 
L 215.743426 166.923737 
L 215.87334 167.381065 
L 216.003254 167.42869 
L 216.133168 184.894616 
L 216.263081 172.02581 
L 216.392995 132.627259 
L 216.652823 175.664572 
L 216.782736 175.092579 
L 216.91265 172.523008 
L 217.042564 165.565486 
L 217.172478 168.763128 
L 217.302392 161.375193 
L 217.432305 175.490066 
L 217.562219 170.329358 
L 217.692133 217.03485 
L 217.951961 167.900331 
L 218.211788 163.011709 
L 218.341702 152.900943 
L 218.471616 163.082297 
L 218.601529 163.737076 
L 218.731443 189.466159 
L 218.861357 178.989813 
L 218.991271 114.867935 
L 219.121185 179.717671 
L 219.251098 181.873339 
L 219.381012 146.05119 
L 219.510926 179.089062 
L 219.64084 181.925766 
L 219.770754 192.39813 
L 219.900667 148.018548 
L 220.160495 177.479378 
L 220.290409 137.363724 
L 220.420322 188.565917 
L 220.550236 153.641481 
L 220.68015 180.300033 
L 220.810064 170.230156 
L 220.939978 121.934924 
L 221.069891 174.255584 
L 221.199805 175.561776 
L 221.329719 166.135263 
L 221.459633 174.49181 
L 221.589546 150.022738 
L 221.849374 192.926235 
L 222.239115 142.595472 
L 222.369029 177.522106 
L 222.498943 156.452929 
L 222.758771 183.455079 
L 222.888684 154.743731 
L 223.148512 200.241931 
L 223.278426 181.785392 
L 223.538253 84.697399 
L 223.798081 172.197788 
L 223.927995 179.877215 
L 224.057908 179.271824 
L 224.187822 173.44411 
L 224.317736 176.666441 
L 224.44765 175.950621 
L 224.577564 176.94731 
L 224.707477 149.924244 
L 224.967305 184.141134 
L 225.097219 140.221249 
L 225.357046 182.937871 
L 225.48696 198.862501 
L 225.616874 157.810717 
L 225.746788 161.776492 
L 225.876701 201.002329 
L 226.136529 134.084862 
L 226.266443 185.15822 
L 226.396356 177.663593 
L 226.52627 151.975172 
L 226.656184 166.401471 
L 226.786098 207.00337 
L 226.916012 151.01155 
L 227.175839 184.159993 
L 227.305753 177.728029 
L 227.435667 204.223349 
L 227.695494 164.760446 
L 227.825408 173.169392 
L 227.955322 171.401427 
L 228.215149 173.069048 
L 228.345063 196.727966 
L 228.474977 155.595858 
L 228.604891 166.781212 
L 228.734805 133.299624 
L 228.864718 177.416923 
L 228.994632 158.125389 
L 229.124546 157.639144 
L 229.25446 193.842497 
L 229.514287 152.837111 
L 229.644201 192.103308 
L 229.904029 167.303525 
L 230.033942 135.006124 
L 230.163856 180.007588 
L 230.423684 161.594551 
L 230.553598 189.012349 
L 230.683511 113.335122 
L 230.813425 173.104889 
L 231.073253 158.419627 
L 231.203166 192.893121 
L 231.33308 131.966837 
L 231.592908 189.241603 
L 231.722822 171.471675 
L 231.852735 170.005808 
L 231.982649 171.731902 
L 232.112563 188.983395 
L 232.372391 168.079781 
L 232.502304 160.216922 
L 232.632218 170.892795 
L 232.762132 156.551668 
L 232.892046 162.149619 
L 233.021959 197.684918 
L 233.281787 156.119029 
L 233.541615 192.629035 
L 233.671528 145.720422 
L 233.931356 199.660249 
L 234.06127 161.937404 
L 234.191183 187.662118 
L 234.451011 164.441028 
L 234.580925 210.434238 
L 234.710839 159.103606 
L 234.840752 177.009181 
L 235.10058 170.603793 
L 235.230494 220.084373 
L 235.360408 160.442271 
L 235.490321 185.905673 
L 235.880063 154.980967 
L 236.009976 159.789047 
L 236.13989 198.085415 
L 236.269804 161.309445 
L 236.529632 171.520828 
L 236.789459 181.719154 
L 236.919373 152.347941 
L 237.049287 179.629083 
L 237.179201 152.308241 
L 237.309114 192.456783 
L 237.439028 159.49847 
L 237.568942 179.863328 
L 237.828769 130.619974 
L 237.958683 178.37012 
L 238.088597 170.58366 
L 238.218511 186.966648 
L 238.348425 163.08058 
L 238.478338 102.767678 
L 238.608252 168.045478 
L 238.86808 178.341694 
L 238.997993 159.983404 
L 239.127907 219.035578 
L 239.387735 152.953832 
L 239.647562 180.975833 
L 239.777476 124.923982 
L 239.90739 167.181888 
L 240.167218 169.886162 
L 240.297131 175.708461 
L 240.427045 207.691595 
L 240.556959 181.340083 
L 240.686873 186.615163 
L 240.816786 176.401148 
L 241.076614 126.523439 
L 241.206528 175.384647 
L 241.336442 165.545938 
L 241.466355 192.764946 
L 241.596269 155.548064 
L 241.726183 165.35428 
L 241.856097 148.347712 
L 241.986011 175.53685 
L 242.115924 175.197686 
L 242.245838 181.556846 
L 242.375752 223.922747 
L 242.505666 149.04187 
L 242.635579 186.495894 
L 242.765493 172.026725 
L 243.025321 184.667607 
L 243.285148 164.557363 
L 243.415062 180.575959 
L 243.544976 159.163014 
L 243.67489 217.342834 
L 243.934717 153.038005 
L 244.064631 158.873446 
L 244.194545 185.144069 
L 244.324459 183.949108 
L 244.454372 166.867876 
L 244.844114 177.836712 
L 244.974028 161.099758 
L 245.103941 188.254669 
L 245.363769 156.368737 
L 245.493683 175.989792 
L 245.623596 221.992182 
L 245.75351 158.502875 
L 246.013338 184.306791 
L 246.143252 165.562156 
L 246.273165 174.167062 
L 246.403079 170.590566 
L 246.532993 172.862502 
L 246.662907 196.02477 
L 246.922734 123.017192 
L 247.052648 185.539027 
L 247.182562 166.777835 
L 247.312476 170.554461 
L 247.442389 169.23591 
L 247.572303 145.738781 
L 247.832131 171.91123 
L 247.962045 162.549418 
L 248.221872 191.253369 
L 248.4817 160.761509 
L 248.611613 183.156794 
L 248.741527 166.154632 
L 248.871441 177.301164 
L 249.001355 171.685693 
L 249.131269 181.330337 
L 249.261182 177.645252 
L 249.391096 158.320189 
L 249.52101 174.476932 
L 249.780838 168.588216 
L 249.910751 176.553474 
L 250.040665 174.222819 
L 250.170579 158.984894 
L 250.300493 193.336081 
L 250.430406 150.348034 
L 250.56032 179.586506 
L 250.820148 161.037341 
L 251.079975 187.699912 
L 251.209889 159.37189 
L 251.339803 176.908582 
L 251.469717 126.997684 
L 251.729544 171.345671 
L 251.859458 185.089642 
L 251.989372 170.669352 
L 252.119286 186.238686 
L 252.249199 160.565587 
L 252.379113 182.077743 
L 252.509027 183.124802 
L 252.638941 170.222193 
L 252.768855 125.317601 
L 252.898768 182.963126 
L 253.158596 163.291163 
L 253.28851 176.444848 
L 253.418423 169.575206 
L 253.548337 184.086368 
L 253.678251 170.891672 
L 253.808165 176.239293 
L 253.938079 168.697682 
L 254.067992 101.719468 
L 254.197906 169.449569 
L 254.32782 168.810781 
L 254.457734 176.593523 
L 254.587648 171.419145 
L 254.717561 194.830733 
L 254.847475 158.723903 
L 254.977389 166.702643 
L 255.107303 194.413576 
L 255.36713 161.285341 
L 255.497044 173.713441 
L 255.626958 164.395847 
L 255.886785 182.427596 
L 256.016699 147.710083 
L 256.146613 146.626985 
L 256.276527 181.802959 
L 256.406441 181.025722 
L 256.536354 173.708856 
L 256.666268 200.554434 
L 256.926096 171.891682 
L 257.056009 166.214209 
L 257.185923 178.300325 
L 257.315837 153.770448 
L 257.445751 168.546997 
L 257.575665 169.081112 
L 257.705578 164.065768 
L 257.835492 193.590506 
L 257.965406 134.523728 
L 258.09532 177.678725 
L 258.225233 175.870561 
L 258.355147 191.07341 
L 258.614975 120.49617 
L 258.744889 191.248973 
L 258.874802 172.62022 
L 259.004716 171.771819 
L 259.13463 162.370515 
L 259.264544 120.501246 
L 259.394458 183.896455 
L 259.524371 160.79135 
L 259.654285 184.422324 
L 259.784199 166.947096 
L 259.914113 123.671009 
L 260.17394 185.740903 
L 260.433768 159.281566 
L 260.563682 196.392642 
L 260.693595 177.557938 
L 260.823509 181.689474 
L 260.953423 158.202732 
L 261.083337 175.396619 
L 261.213251 150.779239 
L 261.343164 170.452759 
L 261.473078 172.228101 
L 261.602992 182.096848 
L 261.732906 159.239102 
L 261.862819 212.528771 
L 261.992733 147.783671 
L 262.122647 197.965806 
L 262.382475 160.138551 
L 262.512388 196.486693 
L 262.642302 180.576063 
L 262.772216 179.360545 
L 262.90213 173.456657 
L 263.032043 149.856732 
L 263.161957 217.109674 
L 263.551699 150.203123 
L 263.681612 181.479249 
L 263.811526 185.987903 
L 263.94144 160.373825 
L 264.071354 202.501377 
L 264.331181 161.143958 
L 264.461095 157.899928 
L 264.591009 164.051645 
L 264.720923 191.357081 
L 264.850836 160.278425 
L 264.98075 169.806913 
L 265.110664 194.188123 
L 265.370492 167.250928 
L 265.630319 183.126576 
L 265.760233 120.550682 
L 265.890147 172.028367 
L 266.020061 164.015031 
L 266.279888 180.902321 
L 266.409802 156.640294 
L 266.539716 183.231816 
L 266.669629 145.4883 
L 266.799543 189.843862 
L 266.929457 175.530794 
L 267.059371 148.479415 
L 267.449112 189.694158 
L 267.579026 156.231222 
L 267.70894 205.887073 
L 267.968767 172.932788 
L 268.098681 176.710122 
L 268.228595 156.851567 
L 268.358509 189.399024 
L 268.488422 172.076085 
L 268.74825 184.022761 
L 269.008078 140.09481 
L 269.137991 182.075215 
L 269.267905 178.060721 
L 269.397819 165.120224 
L 269.527733 170.487411 
L 269.657646 131.197034 
L 269.78756 185.019535 
L 270.047388 155.405228 
L 270.177302 185.716864 
L 270.307215 137.469143 
L 270.567043 170.646681 
L 270.696957 170.104604 
L 270.956784 191.907338 
L 271.086698 154.766336 
L 271.216612 160.611155 
L 271.606353 210.957475 
L 271.736267 166.669463 
L 271.866181 184.066254 
L 272.126008 162.79472 
L 272.255922 170.895993 
L 272.385836 144.412221 
L 272.645663 191.034285 
L 272.775577 175.223112 
L 272.905491 200.847823 
L 273.165319 155.005949 
L 273.55506 226.959807 
L 273.684974 208.535458 
L 273.814888 153.408472 
L 273.944801 154.1275 
L 274.074715 175.001896 
L 274.204629 171.167843 
L 274.334543 171.839199 
L 274.464456 195.140481 
L 274.59437 143.743327 
L 274.724284 181.454021 
L 274.854198 162.53938 
L 274.984112 164.109308 
L 275.114025 159.166844 
L 275.243939 181.900868 
L 275.373853 180.88749 
L 275.503767 205.077532 
L 275.63368 164.38196 
L 275.763594 184.458778 
L 275.893508 187.06935 
L 276.023422 168.230551 
L 276.153336 80.637469 
L 276.283249 169.526308 
L 276.413163 174.587295 
L 276.543077 173.160108 
L 276.672991 169.857859 
L 276.802905 203.635269 
L 276.932818 192.598695 
L 277.062732 159.919647 
L 277.192646 163.832061 
L 277.32256 178.044569 
L 277.452473 140.772515 
L 277.712301 194.065072 
L 277.842215 183.363934 
L 277.972129 138.166943 
L 278.102042 223.233569 
L 278.36187 156.903361 
L 278.491784 161.176214 
L 278.751611 214.790424 
L 278.881525 148.843787 
L 279.011439 191.773682 
L 279.141353 182.361018 
L 279.271266 162.884874 
L 279.40118 202.46529 
L 279.531094 152.642235 
L 279.661008 148.125043 
L 279.790922 189.037463 
L 279.920835 192.767059 
L 280.050749 208.155471 
L 280.180663 184.036932 
L 280.310577 180.971389 
L 280.44049 157.498422 
L 280.570404 170.758176 
L 280.700318 157.826321 
L 280.830232 176.072248 
L 280.960146 152.614838 
L 281.090059 150.288428 
L 281.349887 214.323218 
L 281.479801 164.48503 
L 281.739628 178.439198 
L 281.869542 182.924266 
L 281.999456 107.892007 
L 282.259283 194.936558 
L 282.519111 149.576457 
L 282.649025 201.73881 
L 282.908852 164.049164 
L 283.038766 166.737777 
L 283.16868 190.611694 
L 283.298594 98.498288 
L 283.558421 181.115706 
L 283.688335 186.38339 
L 283.818249 180.010551 
L 283.948163 152.048194 
L 284.078076 178.700217 
L 284.20799 168.360462 
L 284.337904 172.217553 
L 284.467818 167.438105 
L 284.597732 202.693186 
L 284.857559 153.892208 
L 284.987473 193.508465 
L 285.117387 164.746379 
L 285.2473 175.689187 
L 285.377214 169.116434 
L 285.507128 201.793812 
L 285.637042 158.537594 
L 285.766956 173.451063 
L 285.896869 87.582717 
L 286.026783 176.186894 
L 286.156697 186.383984 
L 286.286611 152.67518 
L 286.416525 177.821882 
L 286.546438 167.599583 
L 286.676352 148.55555 
L 286.806266 190.505576 
L 286.93618 193.280287 
L 287.066093 158.424627 
L 287.325921 170.044904 
L 287.455835 168.211569 
L 287.585749 178.847157 
L 287.845576 167.989919 
L 288.105404 187.005461 
L 288.235318 156.660503 
L 288.365231 183.138642 
L 288.495145 87.8722 
L 288.754973 192.926235 
L 288.884886 153.515703 
L 289.0148 160.621466 
L 289.144714 261.216 
L 289.274628 167.80177 
L 289.404542 181.118461 
L 289.534455 171.417136 
L 289.664369 175.292096 
L 289.794283 141.160473 
L 290.05411 187.143749 
L 290.313938 163.006888 
L 290.443852 184.558772 
L 290.703679 162.18996 
L 290.963507 188.100088 
L 291.093421 149.187612 
L 291.223335 178.87862 
L 291.353248 163.503737 
L 291.483162 175.713838 
L 291.613076 170.559565 
L 291.74299 197.089971 
L 292.132731 168.592367 
L 292.262645 160.447233 
L 292.392559 224.179294 
L 292.522472 173.666779 
L 292.652386 189.720141 
L 292.912214 152.727597 
L 293.172041 189.236556 
L 293.301955 187.607956 
L 293.431869 146.352239 
L 293.561783 177.00985 
L 293.691696 115.894975 
L 293.82161 172.771103 
L 293.951524 163.581655 
L 294.081438 178.996814 
L 294.211352 173.432855 
L 294.341265 195.607489 
L 294.471179 179.670764 
L 294.601093 178.146922 
L 295.120748 153.063082 
L 295.250662 189.171469 
L 295.380576 171.989856 
L 295.510489 181.133943 
L 295.640403 154.664426 
L 295.770317 182.974042 
L 295.900231 180.392556 
L 296.030145 150.715105 
L 296.289972 198.062744 
L 296.419886 161.284728 
L 296.679713 184.725722 
L 296.809627 174.659147 
L 296.939541 174.160656 
L 297.069455 175.200139 
L 297.329282 149.030134 
L 297.459196 201.549623 
L 297.719024 164.196773 
L 297.848938 168.304327 
L 297.978851 187.802208 
L 298.108765 169.805102 
L 298.238679 189.294124 
L 298.368593 170.791876 
L 298.498506 184.319716 
L 298.62842 177.163904 
L 298.758334 160.23581 
L 299.018162 187.06935 
L 299.148075 160.645892 
L 299.277989 164.648168 
L 299.407903 181.602895 
L 299.537817 162.964264 
L 299.66773 187.428402 
L 299.797644 184.493223 
L 300.057472 157.001271 
L 300.187386 118.299463 
L 300.317299 173.330039 
L 300.447213 145.34554 
L 300.707041 190.384053 
L 300.836955 203.451574 
L 300.966868 174.512009 
L 301.096782 174.528265 
L 301.226696 167.025259 
L 301.35661 179.791184 
L 301.486523 150.719558 
L 301.746351 191.452481 
L 302.136092 119.335654 
L 302.266006 186.613408 
L 302.39592 190.260491 
L 302.525834 177.110647 
L 302.655748 135.909781 
L 302.785661 181.244928 
L 302.915575 169.204437 
L 303.175403 184.409267 
L 303.305316 167.003976 
L 303.43523 122.492171 
L 303.565144 171.221685 
L 303.695058 146.086285 
L 303.824972 196.574253 
L 303.954885 182.954032 
L 304.084799 143.781763 
L 304.344627 179.412207 
L 304.604454 172.941675 
L 304.734368 152.05693 
L 304.864282 174.748009 
L 304.994196 146.15025 
L 305.124109 190.180205 
L 305.254023 191.83825 
L 305.383937 98.173652 
L 305.643765 190.061314 
L 305.773678 182.483551 
L 306.033506 143.271441 
L 306.16342 162.161969 
L 306.293333 162.752822 
L 306.423247 194.495635 
L 306.683075 151.854148 
L 306.812989 173.62123 
L 306.942902 159.075822 
L 307.072816 189.387099 
L 307.20273 165.201623 
L 307.332644 204.988293 
L 307.462558 177.581495 
L 307.592471 183.396228 
L 307.722385 180.712747 
L 307.852299 152.385659 
L 307.982213 155.108141 
L 308.112126 185.990337 
L 308.24204 148.939565 
L 308.501868 182.415681 
L 308.631782 168.138057 
L 308.891609 190.148148 
L 309.021523 159.575898 
L 309.151437 162.918545 
L 309.28135 187.257018 
L 309.411264 173.420392 
L 309.541178 177.403233 
L 309.671092 190.392138 
L 309.801006 152.101139 
L 309.930919 166.679869 
L 310.060833 166.047165 
L 310.190747 187.309076 
L 310.320661 170.399314 
L 310.450575 172.131672 
L 310.580488 158.642786 
L 310.710402 174.899864 
L 310.840316 174.85957 
L 310.97023 167.550421 
L 311.100143 180.456256 
L 311.230057 146.954526 
L 311.359971 177.571948 
L 311.489885 168.808734 
L 311.619799 172.603021 
L 311.749712 171.048074 
L 311.879626 199.783329 
L 312.00954 160.624023 
L 312.269367 178.522295 
L 312.399281 177.28588 
L 312.529195 189.841136 
L 312.659109 187.573634 
L 312.789023 153.649595 
L 312.918936 161.255406 
L 313.04885 194.063204 
L 313.178764 154.649482 
L 313.438592 191.314041 
L 313.568505 157.493516 
L 313.698419 167.619811 
L 313.828333 209.039345 
L 313.958247 170.483647 
L 314.08816 170.478883 
L 314.218074 178.911914 
L 314.347988 169.451371 
L 314.477902 203.990349 
L 314.607816 187.536811 
L 314.737729 150.904659 
L 314.867643 160.305114 
L 314.997557 193.612809 
L 315.127471 180.036938 
L 315.257385 180.081327 
L 315.387298 154.185106 
L 315.517212 184.556329 
L 315.647126 171.002393 
L 315.77704 191.319334 
L 316.036867 168.531657 
L 316.166781 169.273497 
L 316.296695 183.300224 
L 316.426609 156.145841 
L 316.556522 183.681088 
L 316.686436 167.808742 
L 316.81635 180.470474 
L 316.946264 156.038215 
L 317.076177 206.64947 
L 317.206091 165.810647 
L 317.336005 174.074181 
L 317.465919 175.077446 
L 317.595833 193.229332 
L 317.725746 76.560426 
L 317.85566 192.531541 
L 318.115488 158.015385 
L 318.245402 171.087585 
L 318.375315 144.591643 
L 318.635143 170.5418 
L 318.765057 196.910615 
L 318.89497 167.114414 
L 319.024884 192.32992 
L 319.284712 168.910143 
L 319.414626 186.863531 
L 319.544539 172.528386 
L 319.674453 99.832075 
L 319.934281 172.147069 
L 320.064195 195.452729 
L 320.194108 157.753564 
L 320.324022 230.569625 
L 320.58385 163.157903 
L 320.713763 191.552711 
L 320.973591 139.731909 
L 321.103505 165.974776 
L 321.233419 152.602479 
L 321.363332 198.695268 
L 321.493246 177.072626 
L 321.62316 174.802718 
L 321.753074 186.226129 
L 321.882987 145.567511 
L 322.142815 194.841781 
L 322.272729 182.732504 
L 322.402643 191.496313 
L 322.532556 164.372554 
L 322.66247 163.967453 
L 322.792384 184.964514 
L 322.922298 92.741236 
L 323.052212 194.425085 
L 323.182125 195.214889 
L 323.312039 136.797249 
L 323.441953 154.354225 
L 323.571867 257.374135 
L 323.70178 155.280676 
L 323.831694 168.012222 
L 323.961608 197.59717 
L 324.091522 166.300722 
L 324.221436 216.059247 
L 324.351349 156.175352 
L 324.481263 162.847193 
L 324.611177 191.738454 
L 324.741091 177.607656 
L 324.871005 209.574224 
L 325.000918 182.502033 
L 325.130832 183.108405 
L 325.260746 165.601856 
L 325.39066 167.141226 
L 325.520573 149.587024 
L 325.650487 174.571295 
L 325.780401 167.802053 
L 325.910315 173.672817 
L 326.040229 171.792744 
L 326.170142 210.86283 
L 326.300056 160.452903 
L 326.42997 165.675481 
L 326.559884 181.730069 
L 326.689797 177.995341 
L 326.819711 230.177044 
L 326.949625 189.273331 
L 327.079539 196.906992 
L 327.209453 151.736257 
L 327.339366 152.644311 
L 327.46928 191.214377 
L 327.599194 192.107657 
L 327.729108 172.800877 
L 327.859022 197.711966 
L 327.988935 151.60095 
L 328.118849 19.296 
L 328.248763 198.693542 
L 328.378677 185.561207 
L 328.50859 142.971694 
L 328.638504 163.225708 
L 328.768418 219.700585 
L 329.028246 161.554106 
L 329.158159 164.530881 
L 329.288073 183.817621 
L 329.417987 227.645814 
L 329.547901 184.206183 
L 329.677815 191.398611 
L 329.937642 150.955906 
L 330.067556 185.114473 
L 330.327383 162.652186 
L 330.457297 166.321402 
L 330.587211 196.110867 
L 330.717125 180.526504 
L 330.847039 192.574694 
L 330.976952 145.192817 
L 331.106866 187.704365 
L 331.23678 165.928472 
L 331.366694 198.848482 
L 331.496607 168.462701 
L 331.626521 190.596023 
L 331.756435 187.760933 
L 331.886349 163.144535 
L 332.016263 80.089939 
L 332.146176 181.583385 
L 332.27609 184.471458 
L 332.406004 157.632314 
L 332.535918 176.057569 
L 332.665832 145.412976 
L 332.795745 180.700917 
L 332.925659 160.729555 
L 333.055573 169.023317 
L 333.185487 188.060633 
L 333.3154 144.417127 
L 333.575228 180.344469 
L 333.835056 168.83431 
L 333.964969 179.477341 
L 334.094883 165.568411 
L 334.224797 169.10199 
L 334.354711 185.094586 
L 334.484625 170.511997 
L 334.614538 183.143218 
L 334.744452 180.736767 
L 334.874366 184.83983 
L 335.00428 152.898 
L 335.134193 168.731344 
L 335.264107 232.578787 
L 335.523935 158.778697 
L 335.653849 185.583576 
L 335.783762 164.411725 
L 335.913676 248.234497 
L 336.173504 151.459869 
L 336.303417 152.019117 
L 336.433331 199.662145 
L 336.693159 171.268781 
L 336.823073 165.309476 
L 336.952986 189.430856 
L 337.0829 161.204583 
L 337.212814 229.142372 
L 337.472642 167.917199 
L 337.602555 169.781101 
L 337.732469 157.646503 
L 337.862383 201.700478 
L 337.992297 198.127001 
L 338.12221 175.751387 
L 338.252124 173.007678 
L 338.382038 145.610512 
L 338.511952 186.512498 
L 338.641866 182.340036 
L 338.771779 163.605005 
L 339.031607 178.181197 
L 339.161521 152.341167 
L 339.291435 155.382265 
L 339.551262 193.44784 
L 339.681176 178.881432 
L 339.81109 146.689252 
L 339.941003 175.890675 
L 340.070917 178.612063 
L 340.200831 183.794941 
L 340.330745 155.530195 
L 340.460659 175.397279 
L 340.590572 173.315161 
L 340.720486 196.332196 
L 340.980314 157.704826 
L 341.110227 144.064981 
L 341.240141 176.774134 
L 341.370055 168.883029 
L 341.499969 181.413567 
L 341.629883 163.189631 
L 341.759796 221.085138 
L 341.88971 179.766485 
L 342.019624 180.531023 
L 342.279452 169.402681 
L 342.409365 121.637554 
L 342.669193 192.714322 
L 342.92902 165.74889 
L 343.188848 192.375478 
L 343.318762 173.065208 
L 343.448676 174.570511 
L 343.708503 136.716774 
L 343.838417 169.447768 
L 343.968331 162.973953 
L 344.098245 192.421584 
L 344.228158 175.703376 
L 344.358072 140.726023 
L 344.6179 200.595832 
L 344.877727 147.936375 
L 345.137555 190.312305 
L 345.397382 161.997142 
L 345.527296 166.221285 
L 345.65721 175.61158 
L 345.787124 160.842201 
L 346.176865 184.059329 
L 346.306779 183.18121 
L 346.436693 184.073735 
L 346.566606 175.320918 
L 346.69652 174.395769 
L 346.826434 163.603939 
L 346.956348 170.808508 
L 347.086262 196.615217 
L 347.216175 150.370601 
L 347.605917 218.857109 
L 347.73583 158.866342 
L 347.995658 178.910848 
L 348.125572 177.689754 
L 348.255486 219.300522 
L 348.385399 169.755355 
L 348.515313 168.329696 
L 348.645227 172.244139 
L 348.905054 196.600244 
L 349.034968 182.547101 
L 349.294796 189.093598 
L 349.42471 152.704389 
L 349.554623 70.581423 
L 349.684537 183.616255 
L 349.814451 161.628231 
L 349.944365 178.270993 
L 350.074279 162.300899 
L 350.204192 247.365279 
L 350.46402 156.360699 
L 350.593934 191.936971 
L 350.723847 172.605983 
L 351.243503 189.753727 
L 351.50333 120.994057 
L 351.633244 178.17415 
L 351.763158 163.015794 
L 351.893072 176.517181 
L 352.022985 177.514643 
L 352.152899 187.441978 
L 352.282813 157.56816 
L 352.54264 194.439869 
L 352.672554 174.213498 
L 352.802468 128.826037 
L 352.932382 177.21149 
L 353.062296 154.99825 
L 353.452037 211.177738 
L 353.581951 172.908042 
L 353.711864 187.648599 
L 353.971692 167.411142 
L 354.101606 169.972646 
L 354.23152 181.843753 
L 354.361433 167.883943 
L 354.621261 180.701294 
L 354.751175 105.587579 
L 354.881089 179.289693 
L 355.011002 183.490411 
L 355.140916 151.350601 
L 355.27083 173.687251 
L 355.400744 242.466044 
L 355.660571 154.029081 
L 355.790485 193.573336 
L 356.050313 152.234654 
L 356.180226 138.733192 
L 356.31014 193.20518 
L 356.569968 179.255559 
L 356.699882 191.57191 
L 356.829795 157.483289 
L 356.959709 168.50626 
L 357.089623 201.755461 
L 357.219537 168.978617 
L 357.34945 189.224801 
L 357.479364 160.926648 
L 357.739192 196.511052 
L 357.999019 103.312888 
L 358.258847 180.031202 
L 358.388761 192.888338 
L 358.518674 169.237646 
L 358.648588 212.333141 
L 358.908416 174.111513 
L 359.03833 171.968204 
L 359.168243 164.815156 
L 359.298157 203.922771 
L 359.557985 157.58435 
L 359.687899 186.802132 
L 359.817812 169.590282 
L 359.947726 233.774833 
L 360.07764 153.400604 
L 360.207554 201.465224 
L 360.337467 169.743788 
L 360.467381 174.270123 
L 360.597295 173.675458 
L 360.727209 169.120047 
L 360.857123 169.851594 
L 360.987036 191.679395 
L 361.11695 168.845216 
L 361.246864 171.731204 
L 361.376778 166.055543 
L 361.506692 187.056708 
L 361.636605 166.67067 
L 361.766519 174.127702 
L 361.896433 208.412406 
L 362.026347 156.977685 
L 362.15626 187.96162 
L 362.286174 171.568038 
L 362.416088 182.087328 
L 362.546002 177.940933 
L 362.675916 185.969732 
L 362.805829 151.641348 
L 363.065657 193.240653 
L 363.325484 176.04104 
L 363.455398 188.348371 
L 363.715226 163.133997 
L 363.84514 198.108614 
L 364.104967 170.646248 
L 364.234881 164.421952 
L 364.364795 190.339778 
L 364.494709 161.131042 
L 364.624622 180.926812 
L 364.754536 157.273224 
L 364.88445 180.378131 
L 365.014364 183.30513 
L 365.144277 163.633384 
L 365.274191 196.274156 
L 365.404105 165.258663 
L 365.534019 161.020425 
L 365.793846 188.435393 
L 365.92376 170.80131 
L 366.053674 184.934627 
L 366.183588 153.853282 
L 366.443415 201.161476 
L 366.573329 164.123308 
L 366.703243 191.530352 
L 366.96307 169.443031 
L 367.092984 141.614453 
L 367.222898 173.445317 
L 367.352812 168.68687 
L 367.482726 171.338312 
L 367.612639 187.275726 
L 367.742553 152.778259 
L 367.872467 178.246266 
L 368.002381 163.829552 
L 368.132294 196.442729 
L 368.262208 158.814586 
L 368.392122 201.165052 
L 368.522036 154.777166 
L 368.65195 158.471591 
L 368.781863 173.422977 
L 368.911777 206.03389 
L 369.041691 207.645622 
L 369.171605 163.0789 
L 369.301519 194.896377 
L 369.561346 165.283315 
L 369.69126 129.0318 
L 369.821174 199.530942 
L 369.951087 176.356637 
L 370.081001 174.331785 
L 370.210915 157.735884 
L 370.340829 125.883226 
L 370.470743 158.495064 
L 370.600656 151.761786 
L 370.860484 203.317295 
L 370.990398 213.813123 
L 370.990398 213.813123 
" clip-path="url(#pdca9f5f1a7)" style="fill: none; stroke: #1f77b4; stroke-width: 1.5; stroke-linecap: square"/>
   </g>
   <g id="patch_3">
    <path d="M 30.103125 273.312 
L 30.103125 7.2 
" style="fill: none; stroke: #000000; stroke-width: 0.8; stroke-linejoin: miter; stroke-linecap: square"/>
   </g>
   <g id="patch_4">
    <path d="M 387.223125 273.312 
L 387.223125 7.2 
" style="fill: none; stroke: #000000; stroke-width: 0.8; stroke-linejoin: miter; stroke-linecap: square"/>
   </g>
   <g id="patch_5">
    <path d="M 30.103125 273.312 
L 387.223125 273.312 
" style="fill: none; stroke: #000000; stroke-width: 0.8; stroke-linejoin: miter; stroke-linecap: square"/>
   </g>
   <g id="patch_6">
    <path d="M 30.103125 7.2 
L 387.223125 7.2 
" style="fill: none; stroke: #000000; stroke-width: 0.8; stroke-linejoin: miter; stroke-linecap: square"/>
   </g>
  </g>
 </g>
 <defs>
  <clipPath id="pdca9f5f1a7">
   <rect x="30.103125" y="7.2" width="357.12" height="266.112"/>
  </clipPath>
 </defs>
</svg>
