<?xml version="1.0" encoding="utf-8" standalone="no"?>
<!DOCTYPE svg PUBLIC "-//W3C//DTD SVG 1.1//EN"
  "http://www.w3.org/Graphics/SVG/1.1/DTD/svg11.dtd">
<svg xmlns:xlink="http://www.w3.org/1999/xlink" width="397.6075pt" height="297.190125pt" viewBox="0 0 397.6075 297.190125" xmlns="http://www.w3.org/2000/svg" version="1.1">
 <metadata>
  <rdf:RDF xmlns:dc="http://purl.org/dc/elements/1.1/" xmlns:cc="http://creativecommons.org/ns#" xmlns:rdf="http://www.w3.org/1999/02/22-rdf-syntax-ns#">
   <cc:Work>
    <dc:type rdf:resource="http://purl.org/dc/dcmitype/StillImage"/>
    <dc:date>2026-03-19T03:07:03.808058</dc:date>
    <dc:format>image/svg+xml</dc:format>
    <dc:creator>
     <cc:Agent>
      <dc:title>Matplotlib v3.10.0, https://matplotlib.org/</dc:title>
     </cc:Agent>
    </dc:creator>
   </cc:Work>
  </rdf:RDF>
 </metadata>
 <defs>
  <style type="text/css">*{stroke-linejoin: round; stroke-linecap: butt}</style>
 </defs>
 <g id="figure_1">
  <g id="patch_1">
   <path d="M 0 297.190125 
L 397.6075 297.190125 
L 397.6075 0 
L 0 0 
z
" style="fill: #ffffff"/>
  </g>
  <g id="axes_1">
   <g id="patch_2">
    <path d="M 33.2875 273.312 
L 390.4075 273.312 
L 390.4075 7.2 
L 33.2875 7.2 
z
" style="fill: #ffffff"/>
   </g>
   <g id="patch_3">
    <path d="M 49.520227 273.312 
L 55.028734 273.312 
L 55.028734 258.548505 
L 49.520227 258.548505 
z
" clip-path="url(#p05a241f46d)" style="fill: #7cb5ec; opacity: 0.5; stroke: #ffffff; stroke-linejoin: miter"/>
   </g>
   <g id="patch_4">
    <path d="M 55.028734 273.312 
L 60.53724 273.312 
L 60.53724 256.087922 
L 55.028734 256.087922 
z
" clip-path="url(#p05a241f46d)" style="fill: #7cb5ec; opacity: 0.5; stroke: #ffffff; stroke-linejoin: miter"/>
   </g>
   <g id="patch_5">
    <path d="M 60.53724 273.312 
L 66.045746 273.312 
L 66.045746 248.706175 
L 60.53724 248.706175 
z
" clip-path="url(#p05a241f46d)" style="fill: #7cb5ec; opacity: 0.5; stroke: #ffffff; stroke-linejoin: miter"/>
   </g>
   <g id="patch_6">
    <path d="M 66.045746 273.312 
L 71.554253 273.312 
L 71.554253 253.62734 
L 66.045746 253.62734 
z
" clip-path="url(#p05a241f46d)" style="fill: #7cb5ec; opacity: 0.5; stroke: #ffffff; stroke-linejoin: miter"/>
   </g>
   <g id="patch_7">
    <path d="M 71.554253 273.312 
L 77.062759 273.312 
L 77.062759 229.021515 
L 71.554253 229.021515 
z
" clip-path="url(#p05a241f46d)" style="fill: #7cb5ec; opacity: 0.5; stroke: #ffffff; stroke-linejoin: miter"/>
   </g>
   <g id="patch_8">
    <path d="M 77.062759 273.312 
L 82.571265 273.312 
L 82.571265 201.955107 
L 77.062759 201.955107 
z
" clip-path="url(#p05a241f46d)" style="fill: #7cb5ec; opacity: 0.5; stroke: #ffffff; stroke-linejoin: miter"/>
   </g>
   <g id="patch_9">
    <path d="M 82.571265 273.312 
L 88.079772 273.312 
L 88.079772 194.573359 
L 82.571265 194.573359 
z
" clip-path="url(#p05a241f46d)" style="fill: #7cb5ec; opacity: 0.5; stroke: #ffffff; stroke-linejoin: miter"/>
   </g>
   <g id="patch_10">
    <path d="M 88.079772 273.312 
L 93.588278 273.312 
L 93.588278 184.731029 
L 88.079772 184.731029 
z
" clip-path="url(#p05a241f46d)" style="fill: #7cb5ec; opacity: 0.5; stroke: #ffffff; stroke-linejoin: miter"/>
   </g>
   <g id="patch_11">
    <path d="M 93.588278 273.312 
L 99.096784 273.312 
L 99.096784 177.349282 
L 93.588278 177.349282 
z
" clip-path="url(#p05a241f46d)" style="fill: #7cb5ec; opacity: 0.5; stroke: #ffffff; stroke-linejoin: miter"/>
   </g>
   <g id="patch_12">
    <path d="M 99.096784 273.312 
L 104.60529 273.312 
L 104.60529 110.913553 
L 99.096784 110.913553 
z
" clip-path="url(#p05a241f46d)" style="fill: #7cb5ec; opacity: 0.5; stroke: #ffffff; stroke-linejoin: miter"/>
   </g>
   <g id="patch_13">
    <path d="M 104.60529 273.312 
L 110.113797 273.312 
L 110.113797 130.598214 
L 104.60529 130.598214 
z
" clip-path="url(#p05a241f46d)" style="fill: #7cb5ec; opacity: 0.5; stroke: #ffffff; stroke-linejoin: miter"/>
   </g>
   <g id="patch_14">
    <path d="M 110.113797 273.312 
L 115.622303 273.312 
L 115.622303 108.452971 
L 110.113797 108.452971 
z
" clip-path="url(#p05a241f46d)" style="fill: #7cb5ec; opacity: 0.5; stroke: #ffffff; stroke-linejoin: miter"/>
   </g>
   <g id="patch_15">
    <path d="M 115.622303 273.312 
L 121.130809 273.312 
L 121.130809 83.847146 
L 115.622303 83.847146 
z
" clip-path="url(#p05a241f46d)" style="fill: #7cb5ec; opacity: 0.5; stroke: #ffffff; stroke-linejoin: miter"/>
   </g>
   <g id="patch_16">
    <path d="M 121.130809 273.312 
L 126.639316 273.312 
L 126.639316 86.307728 
L 121.130809 86.307728 
z
" clip-path="url(#p05a241f46d)" style="fill: #7cb5ec; opacity: 0.5; stroke: #ffffff; stroke-linejoin: miter"/>
   </g>
   <g id="patch_17">
    <path d="M 126.639316 273.312 
L 132.147822 273.312 
L 132.147822 78.925981 
L 126.639316 78.925981 
z
" clip-path="url(#p05a241f46d)" style="fill: #7cb5ec; opacity: 0.5; stroke: #ffffff; stroke-linejoin: miter"/>
   </g>
   <g id="patch_18">
    <path d="M 132.147822 273.312 
L 137.656328 273.312 
L 137.656328 44.477825 
L 132.147822 44.477825 
z
" clip-path="url(#p05a241f46d)" style="fill: #7cb5ec; opacity: 0.5; stroke: #ffffff; stroke-linejoin: miter"/>
   </g>
   <g id="patch_19">
    <path d="M 137.656328 273.312 
L 143.164835 273.312 
L 143.164835 115.834718 
L 137.656328 115.834718 
z
" clip-path="url(#p05a241f46d)" style="fill: #7cb5ec; opacity: 0.5; stroke: #ffffff; stroke-linejoin: miter"/>
   </g>
   <g id="patch_20">
    <path d="M 143.164835 273.312 
L 148.673341 273.312 
L 148.673341 147.822291 
L 143.164835 147.822291 
z
" clip-path="url(#p05a241f46d)" style="fill: #7cb5ec; opacity: 0.5; stroke: #ffffff; stroke-linejoin: miter"/>
   </g>
   <g id="patch_21">
    <path d="M 148.673341 273.312 
L 154.181847 273.312 
L 154.181847 137.979961 
L 148.673341 137.979961 
z
" clip-path="url(#p05a241f46d)" style="fill: #7cb5ec; opacity: 0.5; stroke: #ffffff; stroke-linejoin: miter"/>
   </g>
   <g id="patch_22">
    <path d="M 154.181847 273.312 
L 159.690354 273.312 
L 159.690354 182.270447 
L 154.181847 182.270447 
z
" clip-path="url(#p05a241f46d)" style="fill: #7cb5ec; opacity: 0.5; stroke: #ffffff; stroke-linejoin: miter"/>
   </g>
   <g id="patch_23">
    <path d="M 159.690354 273.312 
L 165.19886 273.312 
L 165.19886 211.797437 
L 159.690354 211.797437 
z
" clip-path="url(#p05a241f46d)" style="fill: #7cb5ec; opacity: 0.5; stroke: #ffffff; stroke-linejoin: miter"/>
   </g>
   <g id="patch_24">
    <path d="M 165.19886 273.312 
L 170.707366 273.312 
L 170.707366 224.10035 
L 165.19886 224.10035 
z
" clip-path="url(#p05a241f46d)" style="fill: #7cb5ec; opacity: 0.5; stroke: #ffffff; stroke-linejoin: miter"/>
   </g>
   <g id="patch_25">
    <path d="M 170.707366 273.312 
L 176.215873 273.312 
L 176.215873 238.863845 
L 170.707366 238.863845 
z
" clip-path="url(#p05a241f46d)" style="fill: #7cb5ec; opacity: 0.5; stroke: #ffffff; stroke-linejoin: miter"/>
   </g>
   <g id="patch_26">
    <path d="M 176.215873 273.312 
L 181.724379 273.312 
L 181.724379 246.245592 
L 176.215873 246.245592 
z
" clip-path="url(#p05a241f46d)" style="fill: #7cb5ec; opacity: 0.5; stroke: #ffffff; stroke-linejoin: miter"/>
   </g>
   <g id="patch_27">
    <path d="M 181.724379 273.312 
L 187.232885 273.312 
L 187.232885 248.706175 
L 181.724379 248.706175 
z
" clip-path="url(#p05a241f46d)" style="fill: #7cb5ec; opacity: 0.5; stroke: #ffffff; stroke-linejoin: miter"/>
   </g>
   <g id="patch_28">
    <path d="M 187.232885 273.312 
L 192.741392 273.312 
L 192.741392 258.548505 
L 187.232885 258.548505 
z
" clip-path="url(#p05a241f46d)" style="fill: #7cb5ec; opacity: 0.5; stroke: #ffffff; stroke-linejoin: miter"/>
   </g>
   <g id="patch_29">
    <path d="M 192.741392 273.312 
L 198.249898 273.312 
L 198.249898 265.930252 
L 192.741392 265.930252 
z
" clip-path="url(#p05a241f46d)" style="fill: #7cb5ec; opacity: 0.5; stroke: #ffffff; stroke-linejoin: miter"/>
   </g>
   <g id="patch_30">
    <path d="M 198.249898 273.312 
L 203.758404 273.312 
L 203.758404 270.851417 
L 198.249898 270.851417 
z
" clip-path="url(#p05a241f46d)" style="fill: #7cb5ec; opacity: 0.5; stroke: #ffffff; stroke-linejoin: miter"/>
   </g>
   <g id="patch_31">
    <path d="M 203.758404 273.312 
L 209.266911 273.312 
L 209.266911 270.851417 
L 203.758404 270.851417 
z
" clip-path="url(#p05a241f46d)" style="fill: #7cb5ec; opacity: 0.5; stroke: #ffffff; stroke-linejoin: miter"/>
   </g>
   <g id="patch_32">
    <path d="M 209.266911 273.312 
L 214.775417 273.312 
L 214.775417 270.851417 
L 209.266911 270.851417 
z
" clip-path="url(#p05a241f46d)" style="fill: #7cb5ec; opacity: 0.5; stroke: #ffffff; stroke-linejoin: miter"/>
   </g>
   <g id="patch_33">
    <path d="M 109.46997 273.312 
L 115.846702 273.312 
L 115.846702 268.390835 
L 109.46997 268.390835 
z
" clip-path="url(#p05a241f46d)" style="fill: #a2a2d0; opacity: 0.5; stroke: #ffffff; stroke-linejoin: miter"/>
   </g>
   <g id="patch_34">
    <path d="M 115.846702 273.312 
L 122.223433 273.312 
L 122.223433 273.312 
L 115.846702 273.312 
z
" clip-path="url(#p05a241f46d)" style="fill: #a2a2d0; opacity: 0.5; stroke: #ffffff; stroke-linejoin: miter"/>
   </g>
   <g id="patch_35">
    <path d="M 122.223433 273.312 
L 128.600165 273.312 
L 128.600165 270.851417 
L 122.223433 270.851417 
z
" clip-path="url(#p05a241f46d)" style="fill: #a2a2d0; opacity: 0.5; stroke: #ffffff; stroke-linejoin: miter"/>
   </g>
   <g id="patch_36">
    <path d="M 128.600165 273.312 
L 134.976896 273.312 
L 134.976896 265.930252 
L 128.600165 265.930252 
z
" clip-path="url(#p05a241f46d)" style="fill: #a2a2d0; opacity: 0.5; stroke: #ffffff; stroke-linejoin: miter"/>
   </g>
   <g id="patch_37">
    <path d="M 134.976896 273.312 
L 141.353628 273.312 
L 141.353628 263.46967 
L 134.976896 263.46967 
z
" clip-path="url(#p05a241f46d)" style="fill: #a2a2d0; opacity: 0.5; stroke: #ffffff; stroke-linejoin: miter"/>
   </g>
   <g id="patch_38">
    <path d="M 141.353628 273.312 
L 147.73036 273.312 
L 147.73036 256.087922 
L 141.353628 256.087922 
z
" clip-path="url(#p05a241f46d)" style="fill: #a2a2d0; opacity: 0.5; stroke: #ffffff; stroke-linejoin: miter"/>
   </g>
   <g id="patch_39">
    <path d="M 147.73036 273.312 
L 154.107091 273.312 
L 154.107091 231.482097 
L 147.73036 231.482097 
z
" clip-path="url(#p05a241f46d)" style="fill: #a2a2d0; opacity: 0.5; stroke: #ffffff; stroke-linejoin: miter"/>
   </g>
   <g id="patch_40">
    <path d="M 154.107091 273.312 
L 160.483823 273.312 
L 160.483823 233.94268 
L 154.107091 233.94268 
z
" clip-path="url(#p05a241f46d)" style="fill: #a2a2d0; opacity: 0.5; stroke: #ffffff; stroke-linejoin: miter"/>
   </g>
   <g id="patch_41">
    <path d="M 160.483823 273.312 
L 166.860554 273.312 
L 166.860554 226.560932 
L 160.483823 226.560932 
z
" clip-path="url(#p05a241f46d)" style="fill: #a2a2d0; opacity: 0.5; stroke: #ffffff; stroke-linejoin: miter"/>
   </g>
   <g id="patch_42">
    <path d="M 166.860554 273.312 
L 173.237286 273.312 
L 173.237286 165.046369 
L 166.860554 165.046369 
z
" clip-path="url(#p05a241f46d)" style="fill: #a2a2d0; opacity: 0.5; stroke: #ffffff; stroke-linejoin: miter"/>
   </g>
   <g id="patch_43">
    <path d="M 173.237286 273.312 
L 179.614018 273.312 
L 179.614018 160.125204 
L 173.237286 160.125204 
z
" clip-path="url(#p05a241f46d)" style="fill: #a2a2d0; opacity: 0.5; stroke: #ffffff; stroke-linejoin: miter"/>
   </g>
   <g id="patch_44">
    <path d="M 179.614018 273.312 
L 185.990749 273.312 
L 185.990749 110.913553 
L 179.614018 110.913553 
z
" clip-path="url(#p05a241f46d)" style="fill: #a2a2d0; opacity: 0.5; stroke: #ffffff; stroke-linejoin: miter"/>
   </g>
   <g id="patch_45">
    <path d="M 185.990749 273.312 
L 192.367481 273.312 
L 192.367481 120.755883 
L 185.990749 120.755883 
z
" clip-path="url(#p05a241f46d)" style="fill: #a2a2d0; opacity: 0.5; stroke: #ffffff; stroke-linejoin: miter"/>
   </g>
   <g id="patch_46">
    <path d="M 192.367481 273.312 
L 198.744212 273.312 
L 198.744212 39.55666 
L 192.367481 39.55666 
z
" clip-path="url(#p05a241f46d)" style="fill: #a2a2d0; opacity: 0.5; stroke: #ffffff; stroke-linejoin: miter"/>
   </g>
   <g id="patch_47">
    <path d="M 198.744212 273.312 
L 205.120944 273.312 
L 205.120944 76.465398 
L 198.744212 76.465398 
z
" clip-path="url(#p05a241f46d)" style="fill: #a2a2d0; opacity: 0.5; stroke: #ffffff; stroke-linejoin: miter"/>
   </g>
   <g id="patch_48">
    <path d="M 205.120944 273.312 
L 211.497676 273.312 
L 211.497676 19.872 
L 205.120944 19.872 
z
" clip-path="url(#p05a241f46d)" style="fill: #a2a2d0; opacity: 0.5; stroke: #ffffff; stroke-linejoin: miter"/>
   </g>
   <g id="patch_49">
    <path d="M 211.497676 273.312 
L 217.874407 273.312 
L 217.874407 51.859573 
L 211.497676 51.859573 
z
" clip-path="url(#p05a241f46d)" style="fill: #a2a2d0; opacity: 0.5; stroke: #ffffff; stroke-linejoin: miter"/>
   </g>
   <g id="patch_50">
    <path d="M 217.874407 273.312 
L 224.251139 273.312 
L 224.251139 123.216466 
L 217.874407 123.216466 
z
" clip-path="url(#p05a241f46d)" style="fill: #a2a2d0; opacity: 0.5; stroke: #ffffff; stroke-linejoin: miter"/>
   </g>
   <g id="patch_51">
    <path d="M 224.251139 273.312 
L 230.62787 273.312 
L 230.62787 113.374136 
L 224.251139 113.374136 
z
" clip-path="url(#p05a241f46d)" style="fill: #a2a2d0; opacity: 0.5; stroke: #ffffff; stroke-linejoin: miter"/>
   </g>
   <g id="patch_52">
    <path d="M 230.62787 273.312 
L 237.004602 273.312 
L 237.004602 118.295301 
L 230.62787 118.295301 
z
" clip-path="url(#p05a241f46d)" style="fill: #a2a2d0; opacity: 0.5; stroke: #ffffff; stroke-linejoin: miter"/>
   </g>
   <g id="patch_53">
    <path d="M 237.004602 273.312 
L 243.381334 273.312 
L 243.381334 174.888699 
L 237.004602 174.888699 
z
" clip-path="url(#p05a241f46d)" style="fill: #a2a2d0; opacity: 0.5; stroke: #ffffff; stroke-linejoin: miter"/>
   </g>
   <g id="patch_54">
    <path d="M 243.381334 273.312 
L 249.758065 273.312 
L 249.758065 162.585786 
L 243.381334 162.585786 
z
" clip-path="url(#p05a241f46d)" style="fill: #a2a2d0; opacity: 0.5; stroke: #ffffff; stroke-linejoin: miter"/>
   </g>
   <g id="patch_55">
    <path d="M 249.758065 273.312 
L 256.134797 273.312 
L 256.134797 236.403262 
L 249.758065 236.403262 
z
" clip-path="url(#p05a241f46d)" style="fill: #a2a2d0; opacity: 0.5; stroke: #ffffff; stroke-linejoin: miter"/>
   </g>
   <g id="patch_56">
    <path d="M 256.134797 273.312 
L 262.511529 273.312 
L 262.511529 226.560932 
L 256.134797 226.560932 
z
" clip-path="url(#p05a241f46d)" style="fill: #a2a2d0; opacity: 0.5; stroke: #ffffff; stroke-linejoin: miter"/>
   </g>
   <g id="patch_57">
    <path d="M 262.511529 273.312 
L 268.88826 273.312 
L 268.88826 241.324427 
L 262.511529 241.324427 
z
" clip-path="url(#p05a241f46d)" style="fill: #a2a2d0; opacity: 0.5; stroke: #ffffff; stroke-linejoin: miter"/>
   </g>
   <g id="patch_58">
    <path d="M 268.88826 273.312 
L 275.264992 273.312 
L 275.264992 246.245592 
L 268.88826 246.245592 
z
" clip-path="url(#p05a241f46d)" style="fill: #a2a2d0; opacity: 0.5; stroke: #ffffff; stroke-linejoin: miter"/>
   </g>
   <g id="patch_59">
    <path d="M 275.264992 273.312 
L 281.641723 273.312 
L 281.641723 256.087922 
L 275.264992 256.087922 
z
" clip-path="url(#p05a241f46d)" style="fill: #a2a2d0; opacity: 0.5; stroke: #ffffff; stroke-linejoin: miter"/>
   </g>
   <g id="patch_60">
    <path d="M 281.641723 273.312 
L 288.018455 273.312 
L 288.018455 268.390835 
L 281.641723 268.390835 
z
" clip-path="url(#p05a241f46d)" style="fill: #a2a2d0; opacity: 0.5; stroke: #ffffff; stroke-linejoin: miter"/>
   </g>
   <g id="patch_61">
    <path d="M 288.018455 273.312 
L 294.395187 273.312 
L 294.395187 273.312 
L 288.018455 273.312 
z
" clip-path="url(#p05a241f46d)" style="fill: #a2a2d0; opacity: 0.5; stroke: #ffffff; stroke-linejoin: miter"/>
   </g>
   <g id="patch_62">
    <path d="M 294.395187 273.312 
L 300.771918 273.312 
L 300.771918 263.46967 
L 294.395187 263.46967 
z
" clip-path="url(#p05a241f46d)" style="fill: #a2a2d0; opacity: 0.5; stroke: #ffffff; stroke-linejoin: miter"/>
   </g>
   <g id="patch_63">
    <path d="M 209.707364 273.312 
L 215.189611 273.312 
L 215.189611 265.930252 
L 209.707364 265.930252 
z
" clip-path="url(#p05a241f46d)" style="fill: #47adc7; opacity: 0.5; stroke: #ffffff; stroke-linejoin: miter"/>
   </g>
   <g id="patch_64">
    <path d="M 215.189611 273.312 
L 220.671858 273.312 
L 220.671858 270.851417 
L 215.189611 270.851417 
z
" clip-path="url(#p05a241f46d)" style="fill: #47adc7; opacity: 0.5; stroke: #ffffff; stroke-linejoin: miter"/>
   </g>
   <g id="patch_65">
    <path d="M 220.671858 273.312 
L 226.154105 273.312 
L 226.154105 270.851417 
L 220.671858 270.851417 
z
" clip-path="url(#p05a241f46d)" style="fill: #47adc7; opacity: 0.5; stroke: #ffffff; stroke-linejoin: miter"/>
   </g>
   <g id="patch_66">
    <path d="M 226.154105 273.312 
L 231.636352 273.312 
L 231.636352 258.548505 
L 226.154105 258.548505 
z
" clip-path="url(#p05a241f46d)" style="fill: #47adc7; opacity: 0.5; stroke: #ffffff; stroke-linejoin: miter"/>
   </g>
   <g id="patch_67">
    <path d="M 231.636352 273.312 
L 237.118599 273.312 
L 237.118599 248.706175 
L 231.636352 248.706175 
z
" clip-path="url(#p05a241f46d)" style="fill: #47adc7; opacity: 0.5; stroke: #ffffff; stroke-linejoin: miter"/>
   </g>
   <g id="patch_68">
    <path d="M 237.118599 273.312 
L 242.600846 273.312 
L 242.600846 233.94268 
L 237.118599 233.94268 
z
" clip-path="url(#p05a241f46d)" style="fill: #47adc7; opacity: 0.5; stroke: #ffffff; stroke-linejoin: miter"/>
   </g>
   <g id="patch_69">
    <path d="M 242.600846 273.312 
L 248.083093 273.312 
L 248.083093 226.560932 
L 242.600846 226.560932 
z
" clip-path="url(#p05a241f46d)" style="fill: #47adc7; opacity: 0.5; stroke: #ffffff; stroke-linejoin: miter"/>
   </g>
   <g id="patch_70">
    <path d="M 248.083093 273.312 
L 253.56534 273.312 
L 253.56534 236.403262 
L 248.083093 236.403262 
z
" clip-path="url(#p05a241f46d)" style="fill: #47adc7; opacity: 0.5; stroke: #ffffff; stroke-linejoin: miter"/>
   </g>
   <g id="patch_71">
    <path d="M 253.56534 273.312 
L 259.047587 273.312 
L 259.047587 204.415689 
L 253.56534 204.415689 
z
" clip-path="url(#p05a241f46d)" style="fill: #47adc7; opacity: 0.5; stroke: #ffffff; stroke-linejoin: miter"/>
   </g>
   <g id="patch_72">
    <path d="M 259.047587 273.312 
L 264.529834 273.312 
L 264.529834 174.888699 
L 259.047587 174.888699 
z
" clip-path="url(#p05a241f46d)" style="fill: #47adc7; opacity: 0.5; stroke: #ffffff; stroke-linejoin: miter"/>
   </g>
   <g id="patch_73">
    <path d="M 264.529834 273.312 
L 270.012081 273.312 
L 270.012081 162.585786 
L 264.529834 162.585786 
z
" clip-path="url(#p05a241f46d)" style="fill: #47adc7; opacity: 0.5; stroke: #ffffff; stroke-linejoin: miter"/>
   </g>
   <g id="patch_74">
    <path d="M 270.012081 273.312 
L 275.494327 273.312 
L 275.494327 120.755883 
L 270.012081 120.755883 
z
" clip-path="url(#p05a241f46d)" style="fill: #47adc7; opacity: 0.5; stroke: #ffffff; stroke-linejoin: miter"/>
   </g>
   <g id="patch_75">
    <path d="M 275.494327 273.312 
L 280.976574 273.312 
L 280.976574 125.677049 
L 275.494327 125.677049 
z
" clip-path="url(#p05a241f46d)" style="fill: #47adc7; opacity: 0.5; stroke: #ffffff; stroke-linejoin: miter"/>
   </g>
   <g id="patch_76">
    <path d="M 280.976574 273.312 
L 286.458821 273.312 
L 286.458821 115.834718 
L 280.976574 115.834718 
z
" clip-path="url(#p05a241f46d)" style="fill: #47adc7; opacity: 0.5; stroke: #ffffff; stroke-linejoin: miter"/>
   </g>
   <g id="patch_77">
    <path d="M 286.458821 273.312 
L 291.941068 273.312 
L 291.941068 83.847146 
L 286.458821 83.847146 
z
" clip-path="url(#p05a241f46d)" style="fill: #47adc7; opacity: 0.5; stroke: #ffffff; stroke-linejoin: miter"/>
   </g>
   <g id="patch_78">
    <path d="M 291.941068 273.312 
L 297.423315 273.312 
L 297.423315 96.150058 
L 291.941068 96.150058 
z
" clip-path="url(#p05a241f46d)" style="fill: #47adc7; opacity: 0.5; stroke: #ffffff; stroke-linejoin: miter"/>
   </g>
   <g id="patch_79">
    <path d="M 297.423315 273.312 
L 302.905562 273.312 
L 302.905562 93.689476 
L 297.423315 93.689476 
z
" clip-path="url(#p05a241f46d)" style="fill: #47adc7; opacity: 0.5; stroke: #ffffff; stroke-linejoin: miter"/>
   </g>
   <g id="patch_80">
    <path d="M 302.905562 273.312 
L 308.387809 273.312 
L 308.387809 66.623068 
L 302.905562 66.623068 
z
" clip-path="url(#p05a241f46d)" style="fill: #47adc7; opacity: 0.5; stroke: #ffffff; stroke-linejoin: miter"/>
   </g>
   <g id="patch_81">
    <path d="M 308.387809 273.312 
L 313.870056 273.312 
L 313.870056 130.598214 
L 308.387809 130.598214 
z
" clip-path="url(#p05a241f46d)" style="fill: #47adc7; opacity: 0.5; stroke: #ffffff; stroke-linejoin: miter"/>
   </g>
   <g id="patch_82">
    <path d="M 313.870056 273.312 
L 319.352303 273.312 
L 319.352303 123.216466 
L 313.870056 123.216466 
z
" clip-path="url(#p05a241f46d)" style="fill: #47adc7; opacity: 0.5; stroke: #ffffff; stroke-linejoin: miter"/>
   </g>
   <g id="patch_83">
    <path d="M 319.352303 273.312 
L 324.83455 273.312 
L 324.83455 140.440544 
L 319.352303 140.440544 
z
" clip-path="url(#p05a241f46d)" style="fill: #47adc7; opacity: 0.5; stroke: #ffffff; stroke-linejoin: miter"/>
   </g>
   <g id="patch_84">
    <path d="M 324.83455 273.312 
L 330.316797 273.312 
L 330.316797 199.494524 
L 324.83455 199.494524 
z
" clip-path="url(#p05a241f46d)" style="fill: #47adc7; opacity: 0.5; stroke: #ffffff; stroke-linejoin: miter"/>
   </g>
   <g id="patch_85">
    <path d="M 330.316797 273.312 
L 335.799044 273.312 
L 335.799044 187.191612 
L 330.316797 187.191612 
z
" clip-path="url(#p05a241f46d)" style="fill: #47adc7; opacity: 0.5; stroke: #ffffff; stroke-linejoin: miter"/>
   </g>
   <g id="patch_86">
    <path d="M 335.799044 273.312 
L 341.281291 273.312 
L 341.281291 219.179184 
L 335.799044 219.179184 
z
" clip-path="url(#p05a241f46d)" style="fill: #47adc7; opacity: 0.5; stroke: #ffffff; stroke-linejoin: miter"/>
   </g>
   <g id="patch_87">
    <path d="M 341.281291 273.312 
L 346.763538 273.312 
L 346.763538 211.797437 
L 341.281291 211.797437 
z
" clip-path="url(#p05a241f46d)" style="fill: #47adc7; opacity: 0.5; stroke: #ffffff; stroke-linejoin: miter"/>
   </g>
   <g id="patch_88">
    <path d="M 346.763538 273.312 
L 352.245785 273.312 
L 352.245785 233.94268 
L 346.763538 233.94268 
z
" clip-path="url(#p05a241f46d)" style="fill: #47adc7; opacity: 0.5; stroke: #ffffff; stroke-linejoin: miter"/>
   </g>
   <g id="patch_89">
    <path d="M 352.245785 273.312 
L 357.728032 273.312 
L 357.728032 243.78501 
L 352.245785 243.78501 
z
" clip-path="url(#p05a241f46d)" style="fill: #47adc7; opacity: 0.5; stroke: #ffffff; stroke-linejoin: miter"/>
   </g>
   <g id="patch_90">
    <path d="M 357.728032 273.312 
L 363.210279 273.312 
L 363.210279 265.930252 
L 357.728032 265.930252 
z
" clip-path="url(#p05a241f46d)" style="fill: #47adc7; opacity: 0.5; stroke: #ffffff; stroke-linejoin: miter"/>
   </g>
   <g id="patch_91">
    <path d="M 363.210279 273.312 
L 368.692526 273.312 
L 368.692526 265.930252 
L 363.210279 265.930252 
z
" clip-path="url(#p05a241f46d)" style="fill: #47adc7; opacity: 0.5; stroke: #ffffff; stroke-linejoin: miter"/>
   </g>
   <g id="patch_92">
    <path d="M 368.692526 273.312 
L 374.174773 273.312 
L 374.174773 261.009087 
L 368.692526 261.009087 
z
" clip-path="url(#p05a241f46d)" style="fill: #47adc7; opacity: 0.5; stroke: #ffffff; stroke-linejoin: miter"/>
   </g>
   <g id="matplotlib.axis_1">
    <g id="xtick_1">
     <g id="line2d_1">
      <defs>
       <path id="m32480a81e9" d="M 0 0 
L 0 3.5 
" style="stroke: #000000; stroke-width: 0.8"/>
      </defs>
      <g>
       <use xlink:href="#m32480a81e9" x="36.929572" y="273.312" style="stroke: #000000; stroke-width: 0.8"/>
      </g>
     </g>
     <g id="text_1">
      <!-- 0 -->
      <g transform="translate(33.748322 287.910437) scale(0.1 -0.1)">
       <defs>
        <path id="DejaVuSans-30" d="M 2034 4250 
Q 1547 4250 1301 3770 
Q 1056 3291 1056 2328 
Q 1056 1369 1301 889 
Q 1547 409 2034 409 
Q 2525 409 2770 889 
Q 3016 1369 3016 2328 
Q 3016 3291 2770 3770 
Q 2525 4250 2034 4250 
z
M 2034 4750 
Q 2819 4750 3233 4129 
Q 3647 3509 3647 2328 
Q 3647 1150 3233 529 
Q 2819 -91 2034 -91 
Q 1250 -91 836 529 
Q 422 1150 422 2328 
Q 422 3509 836 4129 
Q 1250 4750 2034 4750 
z
" transform="scale(0.015625)"/>
       </defs>
       <use xlink:href="#DejaVuSans-30"/>
      </g>
     </g>
    </g>
    <g id="xtick_2">
     <g id="line2d_2">
      <g>
       <use xlink:href="#m32480a81e9" x="94.408761" y="273.312" style="stroke: #000000; stroke-width: 0.8"/>
      </g>
     </g>
     <g id="text_2">
      <!-- 2 -->
      <g transform="translate(91.227511 287.910437) scale(0.1 -0.1)">
       <defs>
        <path id="DejaVuSans-32" d="M 1228 531 
L 3431 531 
L 3431 0 
L 469 0 
L 469 531 
Q 828 903 1448 1529 
Q 2069 2156 2228 2338 
Q 2531 2678 2651 2914 
Q 2772 3150 2772 3378 
Q 2772 3750 2511 3984 
Q 2250 4219 1831 4219 
Q 1534 4219 1204 4116 
Q 875 4013 500 3803 
L 500 4441 
Q 881 4594 1212 4672 
Q 1544 4750 1819 4750 
Q 2544 4750 2975 4387 
Q 3406 4025 3406 3419 
Q 3406 3131 3298 2873 
Q 3191 2616 2906 2266 
Q 2828 2175 2409 1742 
Q 1991 1309 1228 531 
z
" transform="scale(0.015625)"/>
       </defs>
       <use xlink:href="#DejaVuSans-32"/>
      </g>
     </g>
    </g>
    <g id="xtick_3">
     <g id="line2d_3">
      <g>
       <use xlink:href="#m32480a81e9" x="151.887951" y="273.312" style="stroke: #000000; stroke-width: 0.8"/>
      </g>
     </g>
     <g id="text_3">
      <!-- 4 -->
      <g transform="translate(148.706701 287.910437) scale(0.1 -0.1)">
       <defs>
        <path id="DejaVuSans-34" d="M 2419 4116 
L 825 1625 
L 2419 1625 
L 2419 4116 
z
M 2253 4666 
L 3047 4666 
L 3047 1625 
L 3713 1625 
L 3713 1100 
L 3047 1100 
L 3047 0 
L 2419 0 
L 2419 1100 
L 313 1100 
L 313 1709 
L 2253 4666 
z
" transform="scale(0.015625)"/>
       </defs>
       <use xlink:href="#DejaVuSans-34"/>
      </g>
     </g>
    </g>
    <g id="xtick_4">
     <g id="line2d_4">
      <g>
       <use xlink:href="#m32480a81e9" x="209.36714" y="273.312" style="stroke: #000000; stroke-width: 0.8"/>
      </g>
     </g>
     <g id="text_4">
      <!-- 6 -->
      <g transform="translate(206.18589 287.910437) scale(0.1 -0.1)">
       <defs>
        <path id="DejaVuSans-36" d="M 2113 2584 
Q 1688 2584 1439 2293 
Q 1191 2003 1191 1497 
Q 1191 994 1439 701 
Q 1688 409 2113 409 
Q 2538 409 2786 701 
Q 3034 994 3034 1497 
Q 3034 2003 2786 2293 
Q 2538 2584 2113 2584 
z
M 3366 4563 
L 3366 3988 
Q 3128 4100 2886 4159 
Q 2644 4219 2406 4219 
Q 1781 4219 1451 3797 
Q 1122 3375 1075 2522 
Q 1259 2794 1537 2939 
Q 1816 3084 2150 3084 
Q 2853 3084 3261 2657 
Q 3669 2231 3669 1497 
Q 3669 778 3244 343 
Q 2819 -91 2113 -91 
Q 1303 -91 875 529 
Q 447 1150 447 2328 
Q 447 3434 972 4092 
Q 1497 4750 2381 4750 
Q 2619 4750 2861 4703 
Q 3103 4656 3366 4563 
z
" transform="scale(0.015625)"/>
       </defs>
       <use xlink:href="#DejaVuSans-36"/>
      </g>
     </g>
    </g>
    <g id="xtick_5">
     <g id="line2d_5">
      <g>
       <use xlink:href="#m32480a81e9" x="266.846329" y="273.312" style="stroke: #000000; stroke-width: 0.8"/>
      </g>
     </g>
     <g id="text_5">
      <!-- 8 -->
      <g transform="translate(263.665079 287.910437) scale(0.1 -0.1)">
       <defs>
        <path id="DejaVuSans-38" d="M 2034 2216 
Q 1584 2216 1326 1975 
Q 1069 1734 1069 1313 
Q 1069 891 1326 650 
Q 1584 409 2034 409 
Q 2484 409 2743 651 
Q 3003 894 3003 1313 
Q 3003 1734 2745 1975 
Q 2488 2216 2034 2216 
z
M 1403 2484 
Q 997 2584 770 2862 
Q 544 3141 544 3541 
Q 544 4100 942 4425 
Q 1341 4750 2034 4750 
Q 2731 4750 3128 4425 
Q 3525 4100 3525 3541 
Q 3525 3141 3298 2862 
Q 3072 2584 2669 2484 
Q 3125 2378 3379 2068 
Q 3634 1759 3634 1313 
Q 3634 634 3220 271 
Q 2806 -91 2034 -91 
Q 1263 -91 848 271 
Q 434 634 434 1313 
Q 434 1759 690 2068 
Q 947 2378 1403 2484 
z
M 1172 3481 
Q 1172 3119 1398 2916 
Q 1625 2713 2034 2713 
Q 2441 2713 2670 2916 
Q 2900 3119 2900 3481 
Q 2900 3844 2670 4047 
Q 2441 4250 2034 4250 
Q 1625 4250 1398 4047 
Q 1172 3844 1172 3481 
z
" transform="scale(0.015625)"/>
       </defs>
       <use xlink:href="#DejaVuSans-38"/>
      </g>
     </g>
    </g>
    <g id="xtick_6">
     <g id="line2d_6">
      <g>
       <use xlink:href="#m32480a81e9" x="324.325518" y="273.312" style="stroke: #000000; stroke-width: 0.8"/>
      </g>
     </g>
     <g id="text_6">
      <!-- 10 -->
      <g transform="translate(317.963018 287.910437) scale(0.1 -0.1)">
       <defs>
        <path id="DejaVuSans-31" d="M 794 531 
L 1825 531 
L 1825 4091 
L 703 3866 
L 703 4441 
L 1819 4666 
L 2450 4666 
L 2450 531 
L 3481 531 
L 3481 0 
L 794 0 
L 794 531 
z
" transform="scale(0.015625)"/>
       </defs>
       <use xlink:href="#DejaVuSans-31"/>
       <use xlink:href="#DejaVuSans-30" transform="translate(63.623047 0)"/>
      </g>
     </g>
    </g>
    <g id="xtick_7">
     <g id="line2d_7">
      <g>
       <use xlink:href="#m32480a81e9" x="381.804707" y="273.312" style="stroke: #000000; stroke-width: 0.8"/>
      </g>
     </g>
     <g id="text_7">
      <!-- 12 -->
      <g transform="translate(375.442207 287.910437) scale(0.1 -0.1)">
       <use xlink:href="#DejaVuSans-31"/>
       <use xlink:href="#DejaVuSans-32" transform="translate(63.623047 0)"/>
      </g>
     </g>
    </g>
   </g>
   <g id="matplotlib.axis_2">
    <g id="ytick_1">
     <g id="line2d_8">
      <defs>
       <path id="m708278d57b" d="M 0 0 
L -3.5 0 
" style="stroke: #000000; stroke-width: 0.8"/>
      </defs>
      <g>
       <use xlink:href="#m708278d57b" x="33.2875" y="273.312" style="stroke: #000000; stroke-width: 0.8"/>
      </g>
     </g>
     <g id="text_8">
      <!-- 0 -->
      <g transform="translate(19.925 277.111219) scale(0.1 -0.1)">
       <use xlink:href="#DejaVuSans-30"/>
      </g>
     </g>
    </g>
    <g id="ytick_2">
     <g id="line2d_9">
      <g>
       <use xlink:href="#m708278d57b" x="33.2875" y="224.10035" style="stroke: #000000; stroke-width: 0.8"/>
      </g>
     </g>
     <g id="text_9">
      <!-- 20 -->
      <g transform="translate(13.5625 227.899568) scale(0.1 -0.1)">
       <use xlink:href="#DejaVuSans-32"/>
       <use xlink:href="#DejaVuSans-30" transform="translate(63.623047 0)"/>
      </g>
     </g>
    </g>
    <g id="ytick_3">
     <g id="line2d_10">
      <g>
       <use xlink:href="#m708278d57b" x="33.2875" y="174.888699" style="stroke: #000000; stroke-width: 0.8"/>
      </g>
     </g>
     <g id="text_10">
      <!-- 40 -->
      <g transform="translate(13.5625 178.687918) scale(0.1 -0.1)">
       <use xlink:href="#DejaVuSans-34"/>
       <use xlink:href="#DejaVuSans-30" transform="translate(63.623047 0)"/>
      </g>
     </g>
    </g>
    <g id="ytick_4">
     <g id="line2d_11">
      <g>
       <use xlink:href="#m708278d57b" x="33.2875" y="125.677049" style="stroke: #000000; stroke-width: 0.8"/>
      </g>
     </g>
     <g id="text_11">
      <!-- 60 -->
      <g transform="translate(13.5625 129.476267) scale(0.1 -0.1)">
       <use xlink:href="#DejaVuSans-36"/>
       <use xlink:href="#DejaVuSans-30" transform="translate(63.623047 0)"/>
      </g>
     </g>
    </g>
    <g id="ytick_5">
     <g id="line2d_12">
      <g>
       <use xlink:href="#m708278d57b" x="33.2875" y="76.465398" style="stroke: #000000; stroke-width: 0.8"/>
      </g>
     </g>
     <g id="text_12">
      <!-- 80 -->
      <g transform="translate(13.5625 80.264617) scale(0.1 -0.1)">
       <use xlink:href="#DejaVuSans-38"/>
       <use xlink:href="#DejaVuSans-30" transform="translate(63.623047 0)"/>
      </g>
     </g>
    </g>
    <g id="ytick_6">
     <g id="line2d_13">
      <g>
       <use xlink:href="#m708278d57b" x="33.2875" y="27.253748" style="stroke: #000000; stroke-width: 0.8"/>
      </g>
     </g>
     <g id="text_13">
      <!-- 100 -->
      <g transform="translate(7.2 31.052966) scale(0.1 -0.1)">
       <use xlink:href="#DejaVuSans-31"/>
       <use xlink:href="#DejaVuSans-30" transform="translate(63.623047 0)"/>
       <use xlink:href="#DejaVuSans-30" transform="translate(127.246094 0)"/>
      </g>
     </g>
    </g>
   </g>
   <g id="patch_93">
    <path d="M 33.2875 273.312 
L 33.2875 7.2 
" style="fill: none; stroke: #000000; stroke-width: 0.8; stroke-linejoin: miter; stroke-linecap: square"/>
   </g>
   <g id="patch_94">
    <path d="M 390.4075 273.312 
L 390.4075 7.2 
" style="fill: none; stroke: #000000; stroke-width: 0.8; stroke-linejoin: miter; stroke-linecap: square"/>
   </g>
   <g id="patch_95">
    <path d="M 33.2875 273.312 
L 390.4075 273.312 
" style="fill: none; stroke: #000000; stroke-width: 0.8; stroke-linejoin: miter; stroke-linecap: square"/>
   </g>
   <g id="patch_96">
    <path d="M 33.2875 7.2 
L 390.4075 7.2 
" style="fill: none; stroke: #000000; stroke-width: 0.8; stroke-linejoin: miter; stroke-linecap: square"/>
   </g>
  </g>
 </g>
 <defs>
  <clipPath id="p05a241f46d">
   <rect x="33.2875" y="7.2" width="357.12" height="266.112"/>
  </clipPath>
 </defs>
</svg>
