<?xml version="1.0" encoding="utf-8" standalone="no"?>
<!DOCTYPE svg PUBLIC "-//W3C//DTD SVG 1.1//EN"
  "http://www.w3.org/Graphics/SVG/1.1/DTD/svg11.dtd">
<svg xmlns:xlink="http://www.w3.org/1999/xlink" width="403.97pt" height="297.190125pt" viewBox="0 0 403.97 297.190125" xmlns="http://www.w3.org/2000/svg" version="1.1">
 <metadata>
  <rdf:RDF xmlns:dc="http://purl.org/dc/elements/1.1/" xmlns:cc="http://creativecommons.org/ns#" xmlns:rdf="http://www.w3.org/1999/02/22-rdf-syntax-ns#">
   <cc:Work>
    <dc:type rdf:resource="http://purl.org/dc/dcmitype/StillImage"/>
    <dc:date>2026-03-19T02:54:15.580432</dc:date>
    <dc:format>image/svg+xml</dc:format>
    <dc:creator>
     <cc:Agent>
      <dc:title>Matplotlib v3.10.0, https://matplotlib.org/</dc:title>
     </cc:Agent>
    </dc:creator>
   </cc:Work>
  </rdf:RDF>
 </metadata>
 <defs>
  <style type="text/css">*{stroke-linejoin: round; stroke-linecap: butt}</style>
 </defs>
 <g id="figure_1">
  <g id="patch_1">
   <path d="M 0 297.190125 
L 403.97 297.190125 
L 403.97 0 
L 0 0 
z
" style="fill: #ffffff"/>
  </g>
  <g id="axes_1">
   <g id="patch_2">
    <path d="M 39.65 273.312 
L 396.77 273.312 
L 396.77 7.2 
L 39.65 7.2 
z
" style="fill: #ffffff"/>
   </g>
   <g id="patch_3">
    <path d="M 55.882727 273.312 
L 66.704545 273.312 
L 66.704545 270.010677 
L 55.882727 270.010677 
z
" clip-path="url(#p2f74c0f428)" style="fill: #1f77b4"/>
   </g>
   <g id="patch_4">
    <path d="M 66.704545 273.312 
L 77.526364 273.312 
L 77.526364 270.772521 
L 66.704545 270.772521 
z
" clip-path="url(#p2f74c0f428)" style="fill: #1f77b4"/>
   </g>
   <g id="patch_5">
    <path d="M 77.526364 273.312 
L 88.348182 273.312 
L 88.348182 270.518573 
L 77.526364 270.518573 
z
" clip-path="url(#p2f74c0f428)" style="fill: #1f77b4"/>
   </g>
   <g id="patch_6">
    <path d="M 88.348182 273.312 
L 99.17 273.312 
L 99.17 264.931719 
L 88.348182 264.931719 
z
" clip-path="url(#p2f74c0f428)" style="fill: #1f77b4"/>
   </g>
   <g id="patch_7">
    <path d="M 99.17 273.312 
L 109.991818 273.312 
L 109.991818 258.075126 
L 99.17 258.075126 
z
" clip-path="url(#p2f74c0f428)" style="fill: #1f77b4"/>
   </g>
   <g id="patch_8">
    <path d="M 109.991818 273.312 
L 120.813636 273.312 
L 120.813636 248.171158 
L 109.991818 248.171158 
z
" clip-path="url(#p2f74c0f428)" style="fill: #1f77b4"/>
   </g>
   <g id="patch_9">
    <path d="M 120.813636 273.312 
L 131.635455 273.312 
L 131.635455 231.156649 
L 120.813636 231.156649 
z
" clip-path="url(#p2f74c0f428)" style="fill: #1f77b4"/>
   </g>
   <g id="patch_10">
    <path d="M 131.635455 273.312 
L 142.457273 273.312 
L 142.457273 206.523703 
L 131.635455 206.523703 
z
" clip-path="url(#p2f74c0f428)" style="fill: #1f77b4"/>
   </g>
   <g id="patch_11">
    <path d="M 142.457273 273.312 
L 153.279091 273.312 
L 153.279091 175.288112 
L 142.457273 175.288112 
z
" clip-path="url(#p2f74c0f428)" style="fill: #1f77b4"/>
   </g>
   <g id="patch_12">
    <path d="M 153.279091 273.312 
L 164.100909 273.312 
L 164.100909 144.560417 
L 153.279091 144.560417 
z
" clip-path="url(#p2f74c0f428)" style="fill: #1f77b4"/>
   </g>
   <g id="patch_13">
    <path d="M 164.100909 273.312 
L 174.922727 273.312 
L 174.922727 102.912962 
L 164.100909 102.912962 
z
" clip-path="url(#p2f74c0f428)" style="fill: #1f77b4"/>
   </g>
   <g id="patch_14">
    <path d="M 174.922727 273.312 
L 185.744545 273.312 
L 185.744545 65.074725 
L 174.922727 65.074725 
z
" clip-path="url(#p2f74c0f428)" style="fill: #1f77b4"/>
   </g>
   <g id="patch_15">
    <path d="M 185.744545 273.312 
L 196.566364 273.312 
L 196.566364 41.203623 
L 185.744545 41.203623 
z
" clip-path="url(#p2f74c0f428)" style="fill: #1f77b4"/>
   </g>
   <g id="patch_16">
    <path d="M 196.566364 273.312 
L 207.388182 273.312 
L 207.388182 33.077291 
L 196.566364 33.077291 
z
" clip-path="url(#p2f74c0f428)" style="fill: #1f77b4"/>
   </g>
   <g id="patch_17">
    <path d="M 207.388182 273.312 
L 218.21 273.312 
L 218.21 25.966749 
L 207.388182 25.966749 
z
" clip-path="url(#p2f74c0f428)" style="fill: #1f77b4"/>
   </g>
   <g id="patch_18">
    <path d="M 218.21 273.312 
L 229.031818 273.312 
L 229.031818 19.872 
L 218.21 19.872 
z
" clip-path="url(#p2f74c0f428)" style="fill: #1f77b4"/>
   </g>
   <g id="patch_19">
    <path d="M 229.031818 273.312 
L 239.853636 273.312 
L 239.853636 61.519455 
L 229.031818 61.519455 
z
" clip-path="url(#p2f74c0f428)" style="fill: #1f77b4"/>
   </g>
   <g id="patch_20">
    <path d="M 239.853636 273.312 
L 250.675455 273.312 
L 250.675455 91.739255 
L 239.853636 91.739255 
z
" clip-path="url(#p2f74c0f428)" style="fill: #1f77b4"/>
   </g>
   <g id="patch_21">
    <path d="M 250.675455 273.312 
L 261.497273 273.312 
L 261.497273 139.481459 
L 250.675455 139.481459 
z
" clip-path="url(#p2f74c0f428)" style="fill: #1f77b4"/>
   </g>
   <g id="patch_22">
    <path d="M 261.497273 273.312 
L 272.319091 273.312 
L 272.319091 174.780216 
L 261.497273 174.780216 
z
" clip-path="url(#p2f74c0f428)" style="fill: #1f77b4"/>
   </g>
   <g id="patch_23">
    <path d="M 272.319091 273.312 
L 283.140909 273.312 
L 283.140909 203.222381 
L 272.319091 203.222381 
z
" clip-path="url(#p2f74c0f428)" style="fill: #1f77b4"/>
   </g>
   <g id="patch_24">
    <path d="M 283.140909 273.312 
L 293.962727 273.312 
L 293.962727 231.918493 
L 283.140909 231.918493 
z
" clip-path="url(#p2f74c0f428)" style="fill: #1f77b4"/>
   </g>
   <g id="patch_25">
    <path d="M 293.962727 273.312 
L 304.784545 273.312 
L 304.784545 245.377731 
L 293.962727 245.377731 
z
" clip-path="url(#p2f74c0f428)" style="fill: #1f77b4"/>
   </g>
   <g id="patch_26">
    <path d="M 304.784545 273.312 
L 315.606364 273.312 
L 315.606364 259.598814 
L 304.784545 259.598814 
z
" clip-path="url(#p2f74c0f428)" style="fill: #1f77b4"/>
   </g>
   <g id="patch_27">
    <path d="M 315.606364 273.312 
L 326.428182 273.312 
L 326.428182 263.66198 
L 315.606364 263.66198 
z
" clip-path="url(#p2f74c0f428)" style="fill: #1f77b4"/>
   </g>
   <g id="patch_28">
    <path d="M 326.428182 273.312 
L 337.25 273.312 
L 337.25 270.518573 
L 326.428182 270.518573 
z
" clip-path="url(#p2f74c0f428)" style="fill: #1f77b4"/>
   </g>
   <g id="patch_29">
    <path d="M 337.25 273.312 
L 348.071818 273.312 
L 348.071818 271.280417 
L 337.25 271.280417 
z
" clip-path="url(#p2f74c0f428)" style="fill: #1f77b4"/>
   </g>
   <g id="patch_30">
    <path d="M 348.071818 273.312 
L 358.893636 273.312 
L 358.893636 272.804104 
L 348.071818 272.804104 
z
" clip-path="url(#p2f74c0f428)" style="fill: #1f77b4"/>
   </g>
   <g id="patch_31">
    <path d="M 358.893636 273.312 
L 369.715455 273.312 
L 369.715455 272.804104 
L 358.893636 272.804104 
z
" clip-path="url(#p2f74c0f428)" style="fill: #1f77b4"/>
   </g>
   <g id="patch_32">
    <path d="M 369.715455 273.312 
L 380.537273 273.312 
L 380.537273 273.058052 
L 369.715455 273.058052 
z
" clip-path="url(#p2f74c0f428)" style="fill: #1f77b4"/>
   </g>
   <g id="matplotlib.axis_1">
    <g id="xtick_1">
     <g id="line2d_1">
      <defs>
       <path id="mc91dee7a0e" d="M 0 0 
L 0 3.5 
" style="stroke: #000000; stroke-width: 0.8"/>
      </defs>
      <g>
       <use xlink:href="#mc91dee7a0e" x="78.474541" y="273.312" style="stroke: #000000; stroke-width: 0.8"/>
      </g>
     </g>
     <g id="text_1">
      <!-- −3 -->
      <g transform="translate(71.103447 287.910437) scale(0.1 -0.1)">
       <defs>
        <path id="DejaVuSans-2212" d="M 678 2272 
L 4684 2272 
L 4684 1741 
L 678 1741 
L 678 2272 
z
" transform="scale(0.015625)"/>
        <path id="DejaVuSans-33" d="M 2597 2516 
Q 3050 2419 3304 2112 
Q 3559 1806 3559 1356 
Q 3559 666 3084 287 
Q 2609 -91 1734 -91 
Q 1441 -91 1130 -33 
Q 819 25 488 141 
L 488 750 
Q 750 597 1062 519 
Q 1375 441 1716 441 
Q 2309 441 2620 675 
Q 2931 909 2931 1356 
Q 2931 1769 2642 2001 
Q 2353 2234 1838 2234 
L 1294 2234 
L 1294 2753 
L 1863 2753 
Q 2328 2753 2575 2939 
Q 2822 3125 2822 3475 
Q 2822 3834 2567 4026 
Q 2313 4219 1838 4219 
Q 1578 4219 1281 4162 
Q 984 4106 628 3988 
L 628 4550 
Q 988 4650 1302 4700 
Q 1616 4750 1894 4750 
Q 2613 4750 3031 4423 
Q 3450 4097 3450 3541 
Q 3450 3153 3228 2886 
Q 3006 2619 2597 2516 
z
" transform="scale(0.015625)"/>
       </defs>
       <use xlink:href="#DejaVuSans-2212"/>
       <use xlink:href="#DejaVuSans-33" transform="translate(83.789062 0)"/>
      </g>
     </g>
    </g>
    <g id="xtick_2">
     <g id="line2d_2">
      <g>
       <use xlink:href="#mc91dee7a0e" x="121.552557" y="273.312" style="stroke: #000000; stroke-width: 0.8"/>
      </g>
     </g>
     <g id="text_2">
      <!-- −2 -->
      <g transform="translate(114.181463 287.910437) scale(0.1 -0.1)">
       <defs>
        <path id="DejaVuSans-32" d="M 1228 531 
L 3431 531 
L 3431 0 
L 469 0 
L 469 531 
Q 828 903 1448 1529 
Q 2069 2156 2228 2338 
Q 2531 2678 2651 2914 
Q 2772 3150 2772 3378 
Q 2772 3750 2511 3984 
Q 2250 4219 1831 4219 
Q 1534 4219 1204 4116 
Q 875 4013 500 3803 
L 500 4441 
Q 881 4594 1212 4672 
Q 1544 4750 1819 4750 
Q 2544 4750 2975 4387 
Q 3406 4025 3406 3419 
Q 3406 3131 3298 2873 
Q 3191 2616 2906 2266 
Q 2828 2175 2409 1742 
Q 1991 1309 1228 531 
z
" transform="scale(0.015625)"/>
       </defs>
       <use xlink:href="#DejaVuSans-2212"/>
       <use xlink:href="#DejaVuSans-32" transform="translate(83.789062 0)"/>
      </g>
     </g>
    </g>
    <g id="xtick_3">
     <g id="line2d_3">
      <g>
       <use xlink:href="#mc91dee7a0e" x="164.630573" y="273.312" style="stroke: #000000; stroke-width: 0.8"/>
      </g>
     </g>
     <g id="text_3">
      <!-- −1 -->
      <g transform="translate(157.259479 287.910437) scale(0.1 -0.1)">
       <defs>
        <path id="DejaVuSans-31" d="M 794 531 
L 1825 531 
L 1825 4091 
L 703 3866 
L 703 4441 
L 1819 4666 
L 2450 4666 
L 2450 531 
L 3481 531 
L 3481 0 
L 794 0 
L 794 531 
z
" transform="scale(0.015625)"/>
       </defs>
       <use xlink:href="#DejaVuSans-2212"/>
       <use xlink:href="#DejaVuSans-31" transform="translate(83.789062 0)"/>
      </g>
     </g>
    </g>
    <g id="xtick_4">
     <g id="line2d_4">
      <g>
       <use xlink:href="#mc91dee7a0e" x="207.708589" y="273.312" style="stroke: #000000; stroke-width: 0.8"/>
      </g>
     </g>
     <g id="text_4">
      <!-- 0 -->
      <g transform="translate(204.527339 287.910437) scale(0.1 -0.1)">
       <defs>
        <path id="DejaVuSans-30" d="M 2034 4250 
Q 1547 4250 1301 3770 
Q 1056 3291 1056 2328 
Q 1056 1369 1301 889 
Q 1547 409 2034 409 
Q 2525 409 2770 889 
Q 3016 1369 3016 2328 
Q 3016 3291 2770 3770 
Q 2525 4250 2034 4250 
z
M 2034 4750 
Q 2819 4750 3233 4129 
Q 3647 3509 3647 2328 
Q 3647 1150 3233 529 
Q 2819 -91 2034 -91 
Q 1250 -91 836 529 
Q 422 1150 422 2328 
Q 422 3509 836 4129 
Q 1250 4750 2034 4750 
z
" transform="scale(0.015625)"/>
       </defs>
       <use xlink:href="#DejaVuSans-30"/>
      </g>
     </g>
    </g>
    <g id="xtick_5">
     <g id="line2d_5">
      <g>
       <use xlink:href="#mc91dee7a0e" x="250.786605" y="273.312" style="stroke: #000000; stroke-width: 0.8"/>
      </g>
     </g>
     <g id="text_5">
      <!-- 1 -->
      <g transform="translate(247.605355 287.910437) scale(0.1 -0.1)">
       <use xlink:href="#DejaVuSans-31"/>
      </g>
     </g>
    </g>
    <g id="xtick_6">
     <g id="line2d_6">
      <g>
       <use xlink:href="#mc91dee7a0e" x="293.864621" y="273.312" style="stroke: #000000; stroke-width: 0.8"/>
      </g>
     </g>
     <g id="text_6">
      <!-- 2 -->
      <g transform="translate(290.683371 287.910437) scale(0.1 -0.1)">
       <use xlink:href="#DejaVuSans-32"/>
      </g>
     </g>
    </g>
    <g id="xtick_7">
     <g id="line2d_7">
      <g>
       <use xlink:href="#mc91dee7a0e" x="336.942637" y="273.312" style="stroke: #000000; stroke-width: 0.8"/>
      </g>
     </g>
     <g id="text_7">
      <!-- 3 -->
      <g transform="translate(333.761387 287.910437) scale(0.1 -0.1)">
       <use xlink:href="#DejaVuSans-33"/>
      </g>
     </g>
    </g>
    <g id="xtick_8">
     <g id="line2d_8">
      <g>
       <use xlink:href="#mc91dee7a0e" x="380.020653" y="273.312" style="stroke: #000000; stroke-width: 0.8"/>
      </g>
     </g>
     <g id="text_8">
      <!-- 4 -->
      <g transform="translate(376.839403 287.910437) scale(0.1 -0.1)">
       <defs>
        <path id="DejaVuSans-34" d="M 2419 4116 
L 825 1625 
L 2419 1625 
L 2419 4116 
z
M 2253 4666 
L 3047 4666 
L 3047 1625 
L 3713 1625 
L 3713 1100 
L 3047 1100 
L 3047 0 
L 2419 0 
L 2419 1100 
L 313 1100 
L 313 1709 
L 2253 4666 
z
" transform="scale(0.015625)"/>
       </defs>
       <use xlink:href="#DejaVuSans-34"/>
      </g>
     </g>
    </g>
   </g>
   <g id="matplotlib.axis_2">
    <g id="ytick_1">
     <g id="line2d_9">
      <defs>
       <path id="mc4ca5d7b30" d="M 0 0 
L -3.5 0 
" style="stroke: #000000; stroke-width: 0.8"/>
      </defs>
      <g>
       <use xlink:href="#mc4ca5d7b30" x="39.65" y="273.312" style="stroke: #000000; stroke-width: 0.8"/>
      </g>
     </g>
     <g id="text_9">
      <!-- 0 -->
      <g transform="translate(26.2875 277.111219) scale(0.1 -0.1)">
       <use xlink:href="#DejaVuSans-30"/>
      </g>
     </g>
    </g>
    <g id="ytick_2">
     <g id="line2d_10">
      <g>
       <use xlink:href="#mc4ca5d7b30" x="39.65" y="222.522421" style="stroke: #000000; stroke-width: 0.8"/>
      </g>
     </g>
     <g id="text_10">
      <!-- 200 -->
      <g transform="translate(13.5625 226.32164) scale(0.1 -0.1)">
       <use xlink:href="#DejaVuSans-32"/>
       <use xlink:href="#DejaVuSans-30" transform="translate(63.623047 0)"/>
       <use xlink:href="#DejaVuSans-30" transform="translate(127.246094 0)"/>
      </g>
     </g>
    </g>
    <g id="ytick_3">
     <g id="line2d_11">
      <g>
       <use xlink:href="#mc4ca5d7b30" x="39.65" y="171.732842" style="stroke: #000000; stroke-width: 0.8"/>
      </g>
     </g>
     <g id="text_11">
      <!-- 400 -->
      <g transform="translate(13.5625 175.53206) scale(0.1 -0.1)">
       <use xlink:href="#DejaVuSans-34"/>
       <use xlink:href="#DejaVuSans-30" transform="translate(63.623047 0)"/>
       <use xlink:href="#DejaVuSans-30" transform="translate(127.246094 0)"/>
      </g>
     </g>
    </g>
    <g id="ytick_4">
     <g id="line2d_12">
      <g>
       <use xlink:href="#mc4ca5d7b30" x="39.65" y="120.943263" style="stroke: #000000; stroke-width: 0.8"/>
      </g>
     </g>
     <g id="text_12">
      <!-- 600 -->
      <g transform="translate(13.5625 124.742481) scale(0.1 -0.1)">
       <defs>
        <path id="DejaVuSans-36" d="M 2113 2584 
Q 1688 2584 1439 2293 
Q 1191 2003 1191 1497 
Q 1191 994 1439 701 
Q 1688 409 2113 409 
Q 2538 409 2786 701 
Q 3034 994 3034 1497 
Q 3034 2003 2786 2293 
Q 2538 2584 2113 2584 
z
M 3366 4563 
L 3366 3988 
Q 3128 4100 2886 4159 
Q 2644 4219 2406 4219 
Q 1781 4219 1451 3797 
Q 1122 3375 1075 2522 
Q 1259 2794 1537 2939 
Q 1816 3084 2150 3084 
Q 2853 3084 3261 2657 
Q 3669 2231 3669 1497 
Q 3669 778 3244 343 
Q 2819 -91 2113 -91 
Q 1303 -91 875 529 
Q 447 1150 447 2328 
Q 447 3434 972 4092 
Q 1497 4750 2381 4750 
Q 2619 4750 2861 4703 
Q 3103 4656 3366 4563 
z
" transform="scale(0.015625)"/>
       </defs>
       <use xlink:href="#DejaVuSans-36"/>
       <use xlink:href="#DejaVuSans-30" transform="translate(63.623047 0)"/>
       <use xlink:href="#DejaVuSans-30" transform="translate(127.246094 0)"/>
      </g>
     </g>
    </g>
    <g id="ytick_5">
     <g id="line2d_13">
      <g>
       <use xlink:href="#mc4ca5d7b30" x="39.65" y="70.153683" style="stroke: #000000; stroke-width: 0.8"/>
      </g>
     </g>
     <g id="text_13">
      <!-- 800 -->
      <g transform="translate(13.5625 73.952902) scale(0.1 -0.1)">
       <defs>
        <path id="DejaVuSans-38" d="M 2034 2216 
Q 1584 2216 1326 1975 
Q 1069 1734 1069 1313 
Q 1069 891 1326 650 
Q 1584 409 2034 409 
Q 2484 409 2743 651 
Q 3003 894 3003 1313 
Q 3003 1734 2745 1975 
Q 2488 2216 2034 2216 
z
M 1403 2484 
Q 997 2584 770 2862 
Q 544 3141 544 3541 
Q 544 4100 942 4425 
Q 1341 4750 2034 4750 
Q 2731 4750 3128 4425 
Q 3525 4100 3525 3541 
Q 3525 3141 3298 2862 
Q 3072 2584 2669 2484 
Q 3125 2378 3379 2068 
Q 3634 1759 3634 1313 
Q 3634 634 3220 271 
Q 2806 -91 2034 -91 
Q 1263 -91 848 271 
Q 434 634 434 1313 
Q 434 1759 690 2068 
Q 947 2378 1403 2484 
z
M 1172 3481 
Q 1172 3119 1398 2916 
Q 1625 2713 2034 2713 
Q 2441 2713 2670 2916 
Q 2900 3119 2900 3481 
Q 2900 3844 2670 4047 
Q 2441 4250 2034 4250 
Q 1625 4250 1398 4047 
Q 1172 3844 1172 3481 
z
" transform="scale(0.015625)"/>
       </defs>
       <use xlink:href="#DejaVuSans-38"/>
       <use xlink:href="#DejaVuSans-30" transform="translate(63.623047 0)"/>
       <use xlink:href="#DejaVuSans-30" transform="translate(127.246094 0)"/>
      </g>
     </g>
    </g>
    <g id="ytick_6">
     <g id="line2d_14">
      <g>
       <use xlink:href="#mc4ca5d7b30" x="39.65" y="19.364104" style="stroke: #000000; stroke-width: 0.8"/>
      </g>
     </g>
     <g id="text_14">
      <!-- 1000 -->
      <g transform="translate(7.2 23.163323) scale(0.1 -0.1)">
       <use xlink:href="#DejaVuSans-31"/>
       <use xlink:href="#DejaVuSans-30" transform="translate(63.623047 0)"/>
       <use xlink:href="#DejaVuSans-30" transform="translate(127.246094 0)"/>
       <use xlink:href="#DejaVuSans-30" transform="translate(190.869141 0)"/>
      </g>
     </g>
    </g>
   </g>
   <g id="patch_33">
    <path d="M 39.65 273.312 
L 39.65 7.2 
" style="fill: none; stroke: #000000; stroke-width: 0.8; stroke-linejoin: miter; stroke-linecap: square"/>
   </g>
   <g id="patch_34">
    <path d="M 396.77 273.312 
L 396.77 7.2 
" style="fill: none; stroke: #000000; stroke-width: 0.8; stroke-linejoin: miter; stroke-linecap: square"/>
   </g>
   <g id="patch_35">
    <path d="M 39.65 273.312 
L 396.77 273.312 
" style="fill: none; stroke: #000000; stroke-width: 0.8; stroke-linejoin: miter; stroke-linecap: square"/>
   </g>
   <g id="patch_36">
    <path d="M 39.65 7.2 
L 396.77 7.2 
" style="fill: none; stroke: #000000; stroke-width: 0.8; stroke-linejoin: miter; stroke-linecap: square"/>
   </g>
  </g>
 </g>
 <defs>
  <clipPath id="p2f74c0f428">
   <rect x="39.65" y="7.2" width="357.12" height="266.112"/>
  </clipPath>
 </defs>
</svg>
