<?xml version="1.0" encoding="utf-8" standalone="no"?>
<!DOCTYPE svg PUBLIC "-//W3C//DTD SVG 1.1//EN"
  "http://www.w3.org/Graphics/SVG/1.1/DTD/svg11.dtd">
<svg xmlns:xlink="http://www.w3.org/1999/xlink" width="394.423125pt" height="297.190125pt" viewBox="0 0 394.423125 297.190125" xmlns="http://www.w3.org/2000/svg" version="1.1">
 <metadata>
  <rdf:RDF xmlns:dc="http://purl.org/dc/elements/1.1/" xmlns:cc="http://creativecommons.org/ns#" xmlns:rdf="http://www.w3.org/1999/02/22-rdf-syntax-ns#">
   <cc:Work>
    <dc:type rdf:resource="http://purl.org/dc/dcmitype/StillImage"/>
    <dc:date>2026-03-21T11:49:04.695690</dc:date>
    <dc:format>image/svg+xml</dc:format>
    <dc:creator>
     <cc:Agent>
      <dc:title>Matplotlib v3.10.0, https://matplotlib.org/</dc:title>
     </cc:Agent>
    </dc:creator>
   </cc:Work>
  </rdf:RDF>
 </metadata>
 <defs>
  <style type="text/css">*{stroke-linejoin: round; stroke-linecap: butt}</style>
 </defs>
 <g id="figure_1">
  <g id="patch_1">
   <path d="M 0 297.190125 
L 394.423125 297.190125 
L 394.423125 0 
L 0 0 
z
" style="fill: #ffffff"/>
  </g>
  <g id="axes_1">
   <g id="patch_2">
    <path d="M 30.103125 273.312 
L 387.223125 273.312 
L 387.223125 7.2 
L 30.103125 7.2 
z
" style="fill: #ffffff"/>
   </g>
   <g id="matplotlib.axis_1">
    <g id="xtick_1">
     <g id="line2d_1">
      <defs>
       <path id="m46156a018e" d="M 0 0 
L 0 3.5 
" style="stroke: #000000; stroke-width: 0.8"/>
      </defs>
      <g>
       <use xlink:href="#m46156a018e" x="46.335852" y="273.312" style="stroke: #000000; stroke-width: 0.8"/>
      </g>
     </g>
     <g id="text_1">
      <!-- 0 -->
      <g transform="translate(43.154602 287.910437) scale(0.1 -0.1)">
       <defs>
        <path id="DejaVuSans-30" d="M 2034 4250 
Q 1547 4250 1301 3770 
Q 1056 3291 1056 2328 
Q 1056 1369 1301 889 
Q 1547 409 2034 409 
Q 2525 409 2770 889 
Q 3016 1369 3016 2328 
Q 3016 3291 2770 3770 
Q 2525 4250 2034 4250 
z
M 2034 4750 
Q 2819 4750 3233 4129 
Q 3647 3509 3647 2328 
Q 3647 1150 3233 529 
Q 2819 -91 2034 -91 
Q 1250 -91 836 529 
Q 422 1150 422 2328 
Q 422 3509 836 4129 
Q 1250 4750 2034 4750 
z
" transform="scale(0.015625)"/>
       </defs>
       <use xlink:href="#DejaVuSans-30"/>
      </g>
     </g>
    </g>
    <g id="xtick_2">
     <g id="line2d_2">
      <g>
       <use xlink:href="#m46156a018e" x="115.573333" y="273.312" style="stroke: #000000; stroke-width: 0.8"/>
      </g>
     </g>
     <g id="text_2">
      <!-- 1000 -->
      <g transform="translate(102.848333 287.910437) scale(0.1 -0.1)">
       <defs>
        <path id="DejaVuSans-31" d="M 794 531 
L 1825 531 
L 1825 4091 
L 703 3866 
L 703 4441 
L 1819 4666 
L 2450 4666 
L 2450 531 
L 3481 531 
L 3481 0 
L 794 0 
L 794 531 
z
" transform="scale(0.015625)"/>
       </defs>
       <use xlink:href="#DejaVuSans-31"/>
       <use xlink:href="#DejaVuSans-30" transform="translate(63.623047 0)"/>
       <use xlink:href="#DejaVuSans-30" transform="translate(127.246094 0)"/>
       <use xlink:href="#DejaVuSans-30" transform="translate(190.869141 0)"/>
      </g>
     </g>
    </g>
    <g id="xtick_3">
     <g id="line2d_3">
      <g>
       <use xlink:href="#m46156a018e" x="184.810813" y="273.312" style="stroke: #000000; stroke-width: 0.8"/>
      </g>
     </g>
     <g id="text_3">
      <!-- 2000 -->
      <g transform="translate(172.085813 287.910437) scale(0.1 -0.1)">
       <defs>
        <path id="DejaVuSans-32" d="M 1228 531 
L 3431 531 
L 3431 0 
L 469 0 
L 469 531 
Q 828 903 1448 1529 
Q 2069 2156 2228 2338 
Q 2531 2678 2651 2914 
Q 2772 3150 2772 3378 
Q 2772 3750 2511 3984 
Q 2250 4219 1831 4219 
Q 1534 4219 1204 4116 
Q 875 4013 500 3803 
L 500 4441 
Q 881 4594 1212 4672 
Q 1544 4750 1819 4750 
Q 2544 4750 2975 4387 
Q 3406 4025 3406 3419 
Q 3406 3131 3298 2873 
Q 3191 2616 2906 2266 
Q 2828 2175 2409 1742 
Q 1991 1309 1228 531 
z
" transform="scale(0.015625)"/>
       </defs>
       <use xlink:href="#DejaVuSans-32"/>
       <use xlink:href="#DejaVuSans-30" transform="translate(63.623047 0)"/>
       <use xlink:href="#DejaVuSans-30" transform="translate(127.246094 0)"/>
       <use xlink:href="#DejaVuSans-30" transform="translate(190.869141 0)"/>
      </g>
     </g>
    </g>
    <g id="xtick_4">
     <g id="line2d_4">
      <g>
       <use xlink:href="#m46156a018e" x="254.048293" y="273.312" style="stroke: #000000; stroke-width: 0.8"/>
      </g>
     </g>
     <g id="text_4">
      <!-- 3000 -->
      <g transform="translate(241.323293 287.910437) scale(0.1 -0.1)">
       <defs>
        <path id="DejaVuSans-33" d="M 2597 2516 
Q 3050 2419 3304 2112 
Q 3559 1806 3559 1356 
Q 3559 666 3084 287 
Q 2609 -91 1734 -91 
Q 1441 -91 1130 -33 
Q 819 25 488 141 
L 488 750 
Q 750 597 1062 519 
Q 1375 441 1716 441 
Q 2309 441 2620 675 
Q 2931 909 2931 1356 
Q 2931 1769 2642 2001 
Q 2353 2234 1838 2234 
L 1294 2234 
L 1294 2753 
L 1863 2753 
Q 2328 2753 2575 2939 
Q 2822 3125 2822 3475 
Q 2822 3834 2567 4026 
Q 2313 4219 1838 4219 
Q 1578 4219 1281 4162 
Q 984 4106 628 3988 
L 628 4550 
Q 988 4650 1302 4700 
Q 1616 4750 1894 4750 
Q 2613 4750 3031 4423 
Q 3450 4097 3450 3541 
Q 3450 3153 3228 2886 
Q 3006 2619 2597 2516 
z
" transform="scale(0.015625)"/>
       </defs>
       <use xlink:href="#DejaVuSans-33"/>
       <use xlink:href="#DejaVuSans-30" transform="translate(63.623047 0)"/>
       <use xlink:href="#DejaVuSans-30" transform="translate(127.246094 0)"/>
       <use xlink:href="#DejaVuSans-30" transform="translate(190.869141 0)"/>
      </g>
     </g>
    </g>
    <g id="xtick_5">
     <g id="line2d_5">
      <g>
       <use xlink:href="#m46156a018e" x="323.285774" y="273.312" style="stroke: #000000; stroke-width: 0.8"/>
      </g>
     </g>
     <g id="text_5">
      <!-- 4000 -->
      <g transform="translate(310.560774 287.910437) scale(0.1 -0.1)">
       <defs>
        <path id="DejaVuSans-34" d="M 2419 4116 
L 825 1625 
L 2419 1625 
L 2419 4116 
z
M 2253 4666 
L 3047 4666 
L 3047 1625 
L 3713 1625 
L 3713 1100 
L 3047 1100 
L 3047 0 
L 2419 0 
L 2419 1100 
L 313 1100 
L 313 1709 
L 2253 4666 
z
" transform="scale(0.015625)"/>
       </defs>
       <use xlink:href="#DejaVuSans-34"/>
       <use xlink:href="#DejaVuSans-30" transform="translate(63.623047 0)"/>
       <use xlink:href="#DejaVuSans-30" transform="translate(127.246094 0)"/>
       <use xlink:href="#DejaVuSans-30" transform="translate(190.869141 0)"/>
      </g>
     </g>
    </g>
   </g>
   <g id="matplotlib.axis_2">
    <g id="ytick_1">
     <g id="line2d_6">
      <defs>
       <path id="m08ba349328" d="M 0 0 
L -3.5 0 
" style="stroke: #000000; stroke-width: 0.8"/>
      </defs>
      <g>
       <use xlink:href="#m08ba349328" x="30.103125" y="265.620548" style="stroke: #000000; stroke-width: 0.8"/>
      </g>
     </g>
     <g id="text_6">
      <!-- 0.0 -->
      <g transform="translate(7.2 269.419767) scale(0.1 -0.1)">
       <defs>
        <path id="DejaVuSans-2e" d="M 684 794 
L 1344 794 
L 1344 0 
L 684 0 
L 684 794 
z
" transform="scale(0.015625)"/>
       </defs>
       <use xlink:href="#DejaVuSans-30"/>
       <use xlink:href="#DejaVuSans-2e" transform="translate(63.623047 0)"/>
       <use xlink:href="#DejaVuSans-30" transform="translate(95.410156 0)"/>
      </g>
     </g>
    </g>
    <g id="ytick_2">
     <g id="line2d_7">
      <g>
       <use xlink:href="#m08ba349328" x="30.103125" y="226.03583" style="stroke: #000000; stroke-width: 0.8"/>
      </g>
     </g>
     <g id="text_7">
      <!-- 0.5 -->
      <g transform="translate(7.2 229.835048) scale(0.1 -0.1)">
       <defs>
        <path id="DejaVuSans-35" d="M 691 4666 
L 3169 4666 
L 3169 4134 
L 1269 4134 
L 1269 2991 
Q 1406 3038 1543 3061 
Q 1681 3084 1819 3084 
Q 2600 3084 3056 2656 
Q 3513 2228 3513 1497 
Q 3513 744 3044 326 
Q 2575 -91 1722 -91 
Q 1428 -91 1123 -41 
Q 819 9 494 109 
L 494 744 
Q 775 591 1075 516 
Q 1375 441 1709 441 
Q 2250 441 2565 725 
Q 2881 1009 2881 1497 
Q 2881 1984 2565 2268 
Q 2250 2553 1709 2553 
Q 1456 2553 1204 2497 
Q 953 2441 691 2322 
L 691 4666 
z
" transform="scale(0.015625)"/>
       </defs>
       <use xlink:href="#DejaVuSans-30"/>
       <use xlink:href="#DejaVuSans-2e" transform="translate(63.623047 0)"/>
       <use xlink:href="#DejaVuSans-35" transform="translate(95.410156 0)"/>
      </g>
     </g>
    </g>
    <g id="ytick_3">
     <g id="line2d_8">
      <g>
       <use xlink:href="#m08ba349328" x="30.103125" y="186.451111" style="stroke: #000000; stroke-width: 0.8"/>
      </g>
     </g>
     <g id="text_8">
      <!-- 1.0 -->
      <g transform="translate(7.2 190.25033) scale(0.1 -0.1)">
       <use xlink:href="#DejaVuSans-31"/>
       <use xlink:href="#DejaVuSans-2e" transform="translate(63.623047 0)"/>
       <use xlink:href="#DejaVuSans-30" transform="translate(95.410156 0)"/>
      </g>
     </g>
    </g>
    <g id="ytick_4">
     <g id="line2d_9">
      <g>
       <use xlink:href="#m08ba349328" x="30.103125" y="146.866393" style="stroke: #000000; stroke-width: 0.8"/>
      </g>
     </g>
     <g id="text_9">
      <!-- 1.5 -->
      <g transform="translate(7.2 150.665612) scale(0.1 -0.1)">
       <use xlink:href="#DejaVuSans-31"/>
       <use xlink:href="#DejaVuSans-2e" transform="translate(63.623047 0)"/>
       <use xlink:href="#DejaVuSans-35" transform="translate(95.410156 0)"/>
      </g>
     </g>
    </g>
    <g id="ytick_5">
     <g id="line2d_10">
      <g>
       <use xlink:href="#m08ba349328" x="30.103125" y="107.281675" style="stroke: #000000; stroke-width: 0.8"/>
      </g>
     </g>
     <g id="text_10">
      <!-- 2.0 -->
      <g transform="translate(7.2 111.080894) scale(0.1 -0.1)">
       <use xlink:href="#DejaVuSans-32"/>
       <use xlink:href="#DejaVuSans-2e" transform="translate(63.623047 0)"/>
       <use xlink:href="#DejaVuSans-30" transform="translate(95.410156 0)"/>
      </g>
     </g>
    </g>
    <g id="ytick_6">
     <g id="line2d_11">
      <g>
       <use xlink:href="#m08ba349328" x="30.103125" y="67.696957" style="stroke: #000000; stroke-width: 0.8"/>
      </g>
     </g>
     <g id="text_11">
      <!-- 2.5 -->
      <g transform="translate(7.2 71.496176) scale(0.1 -0.1)">
       <use xlink:href="#DejaVuSans-32"/>
       <use xlink:href="#DejaVuSans-2e" transform="translate(63.623047 0)"/>
       <use xlink:href="#DejaVuSans-35" transform="translate(95.410156 0)"/>
      </g>
     </g>
    </g>
    <g id="ytick_7">
     <g id="line2d_12">
      <g>
       <use xlink:href="#m08ba349328" x="30.103125" y="28.112239" style="stroke: #000000; stroke-width: 0.8"/>
      </g>
     </g>
     <g id="text_12">
      <!-- 3.0 -->
      <g transform="translate(7.2 31.911457) scale(0.1 -0.1)">
       <use xlink:href="#DejaVuSans-33"/>
       <use xlink:href="#DejaVuSans-2e" transform="translate(63.623047 0)"/>
       <use xlink:href="#DejaVuSans-30" transform="translate(95.410156 0)"/>
      </g>
     </g>
    </g>
   </g>
   <g id="line2d_13">
    <path d="M 46.335852 83.428184 
L 46.40509 83.466426 
L 46.474327 83.173026 
L 46.543565 83.550139 
L 46.612802 83.361327 
L 46.751277 83.667978 
L 46.820515 83.411045 
L 46.95899 83.698915 
L 47.028227 83.55767 
L 47.097465 83.651217 
L 47.23594 83.866586 
L 47.305177 83.303663 
L 47.443652 83.874589 
L 47.512889 83.621658 
L 47.651364 84.463107 
L 47.720602 84.424243 
L 47.789839 84.063551 
L 47.928314 85.064177 
L 47.997552 85.24759 
L 48.274502 91.31441 
L 48.412977 97.56485 
L 48.482214 77.990805 
L 48.551452 84.139034 
L 48.620689 82.700007 
L 48.828402 86.160219 
L 48.897639 86.749681 
L 49.036114 89.868531 
L 49.105351 86.96152 
L 49.382301 100.233595 
L 49.451539 98.876695 
L 49.520776 110.944138 
L 49.659251 98.423004 
L 49.728489 103.285324 
L 49.797726 133.89306 
L 49.936201 83.640854 
L 50.005439 91.383853 
L 50.143914 96.620246 
L 50.213151 95.176991 
L 50.282389 103.051985 
L 50.420864 96.618189 
L 50.490101 99.875736 
L 50.767051 127.916635 
L 50.836288 122.301043 
L 50.905526 148.62436 
L 50.974763 19.296 
L 51.044001 84.800884 
L 51.182476 90.564997 
L 51.390188 110.521969 
L 51.459426 105.293334 
L 51.528663 86.343915 
L 51.597901 91.538122 
L 51.944088 134.553475 
L 52.013326 134.838891 
L 52.082563 132.724876 
L 52.151801 125.852971 
L 52.290276 149.683471 
L 52.359513 127.193601 
L 52.428751 134.903784 
L 52.567226 150.819689 
L 52.7057 118.992485 
L 52.913413 157.311905 
L 53.051888 141.394207 
L 53.190363 165.205304 
L 53.398075 121.507886 
L 53.605788 152.411571 
L 53.675025 159.0454 
L 53.744263 152.786315 
L 53.882738 177.959587 
L 54.021213 121.349313 
L 54.228925 169.02399 
L 54.298163 179.073485 
L 54.436637 158.477928 
L 54.505875 155.603166 
L 54.575112 183.200794 
L 54.64435 180.701862 
L 54.713587 181.108883 
L 54.782825 184.788476 
L 54.852062 183.11072 
L 54.9213 171.363726 
L 54.990537 171.902998 
L 55.059775 187.082543 
L 55.19825 127.939767 
L 55.336725 179.916916 
L 55.405962 176.394604 
L 55.4752 158.953099 
L 55.613675 187.297506 
L 55.682912 192.045535 
L 55.75215 188.856327 
L 55.959862 159.436263 
L 56.098337 196.519487 
L 56.236812 181.390297 
L 56.306049 188.52226 
L 56.444524 204.783199 
L 56.652237 166.354744 
L 56.721474 166.863929 
L 56.859949 196.598108 
L 56.929187 195.037268 
L 56.998424 178.394072 
L 57.067662 182.044143 
L 57.275374 211.260144 
L 57.413849 182.771736 
L 57.483087 181.855823 
L 57.621562 201.344278 
L 57.690799 209.584966 
L 57.898511 185.146722 
L 57.967749 205.434747 
L 58.036986 201.296169 
L 58.106224 193.318572 
L 58.175461 197.820634 
L 58.244699 190.685987 
L 58.313936 191.169935 
L 58.383174 199.908917 
L 58.452411 198.887523 
L 58.590886 189.452886 
L 58.729361 206.786159 
L 58.798599 198.315587 
L 58.867836 207.726837 
L 59.006311 168.591081 
L 59.214024 202.877975 
L 59.283261 192.893383 
L 59.421736 207.776262 
L 59.490974 195.30562 
L 59.560211 201.207968 
L 59.698686 212.505481 
L 59.767923 183.716057 
L 59.837161 186.912362 
L 59.975636 204.654298 
L 60.044873 199.395575 
L 60.183348 210.242818 
L 60.252586 204.433833 
L 60.391061 178.625551 
L 60.460298 183.021534 
L 60.598773 204.846073 
L 60.737248 196.526485 
L 60.944961 213.283094 
L 61.014198 201.893492 
L 61.083436 204.571255 
L 61.221911 198.104677 
L 61.360386 208.403437 
L 61.429623 190.110715 
L 61.568098 212.393673 
L 61.637335 201.321759 
L 61.845048 221.112448 
L 62.05276 191.64395 
L 62.260473 217.068502 
L 62.32971 204.096594 
L 62.398948 204.540073 
L 62.468185 218.251871 
L 62.537423 215.601718 
L 62.60666 203.053055 
L 62.675898 220.801512 
L 62.745135 206.470495 
L 62.88361 229.894196 
L 63.091323 201.417864 
L 63.16056 221.136892 
L 63.229797 212.143379 
L 63.299035 207.374734 
L 63.368272 219.918141 
L 63.506747 199.536725 
L 63.575985 201.625942 
L 63.645222 205.121909 
L 63.71446 195.571179 
L 63.852935 216.402807 
L 63.922172 214.95748 
L 64.060647 218.507417 
L 64.199122 211.87053 
L 64.406835 225.872113 
L 64.614547 211.597987 
L 64.753022 212.401732 
L 64.82226 222.285699 
L 64.891497 213.325493 
L 64.960734 213.668201 
L 65.029972 215.86932 
L 65.099209 213.335898 
L 65.237684 229.301875 
L 65.306922 207.429204 
L 65.445397 226.482433 
L 65.583872 215.15889 
L 65.653109 217.128649 
L 65.722347 227.095394 
L 65.791584 221.375789 
L 65.860822 225.603836 
L 65.930059 225.458014 
L 66.068534 214.314775 
L 66.137772 202.358286 
L 66.207009 215.265376 
L 66.276247 212.492769 
L 66.483959 224.80715 
L 66.553197 222.570634 
L 66.622434 227.030033 
L 66.691672 208.314104 
L 66.760909 218.150453 
L 66.830146 224.777657 
L 66.899384 210.684999 
L 66.968621 213.21299 
L 67.037859 213.839854 
L 67.107096 212.790803 
L 67.176334 221.691254 
L 67.314809 210.525823 
L 67.384046 228.734238 
L 67.522521 200.095902 
L 67.591759 204.367013 
L 67.730234 222.69541 
L 67.868709 220.646054 
L 67.937946 215.169371 
L 68.007184 224.070563 
L 68.076421 216.77496 
L 68.145659 221.533427 
L 68.214896 211.946739 
L 68.284134 221.527812 
L 68.353371 219.263497 
L 68.422609 222.617974 
L 68.491846 210.813447 
L 68.561083 226.345609 
L 68.630321 216.972841 
L 68.768796 230.559986 
L 68.907271 217.537841 
L 68.976508 221.50099 
L 69.045746 215.279429 
L 69.184221 235.498518 
L 69.253458 212.258373 
L 69.322696 213.045976 
L 69.391933 220.444162 
L 69.461171 220.372832 
L 69.530408 217.105696 
L 69.738121 228.638631 
L 69.945833 200.022165 
L 70.015071 222.200316 
L 70.084308 216.159828 
L 70.153546 225.372989 
L 70.222783 221.774297 
L 70.29202 218.612841 
L 70.430495 209.649293 
L 70.638208 224.908266 
L 70.707445 206.55602 
L 70.776683 230.008879 
L 70.84592 202.887663 
L 70.915158 215.155507 
L 71.053633 223.191264 
L 71.12287 215.320115 
L 71.192108 228.013917 
L 71.261345 205.537925 
L 71.330583 213.25949 
L 71.538295 225.639303 
L 71.607533 219.158323 
L 71.67677 220.661787 
L 71.746008 217.734212 
L 71.884483 231.341963 
L 72.022957 219.809432 
L 72.092195 226.281437 
L 72.23067 209.109408 
L 72.438382 226.55607 
L 72.576857 210.142094 
L 72.646095 213.344043 
L 72.78457 230.362485 
L 72.923045 219.431441 
L 72.992282 219.659759 
L 73.06152 225.061874 
L 73.130757 207.91436 
L 73.199995 209.462667 
L 73.33847 228.276758 
L 73.407707 222.288507 
L 73.476945 222.081344 
L 73.753894 229.774594 
L 73.823132 228.985841 
L 73.961607 213.289965 
L 74.030844 224.214366 
L 74.100082 214.711212 
L 74.307794 236.584326 
L 74.377032 220.98182 
L 74.446269 230.718915 
L 74.515507 221.2279 
L 74.584744 233.781287 
L 74.723219 217.191117 
L 74.792457 218.892235 
L 74.861694 232.883301 
L 74.930932 228.506571 
L 75.000169 223.756164 
L 75.069407 227.0123 
L 75.138644 213.370237 
L 75.346357 233.560057 
L 75.415594 232.413259 
L 75.484832 213.760138 
L 75.554069 221.729808 
L 75.623306 221.71667 
L 75.692544 223.353485 
L 75.761781 235.130278 
L 75.831019 220.522429 
L 75.969494 233.721348 
L 76.038731 219.860731 
L 76.107969 224.479802 
L 76.177206 225.392497 
L 76.315681 219.124965 
L 76.454156 236.368261 
L 76.523394 228.043405 
L 76.592631 232.522399 
L 76.731106 225.363033 
L 76.800344 232.745866 
L 76.869581 231.184672 
L 76.938819 232.956118 
L 77.146531 213.802674 
L 77.215769 231.639091 
L 77.285006 216.74744 
L 77.354243 221.969974 
L 77.423481 237.259719 
L 77.492718 218.654947 
L 77.561956 232.017405 
L 77.631193 223.875802 
L 77.700431 226.662084 
L 77.769668 230.309079 
L 77.838906 224.943355 
L 77.908143 233.851669 
L 77.977381 227.370304 
L 78.046618 231.345998 
L 78.115856 231.223581 
L 78.185093 222.503782 
L 78.254331 226.334713 
L 78.323568 221.586972 
L 78.392806 230.281124 
L 78.462043 222.423424 
L 78.600518 232.811918 
L 78.738993 221.840262 
L 78.808231 233.997548 
L 78.877468 222.108921 
L 79.08518 233.586945 
L 79.154418 218.87252 
L 79.223655 223.45569 
L 79.292893 235.726904 
L 79.36213 230.454312 
L 79.431368 213.40048 
L 79.63908 230.182828 
L 79.708318 221.49822 
L 79.846793 236.374398 
L 80.123743 203.506925 
L 80.262218 232.529957 
L 80.331455 226.285774 
L 80.400693 238.652098 
L 80.539168 221.778379 
L 80.677643 242.856867 
L 80.74688 223.65654 
L 80.816117 230.581667 
L 80.885355 229.143996 
L 80.954592 231.461101 
L 81.02383 231.299602 
L 81.093067 232.012335 
L 81.162305 216.162494 
L 81.231542 232.026119 
L 81.30078 226.990355 
L 81.439255 235.518868 
L 81.508492 219.122115 
L 81.57773 227.288049 
L 81.785442 217.894898 
L 81.923917 235.769826 
L 81.993155 233.54968 
L 82.062392 221.248804 
L 82.13163 227.148795 
L 82.200867 231.521224 
L 82.339342 221.680906 
L 82.477817 232.048234 
L 82.547055 224.870104 
L 82.616292 229.308679 
L 82.685529 223.511029 
L 82.824004 232.949596 
L 82.962479 216.999314 
L 83.031717 219.649222 
L 83.100954 223.944277 
L 83.170192 218.232307 
L 83.377904 228.36152 
L 83.447142 217.805042 
L 83.516379 219.303244 
L 83.654854 237.451706 
L 83.862567 223.045031 
L 83.931804 238.077227 
L 84.001042 236.355265 
L 84.070279 239.680669 
L 84.208754 227.355512 
L 84.277992 228.421141 
L 84.416466 246.699807 
L 84.554941 219.544454 
L 84.693416 234.513417 
L 84.831891 219.66 
L 84.901129 230.574683 
L 84.970366 228.869723 
L 85.039604 231.760654 
L 85.108841 244.241574 
L 85.316554 230.023689 
L 85.385791 236.172884 
L 85.455029 228.37718 
L 85.524266 232.897264 
L 85.593504 228.993303 
L 85.662741 234.725216 
L 85.731979 233.172525 
L 85.801216 225.055966 
L 85.870454 239.38003 
L 85.939691 235.217259 
L 86.008929 239.173809 
L 86.078166 236.833905 
L 86.216641 218.305308 
L 86.285878 238.89172 
L 86.424353 221.330653 
L 86.493591 246.214421 
L 86.632066 228.273004 
L 86.701303 226.337209 
L 86.839778 236.680233 
L 86.978253 225.029324 
L 87.047491 241.581422 
L 87.185966 209.198538 
L 87.255203 224.451692 
L 87.532153 236.838805 
L 87.739866 220.058107 
L 87.809103 232.696986 
L 87.87834 226.229282 
L 88.016815 234.278209 
L 88.086053 237.691927 
L 88.15529 224.636752 
L 88.224528 229.866079 
L 88.293765 235.105092 
L 88.43224 219.968076 
L 88.501478 220.044248 
L 88.778428 237.371188 
L 88.98614 222.604237 
L 89.124615 236.215877 
L 89.193853 234.663092 
L 89.26309 220.494144 
L 89.332328 226.582904 
L 89.401565 223.568457 
L 89.609278 241.033325 
L 89.747752 224.99909 
L 89.81699 245.19718 
L 89.886227 234.618621 
L 89.955465 229.282575 
L 90.024702 234.752606 
L 90.09394 232.302791 
L 90.232415 226.733738 
L 90.440127 241.905905 
L 90.578602 233.718158 
L 90.64784 240.935404 
L 90.717077 238.952798 
L 90.994027 219.71917 
L 91.063265 238.603973 
L 91.132502 221.340039 
L 91.270977 239.697119 
L 91.340215 224.820514 
L 91.409452 232.825129 
L 91.478689 231.001353 
L 91.617164 238.737167 
L 91.686402 230.005118 
L 91.755639 243.012106 
L 91.824877 238.984106 
L 91.894114 218.157371 
L 92.032589 237.035469 
L 92.101827 228.255025 
L 92.171064 230.698183 
L 92.240302 237.029967 
L 92.309539 234.180739 
L 92.448014 238.604183 
L 92.586489 227.429256 
L 92.724964 241.779713 
L 92.794202 237.861778 
L 92.863439 227.32076 
L 92.932677 231.429192 
L 93.071152 241.321181 
L 93.140389 233.156688 
L 93.209626 235.988772 
L 93.278864 232.497479 
L 93.348101 239.076973 
L 93.555814 231.716207 
L 93.625051 246.852725 
L 93.694289 227.51694 
L 93.763526 236.676007 
L 93.832764 233.214093 
L 93.902001 223.923038 
L 93.971239 231.180802 
L 94.040476 230.235635 
L 94.109714 232.735303 
L 94.178951 240.644609 
L 94.248189 231.96151 
L 94.317426 233.548793 
L 94.386664 240.295063 
L 94.525139 215.195754 
L 94.594376 234.09771 
L 94.663614 229.554615 
L 94.732851 228.304561 
L 94.802089 230.409983 
L 94.871326 237.471744 
L 94.940563 234.068449 
L 95.009801 220.814206 
L 95.148276 233.737776 
L 95.217513 233.417391 
L 95.286751 234.465098 
L 95.355988 233.690024 
L 95.425226 242.744188 
L 95.494463 238.242585 
L 95.563701 233.56144 
L 95.632938 244.207596 
L 95.702176 229.718593 
L 95.771413 235.612632 
L 95.909888 241.533987 
L 95.979126 238.046684 
L 96.048363 242.831914 
L 96.186838 228.060832 
L 96.325313 239.151385 
L 96.533026 225.402864 
L 96.740738 242.842383 
L 96.809975 232.819058 
L 96.879213 237.172913 
L 96.94845 230.169172 
L 97.017688 238.828397 
L 97.086925 235.551041 
L 97.156163 227.881909 
L 97.294638 235.781333 
L 97.433113 232.430035 
L 97.571588 234.954383 
L 97.710063 233.081418 
L 97.7793 241.63432 
L 97.848538 231.43324 
L 97.917775 236.199281 
L 98.05625 224.129785 
L 98.125488 238.549326 
L 98.263963 219.140849 
L 98.402438 240.688239 
L 98.471675 232.397659 
L 98.540912 239.371109 
L 98.61015 230.645317 
L 98.679387 231.780891 
L 98.748625 233.180469 
L 98.8871 228.006235 
L 98.956337 240.915906 
L 99.025575 236.028302 
L 99.094812 226.101224 
L 99.16405 241.16651 
L 99.233287 229.061642 
L 99.302525 234.248497 
L 99.371762 234.397906 
L 99.441 245.468993 
L 99.579475 236.985041 
L 99.648712 235.875574 
L 99.71795 238.883094 
L 99.787187 228.140878 
L 99.856425 238.982905 
L 99.925662 235.41124 
L 99.9949 240.802455 
L 100.064137 237.54807 
L 100.133375 235.503869 
L 100.202612 236.366003 
L 100.271849 223.452444 
L 100.410324 242.292191 
L 100.479562 237.745984 
L 100.548799 237.912107 
L 100.618037 239.019195 
L 100.687274 224.502944 
L 100.756512 230.565358 
L 100.825749 231.590586 
L 100.964224 247.665663 
L 101.171937 228.25952 
L 101.310412 238.496397 
L 101.379649 226.514391 
L 101.448887 230.106592 
L 101.656599 248.256777 
L 101.725837 235.483073 
L 101.795074 238.638538 
L 101.864312 239.990324 
L 101.933549 230.159533 
L 102.002786 231.455577 
L 102.072024 238.458533 
L 102.141261 225.128241 
L 102.210499 229.9429 
L 102.279736 231.15688 
L 102.418211 240.768406 
L 102.625924 227.986524 
L 102.833636 244.112961 
L 102.902874 231.494442 
L 102.972111 240.364015 
L 103.041349 239.417095 
L 103.110586 230.569485 
L 103.179824 233.344926 
L 103.249061 235.544012 
L 103.318299 232.147408 
L 103.387536 234.480769 
L 103.526011 227.050494 
L 103.802961 241.468959 
L 104.079911 230.119994 
L 104.287623 239.034411 
L 104.356861 238.642372 
L 104.495336 230.250919 
L 104.703048 244.851015 
L 104.772286 230.463884 
L 104.841523 237.246999 
L 104.910761 244.309039 
L 104.979998 224.997075 
L 105.187711 247.278773 
L 105.256948 232.206804 
L 105.326186 238.696715 
L 105.395423 242.697136 
L 105.464661 221.18073 
L 105.603135 236.185313 
L 105.672373 236.051675 
L 105.74161 228.741118 
L 105.810848 240.931266 
L 105.880085 236.455872 
L 105.949323 237.918081 
L 106.01856 229.530299 
L 106.157035 240.032163 
L 106.29551 235.361092 
L 106.364748 236.300798 
L 106.433985 241.166463 
L 106.503223 238.874916 
L 106.57246 231.105664 
L 106.641698 231.929382 
L 106.710935 230.487926 
L 106.84941 243.706237 
L 106.918648 228.616426 
L 106.987885 237.086919 
L 107.12636 241.619529 
L 107.195598 233.493476 
L 107.334072 245.307948 
L 107.40331 215.080401 
L 107.472547 232.34627 
L 107.541785 230.294434 
L 107.611022 224.212139 
L 107.68026 240.410468 
L 107.749497 235.014039 
L 107.818735 241.874041 
L 107.95721 232.564768 
L 108.164922 243.662114 
L 108.303397 216.293683 
L 108.372635 242.232847 
L 108.441872 241.714829 
L 108.51111 236.670521 
L 108.580347 241.139453 
L 108.649585 238.928333 
L 108.718822 240.948487 
L 108.78806 235.257615 
L 108.857297 243.702153 
L 108.926535 227.789419 
L 108.995772 236.481507 
L 109.065009 225.515192 
L 109.203484 241.730113 
L 109.341959 238.986607 
L 109.411197 230.439959 
L 109.480434 233.530606 
L 109.549672 229.88536 
L 109.618909 232.139782 
L 109.757384 240.618362 
L 109.826622 233.413815 
L 109.965097 241.589295 
L 110.034334 237.116209 
L 110.172809 243.460502 
L 110.242047 242.391427 
L 110.311284 239.687498 
L 110.380522 241.835009 
L 110.449759 231.774424 
L 110.518997 241.416068 
L 110.588234 237.159742 
L 110.726709 243.481095 
L 110.795946 240.461245 
L 110.865184 241.819453 
L 110.934421 236.060126 
L 111.003659 237.769856 
L 111.142134 231.20799 
L 111.211371 236.960465 
L 111.280609 227.264455 
L 111.349846 236.420237 
L 111.419084 230.449966 
L 111.557559 247.950085 
L 111.696034 237.653393 
L 111.765271 237.760523 
L 111.834509 240.220965 
L 111.903746 239.124709 
L 111.972984 235.405197 
L 112.042221 236.723306 
L 112.180696 237.622234 
L 112.319171 233.245214 
L 112.457646 248.123747 
L 112.596121 240.12052 
L 112.665358 227.267944 
L 112.734596 232.50741 
L 112.942308 242.014307 
L 113.011546 240.613072 
L 113.080783 227.791677 
L 113.288496 246.842722 
L 113.426971 229.727538 
L 113.496208 231.007474 
L 113.565446 239.647392 
L 113.634683 233.827612 
L 113.703921 235.462364 
L 113.773158 233.877726 
L 113.842396 244.211819 
L 113.911633 218.03167 
L 113.980871 230.218545 
L 114.050108 223.759236 
L 114.257821 241.645065 
L 114.327058 233.475632 
L 114.396295 241.694268 
L 114.465533 227.041628 
L 114.673245 244.942226 
L 114.742483 223.91822 
L 114.880958 243.871815 
L 115.019433 240.309328 
L 115.08867 232.674083 
L 115.157908 235.501417 
L 115.227145 233.922249 
L 115.296383 238.43827 
L 115.36562 235.639354 
L 115.434858 246.17365 
L 115.573333 231.462788 
L 115.64257 246.924067 
L 115.711808 243.97131 
L 115.781045 240.763267 
L 115.850283 243.099731 
L 115.988758 227.471578 
L 116.057995 237.491639 
L 116.127232 237.174576 
L 116.19647 238.381082 
L 116.265707 247.709688 
L 116.334945 246.181917 
L 116.404182 231.411194 
L 116.47342 239.501782 
L 116.542657 249.631227 
L 116.75037 226.067222 
L 116.888845 245.195615 
L 116.958082 242.312858 
L 117.096557 222.900794 
L 117.235032 242.218011 
L 117.373507 234.771524 
L 117.442745 242.524114 
L 117.511982 240.088847 
L 117.58122 241.573885 
L 117.650457 231.20438 
L 117.858169 245.943591 
L 118.065882 238.539494 
L 118.135119 229.981325 
L 118.204357 234.126408 
L 118.342832 243.1809 
L 118.412069 241.769553 
L 118.481307 246.245089 
L 118.550544 221.981965 
L 118.689019 241.037763 
L 118.758257 241.154204 
L 118.965969 234.137033 
L 119.035207 234.149283 
L 119.104444 245.741409 
L 119.173682 244.813128 
L 119.381394 225.62039 
L 119.519869 238.580475 
L 119.589107 234.881146 
L 119.658344 245.734073 
L 119.727581 238.487589 
L 119.796819 241.679723 
L 119.866056 241.62845 
L 119.935294 230.516506 
L 120.004531 234.392507 
L 120.073769 232.439765 
L 120.281481 243.845187 
L 120.350719 231.896595 
L 120.419956 236.922862 
L 120.489194 236.507786 
L 120.696906 243.89867 
L 120.766144 240.184618 
L 120.835381 244.486018 
L 120.904619 225.942693 
L 120.973856 234.446496 
L 121.112331 242.6982 
L 121.181569 251.558663 
L 121.320044 237.17837 
L 121.389281 249.971416 
L 121.596993 234.756627 
L 121.666231 235.687553 
L 121.735468 239.350738 
L 121.804706 231.500734 
L 121.873943 236.626721 
L 121.943181 231.715341 
L 122.220131 243.565459 
L 122.289368 238.203905 
L 122.358606 239.335581 
L 122.427843 242.524499 
L 122.497081 229.407766 
L 122.566318 235.134964 
L 122.635556 236.273294 
L 122.704793 241.606606 
L 122.843268 236.418463 
L 122.912506 250.970278 
L 123.050981 231.839426 
L 123.120218 233.834695 
L 123.189455 242.092345 
L 123.32793 233.681549 
L 123.466405 243.517917 
L 123.535643 242.50752 
L 123.60488 233.130819 
L 123.674118 236.525626 
L 123.743355 237.882831 
L 123.812593 245.090776 
L 123.88183 238.688259 
L 123.951068 251.319531 
L 124.020305 245.440133 
L 124.089543 236.494498 
L 124.228018 245.88016 
L 124.366493 238.83699 
L 124.43573 232.409843 
L 124.504968 246.981846 
L 124.574205 239.736562 
L 124.643443 236.751176 
L 124.71268 237.041235 
L 124.781918 250.087711 
L 124.851155 237.73799 
L 124.920392 239.334821 
L 125.058867 245.817746 
L 125.128105 227.534341 
L 125.197342 240.470372 
L 125.26658 226.863538 
L 125.335817 228.27781 
L 125.474292 242.50903 
L 125.612767 231.526924 
L 125.682005 234.116999 
L 125.82048 242.932641 
L 125.889717 241.741856 
L 125.958955 251.779059 
L 126.166667 229.946604 
L 126.235905 246.762412 
L 126.305142 238.565276 
L 126.443617 251.296008 
L 126.512855 234.971904 
L 126.582092 239.730147 
L 126.65133 244.217352 
L 126.789804 227.544328 
L 126.859042 230.129394 
L 126.928279 241.375188 
L 126.997517 234.494378 
L 127.135992 245.583902 
L 127.274467 249.334929 
L 127.482179 234.891707 
L 127.551417 240.330344 
L 127.620654 237.029287 
L 127.689892 244.184603 
L 127.759129 233.606953 
L 127.828367 237.407122 
L 127.966842 245.532774 
L 128.105317 231.673138 
L 128.174554 240.237639 
L 128.243792 237.916443 
L 128.313029 235.647617 
L 128.451504 243.280784 
L 128.520741 232.918206 
L 128.589979 235.221589 
L 128.659216 238.22031 
L 128.728454 235.625342 
L 128.797691 243.378484 
L 128.866929 230.086601 
L 129.005404 245.110065 
L 129.074641 242.928417 
L 129.143879 240.201342 
L 129.213116 245.913487 
L 129.282354 243.039426 
L 129.351591 237.237611 
L 129.420829 238.594337 
L 129.490066 235.494054 
L 129.559304 241.0157 
L 129.628541 233.849706 
L 129.697779 244.350035 
L 129.767016 243.240379 
L 129.905491 233.768515 
L 129.974729 247.368246 
L 130.043966 240.709245 
L 130.113204 242.355599 
L 130.182441 237.947791 
L 130.251678 238.296694 
L 130.320916 247.11937 
L 130.390153 242.265393 
L 130.528628 235.139115 
L 130.597866 240.858461 
L 130.667103 231.90062 
L 130.736341 244.541101 
L 130.805578 237.859041 
L 130.874816 234.310215 
L 130.944053 248.678457 
L 131.013291 241.686994 
L 131.082528 244.066834 
L 131.151766 241.949057 
L 131.221003 242.697702 
L 131.290241 241.536045 
L 131.359478 244.46651 
L 131.428716 241.771092 
L 131.497953 250.617445 
L 131.567191 233.303495 
L 131.636428 239.952139 
L 131.774903 242.095098 
L 131.844141 234.23963 
L 131.982615 240.456066 
L 132.051853 239.402103 
L 132.190328 242.786946 
L 132.259565 238.822322 
L 132.328803 226.494008 
L 132.467278 243.158417 
L 132.536515 243.873611 
L 132.67499 234.54856 
L 132.813465 247.133354 
L 132.95194 241.975095 
L 133.021178 226.195254 
L 133.090415 230.755028 
L 133.367365 246.955027 
L 133.575078 230.913934 
L 133.644315 234.402165 
L 133.713552 250.921267 
L 133.78279 244.616672 
L 133.852027 242.624569 
L 133.921265 249.150228 
L 134.05974 240.069166 
L 134.128977 245.36397 
L 134.267452 231.172476 
L 134.405927 247.687037 
L 134.475165 249.109763 
L 134.544402 247.786167 
L 134.61364 236.367358 
L 134.682877 239.176402 
L 134.752115 239.242525 
L 134.89059 234.771774 
L 135.029065 245.117301 
L 135.098302 243.492378 
L 135.16754 238.56742 
L 135.236777 241.296761 
L 135.306015 242.047707 
L 135.44449 235.226883 
L 135.513727 244.384537 
L 135.582964 228.039847 
L 135.721439 243.653424 
L 135.790677 238.748693 
L 135.859914 241.304448 
L 135.929152 241.221615 
L 135.998389 246.187872 
L 136.067627 241.400356 
L 136.136864 250.658172 
L 136.275339 233.621362 
L 136.344577 243.994216 
L 136.413814 239.827204 
L 136.552289 245.594518 
L 136.690764 243.912244 
L 136.760002 237.729581 
L 136.829239 246.384633 
L 136.898477 242.159759 
L 137.036952 246.666361 
L 137.175427 237.810292 
L 137.244664 243.660733 
L 137.313901 238.185204 
L 137.383139 240.072682 
L 137.452376 243.449441 
L 137.521614 239.206846 
L 137.590851 247.06907 
L 137.660089 237.865239 
L 137.729326 242.346741 
L 137.798564 246.109481 
L 137.867801 230.509444 
L 137.937039 245.151154 
L 138.006276 242.26918 
L 138.075514 242.527323 
L 138.144751 235.321697 
L 138.213989 242.847932 
L 138.421701 228.598344 
L 138.629414 239.504724 
L 138.767889 241.851244 
L 138.906364 236.642935 
L 138.975601 242.468634 
L 139.044838 240.514127 
L 139.114076 243.220923 
L 139.183313 241.032615 
L 139.252551 250.836464 
L 139.321788 236.860165 
L 139.391026 244.954696 
L 139.460263 249.310872 
L 139.529501 246.143556 
L 139.598738 232.224056 
L 139.667976 237.004173 
L 139.737213 243.531347 
L 139.806451 237.325868 
L 140.014163 247.476159 
L 140.152638 232.141665 
L 140.221876 249.662841 
L 140.291113 236.315858 
L 140.360351 242.092942 
L 140.429588 243.861318 
L 140.498826 241.323974 
L 140.568063 241.533268 
L 140.637301 243.75189 
L 140.706538 241.349135 
L 140.775775 243.974314 
L 140.845013 241.696887 
L 140.983488 247.573501 
L 141.052725 249.007925 
L 141.1912 218.237106 
L 141.329675 246.892649 
L 141.537388 234.511739 
L 141.606625 234.970238 
L 141.7451 244.981744 
L 141.814338 245.064051 
L 141.883575 243.770025 
L 141.952813 239.448145 
L 142.02205 239.892851 
L 142.091288 246.871181 
L 142.229763 226.213828 
L 142.437475 242.753772 
L 142.506713 241.161612 
L 142.57595 244.967048 
L 142.645187 244.314225 
L 142.714425 239.913156 
L 142.783662 243.923933 
L 142.8529 233.112911 
L 142.922137 236.582861 
L 142.991375 240.896226 
L 143.060612 235.396378 
L 143.268325 244.124409 
L 143.476037 236.810879 
L 143.545275 242.977026 
L 143.614512 236.932312 
L 143.68375 248.219527 
L 143.752987 236.795069 
L 143.891462 247.099534 
L 144.099175 240.74971 
L 144.168412 243.19109 
L 144.23765 242.966574 
L 144.376124 240.22618 
L 144.445362 247.431236 
L 144.514599 237.345479 
L 144.722312 247.055817 
L 144.791549 243.480666 
L 144.860787 244.991866 
L 144.930024 248.014489 
L 144.999262 237.681541 
L 145.068499 243.765551 
L 145.137737 245.998509 
L 145.206974 245.749575 
L 145.276212 232.10045 
L 145.414687 243.190732 
L 145.483924 239.170147 
L 145.622399 244.134772 
L 145.691637 244.427294 
L 145.830112 237.988014 
L 145.968587 250.651158 
L 146.314774 235.316346 
L 146.384011 236.523467 
L 146.522486 246.80809 
L 146.591724 245.576357 
L 146.660961 249.184859 
L 146.730199 239.334684 
L 146.799436 241.493299 
L 146.937911 246.329394 
L 147.007149 245.738285 
L 147.076386 246.301535 
L 147.145624 244.437116 
L 147.284099 235.373772 
L 147.353336 247.521219 
L 147.422574 247.09875 
L 147.491811 246.965266 
L 147.561049 237.874351 
L 147.630286 241.571694 
L 147.768761 239.182029 
L 147.837998 241.810119 
L 147.907236 239.659861 
L 147.976473 246.55477 
L 148.045711 243.869954 
L 148.114948 237.980339 
L 148.184186 245.799517 
L 148.253423 235.348748 
L 148.322661 239.325133 
L 148.461136 248.999332 
L 148.668848 239.30031 
L 148.807323 245.896947 
L 148.876561 239.931033 
L 148.945798 241.695094 
L 149.084273 245.858425 
L 149.222748 237.51869 
L 149.291986 241.295911 
L 149.361223 236.938076 
L 149.499698 248.675107 
L 149.568936 238.344874 
L 149.638173 240.944799 
L 149.776648 249.876605 
L 149.915123 240.810491 
L 149.98436 241.107001 
L 150.053598 240.363879 
L 150.122835 237.579285 
L 150.192073 241.999791 
L 150.26131 237.662446 
L 150.399785 247.505339 
L 150.469023 247.005848 
L 150.53826 241.762732 
L 150.607498 251.998835 
L 150.745973 239.639325 
L 150.81521 246.03534 
L 150.884448 236.119686 
L 151.022923 245.23451 
L 151.09216 238.086835 
L 151.161398 239.154292 
L 151.299873 247.992006 
L 151.36911 237.885337 
L 151.438347 239.809148 
L 151.507585 247.137452 
L 151.576822 234.470753 
L 151.64606 243.062801 
L 151.715297 238.055074 
L 151.784535 222.166685 
L 151.92301 241.799655 
L 151.992247 242.959307 
L 152.061485 237.601407 
L 152.130722 237.756512 
L 152.269197 244.59018 
L 152.407672 248.505144 
L 152.47691 243.141219 
L 152.546147 249.207378 
L 152.615385 237.665756 
L 152.684622 240.12656 
L 152.823097 237.496957 
L 152.892335 243.067548 
L 153.03081 234.350731 
L 153.100047 242.902015 
L 153.169284 235.113373 
L 153.238522 247.056887 
L 153.307759 243.056367 
L 153.376997 248.245218 
L 153.515472 239.945579 
L 153.584709 245.176291 
L 153.653947 242.580599 
L 153.723184 237.272712 
L 153.861659 249.150525 
L 154.069372 237.21412 
L 154.138609 245.658701 
L 154.207847 243.958817 
L 154.277084 240.878041 
L 154.346322 243.797661 
L 154.415559 242.293848 
L 154.484797 243.13579 
L 154.623272 247.098342 
L 154.692509 231.710599 
L 154.761747 240.219925 
L 154.830984 248.994758 
L 154.900221 237.02688 
L 154.969459 240.136547 
L 155.038696 238.453167 
L 155.107934 244.576424 
L 155.177171 243.660483 
L 155.246409 235.768555 
L 155.384884 247.108844 
L 155.454121 235.723409 
L 155.523359 241.376743 
L 155.661834 237.627569 
L 155.731071 242.4353 
L 155.800309 238.2757 
L 155.869546 245.417728 
L 155.938784 236.593804 
L 156.008021 246.875585 
L 156.077259 239.033434 
L 156.146496 241.284803 
L 156.215734 245.182818 
L 156.284971 238.593334 
L 156.354209 240.186876 
L 156.423446 241.322615 
L 156.561921 236.889934 
L 156.631159 243.903141 
L 156.700396 241.946091 
L 156.769633 241.763313 
L 156.838871 240.953468 
L 156.908108 243.229297 
L 156.977346 252.3692 
L 157.046583 242.086595 
L 157.115821 247.223482 
L 157.185058 251.059363 
L 157.254296 249.856632 
L 157.323533 240.584198 
L 157.392771 247.537239 
L 157.531246 234.350233 
L 157.600483 234.450295 
L 157.669721 245.631483 
L 157.738958 244.934978 
L 157.877433 244.021816 
L 157.946671 242.456538 
L 158.015908 249.027678 
L 158.085146 240.700891 
L 158.292858 249.824554 
L 158.362096 250.708336 
L 158.431333 235.630077 
L 158.50057 238.865223 
L 158.569808 245.620424 
L 158.77752 234.30736 
L 158.846758 249.374191 
L 158.915995 241.828379 
L 158.985233 244.673251 
L 159.05447 238.823674 
L 159.192945 248.148368 
L 159.262183 248.996425 
L 159.400658 239.789239 
L 159.469895 250.140047 
L 159.539133 238.327848 
L 159.60837 241.969794 
L 159.677608 245.63984 
L 159.746845 240.788468 
L 159.954558 248.499634 
L 160.023795 242.925062 
L 160.093033 247.717488 
L 160.231507 241.175358 
L 160.300745 248.124342 
L 160.369982 245.006124 
L 160.43922 229.737492 
L 160.508457 239.019332 
L 160.577695 233.869768 
L 160.71617 245.405156 
L 160.785407 236.438056 
L 160.854645 239.547567 
L 160.923882 238.699232 
L 160.99312 244.293382 
L 161.062357 232.694494 
L 161.131595 237.304156 
L 161.200832 248.619124 
L 161.27007 240.321468 
L 161.339307 245.874821 
L 161.477782 236.453626 
L 161.685495 251.123613 
L 161.893207 233.698681 
L 161.962444 243.864654 
L 162.031682 238.435212 
L 162.100919 244.690885 
L 162.170157 242.361511 
L 162.308632 246.834857 
L 162.377869 246.406389 
L 162.516344 234.309226 
L 162.724057 246.732642 
L 162.793294 239.971104 
L 162.862532 244.353387 
L 163.001007 233.015516 
L 163.139482 242.948038 
L 163.208719 248.791293 
L 163.277957 242.55515 
L 163.347194 248.779306 
L 163.416432 245.479424 
L 163.485669 246.536246 
L 163.554907 237.196599 
L 163.693381 248.854744 
L 163.762619 228.085932 
L 163.831856 241.790359 
L 163.901094 236.759458 
L 163.970331 243.101019 
L 164.039569 241.652967 
L 164.108806 241.986786 
L 164.178044 244.965051 
L 164.247281 238.551935 
L 164.316519 245.665669 
L 164.385756 243.10163 
L 164.454994 243.412134 
L 164.524231 245.127305 
L 164.593469 243.987062 
L 164.662706 233.320874 
L 164.731944 237.668363 
L 164.801181 234.967367 
L 164.939656 244.099949 
L 165.008894 244.675271 
L 165.078131 236.239892 
L 165.216606 243.721552 
L 165.285844 242.228298 
L 165.355081 238.004705 
L 165.424319 245.605286 
L 165.632031 234.53405 
L 165.701268 247.692171 
L 165.770506 245.695093 
L 165.839743 246.843192 
L 165.908981 238.663662 
L 165.978218 244.206664 
L 166.047456 240.482497 
L 166.116693 249.874907 
L 166.185931 243.633232 
L 166.255168 248.575751 
L 166.324406 246.978193 
L 166.393643 243.427742 
L 166.462881 245.954234 
L 166.532118 237.193763 
L 166.601356 248.723522 
L 166.670593 244.813481 
L 166.739831 249.967215 
L 166.809068 238.360106 
L 166.878306 240.528107 
L 166.947543 241.104759 
L 167.086018 249.643103 
L 167.224493 237.596995 
L 167.29373 237.17959 
L 167.362968 246.384104 
L 167.432205 242.358321 
L 167.501443 240.172743 
L 167.57068 247.527124 
L 167.639918 238.907901 
L 167.709155 245.093872 
L 167.778393 244.928589 
L 168.055343 239.777135 
L 168.12458 239.912401 
L 168.193818 247.838039 
L 168.263055 246.849387 
L 168.332293 249.552398 
L 168.540005 240.734682 
L 168.67848 234.405527 
L 168.747718 247.361231 
L 168.816955 237.249658 
L 168.886193 248.732538 
L 168.95543 243.727741 
L 169.024667 233.892602 
L 169.093905 236.616358 
L 169.163142 246.847025 
L 169.23238 245.989192 
L 169.440092 240.277198 
L 169.50933 243.763425 
L 169.578567 243.256536 
L 169.647805 239.06213 
L 169.717042 247.000678 
L 169.78628 244.459906 
L 169.855517 241.850567 
L 169.993992 251.50246 
L 170.132467 240.314246 
L 170.34018 251.269343 
L 170.478655 243.279706 
L 170.547892 243.936126 
L 170.61713 224.439263 
L 170.686367 233.345433 
L 170.824842 243.264018 
L 170.894079 244.323946 
L 170.963317 243.515199 
L 171.032554 238.384111 
L 171.101792 241.928839 
L 171.171029 241.021122 
L 171.240267 238.158816 
L 171.309504 245.043352 
L 171.378742 240.310791 
L 171.447979 247.128414 
L 171.517217 245.707504 
L 171.655692 238.636476 
L 171.794167 245.501641 
L 171.863404 234.309538 
L 172.001879 252.077581 
L 172.140354 244.486945 
L 172.209592 247.82491 
L 172.278829 244.995276 
L 172.348067 249.251517 
L 172.486542 241.580261 
L 172.555779 244.204705 
L 172.625016 247.478209 
L 172.694254 237.949867 
L 172.763491 239.862034 
L 172.832729 241.344485 
L 172.901966 233.134198 
L 172.971204 247.106992 
L 173.040441 243.327116 
L 173.109679 246.713888 
L 173.248154 235.831292 
L 173.317391 242.73903 
L 173.386629 237.195674 
L 173.525104 243.584085 
L 173.594341 243.481919 
L 173.663579 253.835102 
L 173.732816 249.610834 
L 173.871291 246.623469 
L 174.009766 249.342604 
L 174.079004 243.396599 
L 174.217479 252.274426 
L 174.286716 241.406592 
L 174.355953 246.26218 
L 174.425191 245.888792 
L 174.494428 240.210796 
L 174.563666 241.096688 
L 174.632903 243.95813 
L 174.702141 241.615669 
L 174.771378 250.043795 
L 174.979091 236.893667 
L 175.048328 239.331976 
L 175.117566 254.730523 
L 175.186803 241.696642 
L 175.256041 249.374358 
L 175.394516 242.018079 
L 175.463753 247.98341 
L 175.532991 229.302347 
L 175.602228 234.79178 
L 175.671466 242.019007 
L 175.740703 241.568572 
L 175.809941 244.473473 
L 175.879178 243.18581 
L 175.948416 243.187049 
L 176.017653 245.698392 
L 176.08689 242.484037 
L 176.156128 249.289207 
L 176.225365 249.18148 
L 176.294603 248.280421 
L 176.433078 241.724394 
L 176.571553 248.872518 
L 176.710028 241.369936 
L 176.779265 248.879417 
L 176.91774 241.016172 
L 176.986978 249.481517 
L 177.056215 243.061617 
L 177.125453 255.111885 
L 177.19469 249.957425 
L 177.263928 247.49458 
L 177.333165 247.715589 
L 177.47164 248.635903 
L 177.610115 236.321332 
L 177.679353 237.599996 
L 177.817827 252.50327 
L 178.02554 237.388452 
L 178.164015 244.549003 
L 178.233252 240.354405 
L 178.30249 242.204359 
L 178.371727 248.935914 
L 178.440965 246.402642 
L 178.510202 245.091048 
L 178.57944 250.699922 
L 178.648677 248.076279 
L 178.717915 247.619543 
L 178.787152 232.38613 
L 178.85639 237.443434 
L 178.925627 249.952368 
L 178.994865 245.25407 
L 179.064102 244.75573 
L 179.13334 241.824632 
L 179.202577 245.213665 
L 179.271815 256.19818 
L 179.41029 244.258951 
L 179.479527 245.195608 
L 179.548765 253.534741 
L 179.687239 234.936059 
L 179.756477 247.192444 
L 179.825714 246.40458 
L 179.894952 245.461993 
L 179.964189 250.291264 
L 180.102664 238.170701 
L 180.171902 245.538129 
L 180.241139 243.140051 
L 180.310377 231.3249 
L 180.518089 245.170419 
L 180.587327 243.462918 
L 180.656564 248.921663 
L 180.725802 245.151289 
L 180.795039 250.174215 
L 180.864277 240.26424 
L 181.002752 248.722155 
L 181.210464 238.012718 
L 181.279702 247.764365 
L 181.348939 242.843617 
L 181.487414 248.727441 
L 181.556651 247.387735 
L 181.625889 239.744299 
L 181.764364 250.320698 
L 181.833601 249.105459 
L 181.902839 248.11235 
L 181.972076 251.929926 
L 182.041314 251.836984 
L 182.110551 247.435731 
L 182.179789 250.333229 
L 182.249026 249.565459 
L 182.318264 248.521618 
L 182.387501 243.815592 
L 182.456739 244.972623 
L 182.595214 240.038815 
L 182.664451 242.430346 
L 182.802926 233.426596 
L 182.872164 249.170526 
L 182.941401 239.526344 
L 183.149113 254.250718 
L 183.218351 237.933759 
L 183.287588 254.86662 
L 183.356826 240.979787 
L 183.426063 247.511592 
L 183.495301 245.795921 
L 183.564538 247.013144 
L 183.633776 241.666715 
L 183.703013 251.814703 
L 183.841488 238.843951 
L 183.910726 251.237622 
L 184.049201 231.77637 
L 184.118438 248.512314 
L 184.187676 245.805066 
L 184.256913 247.501933 
L 184.395388 237.589556 
L 184.464626 249.875575 
L 184.533863 248.02585 
L 184.603101 242.455837 
L 184.672338 249.322143 
L 184.741576 245.657908 
L 184.810813 241.689375 
L 184.88005 242.047093 
L 184.949288 240.449601 
L 185.018525 250.154764 
L 185.087763 248.925254 
L 185.157 235.410858 
L 185.226238 242.574082 
L 185.295475 239.099539 
L 185.43395 245.027458 
L 185.503188 241.650072 
L 185.572425 247.202786 
L 185.641663 238.153571 
L 185.7109 239.045965 
L 185.780138 244.481915 
L 185.849375 241.068802 
L 185.98785 253.023167 
L 186.057088 234.584169 
L 186.126325 244.722186 
L 186.195563 250.271435 
L 186.2648 243.991972 
L 186.334038 253.611536 
L 186.472513 229.730829 
L 186.610988 237.76099 
L 186.680225 234.316451 
L 186.8187 242.832638 
L 186.887937 242.300954 
L 186.957175 250.229744 
L 187.026412 247.767693 
L 187.09565 250.979158 
L 187.164887 227.395698 
L 187.234125 246.837615 
L 187.303362 240.842584 
L 187.3726 246.647124 
L 187.441837 236.631798 
L 187.511075 245.724579 
L 187.580312 245.707589 
L 187.64955 244.410703 
L 187.718787 238.180431 
L 187.788025 238.878011 
L 187.995737 251.332186 
L 188.064975 246.60636 
L 188.134212 247.727399 
L 188.20345 248.74777 
L 188.272687 237.042582 
L 188.341925 242.012294 
L 188.411162 239.995639 
L 188.480399 241.044886 
L 188.549637 242.001519 
L 188.618874 241.505639 
L 188.688112 240.639158 
L 188.757349 248.046513 
L 188.826587 243.819957 
L 188.895824 243.684672 
L 188.965062 252.830271 
L 189.034299 239.298797 
L 189.172774 253.913336 
L 189.242012 248.466136 
L 189.311249 249.545071 
L 189.380487 247.498026 
L 189.518962 237.212167 
L 189.657437 243.68554 
L 189.726674 239.687755 
L 189.795912 250.95097 
L 189.865149 245.217407 
L 189.934387 244.471545 
L 190.072862 239.444766 
L 190.142099 246.327574 
L 190.211336 244.810792 
L 190.349811 250.753559 
L 190.488286 246.02246 
L 190.557524 249.860651 
L 190.765236 235.242076 
L 190.834474 237.014987 
L 190.903711 250.202621 
L 190.972949 248.815302 
L 191.042186 242.150404 
L 191.111424 247.466895 
L 191.249899 237.244102 
L 191.319136 251.771046 
L 191.388374 248.175296 
L 191.457611 248.087089 
L 191.526849 230.507179 
L 191.596086 248.150561 
L 191.665324 234.395848 
L 191.873036 255.987964 
L 191.942273 243.379333 
L 192.011511 245.198942 
L 192.080748 252.373038 
L 192.149986 243.000566 
L 192.219223 253.671224 
L 192.288461 238.609985 
L 192.357698 241.918839 
L 192.426936 249.199255 
L 192.634648 241.445664 
L 192.703886 237.850082 
L 192.773123 249.553368 
L 192.842361 246.280354 
L 192.911598 245.988675 
L 192.980836 243.728307 
L 193.050073 248.785619 
L 193.119311 244.865705 
L 193.188548 253.173 
L 193.257786 248.461474 
L 193.327023 243.287579 
L 193.396261 255.94127 
L 193.534736 240.590309 
L 193.603973 245.933347 
L 193.67321 245.836982 
L 193.811685 249.949139 
L 193.880923 241.823237 
L 193.95016 241.961238 
L 194.088635 246.591836 
L 194.157873 242.693842 
L 194.22711 248.491097 
L 194.296348 241.815819 
L 194.365585 247.473519 
L 194.434823 247.268193 
L 194.50406 242.011697 
L 194.573298 242.15285 
L 194.642535 244.784654 
L 194.711773 243.649804 
L 194.78101 233.878769 
L 194.919485 251.480483 
L 194.988723 246.844765 
L 195.05796 233.655265 
L 195.265673 250.799988 
L 195.33491 244.450386 
L 195.404148 245.038102 
L 195.473385 251.912515 
L 195.542622 245.115899 
L 195.61186 246.541823 
L 195.681097 250.906019 
L 195.819572 245.563833 
L 195.88881 248.464946 
L 195.958047 234.750037 
L 196.027285 241.887053 
L 196.096522 245.607966 
L 196.16576 237.849336 
L 196.234997 244.769452 
L 196.304235 235.065196 
L 196.373472 246.644754 
L 196.44271 243.774868 
L 196.511947 239.352227 
L 196.581185 241.600653 
L 196.650422 249.960538 
L 196.71966 248.914871 
L 196.788897 233.382927 
L 196.858135 249.587182 
L 196.927372 236.748038 
L 196.99661 249.59205 
L 197.065847 248.93052 
L 197.204322 244.843283 
L 197.273559 249.86553 
L 197.481272 240.871121 
L 197.550509 248.349997 
L 197.619747 243.888518 
L 197.688984 245.040284 
L 197.758222 240.744988 
L 197.827459 247.404459 
L 197.896697 240.929897 
L 197.965934 254.287627 
L 198.035172 250.432245 
L 198.104409 248.009348 
L 198.173647 241.1745 
L 198.242884 243.094498 
L 198.381359 244.683061 
L 198.450597 233.091478 
L 198.658309 252.667732 
L 198.727547 243.179487 
L 198.796784 245.771171 
L 198.866022 255.092406 
L 198.935259 244.265831 
L 199.004496 244.428238 
L 199.073734 240.429421 
L 199.212209 252.890309 
L 199.281446 245.787859 
L 199.350684 252.134599 
L 199.558396 239.778923 
L 199.627634 250.491746 
L 199.766109 238.296888 
L 199.835346 249.644586 
L 199.904584 245.455233 
L 200.112296 241.486971 
L 200.181534 248.971842 
L 200.250771 248.235498 
L 200.527721 235.90396 
L 200.596959 247.814192 
L 200.666196 242.637933 
L 200.735433 242.960671 
L 200.804671 247.999483 
L 200.873908 247.134599 
L 200.943146 247.225651 
L 201.012383 248.638868 
L 201.081621 246.907546 
L 201.150858 240.532786 
L 201.220096 247.781766 
L 201.289333 243.449956 
L 201.358571 249.820495 
L 201.427808 246.952249 
L 201.497046 245.045997 
L 201.566283 247.828429 
L 201.635521 247.565458 
L 201.773996 239.465038 
L 201.981708 253.860201 
L 202.189421 239.832086 
L 202.397133 253.314146 
L 202.535608 248.349288 
L 202.674083 238.50386 
L 202.812558 247.7494 
L 202.951033 247.021033 
L 203.02027 247.344459 
L 203.158745 245.346845 
L 203.227983 251.420526 
L 203.29722 249.497869 
L 203.366458 241.309282 
L 203.435695 245.917366 
L 203.504933 245.977028 
L 203.57417 238.812315 
L 203.643408 242.213816 
L 203.712645 243.597184 
L 203.781883 252.728479 
L 203.85112 250.711063 
L 203.989595 249.893367 
L 204.058833 251.949641 
L 204.197308 247.562275 
L 204.266545 238.198877 
L 204.335782 239.963025 
L 204.543495 246.297612 
L 204.612732 245.353329 
L 204.751207 240.455108 
L 204.820445 232.217573 
L 205.028157 253.678333 
L 205.097395 239.684808 
L 205.166632 247.630576 
L 205.23587 243.669187 
L 205.443582 256.983263 
L 205.51282 246.101353 
L 205.582057 250.388153 
L 205.720532 244.336673 
L 205.78977 250.354417 
L 205.859007 239.579023 
L 205.928245 251.379678 
L 205.997482 244.748892 
L 206.066719 247.742156 
L 206.135957 237.136488 
L 206.205194 240.534914 
L 206.412907 251.975917 
L 206.551382 238.152585 
L 206.620619 245.357331 
L 206.689857 243.32266 
L 206.828332 245.156092 
L 206.897569 241.089673 
L 207.036044 246.587645 
L 207.105282 241.292499 
L 207.174519 250.4798 
L 207.243757 246.994011 
L 207.312994 233.590336 
L 207.451469 251.040139 
L 207.659182 243.619823 
L 207.797656 252.369738 
L 207.936131 243.533343 
L 208.005369 244.644452 
L 208.074606 243.494511 
L 208.143844 247.771536 
L 208.213081 246.493642 
L 208.282319 247.67789 
L 208.351556 234.28823 
L 208.420794 236.572029 
L 208.490031 251.756087 
L 208.559269 248.711076 
L 208.628506 253.144661 
L 208.836219 243.835921 
L 208.905456 250.890118 
L 208.974694 238.190414 
L 209.043931 250.78485 
L 209.113169 249.019106 
L 209.182406 250.411584 
L 209.251644 236.448947 
L 209.320881 239.192182 
L 209.459356 252.398646 
L 209.597831 238.366354 
L 209.667068 242.36703 
L 209.736306 252.549131 
L 209.805543 244.647264 
L 209.874781 245.224908 
L 209.944018 243.538399 
L 210.013256 249.588667 
L 210.082493 240.991051 
L 210.151731 246.02418 
L 210.220968 249.650685 
L 210.290206 242.953637 
L 210.359443 251.351505 
L 210.428681 247.786596 
L 210.567156 242.259867 
L 210.636393 252.016944 
L 210.705631 244.043844 
L 210.774868 250.437544 
L 210.844106 245.578705 
L 210.913343 253.06299 
L 210.982581 240.379172 
L 211.051818 249.412355 
L 211.121056 238.170059 
L 211.190293 250.340042 
L 211.259531 248.742644 
L 211.328768 245.118622 
L 211.467243 248.709215 
L 211.53648 244.424133 
L 211.605718 247.710362 
L 211.674955 237.256633 
L 211.744193 248.419699 
L 211.81343 242.841241 
L 212.021143 254.829114 
L 212.09038 243.002746 
L 212.159618 246.083936 
L 212.228855 248.446375 
L 212.298093 244.871868 
L 212.436568 253.34305 
L 212.64428 240.328714 
L 212.782755 247.409399 
L 212.851993 247.606961 
L 212.92123 256.10188 
L 213.059705 248.033981 
L 213.128942 247.915826 
L 213.19818 242.726544 
L 213.267417 245.910834 
L 213.336655 239.317571 
L 213.47513 253.182866 
L 213.613605 242.100556 
L 213.682842 241.917841 
L 213.75208 236.056998 
L 213.821317 250.519692 
L 213.890555 250.37975 
L 213.959792 242.316439 
L 214.02903 249.210471 
L 214.098267 248.920098 
L 214.167505 249.664018 
L 214.236742 246.056273 
L 214.30598 249.163206 
L 214.444455 239.078945 
L 214.721405 249.586242 
L 214.790642 249.197412 
L 214.929117 243.907185 
L 215.136829 249.767353 
L 215.206067 241.03844 
L 215.275304 244.431022 
L 215.483017 251.197407 
L 215.552254 249.150292 
L 215.621492 249.568152 
L 215.690729 249.010285 
L 215.759967 254.792882 
L 215.967679 241.673996 
L 216.036917 250.001902 
L 216.106154 246.265597 
L 216.175392 241.656907 
L 216.244629 248.816503 
L 216.383104 242.222192 
L 216.452342 252.25819 
L 216.521579 248.746991 
L 216.590817 253.263957 
L 216.729291 240.016839 
L 216.867766 255.581755 
L 216.937004 243.10889 
L 217.006241 245.941039 
L 217.075479 245.953548 
L 217.144716 247.777415 
L 217.213954 239.210264 
L 217.283191 240.183731 
L 217.352429 248.618332 
L 217.421666 247.20589 
L 217.490904 246.047546 
L 217.629379 249.106253 
L 217.837091 243.826665 
L 217.906329 252.03873 
L 217.975566 248.959395 
L 218.114041 238.937108 
L 218.321754 247.612543 
L 218.460228 242.037224 
L 218.529466 257.419958 
L 218.598703 245.919091 
L 218.667941 248.949211 
L 218.737178 250.764302 
L 218.806416 243.135665 
L 218.875653 249.6309 
L 218.944891 238.709272 
L 219.014128 251.979888 
L 219.083366 244.961479 
L 219.152603 252.630125 
L 219.221841 240.257001 
L 219.291078 244.413086 
L 219.498791 249.103249 
L 219.568028 248.151767 
L 219.637266 242.124978 
L 219.706503 247.165312 
L 219.775741 236.055625 
L 219.914216 256.286292 
L 219.983453 254.687334 
L 220.052691 244.456653 
L 220.121928 246.958665 
L 220.191165 241.572147 
L 220.260403 252.987012 
L 220.32964 245.651566 
L 220.398878 252.457607 
L 220.468115 249.465968 
L 220.537353 252.785279 
L 220.675828 238.365094 
L 220.814303 251.419939 
L 220.952778 237.931044 
L 221.022015 249.554238 
L 221.091253 249.531437 
L 221.16049 244.492117 
L 221.229728 244.78317 
L 221.368203 250.876947 
L 221.43744 249.846886 
L 221.506678 239.32939 
L 221.575915 242.361077 
L 221.645153 247.918967 
L 221.71439 242.92929 
L 221.783628 242.935524 
L 221.922102 253.516675 
L 221.99134 241.230215 
L 222.060577 248.60594 
L 222.129815 247.820572 
L 222.199052 256.401878 
L 222.26829 232.039041 
L 222.337527 237.158749 
L 222.476002 246.53237 
L 222.54524 246.749067 
L 222.614477 240.598326 
L 222.683715 246.86971 
L 222.752952 245.256904 
L 222.891427 246.21533 
L 222.960665 251.845666 
L 223.029902 245.46775 
L 223.09914 253.81774 
L 223.237615 244.236274 
L 223.514565 253.512423 
L 223.583802 242.35436 
L 223.65304 246.600198 
L 223.722277 255.516427 
L 223.860752 239.832428 
L 223.929989 241.021674 
L 223.999227 246.495363 
L 224.068464 242.797926 
L 224.137702 251.111271 
L 224.206939 237.935838 
L 224.276177 244.500276 
L 224.345414 237.496764 
L 224.483889 245.571581 
L 224.553127 247.699519 
L 224.622364 254.059558 
L 224.691602 253.810339 
L 224.899314 237.890612 
L 225.107027 252.017722 
L 225.176264 235.874741 
L 225.245502 244.862433 
L 225.314739 248.458579 
L 225.383977 245.954174 
L 225.453214 235.995815 
L 225.522451 244.865224 
L 225.591689 241.873066 
L 225.660926 240.893298 
L 225.868639 249.203332 
L 225.937876 245.980905 
L 226.007114 254.767532 
L 226.076351 243.395415 
L 226.145589 245.870373 
L 226.284064 251.02759 
L 226.353301 246.807701 
L 226.422539 235.586907 
L 226.491776 247.211034 
L 226.561014 240.355021 
L 226.630251 249.815193 
L 226.699489 242.169567 
L 226.837964 254.104437 
L 226.976439 246.714245 
L 227.045676 250.058192 
L 227.114914 245.347405 
L 227.253388 251.274298 
L 227.391863 241.011132 
L 227.599576 256.614024 
L 227.807288 236.968735 
L 227.876526 251.594441 
L 227.945763 246.43045 
L 228.015001 256.557312 
L 228.084238 249.780042 
L 228.153476 253.995383 
L 228.222713 253.199702 
L 228.291951 241.253352 
L 228.361188 243.538189 
L 228.430426 241.077041 
L 228.499663 248.094762 
L 228.568901 237.481203 
L 228.638138 250.648761 
L 228.776613 239.304488 
L 228.915088 249.000295 
L 228.984325 245.798113 
L 229.053563 245.993375 
L 229.1228 245.432552 
L 229.192038 251.917149 
L 229.261275 248.084911 
L 229.39975 241.688799 
L 229.538225 248.350777 
L 229.607463 237.223855 
L 229.6767 240.922786 
L 229.884413 249.127157 
L 229.95365 243.296286 
L 230.022888 243.957571 
L 230.092125 241.555987 
L 230.299838 252.321962 
L 230.438313 240.535329 
L 230.576788 256.919215 
L 230.7845 242.701666 
L 230.922975 255.721617 
L 231.06145 249.182912 
L 231.3384 247.421696 
L 231.407637 252.781847 
L 231.476875 251.236492 
L 231.546112 243.029479 
L 231.61535 248.483039 
L 231.684587 243.864097 
L 231.753825 244.929393 
L 231.8923 250.963122 
L 231.961537 249.414219 
L 232.030775 240.364714 
L 232.100012 251.916144 
L 232.16925 251.093877 
L 232.307725 244.812337 
L 232.376962 247.797822 
L 232.4462 247.525826 
L 232.653912 250.406468 
L 232.723149 243.102503 
L 232.792387 246.334962 
L 232.861624 243.917907 
L 232.930862 249.807406 
L 233.069337 240.069308 
L 233.138574 254.998938 
L 233.207812 247.55239 
L 233.277049 252.614408 
L 233.415524 243.659308 
L 233.484762 249.031578 
L 233.553999 245.613888 
L 233.623237 250.321979 
L 233.692474 249.929085 
L 233.761712 250.421882 
L 233.900187 242.159294 
L 233.969424 249.229536 
L 234.038662 249.12045 
L 234.177137 246.925672 
L 234.246374 252.675611 
L 234.315611 251.814193 
L 234.454086 237.789562 
L 234.592561 257.531683 
L 234.800274 242.814263 
L 235.007986 246.681742 
L 235.077224 245.519834 
L 235.146461 245.531429 
L 235.215699 250.000742 
L 235.284936 249.785043 
L 235.492649 256.13772 
L 235.561886 252.389562 
L 235.631124 240.496446 
L 235.700361 246.170115 
L 235.769599 253.435548 
L 235.838836 250.031696 
L 235.908074 250.806482 
L 236.046548 244.097688 
L 236.115786 246.025289 
L 236.185023 244.366392 
L 236.254261 251.885 
L 236.323498 250.379405 
L 236.461973 245.326651 
L 236.531211 246.625878 
L 236.600448 252.496077 
L 236.738923 239.773676 
L 236.808161 249.400648 
L 236.877398 243.79222 
L 236.946636 247.262378 
L 237.015873 246.445971 
L 237.085111 247.00766 
L 237.223586 242.149403 
L 237.292823 252.172375 
L 237.362061 251.69235 
L 237.431298 237.582296 
L 237.500536 242.05789 
L 237.639011 254.588712 
L 237.708248 240.467717 
L 237.777485 246.107032 
L 237.846723 241.221056 
L 238.054435 253.422529 
L 238.123673 248.026857 
L 238.19291 248.671457 
L 238.400623 245.609129 
L 238.46986 249.185267 
L 238.539098 233.45308 
L 238.677573 247.826246 
L 238.74681 243.336139 
L 238.816048 245.060184 
L 238.885285 249.646646 
L 238.954523 243.856557 
L 239.02376 250.268981 
L 239.092998 246.741971 
L 239.162235 249.531039 
L 239.30071 241.279891 
L 239.439185 250.745655 
L 239.508423 240.781118 
L 239.57766 241.907877 
L 239.716135 250.462614 
L 239.785372 248.779494 
L 239.85461 253.339364 
L 239.923847 252.679975 
L 239.993085 249.262306 
L 240.062322 239.953363 
L 240.200797 250.233307 
L 240.40851 244.247604 
L 240.477747 248.160992 
L 240.546985 241.539969 
L 240.616222 248.67211 
L 240.823935 237.858625 
L 240.96241 251.117011 
L 241.031647 250.317152 
L 241.170122 238.412193 
L 241.23936 248.603127 
L 241.308597 247.91747 
L 241.377834 250.284948 
L 241.447072 246.991578 
L 241.516309 247.361381 
L 241.585547 247.113491 
L 241.654784 248.236427 
L 241.724022 245.914501 
L 241.931734 255.392653 
L 242.139447 236.276331 
L 242.347159 254.99608 
L 242.416397 244.958058 
L 242.485634 247.575024 
L 242.554872 252.973701 
L 242.693347 241.91727 
L 242.762584 243.020695 
L 242.831822 242.167693 
L 243.039534 252.7834 
L 243.108771 250.490152 
L 243.178009 255.479611 
L 243.247246 241.470125 
L 243.316484 255.427132 
L 243.385721 247.545317 
L 243.524196 242.941425 
L 243.593434 246.177695 
L 243.662671 241.25439 
L 243.801146 248.308657 
L 243.870384 234.115288 
L 243.939621 254.143954 
L 244.008859 253.801173 
L 244.078096 237.883588 
L 244.147334 247.409084 
L 244.216571 247.175555 
L 244.285809 250.109547 
L 244.355046 238.882058 
L 244.493521 250.716873 
L 244.562759 247.615952 
L 244.631996 253.16868 
L 244.770471 245.537129 
L 244.839708 251.89918 
L 244.908946 251.463704 
L 244.978183 244.990106 
L 245.047421 252.344171 
L 245.185896 240.493539 
L 245.255133 253.26897 
L 245.324371 253.248179 
L 245.393608 249.046832 
L 245.462846 253.699873 
L 245.532083 251.68765 
L 245.601321 252.009254 
L 245.670558 250.028742 
L 245.739796 243.732512 
L 245.878271 253.098404 
L 245.947508 246.036382 
L 246.016746 247.130924 
L 246.085983 246.027457 
L 246.155221 252.855387 
L 246.224458 248.369736 
L 246.293696 249.858464 
L 246.501408 251.940742 
L 246.570646 248.889371 
L 246.639883 239.177914 
L 246.70912 251.486136 
L 246.778358 243.321938 
L 246.916833 252.64575 
L 246.98607 248.978375 
L 247.055308 251.048025 
L 247.124545 249.338373 
L 247.193783 251.408937 
L 247.53997 237.836326 
L 247.609208 240.412016 
L 247.81692 250.814825 
L 247.955395 240.340239 
L 248.024633 247.026679 
L 248.09387 241.334637 
L 248.163108 248.462021 
L 248.232345 240.920245 
L 248.301583 244.601449 
L 248.509295 251.907395 
L 248.64777 242.325379 
L 248.786245 250.988555 
L 248.855482 251.028492 
L 248.92472 240.225203 
L 248.993957 251.915051 
L 249.063195 246.843942 
L 249.132432 251.532582 
L 249.270907 244.854788 
L 249.340145 250.304807 
L 249.409382 248.91803 
L 249.547857 237.980679 
L 249.686332 247.5974 
L 249.75557 245.70076 
L 249.824807 254.056229 
L 249.894045 246.891656 
L 249.963282 252.299439 
L 250.03252 249.437063 
L 250.101757 247.993957 
L 250.170994 240.63132 
L 250.309469 251.755037 
L 250.378707 241.442437 
L 250.586419 257.139701 
L 250.655657 242.777928 
L 250.724894 248.637594 
L 250.863369 243.551001 
L 250.932607 247.355151 
L 251.001844 238.368277 
L 251.140319 249.943579 
L 251.278794 240.380031 
L 251.417269 251.705575 
L 251.486507 251.297298 
L 251.624982 248.989975 
L 251.763457 254.127011 
L 251.901931 235.033216 
L 252.109644 251.537186 
L 252.248119 253.869251 
L 252.317356 248.718774 
L 252.386594 249.691727 
L 252.455831 250.591187 
L 252.594306 246.915991 
L 252.663544 238.286308 
L 252.732781 247.959127 
L 252.802019 245.084651 
L 252.871256 241.938163 
L 252.940494 254.150829 
L 253.009731 241.695828 
L 253.078969 246.329622 
L 253.148206 250.128658 
L 253.217444 247.698622 
L 253.286681 254.107428 
L 253.494394 240.95528 
L 253.632869 252.136658 
L 253.702106 247.740432 
L 253.771343 253.61377 
L 253.909818 240.180546 
L 253.979056 244.097082 
L 254.186768 251.584828 
L 254.256006 248.046611 
L 254.394481 252.223361 
L 254.463718 249.334212 
L 254.532956 251.53956 
L 254.602193 246.27301 
L 254.671431 248.252162 
L 254.740668 251.013975 
L 254.809906 246.367973 
L 254.879143 250.046026 
L 254.948381 249.325835 
L 255.017618 240.538293 
L 255.156093 250.628458 
L 255.225331 249.897613 
L 255.294568 243.782754 
L 255.363806 245.538195 
L 255.433043 246.184857 
L 255.50228 251.060994 
L 255.640755 243.693577 
L 255.709993 247.281237 
L 255.77923 238.007963 
L 255.917705 251.672943 
L 256.05618 256.44344 
L 256.263893 240.454188 
L 256.540843 253.219096 
L 256.61008 252.215731 
L 256.748555 255.496481 
L 256.817793 249.655155 
L 256.88703 253.386686 
L 257.025505 246.101523 
L 257.094743 246.671644 
L 257.16398 248.929406 
L 257.302455 242.018636 
L 257.371692 250.051042 
L 257.44093 247.086175 
L 257.510167 245.237436 
L 257.71788 255.636854 
L 257.99483 248.206431 
L 258.064067 248.085482 
L 258.133305 244.203342 
L 258.202542 254.443106 
L 258.27178 251.02812 
L 258.410255 239.525912 
L 258.54873 253.19194 
L 258.687205 251.662583 
L 258.756442 242.200742 
L 258.82568 244.924212 
L 258.964154 254.046509 
L 259.033392 251.603595 
L 259.102629 252.351028 
L 259.171867 240.323948 
L 259.241104 242.532042 
L 259.448817 256.10624 
L 259.518054 248.962366 
L 259.587292 253.418247 
L 259.864242 241.528525 
L 260.002717 250.373342 
L 260.071954 247.472456 
L 260.141192 248.419151 
L 260.279667 252.187705 
L 260.348904 246.943346 
L 260.418142 254.137331 
L 260.487379 246.758198 
L 260.556617 251.644185 
L 260.625854 241.56215 
L 260.833566 252.470223 
L 260.902804 244.493875 
L 260.972041 253.640802 
L 261.041279 252.177875 
L 261.110516 256.310079 
L 261.318229 245.179212 
L 261.456704 254.996146 
L 261.525941 250.579271 
L 261.595179 253.659083 
L 261.664416 246.004893 
L 261.733654 256.57423 
L 261.802891 241.590593 
L 261.872129 246.779507 
L 261.941366 252.637923 
L 262.010604 241.322191 
L 262.079841 252.262002 
L 262.149079 249.218477 
L 262.218316 236.797676 
L 262.287554 239.31966 
L 262.356791 255.053511 
L 262.426029 252.536904 
L 262.564503 246.670513 
L 262.633741 248.628121 
L 262.702978 240.085503 
L 262.772216 244.524434 
L 262.841453 254.149532 
L 262.910691 244.19066 
L 262.979928 250.7919 
L 263.049166 247.674707 
L 263.118403 252.709696 
L 263.187641 251.027388 
L 263.256878 253.228641 
L 263.326116 249.608659 
L 263.395353 251.469788 
L 263.464591 251.123762 
L 263.533828 256.690509 
L 263.603066 249.195083 
L 263.672303 254.710739 
L 263.810778 242.24308 
L 263.880016 242.817623 
L 263.949253 253.954694 
L 264.018491 250.456974 
L 264.156966 238.383267 
L 264.226203 240.951613 
L 264.364678 250.900435 
L 264.433915 250.099315 
L 264.503153 251.253995 
L 264.57239 248.723496 
L 264.641628 251.6629 
L 264.710865 248.274128 
L 264.780103 238.553604 
L 264.987815 253.507162 
L 265.12629 246.270974 
L 265.195528 253.571019 
L 265.264765 253.126807 
L 265.334003 246.060569 
L 265.40324 249.862491 
L 265.541715 244.030782 
L 265.68019 252.150008 
L 265.818665 242.024013 
L 265.887903 250.402043 
L 265.95714 245.690016 
L 266.026377 251.864598 
L 266.095615 245.976243 
L 266.164852 248.284238 
L 266.23409 249.684883 
L 266.303327 244.94229 
L 266.441802 251.175688 
L 266.51104 249.584755 
L 266.580277 252.911139 
L 266.649515 249.322561 
L 266.718752 252.572043 
L 266.78799 248.641357 
L 266.857227 257.05919 
L 267.06494 243.036316 
L 267.134177 253.317511 
L 267.203415 250.857179 
L 267.272652 242.339703 
L 267.411127 253.240979 
L 267.480365 246.948138 
L 267.549602 251.906194 
L 267.61884 248.040544 
L 267.688077 237.375598 
L 267.757314 252.334317 
L 267.826552 251.194056 
L 267.965027 247.016212 
L 268.034264 248.510266 
L 268.103502 254.962274 
L 268.172739 252.153937 
L 268.241977 250.529557 
L 268.311214 241.273228 
L 268.380452 245.368279 
L 268.449689 257.745599 
L 268.588164 241.750926 
L 268.657402 244.351769 
L 268.726639 255.323932 
L 268.795877 242.32931 
L 268.865114 246.474197 
L 268.934352 245.730529 
L 269.142064 256.554101 
L 269.211302 255.287739 
L 269.419014 240.369699 
L 269.488252 249.300769 
L 269.557489 247.442829 
L 269.626726 251.104912 
L 269.695964 250.183771 
L 269.765201 248.038863 
L 269.834439 239.068125 
L 269.903676 241.148517 
L 270.042151 251.710845 
L 270.180626 242.409264 
L 270.319101 255.179537 
L 270.388339 249.613778 
L 270.457576 253.858441 
L 270.526814 247.276372 
L 270.596051 250.518921 
L 270.665289 251.630398 
L 270.734526 246.155098 
L 270.803764 252.423559 
L 270.873001 241.563471 
L 271.011476 251.133357 
L 271.080714 248.528923 
L 271.149951 250.359166 
L 271.219189 255.423229 
L 271.288426 239.420462 
L 271.357663 244.109703 
L 271.496138 252.074118 
L 271.565376 250.504027 
L 271.773088 233.796916 
L 271.911563 246.29662 
L 271.980801 239.267691 
L 272.119276 252.166867 
L 272.188513 243.507472 
L 272.257751 245.885624 
L 272.326988 253.371057 
L 272.396226 243.810578 
L 272.465463 250.368052 
L 272.534701 249.499976 
L 272.673176 245.921858 
L 272.880888 255.178617 
L 273.019363 242.221932 
L 273.157838 256.40239 
L 273.227075 249.842637 
L 273.296313 246.818464 
L 273.36555 258.033288 
L 273.504025 247.974541 
L 273.573263 246.221681 
L 273.6425 253.180529 
L 273.711738 247.392416 
L 273.780975 248.1579 
L 273.850213 251.09031 
L 273.91945 237.626132 
L 273.988688 256.740141 
L 274.057925 252.74884 
L 274.127163 255.206711 
L 274.1964 250.638469 
L 274.265638 254.839186 
L 274.334875 245.668252 
L 274.404113 249.142681 
L 274.611825 252.305379 
L 274.681063 249.461949 
L 274.7503 252.878345 
L 274.888775 243.989676 
L 274.958012 248.750013 
L 275.02725 243.741162 
L 275.096487 245.063499 
L 275.165725 249.377977 
L 275.234962 246.849476 
L 275.3042 247.656454 
L 275.373437 257.267924 
L 275.442675 248.810189 
L 275.511912 249.534883 
L 275.58115 253.152709 
L 275.788862 245.899759 
L 275.8581 249.72375 
L 275.927337 246.478248 
L 275.996575 247.863826 
L 276.065812 247.625492 
L 276.204287 256.948003 
L 276.412 248.654754 
L 276.481237 249.814519 
L 276.550475 254.099383 
L 276.688949 248.19273 
L 276.827424 252.784324 
L 276.896662 247.758656 
L 276.965899 253.77714 
L 277.035137 242.169376 
L 277.104374 243.185381 
L 277.173612 254.036193 
L 277.242849 249.761482 
L 277.312087 247.136225 
L 277.381324 255.423545 
L 277.450562 253.009245 
L 277.519799 256.896481 
L 277.727512 248.858561 
L 277.865987 255.852784 
L 277.935224 253.029082 
L 278.004462 255.348351 
L 278.073699 246.096323 
L 278.142937 254.669902 
L 278.212174 249.284049 
L 278.281412 258.371295 
L 278.350649 254.10871 
L 278.489124 244.45288 
L 278.558361 245.677511 
L 278.627599 240.826738 
L 278.766074 251.664658 
L 278.835311 245.900586 
L 278.904549 249.331691 
L 278.973786 247.845511 
L 279.043024 250.14752 
L 279.112261 248.893139 
L 279.319974 244.874982 
L 279.389211 246.521763 
L 279.458449 243.893024 
L 279.596924 253.550623 
L 279.666161 249.830998 
L 279.735399 252.502978 
L 279.873874 246.723289 
L 280.150823 257.861505 
L 280.358536 246.400645 
L 280.427773 250.688807 
L 280.497011 252.948679 
L 280.566248 249.520343 
L 280.635486 251.297274 
L 280.773961 245.83879 
L 280.843198 255.421337 
L 280.912436 253.572355 
L 280.981673 255.911838 
L 281.050911 241.902064 
L 281.120148 249.271918 
L 281.189386 251.906686 
L 281.258623 249.70353 
L 281.327861 237.981802 
L 281.397098 252.381238 
L 281.466336 250.999068 
L 281.674048 250.234573 
L 281.743286 245.708381 
L 281.812523 247.425586 
L 281.950998 257.606178 
L 282.089473 257.205055 
L 282.15871 249.98633 
L 282.227948 256.02339 
L 282.297185 249.191736 
L 282.366423 250.467292 
L 282.43566 250.413538 
L 282.504898 251.655972 
L 282.574135 238.864728 
L 282.71261 251.385661 
L 282.781848 248.914207 
L 282.851085 249.013533 
L 282.920323 250.035571 
L 282.98956 249.260876 
L 283.058798 241.915623 
L 283.197273 255.108115 
L 283.26651 245.029596 
L 283.335748 251.192251 
L 283.404985 250.275875 
L 283.474223 251.598449 
L 283.54346 250.762491 
L 283.612698 250.987224 
L 283.681935 255.753081 
L 283.751172 254.846057 
L 283.82041 248.295421 
L 283.889647 258.278339 
L 283.958885 255.531709 
L 284.09736 246.070866 
L 284.166597 252.341076 
L 284.305072 244.868121 
L 284.37431 255.718013 
L 284.443547 251.007453 
L 284.512785 238.375615 
L 284.582022 242.129239 
L 284.789735 254.774213 
L 284.92821 235.975394 
L 285.20516 255.179784 
L 285.274397 244.432393 
L 285.343635 254.689362 
L 285.412872 248.561695 
L 285.551347 243.887364 
L 285.689822 250.203127 
L 285.759059 247.590373 
L 285.828297 251.019184 
L 285.897534 249.857116 
L 285.966772 246.446269 
L 286.036009 250.983399 
L 286.105247 248.666725 
L 286.243722 246.029257 
L 286.382197 252.109465 
L 286.451434 252.013061 
L 286.520672 258.248689 
L 286.589909 243.976163 
L 286.659147 250.513357 
L 286.728384 249.956354 
L 286.866859 251.412014 
L 287.005334 242.887821 
L 287.074572 254.277802 
L 287.143809 247.354551 
L 287.282284 254.19459 
L 287.351521 254.614971 
L 287.420759 245.374321 
L 287.489996 248.334248 
L 287.559234 257.841057 
L 287.628471 252.949819 
L 287.766946 245.473505 
L 287.836184 254.679831 
L 287.905421 245.437445 
L 287.974659 248.800784 
L 288.043896 256.248072 
L 288.113134 251.980618 
L 288.251609 236.330725 
L 288.390084 251.826856 
L 288.459321 250.317691 
L 288.528559 255.478395 
L 288.805509 234.292687 
L 288.943983 252.045875 
L 289.013221 253.704368 
L 289.151696 247.110931 
L 289.220933 252.896946 
L 289.290171 232.172321 
L 289.359408 252.0298 
L 289.428646 247.829139 
L 289.497883 247.788428 
L 289.567121 245.751642 
L 289.636358 255.954917 
L 289.705596 251.803748 
L 289.774833 251.091995 
L 289.844071 253.936301 
L 289.913308 253.122244 
L 289.982546 245.446661 
L 290.051783 248.79511 
L 290.121021 251.685519 
L 290.190258 251.503532 
L 290.259496 246.705169 
L 290.328733 257.434147 
L 290.467208 246.226721 
L 290.605683 255.101181 
L 290.813395 242.524808 
L 290.882633 244.279023 
L 290.95187 243.435761 
L 291.021108 241.80359 
L 291.090345 253.31872 
L 291.159583 247.797072 
L 291.22882 244.232995 
L 291.298058 254.794044 
L 291.367295 252.310958 
L 291.436533 252.745707 
L 291.50577 242.316767 
L 291.575008 254.594581 
L 291.644245 252.597778 
L 291.78272 247.441266 
L 291.851958 246.971254 
L 291.921195 254.385434 
L 291.990433 248.216997 
L 292.05967 254.256777 
L 292.128908 253.337037 
L 292.198145 243.316999 
L 292.267383 247.67218 
L 292.33662 255.750732 
L 292.405858 247.371775 
L 292.475095 249.548557 
L 292.61357 246.075025 
L 292.821282 251.313519 
L 293.028995 244.764924 
L 293.16747 250.477382 
L 293.236707 242.522892 
L 293.305945 251.622184 
L 293.375182 247.108648 
L 293.44442 249.818528 
L 293.513657 247.358434 
L 293.582895 249.27074 
L 293.652132 242.209654 
L 293.72137 248.996019 
L 293.790607 239.107997 
L 293.859845 242.89317 
L 293.929082 249.370205 
L 293.99832 247.324994 
L 294.067557 247.760555 
L 294.136795 245.251916 
L 294.206032 245.791995 
L 294.413744 255.645837 
L 294.482982 250.962619 
L 294.552219 251.756901 
L 294.621457 252.671179 
L 294.759932 250.516165 
L 294.829169 251.14809 
L 294.898407 251.739281 
L 294.967644 251.101189 
L 295.036882 254.585541 
L 295.106119 243.594546 
L 295.175357 249.454371 
L 295.313832 254.971457 
L 295.383069 256.00049 
L 295.452307 247.467946 
L 295.521544 248.492846 
L 295.590782 249.773968 
L 295.660019 248.642424 
L 295.798494 256.738304 
L 296.006206 242.375718 
L 296.075444 249.36031 
L 296.144681 249.288087 
L 296.213919 248.148467 
L 296.283156 249.267888 
L 296.352394 245.368783 
L 296.560106 254.696413 
L 296.698581 246.538858 
L 296.767819 249.668862 
L 296.837056 240.420982 
L 296.906294 244.923077 
L 297.114006 250.642702 
L 297.183244 251.046312 
L 297.321719 250.049382 
L 297.390956 253.919745 
L 297.460194 242.370565 
L 297.529431 245.172172 
L 297.598669 259.40362 
L 297.667906 253.968794 
L 297.806381 248.972256 
L 297.875618 252.353537 
L 297.944856 243.529634 
L 298.014093 245.688326 
L 298.083331 245.600447 
L 298.152568 258.028858 
L 298.221806 253.177659 
L 298.291043 248.042321 
L 298.360281 249.804131 
L 298.429518 251.706127 
L 298.498756 247.605295 
L 298.567993 256.511199 
L 298.706468 240.833377 
L 298.914181 252.235734 
L 298.983418 252.199682 
L 299.052656 248.4712 
L 299.121893 253.496055 
L 299.191131 246.708512 
L 299.260368 246.933099 
L 299.398843 249.450117 
L 299.468081 243.179697 
L 299.675793 257.065902 
L 299.74503 249.492228 
L 299.814268 249.978549 
L 299.952743 245.083483 
L 300.160455 253.266537 
L 300.229693 246.958801 
L 300.368168 253.370919 
L 300.437405 242.524614 
L 300.506643 251.059159 
L 300.57588 247.302893 
L 300.645118 250.028317 
L 300.714355 244.648158 
L 300.783593 258.00305 
L 300.85283 251.605426 
L 300.922068 254.222232 
L 300.991305 242.551196 
L 301.060543 243.816527 
L 301.12978 254.331977 
L 301.199018 252.155756 
L 301.337492 245.482574 
L 301.40673 238.570988 
L 301.475967 239.55079 
L 301.545205 248.495245 
L 301.614442 248.409508 
L 301.68368 246.470987 
L 301.752917 248.010931 
L 301.822155 243.384691 
L 301.891392 243.992172 
L 301.96063 253.136877 
L 302.029867 250.458821 
L 302.099105 256.465237 
L 302.168342 254.113353 
L 302.23758 250.291868 
L 302.306817 250.382158 
L 302.376055 251.825708 
L 302.445292 251.498607 
L 302.51453 250.307551 
L 302.653005 240.290592 
L 302.722242 250.994883 
L 302.79148 250.870224 
L 302.999192 245.500567 
L 303.068429 256.541358 
L 303.137667 246.370259 
L 303.206904 250.822993 
L 303.276142 255.584277 
L 303.345379 254.897021 
L 303.414617 246.708777 
L 303.483854 252.821617 
L 303.553092 252.61875 
L 303.622329 247.034039 
L 303.691567 252.614878 
L 303.760804 250.185913 
L 303.830042 243.057688 
L 303.899279 254.17842 
L 303.968517 247.961477 
L 304.106992 253.895291 
L 304.383942 237.665298 
L 304.453179 252.002032 
L 304.522417 250.332345 
L 304.660892 253.558741 
L 304.868604 245.701237 
L 304.937841 249.572395 
L 305.076316 244.866507 
L 305.145554 250.513813 
L 305.214791 240.385684 
L 305.284029 246.193795 
L 305.491741 254.602793 
L 305.560979 241.672569 
L 305.630216 254.598002 
L 305.699454 253.936958 
L 305.768691 246.332532 
L 305.907166 255.860127 
L 305.976404 258.358381 
L 306.114879 243.960388 
L 306.184116 244.518165 
L 306.253354 252.47079 
L 306.322591 250.088407 
L 306.391829 250.022075 
L 306.461066 251.126902 
L 306.530304 248.039657 
L 306.599541 254.198964 
L 306.738016 246.450473 
L 306.807253 254.191756 
L 306.876491 242.634375 
L 306.945728 246.411455 
L 307.014966 242.486236 
L 307.153441 249.173335 
L 307.222678 248.483004 
L 307.430391 255.638449 
L 307.499628 254.50773 
L 307.568866 250.015975 
L 307.776578 257.56992 
L 307.845816 245.089353 
L 307.915053 250.978992 
L 307.984291 245.215571 
L 308.053528 253.806417 
L 308.122766 248.659689 
L 308.261241 255.921161 
L 308.330478 247.412616 
L 308.399715 248.277149 
L 308.468953 257.068023 
L 308.53819 242.936071 
L 308.607428 245.305336 
L 308.676665 246.082408 
L 308.81514 256.521215 
L 308.884378 254.759718 
L 309.09209 246.656256 
L 309.230565 256.668281 
L 309.438278 243.334919 
L 309.576753 255.824032 
L 309.715228 254.717113 
L 310.130652 241.916166 
L 310.19989 254.031598 
L 310.269127 252.554692 
L 310.407602 249.748824 
L 310.47684 245.848873 
L 310.615315 255.368848 
L 310.684552 244.675952 
L 310.823027 253.953241 
L 310.892265 254.386467 
L 310.961502 253.90219 
L 311.03074 245.174442 
L 311.099977 248.581031 
L 311.169215 253.620403 
L 311.238452 248.147837 
L 311.30769 255.40653 
L 311.446165 249.217736 
L 311.515402 248.92641 
L 311.723115 252.266892 
L 311.792352 251.720147 
L 311.861589 259.088529 
L 311.930827 241.831816 
L 312.000064 250.76203 
L 312.207777 258.059655 
L 312.277014 248.573115 
L 312.346252 251.679381 
L 312.415489 252.72646 
L 312.623202 245.476987 
L 312.692439 251.053585 
L 312.761677 248.955419 
L 312.900152 256.706385 
L 312.969389 250.54907 
L 313.038627 251.056382 
L 313.107864 248.701159 
L 313.177102 253.816452 
L 313.246339 252.935801 
L 313.454052 250.345066 
L 313.661764 254.999178 
L 313.731001 249.725545 
L 313.869476 259.14277 
L 314.007951 249.25879 
L 314.077189 252.329914 
L 314.146426 249.303926 
L 314.215664 253.549995 
L 314.284901 241.148319 
L 314.354139 247.238495 
L 314.423376 251.971421 
L 314.492614 245.965406 
L 314.561851 250.543806 
L 314.631089 248.783762 
L 314.700326 244.045906 
L 314.769564 252.699862 
L 314.838801 249.957809 
L 314.908039 254.235233 
L 314.977276 254.207531 
L 315.046514 254.112609 
L 315.115751 241.60713 
L 315.184989 251.105116 
L 315.254226 247.2714 
L 315.323464 251.755995 
L 315.531176 240.853246 
L 315.600413 252.37032 
L 315.669651 248.316145 
L 315.738888 239.63592 
L 315.946601 254.706634 
L 316.085076 247.629785 
L 316.154313 250.806801 
L 316.223551 249.30238 
L 316.292788 246.198641 
L 316.362026 253.524485 
L 316.431263 245.513171 
L 316.500501 253.263402 
L 316.569738 252.487035 
L 316.638976 253.841604 
L 316.708213 249.588002 
L 316.777451 257.189233 
L 316.846688 243.807825 
L 316.915926 249.673659 
L 316.985163 254.48324 
L 317.123638 241.377038 
L 317.262113 255.626801 
L 317.33135 255.608744 
L 317.400588 254.732603 
L 317.539063 255.574685 
L 317.6083 248.64589 
L 317.677538 256.000648 
L 317.746775 247.190355 
L 317.816013 248.935059 
L 317.88525 244.251814 
L 317.954488 246.721659 
L 318.092963 252.385815 
L 318.1622 250.663593 
L 318.300675 245.236825 
L 318.369913 257.282309 
L 318.43915 255.211184 
L 318.508388 254.101872 
L 318.577625 250.779842 
L 318.646863 238.987758 
L 318.7161 243.902849 
L 318.854575 255.622641 
L 318.923812 243.851177 
L 318.99305 245.785058 
L 319.062287 244.662213 
L 319.27 256.845048 
L 319.339237 251.113994 
L 319.408475 251.566096 
L 319.477712 256.421631 
L 319.54695 240.286046 
L 319.616187 249.22393 
L 319.685425 255.41894 
L 319.754662 251.512271 
L 319.8239 236.902394 
L 319.893137 244.100284 
L 320.031612 250.561025 
L 320.10085 249.037717 
L 320.170087 248.4135 
L 320.239325 254.599747 
L 320.308562 252.370146 
L 320.516275 244.921208 
L 320.585512 250.787977 
L 320.654749 239.972637 
L 320.723987 248.696459 
L 320.793224 242.301523 
L 320.862462 253.155935 
L 320.931699 250.560389 
L 321.000937 246.065569 
L 321.208649 256.582338 
L 321.277887 247.211424 
L 321.347124 254.95612 
L 321.416362 251.470143 
L 321.485599 250.617621 
L 321.554837 251.756951 
L 321.624074 255.121243 
L 321.693312 249.876023 
L 321.762549 258.277061 
L 321.831787 255.288553 
L 321.901024 252.544668 
L 321.970262 255.972071 
L 322.039499 252.988724 
L 322.108737 255.486077 
L 322.177974 248.013261 
L 322.247212 253.525938 
L 322.385687 243.192214 
L 322.454924 255.562899 
L 322.524161 246.585837 
L 322.593399 256.080029 
L 322.662636 250.690968 
L 322.731874 249.321937 
L 322.801111 250.321196 
L 322.939586 240.436735 
L 323.078061 253.546661 
L 323.216536 242.994712 
L 323.424249 253.576833 
L 323.493486 239.762815 
L 323.562724 256.302406 
L 323.631961 255.733221 
L 323.701199 252.55951 
L 323.770436 254.429162 
L 323.839674 255.440517 
L 324.047386 245.837334 
L 324.185861 255.526008 
L 324.255098 244.408475 
L 324.324336 253.992587 
L 324.393573 249.198032 
L 324.462811 243.017384 
L 324.532048 252.255202 
L 324.601286 249.301952 
L 324.670523 251.822032 
L 324.739761 249.541709 
L 324.808998 255.659197 
L 325.016711 247.9799 
L 325.085948 247.367314 
L 325.224423 252.014495 
L 325.432136 244.634665 
L 325.639848 253.65821 
L 325.709086 248.773434 
L 325.778323 248.981996 
L 325.847561 247.580883 
L 325.986035 252.487898 
L 326.055273 250.715072 
L 326.12451 253.393639 
L 326.193748 240.424235 
L 326.332223 253.277834 
L 326.40146 248.756236 
L 326.539935 255.259378 
L 326.609173 249.14079 
L 326.67841 250.944426 
L 326.816885 254.68542 
L 326.886123 251.751235 
L 326.95536 257.151388 
L 327.024598 249.693826 
L 327.093835 249.817056 
L 327.163073 251.982431 
L 327.23231 243.329105 
L 327.301548 246.279088 
L 327.440023 256.636579 
L 327.578498 247.998459 
L 327.647735 254.296497 
L 327.716972 252.17295 
L 327.78621 251.55671 
L 327.855447 258.805426 
L 327.993922 247.444259 
L 328.132397 258.940601 
L 328.201635 253.805811 
L 328.270872 256.63076 
L 328.34011 255.486521 
L 328.409347 246.432473 
L 328.478585 250.684407 
L 328.547822 246.210666 
L 328.61706 248.203338 
L 328.686297 253.263535 
L 328.755535 252.966686 
L 328.963247 242.558713 
L 329.032485 257.673922 
L 329.101722 256.213124 
L 329.17096 256.598088 
L 329.240197 253.571548 
L 329.309435 255.869126 
L 329.378672 249.117392 
L 329.44791 251.65282 
L 329.517147 251.458996 
L 329.586384 244.152946 
L 329.655622 246.735998 
L 329.724859 253.593451 
L 329.794097 250.3256 
L 329.863334 249.312126 
L 329.932572 250.814433 
L 330.001809 247.722176 
L 330.140284 255.082797 
L 330.209522 242.329093 
L 330.278759 258.375036 
L 330.347997 254.029616 
L 330.417234 252.477623 
L 330.486472 236.564828 
L 330.555709 250.550271 
L 330.624947 245.694664 
L 330.694184 253.557231 
L 330.763422 251.489484 
L 330.832659 250.170265 
L 330.901897 239.290124 
L 330.971134 244.053683 
L 331.040372 249.231838 
L 331.109609 244.461039 
L 331.248084 252.434849 
L 331.317321 253.181411 
L 331.455796 255.768334 
L 331.525034 253.793337 
L 331.594271 255.245333 
L 331.801984 248.945125 
L 331.871221 254.568509 
L 331.940459 250.429336 
L 332.009696 254.604041 
L 332.078934 243.209145 
L 332.148171 249.159045 
L 332.217409 248.719971 
L 332.355884 255.599843 
L 332.425121 253.215439 
L 332.563596 248.853324 
L 332.632834 258.114869 
L 332.702071 255.571261 
L 332.771309 245.012245 
L 332.840546 249.576805 
L 332.909784 247.873499 
L 332.979021 255.119119 
L 333.048258 253.007862 
L 333.117496 249.686893 
L 333.186733 255.827536 
L 333.255971 253.588325 
L 333.394446 257.170244 
L 333.532921 254.112359 
L 333.602158 247.481382 
L 333.671396 257.168848 
L 333.809871 245.163602 
L 333.879108 256.42101 
L 333.948346 250.540019 
L 334.017583 255.723148 
L 334.086821 247.205177 
L 334.156058 249.849907 
L 334.225296 248.497475 
L 334.294533 250.578142 
L 334.363771 247.008755 
L 334.502246 253.303287 
L 334.571483 249.21545 
L 334.640721 252.635072 
L 334.709958 244.534415 
L 334.848433 254.25489 
L 335.056145 247.626098 
L 335.125383 257.751973 
L 335.19462 250.219834 
L 335.263858 255.740757 
L 335.333095 250.13758 
L 335.402333 257.83658 
L 335.47157 256.148906 
L 335.610045 243.827958 
L 335.817758 253.619763 
L 335.886995 251.923317 
L 336.163945 256.987593 
L 336.233183 253.111375 
L 336.30242 256.628602 
L 336.510133 243.223655 
L 336.57937 251.284828 
L 336.648607 247.896656 
L 336.717845 248.92191 
L 336.85632 244.710518 
L 336.925557 249.290935 
L 336.994795 238.158073 
L 337.064032 251.082573 
L 337.13327 242.037099 
L 337.202507 254.242767 
L 337.271745 250.919167 
L 337.340982 256.858042 
L 337.41022 246.292681 
L 337.479457 256.967405 
L 337.548695 252.879024 
L 337.756407 247.256693 
L 337.894882 253.503719 
L 337.96412 253.723424 
L 338.102595 255.905593 
L 338.171832 241.528993 
L 338.24107 247.37768 
L 338.310307 252.742134 
L 338.379544 251.947749 
L 338.448782 248.150451 
L 338.518019 260.495835 
L 338.587257 256.041147 
L 338.656494 257.119197 
L 338.725732 257.071432 
L 338.794969 255.243973 
L 338.864207 255.500451 
L 339.002682 238.129783 
L 339.210394 257.552282 
L 339.279632 257.715638 
L 339.418107 250.056598 
L 339.487344 252.633066 
L 339.556582 254.416093 
L 339.695057 251.076696 
L 339.764294 255.189327 
L 339.833532 251.13055 
L 339.902769 251.850521 
L 340.041244 258.984162 
L 340.110481 257.72472 
L 340.179719 244.426381 
L 340.248956 255.854325 
L 340.318194 247.122786 
L 340.387431 249.751069 
L 340.456669 253.765058 
L 340.525906 252.942771 
L 340.595144 253.675065 
L 340.664381 256.130547 
L 340.802856 250.826395 
L 340.941331 258.81489 
L 341.010569 233.277704 
L 341.079806 255.672793 
L 341.149044 250.087757 
L 341.218281 253.794902 
L 341.287519 253.111511 
L 341.356756 255.02022 
L 341.425994 249.548918 
L 341.495231 252.904834 
L 341.564469 249.093035 
L 341.633706 251.1417 
L 341.702944 254.996084 
L 341.772181 254.341858 
L 341.841418 252.729365 
L 341.910656 256.421794 
L 342.049131 249.777467 
L 342.187606 254.812657 
L 342.326081 247.970699 
L 342.395318 251.37447 
L 342.464556 251.235259 
L 342.533793 251.662666 
L 342.603031 252.805084 
L 342.672268 247.083622 
L 342.741506 256.780447 
L 342.810743 254.999751 
L 342.879981 257.159796 
L 342.949218 253.528243 
L 343.018456 258.479662 
L 343.087693 248.030251 
L 343.156931 253.391297 
L 343.226168 256.185942 
L 343.364643 247.703277 
L 343.433881 257.414083 
L 343.503118 249.355782 
L 343.572356 255.517061 
L 343.71083 248.40227 
L 343.780068 256.110792 
L 343.918543 244.41088 
L 343.98778 253.09408 
L 344.057018 251.672622 
L 344.126255 249.369875 
L 344.26473 253.062262 
L 344.333968 258.589716 
L 344.54168 245.083226 
L 344.610918 252.318225 
L 344.680155 252.097051 
L 344.749393 245.049953 
L 344.81863 249.016755 
L 344.887868 254.540872 
L 344.957105 245.689968 
L 345.026343 247.135049 
L 345.303293 257.20734 
L 345.37253 249.256069 
L 345.441767 258.142797 
L 345.511005 256.986942 
L 345.580242 247.710083 
L 345.718717 256.272496 
L 345.787955 254.72089 
L 345.857192 257.916668 
L 345.995667 245.289108 
L 346.134142 249.378346 
L 346.20338 248.890285 
L 346.341855 253.421287 
L 346.411092 246.088215 
L 346.48033 250.646892 
L 346.549567 248.690557 
L 346.618805 245.390755 
L 346.688042 247.080293 
L 346.75728 245.097123 
L 346.826517 258.385187 
L 346.895755 252.7692 
L 346.964992 252.673878 
L 347.03423 255.660416 
L 347.103467 253.766754 
L 347.172704 246.885709 
L 347.241942 255.686344 
L 347.311179 253.040733 
L 347.380417 257.004626 
L 347.449654 252.145512 
L 347.518892 254.559116 
L 347.726604 250.709517 
L 347.795842 250.792733 
L 347.865079 254.845784 
L 347.934317 246.000689 
L 348.072792 255.19055 
L 348.211267 257.357046 
L 348.280504 256.249703 
L 348.349742 256.325137 
L 348.418979 249.736872 
L 348.488217 252.577658 
L 348.557454 255.972239 
L 348.626692 254.366125 
L 348.695929 249.529974 
L 348.765167 256.663775 
L 348.834404 252.700101 
L 348.903641 252.198676 
L 348.972879 249.457244 
L 349.042116 258.492159 
L 349.111354 245.664041 
L 349.180591 249.149938 
L 349.249829 249.426919 
L 349.388304 253.720068 
L 349.457541 251.166351 
L 349.526779 251.947328 
L 349.596016 252.239719 
L 349.665254 249.150719 
L 349.734491 255.495355 
L 349.803729 246.698562 
L 349.872966 250.717337 
L 350.011441 256.23238 
L 350.219154 248.215944 
L 350.288391 256.005122 
L 350.357629 249.99746 
L 350.426866 252.718467 
L 350.496104 247.707057 
L 350.565341 251.64753 
L 350.634578 245.104234 
L 350.703816 254.156368 
L 350.773053 253.847758 
L 350.980766 246.64017 
L 351.050003 252.400826 
L 351.119241 244.405734 
L 351.188478 252.015772 
L 351.257716 249.843465 
L 351.396191 251.152304 
L 351.465428 261.216 
L 351.603903 253.183424 
L 351.673141 252.063061 
L 351.742378 253.365687 
L 351.811616 247.971924 
L 351.950091 252.052493 
L 352.088566 247.149465 
L 352.157803 253.100313 
L 352.227041 248.492368 
L 352.296278 250.104253 
L 352.434753 249.271734 
L 352.50399 256.348227 
L 352.573228 250.147022 
L 352.642465 251.645934 
L 352.711703 250.563604 
L 352.850178 252.100319 
L 352.919415 252.171176 
L 352.988653 250.724151 
L 353.05789 257.745976 
L 353.127128 255.308558 
L 353.196365 256.707793 
L 353.404078 244.312364 
L 353.750265 259.765839 
L 353.819503 250.336537 
L 353.88874 253.327722 
L 354.027215 251.405742 
L 354.096453 256.418788 
L 354.16569 243.84841 
L 354.234927 254.579392 
L 354.304165 251.938816 
L 354.373402 257.379272 
L 354.44264 248.599732 
L 354.511877 253.773531 
L 354.581115 251.239637 
L 354.650352 254.823131 
L 354.71959 251.867417 
L 354.788827 252.002969 
L 354.927302 256.263345 
L 354.99654 242.428562 
L 355.135015 253.697388 
L 355.204252 246.720507 
L 355.27349 255.231943 
L 355.342727 246.622461 
L 355.411965 251.325054 
L 355.481202 251.307649 
L 355.55044 257.920245 
L 355.688915 247.833522 
L 355.758152 254.938355 
L 355.82739 252.13411 
L 355.896627 253.249977 
L 355.965864 252.559785 
L 356.035102 247.809261 
L 356.104339 251.344642 
L 356.173577 248.647681 
L 356.242814 252.528522 
L 356.312052 249.352979 
L 356.381289 254.520672 
L 356.450527 253.699058 
L 356.658239 243.755922 
L 356.796714 254.314779 
L 356.865952 242.194921 
L 356.935189 249.196271 
L 357.004427 252.142949 
L 357.073664 250.066383 
L 357.142902 250.988012 
L 357.212139 252.642972 
L 357.419852 249.088583 
L 357.489089 250.850743 
L 357.558327 248.17879 
L 357.627564 255.017758 
L 357.696801 252.005713 
L 357.766039 255.76467 
L 357.835276 249.679013 
L 357.904514 256.232686 
L 357.973751 245.955317 
L 358.042989 251.55003 
L 358.112226 250.46372 
L 358.181464 253.494981 
L 358.319939 246.477145 
L 358.458414 253.604821 
L 358.527651 240.311294 
L 358.596889 254.686401 
L 358.666126 251.713405 
L 358.735364 252.83252 
L 358.804601 248.731416 
L 358.873839 257.122193 
L 358.943076 250.93374 
L 359.012314 253.080786 
L 359.081551 255.590785 
L 359.150789 254.276604 
L 359.220026 255.072117 
L 359.358501 241.228016 
L 359.427739 258.680169 
L 359.496976 253.005257 
L 359.566213 255.566287 
L 359.635451 254.460747 
L 359.704688 248.321701 
L 359.773926 256.910258 
L 359.843163 251.047046 
L 359.912401 253.412091 
L 360.050876 250.428095 
L 360.120113 252.860088 
L 360.189351 241.946001 
L 360.258588 256.787411 
L 360.327826 251.717575 
L 360.397063 251.717039 
L 360.466301 256.717459 
L 360.535538 254.774267 
L 360.674013 252.23343 
L 360.743251 233.657459 
L 360.950963 258.250667 
L 361.020201 251.886189 
L 361.089438 252.867788 
L 361.158676 255.084115 
L 361.227913 254.001495 
L 361.435625 250.030998 
L 361.504863 252.038931 
L 361.5741 251.094733 
L 361.643338 248.911892 
L 361.712575 252.233719 
L 361.781813 250.731336 
L 361.85105 250.543631 
L 361.920288 249.876204 
L 362.058763 255.304318 
L 362.128 245.693116 
L 362.335713 257.001975 
L 362.40495 248.030808 
L 362.474188 250.818951 
L 362.612663 256.637213 
L 362.6819 252.52869 
L 362.751138 253.803679 
L 362.889613 258.106211 
L 363.166562 251.326291 
L 363.2358 255.754347 
L 363.374275 250.7545 
L 363.581987 257.775791 
L 363.651225 246.845888 
L 363.720462 254.297581 
L 363.7897 253.332921 
L 363.858937 252.709586 
L 363.928175 249.373862 
L 363.997412 253.681878 
L 364.06665 253.604015 
L 364.205125 256.537352 
L 364.274362 244.800033 
L 364.3436 254.149055 
L 364.412837 253.937747 
L 364.62055 248.122374 
L 364.759024 255.40181 
L 364.828262 244.019053 
L 364.897499 249.361127 
L 364.966737 249.960094 
L 365.035974 252.720566 
L 365.174449 245.492144 
L 365.382162 256.311692 
L 365.451399 253.259774 
L 365.520637 256.808826 
L 365.589874 250.640359 
L 365.728349 255.713182 
L 365.797587 244.661171 
L 366.005299 260.562142 
L 366.074537 244.469188 
L 366.143774 249.767328 
L 366.213012 247.989259 
L 366.351487 256.972253 
L 366.420724 249.648222 
L 366.489962 256.813237 
L 366.559199 255.190832 
L 366.628436 255.181144 
L 366.766911 250.443563 
L 366.836149 260.144409 
L 366.905386 251.257192 
L 366.974624 253.510345 
L 367.043861 256.751019 
L 367.182336 248.992764 
L 367.320811 255.00911 
L 367.390049 251.484434 
L 367.459286 254.674238 
L 367.597761 250.780593 
L 367.736236 257.093732 
L 367.874711 251.024268 
L 368.013186 242.723876 
L 368.151661 256.282404 
L 368.290136 246.414384 
L 368.428611 249.395689 
L 368.497848 244.139335 
L 368.636323 252.979703 
L 368.705561 246.244826 
L 368.774798 249.209696 
L 368.844036 256.501651 
L 368.982511 237.260266 
L 369.120986 252.341281 
L 369.190223 249.964756 
L 369.328698 255.384222 
L 369.397936 254.923227 
L 369.467173 251.248715 
L 369.536411 255.594103 
L 369.605648 252.674797 
L 369.674886 253.18189 
L 369.744123 252.504153 
L 369.813361 254.338014 
L 369.951836 248.670461 
L 370.021073 249.285343 
L 370.228785 257.838961 
L 370.505735 247.254079 
L 370.574973 253.042342 
L 370.713448 247.795915 
L 370.92116 255.859502 
L 370.990398 253.740568 
L 370.990398 253.740568 
" clip-path="url(#pa82ad86060)" style="fill: none; stroke: #1f77b4; stroke-width: 1.5; stroke-linecap: square"/>
   </g>
   <g id="patch_3">
    <path d="M 30.103125 273.312 
L 30.103125 7.2 
" style="fill: none; stroke: #000000; stroke-width: 0.8; stroke-linejoin: miter; stroke-linecap: square"/>
   </g>
   <g id="patch_4">
    <path d="M 387.223125 273.312 
L 387.223125 7.2 
" style="fill: none; stroke: #000000; stroke-width: 0.8; stroke-linejoin: miter; stroke-linecap: square"/>
   </g>
   <g id="patch_5">
    <path d="M 30.103125 273.312 
L 387.223125 273.312 
" style="fill: none; stroke: #000000; stroke-width: 0.8; stroke-linejoin: miter; stroke-linecap: square"/>
   </g>
   <g id="patch_6">
    <path d="M 30.103125 7.2 
L 387.223125 7.2 
" style="fill: none; stroke: #000000; stroke-width: 0.8; stroke-linejoin: miter; stroke-linecap: square"/>
   </g>
  </g>
 </g>
 <defs>
  <clipPath id="pa82ad86060">
   <rect x="30.103125" y="7.2" width="357.12" height="266.112"/>
  </clipPath>
 </defs>
</svg>
