<?xml version="1.0" encoding="utf-8" standalone="no"?>
<!DOCTYPE svg PUBLIC "-//W3C//DTD SVG 1.1//EN"
  "http://www.w3.org/Graphics/SVG/1.1/DTD/svg11.dtd">
<svg xmlns:xlink="http://www.w3.org/1999/xlink" width="394.423125pt" height="297.190125pt" viewBox="0 0 394.423125 297.190125" xmlns="http://www.w3.org/2000/svg" version="1.1">
 <metadata>
  <rdf:RDF xmlns:dc="http://purl.org/dc/elements/1.1/" xmlns:cc="http://creativecommons.org/ns#" xmlns:rdf="http://www.w3.org/1999/02/22-rdf-syntax-ns#">
   <cc:Work>
    <dc:type rdf:resource="http://purl.org/dc/dcmitype/StillImage"/>
    <dc:date>2026-03-21T11:52:37.197869</dc:date>
    <dc:format>image/svg+xml</dc:format>
    <dc:creator>
     <cc:Agent>
      <dc:title>Matplotlib v3.10.0, https://matplotlib.org/</dc:title>
     </cc:Agent>
    </dc:creator>
   </cc:Work>
  </rdf:RDF>
 </metadata>
 <defs>
  <style type="text/css">*{stroke-linejoin: round; stroke-linecap: butt}</style>
 </defs>
 <g id="figure_1">
  <g id="patch_1">
   <path d="M 0 297.190125 
L 394.423125 297.190125 
L 394.423125 0 
L 0 0 
z
" style="fill: #ffffff"/>
  </g>
  <g id="axes_1">
   <g id="patch_2">
    <path d="M 30.103125 273.312 
L 387.223125 273.312 
L 387.223125 7.2 
L 30.103125 7.2 
z
" style="fill: #ffffff"/>
   </g>
   <g id="matplotlib.axis_1">
    <g id="xtick_1">
     <g id="line2d_1">
      <defs>
       <path id="mb77f1ec4c4" d="M 0 0 
L 0 3.5 
" style="stroke: #000000; stroke-width: 0.8"/>
      </defs>
      <g>
       <use xlink:href="#mb77f1ec4c4" x="46.335852" y="273.312" style="stroke: #000000; stroke-width: 0.8"/>
      </g>
     </g>
     <g id="text_1">
      <!-- 0 -->
      <g transform="translate(43.154602 287.910437) scale(0.1 -0.1)">
       <defs>
        <path id="DejaVuSans-30" d="M 2034 4250 
Q 1547 4250 1301 3770 
Q 1056 3291 1056 2328 
Q 1056 1369 1301 889 
Q 1547 409 2034 409 
Q 2525 409 2770 889 
Q 3016 1369 3016 2328 
Q 3016 3291 2770 3770 
Q 2525 4250 2034 4250 
z
M 2034 4750 
Q 2819 4750 3233 4129 
Q 3647 3509 3647 2328 
Q 3647 1150 3233 529 
Q 2819 -91 2034 -91 
Q 1250 -91 836 529 
Q 422 1150 422 2328 
Q 422 3509 836 4129 
Q 1250 4750 2034 4750 
z
" transform="scale(0.015625)"/>
       </defs>
       <use xlink:href="#DejaVuSans-30"/>
      </g>
     </g>
    </g>
    <g id="xtick_2">
     <g id="line2d_2">
      <g>
       <use xlink:href="#mb77f1ec4c4" x="115.573333" y="273.312" style="stroke: #000000; stroke-width: 0.8"/>
      </g>
     </g>
     <g id="text_2">
      <!-- 1000 -->
      <g transform="translate(102.848333 287.910437) scale(0.1 -0.1)">
       <defs>
        <path id="DejaVuSans-31" d="M 794 531 
L 1825 531 
L 1825 4091 
L 703 3866 
L 703 4441 
L 1819 4666 
L 2450 4666 
L 2450 531 
L 3481 531 
L 3481 0 
L 794 0 
L 794 531 
z
" transform="scale(0.015625)"/>
       </defs>
       <use xlink:href="#DejaVuSans-31"/>
       <use xlink:href="#DejaVuSans-30" transform="translate(63.623047 0)"/>
       <use xlink:href="#DejaVuSans-30" transform="translate(127.246094 0)"/>
       <use xlink:href="#DejaVuSans-30" transform="translate(190.869141 0)"/>
      </g>
     </g>
    </g>
    <g id="xtick_3">
     <g id="line2d_3">
      <g>
       <use xlink:href="#mb77f1ec4c4" x="184.810813" y="273.312" style="stroke: #000000; stroke-width: 0.8"/>
      </g>
     </g>
     <g id="text_3">
      <!-- 2000 -->
      <g transform="translate(172.085813 287.910437) scale(0.1 -0.1)">
       <defs>
        <path id="DejaVuSans-32" d="M 1228 531 
L 3431 531 
L 3431 0 
L 469 0 
L 469 531 
Q 828 903 1448 1529 
Q 2069 2156 2228 2338 
Q 2531 2678 2651 2914 
Q 2772 3150 2772 3378 
Q 2772 3750 2511 3984 
Q 2250 4219 1831 4219 
Q 1534 4219 1204 4116 
Q 875 4013 500 3803 
L 500 4441 
Q 881 4594 1212 4672 
Q 1544 4750 1819 4750 
Q 2544 4750 2975 4387 
Q 3406 4025 3406 3419 
Q 3406 3131 3298 2873 
Q 3191 2616 2906 2266 
Q 2828 2175 2409 1742 
Q 1991 1309 1228 531 
z
" transform="scale(0.015625)"/>
       </defs>
       <use xlink:href="#DejaVuSans-32"/>
       <use xlink:href="#DejaVuSans-30" transform="translate(63.623047 0)"/>
       <use xlink:href="#DejaVuSans-30" transform="translate(127.246094 0)"/>
       <use xlink:href="#DejaVuSans-30" transform="translate(190.869141 0)"/>
      </g>
     </g>
    </g>
    <g id="xtick_4">
     <g id="line2d_4">
      <g>
       <use xlink:href="#mb77f1ec4c4" x="254.048293" y="273.312" style="stroke: #000000; stroke-width: 0.8"/>
      </g>
     </g>
     <g id="text_4">
      <!-- 3000 -->
      <g transform="translate(241.323293 287.910437) scale(0.1 -0.1)">
       <defs>
        <path id="DejaVuSans-33" d="M 2597 2516 
Q 3050 2419 3304 2112 
Q 3559 1806 3559 1356 
Q 3559 666 3084 287 
Q 2609 -91 1734 -91 
Q 1441 -91 1130 -33 
Q 819 25 488 141 
L 488 750 
Q 750 597 1062 519 
Q 1375 441 1716 441 
Q 2309 441 2620 675 
Q 2931 909 2931 1356 
Q 2931 1769 2642 2001 
Q 2353 2234 1838 2234 
L 1294 2234 
L 1294 2753 
L 1863 2753 
Q 2328 2753 2575 2939 
Q 2822 3125 2822 3475 
Q 2822 3834 2567 4026 
Q 2313 4219 1838 4219 
Q 1578 4219 1281 4162 
Q 984 4106 628 3988 
L 628 4550 
Q 988 4650 1302 4700 
Q 1616 4750 1894 4750 
Q 2613 4750 3031 4423 
Q 3450 4097 3450 3541 
Q 3450 3153 3228 2886 
Q 3006 2619 2597 2516 
z
" transform="scale(0.015625)"/>
       </defs>
       <use xlink:href="#DejaVuSans-33"/>
       <use xlink:href="#DejaVuSans-30" transform="translate(63.623047 0)"/>
       <use xlink:href="#DejaVuSans-30" transform="translate(127.246094 0)"/>
       <use xlink:href="#DejaVuSans-30" transform="translate(190.869141 0)"/>
      </g>
     </g>
    </g>
    <g id="xtick_5">
     <g id="line2d_5">
      <g>
       <use xlink:href="#mb77f1ec4c4" x="323.285774" y="273.312" style="stroke: #000000; stroke-width: 0.8"/>
      </g>
     </g>
     <g id="text_5">
      <!-- 4000 -->
      <g transform="translate(310.560774 287.910437) scale(0.1 -0.1)">
       <defs>
        <path id="DejaVuSans-34" d="M 2419 4116 
L 825 1625 
L 2419 1625 
L 2419 4116 
z
M 2253 4666 
L 3047 4666 
L 3047 1625 
L 3713 1625 
L 3713 1100 
L 3047 1100 
L 3047 0 
L 2419 0 
L 2419 1100 
L 313 1100 
L 313 1709 
L 2253 4666 
z
" transform="scale(0.015625)"/>
       </defs>
       <use xlink:href="#DejaVuSans-34"/>
       <use xlink:href="#DejaVuSans-30" transform="translate(63.623047 0)"/>
       <use xlink:href="#DejaVuSans-30" transform="translate(127.246094 0)"/>
       <use xlink:href="#DejaVuSans-30" transform="translate(190.869141 0)"/>
      </g>
     </g>
    </g>
   </g>
   <g id="matplotlib.axis_2">
    <g id="ytick_1">
     <g id="line2d_6">
      <defs>
       <path id="m48f4ef30ee" d="M 0 0 
L -3.5 0 
" style="stroke: #000000; stroke-width: 0.8"/>
      </defs>
      <g>
       <use xlink:href="#m48f4ef30ee" x="30.103125" y="270.02069" style="stroke: #000000; stroke-width: 0.8"/>
      </g>
     </g>
     <g id="text_6">
      <!-- 0.0 -->
      <g transform="translate(7.2 273.819908) scale(0.1 -0.1)">
       <defs>
        <path id="DejaVuSans-2e" d="M 684 794 
L 1344 794 
L 1344 0 
L 684 0 
L 684 794 
z
" transform="scale(0.015625)"/>
       </defs>
       <use xlink:href="#DejaVuSans-30"/>
       <use xlink:href="#DejaVuSans-2e" transform="translate(63.623047 0)"/>
       <use xlink:href="#DejaVuSans-30" transform="translate(95.410156 0)"/>
      </g>
     </g>
    </g>
    <g id="ytick_2">
     <g id="line2d_7">
      <g>
       <use xlink:href="#m48f4ef30ee" x="30.103125" y="215.516078" style="stroke: #000000; stroke-width: 0.8"/>
      </g>
     </g>
     <g id="text_7">
      <!-- 0.5 -->
      <g transform="translate(7.2 219.315297) scale(0.1 -0.1)">
       <defs>
        <path id="DejaVuSans-35" d="M 691 4666 
L 3169 4666 
L 3169 4134 
L 1269 4134 
L 1269 2991 
Q 1406 3038 1543 3061 
Q 1681 3084 1819 3084 
Q 2600 3084 3056 2656 
Q 3513 2228 3513 1497 
Q 3513 744 3044 326 
Q 2575 -91 1722 -91 
Q 1428 -91 1123 -41 
Q 819 9 494 109 
L 494 744 
Q 775 591 1075 516 
Q 1375 441 1709 441 
Q 2250 441 2565 725 
Q 2881 1009 2881 1497 
Q 2881 1984 2565 2268 
Q 2250 2553 1709 2553 
Q 1456 2553 1204 2497 
Q 953 2441 691 2322 
L 691 4666 
z
" transform="scale(0.015625)"/>
       </defs>
       <use xlink:href="#DejaVuSans-30"/>
       <use xlink:href="#DejaVuSans-2e" transform="translate(63.623047 0)"/>
       <use xlink:href="#DejaVuSans-35" transform="translate(95.410156 0)"/>
      </g>
     </g>
    </g>
    <g id="ytick_3">
     <g id="line2d_8">
      <g>
       <use xlink:href="#m48f4ef30ee" x="30.103125" y="161.011467" style="stroke: #000000; stroke-width: 0.8"/>
      </g>
     </g>
     <g id="text_8">
      <!-- 1.0 -->
      <g transform="translate(7.2 164.810686) scale(0.1 -0.1)">
       <use xlink:href="#DejaVuSans-31"/>
       <use xlink:href="#DejaVuSans-2e" transform="translate(63.623047 0)"/>
       <use xlink:href="#DejaVuSans-30" transform="translate(95.410156 0)"/>
      </g>
     </g>
    </g>
    <g id="ytick_4">
     <g id="line2d_9">
      <g>
       <use xlink:href="#m48f4ef30ee" x="30.103125" y="106.506856" style="stroke: #000000; stroke-width: 0.8"/>
      </g>
     </g>
     <g id="text_9">
      <!-- 1.5 -->
      <g transform="translate(7.2 110.306074) scale(0.1 -0.1)">
       <use xlink:href="#DejaVuSans-31"/>
       <use xlink:href="#DejaVuSans-2e" transform="translate(63.623047 0)"/>
       <use xlink:href="#DejaVuSans-35" transform="translate(95.410156 0)"/>
      </g>
     </g>
    </g>
    <g id="ytick_5">
     <g id="line2d_10">
      <g>
       <use xlink:href="#m48f4ef30ee" x="30.103125" y="52.002244" style="stroke: #000000; stroke-width: 0.8"/>
      </g>
     </g>
     <g id="text_10">
      <!-- 2.0 -->
      <g transform="translate(7.2 55.801463) scale(0.1 -0.1)">
       <use xlink:href="#DejaVuSans-32"/>
       <use xlink:href="#DejaVuSans-2e" transform="translate(63.623047 0)"/>
       <use xlink:href="#DejaVuSans-30" transform="translate(95.410156 0)"/>
      </g>
     </g>
    </g>
   </g>
   <g id="line2d_11">
    <path d="M 46.335852 19.296 
L 46.40509 19.706925 
L 46.68204 26.160094 
L 47.166702 80.240253 
L 47.305177 49.214394 
L 47.512889 140.149513 
L 47.582127 41.819067 
L 47.651364 86.158903 
L 47.720602 89.310117 
L 47.789839 113.460771 
L 47.928314 84.452203 
L 48.205264 152.770341 
L 48.274502 163.797173 
L 48.482214 135.563635 
L 48.620689 175.871948 
L 48.689927 164.436939 
L 48.897639 192.126939 
L 49.105351 145.922763 
L 49.243826 185.887465 
L 49.451539 155.538894 
L 49.659251 200.342823 
L 49.728489 197.290701 
L 49.866964 176.846813 
L 49.936201 178.65451 
L 50.074676 205.805689 
L 50.282389 177.254366 
L 50.420864 133.072042 
L 50.559339 199.38643 
L 50.628576 180.973672 
L 50.697814 182.334675 
L 50.767051 175.429731 
L 50.836288 202.527989 
L 51.044001 170.874988 
L 51.251713 208.832301 
L 51.390188 190.648469 
L 51.459426 194.084285 
L 51.528663 189.403927 
L 51.597901 195.873911 
L 51.667138 177.697545 
L 51.736376 182.842802 
L 51.805613 207.65825 
L 51.874851 169.298322 
L 52.013326 203.431486 
L 52.151801 186.700199 
L 52.290276 201.394176 
L 52.428751 185.933317 
L 52.567226 209.399211 
L 52.636463 204.540238 
L 52.7057 211.059096 
L 52.774938 174.830386 
L 52.844175 198.208896 
L 52.913413 195.752266 
L 52.98265 176.141625 
L 53.051888 192.22967 
L 53.121125 182.893404 
L 53.328838 206.699154 
L 53.467313 198.326337 
L 53.605788 179.004664 
L 53.675025 207.799518 
L 53.744263 195.44571 
L 53.882738 207.128291 
L 54.021213 201.495166 
L 54.09045 188.471308 
L 54.228925 211.144479 
L 54.298163 185.339138 
L 54.3674 198.296468 
L 54.436637 193.84484 
L 54.575112 201.73179 
L 54.64435 185.901057 
L 54.713587 193.029553 
L 54.852062 202.13844 
L 54.9213 210.313058 
L 54.990537 191.969629 
L 55.129012 212.442405 
L 55.19825 193.069694 
L 55.267487 201.95529 
L 55.336725 208.804817 
L 55.405962 197.218976 
L 55.4752 206.941178 
L 55.544437 197.020251 
L 55.613675 220.163127 
L 55.821387 199.167816 
L 56.098337 214.260549 
L 56.236812 181.79167 
L 56.306049 196.278605 
L 56.444524 211.103838 
L 56.513762 209.600495 
L 56.582999 198.136371 
L 56.652237 206.10502 
L 56.721474 203.561214 
L 56.859949 197.676312 
L 56.929187 197.031167 
L 57.067662 209.034125 
L 57.136899 210.312727 
L 57.206137 205.29582 
L 57.275374 208.570434 
L 57.344612 196.33833 
L 57.413849 212.683187 
L 57.483087 211.223573 
L 57.552324 199.107715 
L 57.621562 213.199293 
L 57.690799 210.925535 
L 57.760037 214.664522 
L 57.829274 214.108008 
L 57.898511 195.986434 
L 57.967749 196.943256 
L 58.106224 217.357139 
L 58.175461 206.736339 
L 58.244699 220.985461 
L 58.313936 213.347124 
L 58.383174 211.473407 
L 58.452411 199.943119 
L 58.521649 202.238683 
L 58.590886 213.327215 
L 58.660124 211.204938 
L 58.729361 212.723374 
L 58.798599 221.809625 
L 58.867836 208.054653 
L 58.937074 210.263236 
L 59.006311 210.686402 
L 59.075549 209.645607 
L 59.144786 223.392977 
L 59.214024 217.07831 
L 59.283261 224.368355 
L 59.352499 210.149245 
L 59.421736 215.786528 
L 59.490974 222.566871 
L 59.560211 220.429474 
L 59.698686 198.748061 
L 59.767923 216.160467 
L 59.837161 215.777568 
L 59.975636 203.138087 
L 60.044873 205.250696 
L 60.114111 205.955345 
L 60.252586 230.859957 
L 60.321823 208.049657 
L 60.391061 225.349491 
L 60.460298 209.157908 
L 60.529536 222.159987 
L 60.598773 207.527671 
L 60.668011 207.975488 
L 60.737248 226.014223 
L 60.806486 225.874699 
L 60.944961 196.762081 
L 61.014198 200.347598 
L 61.152673 219.063007 
L 61.221911 212.770767 
L 61.291148 208.316891 
L 61.429623 221.051086 
L 61.49886 220.490933 
L 61.706573 208.317911 
L 61.845048 217.496178 
L 61.914285 216.247948 
L 61.983523 229.055159 
L 62.191235 212.814001 
L 62.260473 220.793299 
L 62.32971 216.875483 
L 62.398948 218.051892 
L 62.468185 225.833856 
L 62.537423 199.675242 
L 62.60666 209.508842 
L 62.675898 212.06476 
L 62.745135 210.978879 
L 62.814373 221.953842 
L 62.88361 220.596563 
L 62.952848 216.946077 
L 63.022085 223.680762 
L 63.091323 209.955016 
L 63.229797 232.800296 
L 63.299035 209.175991 
L 63.368272 212.127902 
L 63.43751 226.88187 
L 63.506747 222.599832 
L 63.71446 205.572443 
L 63.783697 209.901042 
L 63.852935 203.067596 
L 63.922172 226.506343 
L 64.060647 197.028516 
L 64.129885 228.671386 
L 64.199122 206.209317 
L 64.26836 211.966167 
L 64.337597 221.58094 
L 64.406835 218.633642 
L 64.476072 214.90344 
L 64.54531 217.049871 
L 64.614547 191.526002 
L 64.753022 221.99525 
L 64.82226 215.615613 
L 65.029972 222.885376 
L 65.168447 220.505163 
L 65.306922 194.617076 
L 65.445397 224.848868 
L 65.514634 221.839951 
L 65.653109 204.080868 
L 65.860822 226.857537 
L 65.930059 214.77596 
L 65.999297 215.474267 
L 66.137772 217.049046 
L 66.207009 221.203224 
L 66.276247 196.299748 
L 66.414722 226.954885 
L 66.483959 229.912667 
L 66.760909 201.873422 
L 66.968621 228.265971 
L 67.037859 210.607965 
L 67.107096 229.504997 
L 67.176334 213.733644 
L 67.245571 219.935606 
L 67.314809 225.742171 
L 67.384046 217.880941 
L 67.453284 227.517432 
L 67.522521 218.237931 
L 67.591759 219.870345 
L 67.660996 225.839594 
L 67.730234 207.570794 
L 67.799471 214.235443 
L 67.868709 230.184462 
L 68.007184 209.111406 
L 68.076421 228.419162 
L 68.145659 216.799014 
L 68.214896 205.363361 
L 68.422609 230.917083 
L 68.491846 219.617435 
L 68.561083 227.963612 
L 68.699558 202.410014 
L 68.768796 217.200037 
L 68.838033 206.647896 
L 68.907271 216.756095 
L 68.976508 216.571044 
L 69.253458 226.940809 
L 69.322696 217.39344 
L 69.391933 228.797967 
L 69.461171 213.960055 
L 69.530408 221.326802 
L 69.599646 213.653063 
L 69.668883 220.404394 
L 69.738121 212.58852 
L 69.807358 227.127857 
L 69.876596 224.196602 
L 69.945833 208.598009 
L 70.015071 216.642 
L 70.153546 228.642554 
L 70.222783 216.678255 
L 70.29202 218.111831 
L 70.430495 210.813207 
L 70.499733 217.130248 
L 70.56897 216.978159 
L 70.638208 206.978662 
L 70.707445 211.680214 
L 70.776683 220.812125 
L 70.915158 210.094211 
L 70.984395 231.085666 
L 71.053633 216.705457 
L 71.12287 221.507084 
L 71.192108 227.252933 
L 71.261345 213.61489 
L 71.330583 220.81219 
L 71.469058 215.678619 
L 71.607533 229.914434 
L 71.67677 205.446126 
L 71.746008 213.129953 
L 71.815245 210.331024 
L 71.95372 226.86743 
L 72.022957 217.764932 
L 72.092195 226.981772 
L 72.299907 195.697369 
L 72.369145 227.789487 
L 72.438382 219.800988 
L 72.50762 222.699627 
L 72.576857 207.433555 
L 72.646095 209.370323 
L 72.715332 225.006081 
L 72.78457 212.166438 
L 72.853807 223.666364 
L 72.923045 222.59058 
L 72.992282 203.528259 
L 73.06152 212.501311 
L 73.130757 215.461857 
L 73.269232 208.57508 
L 73.33847 211.374392 
L 73.407707 224.672589 
L 73.476945 221.639229 
L 73.546182 222.736149 
L 73.684657 216.542235 
L 73.753894 232.074552 
L 73.892369 217.289137 
L 73.961607 237.832423 
L 74.030844 229.077822 
L 74.169319 216.551363 
L 74.238557 216.872627 
L 74.377032 219.759125 
L 74.446269 230.175138 
L 74.584744 214.151866 
L 74.792457 235.155844 
L 74.861694 213.56176 
L 74.930932 226.650093 
L 75.000169 212.123971 
L 75.069407 214.877002 
L 75.138644 222.346425 
L 75.207882 219.116335 
L 75.277119 219.606623 
L 75.346357 227.03958 
L 75.415594 220.982177 
L 75.554069 230.941763 
L 75.623306 208.281603 
L 75.692544 221.897009 
L 75.831019 213.703821 
L 76.038731 230.035001 
L 76.177206 212.118935 
L 76.315681 226.379688 
L 76.454156 232.620163 
L 76.523394 204.113556 
L 76.592631 220.227358 
L 76.731106 227.577865 
L 76.800344 223.313896 
L 76.869581 224.695093 
L 76.938819 227.069439 
L 77.008056 226.153843 
L 77.077294 220.220236 
L 77.146531 228.8456 
L 77.215769 223.65024 
L 77.285006 198.969215 
L 77.354243 225.240678 
L 77.423481 221.529799 
L 77.492718 227.120301 
L 77.561956 212.653877 
L 77.631193 223.862821 
L 77.700431 212.630831 
L 77.769668 215.142494 
L 77.977381 227.655032 
L 78.046618 232.304725 
L 78.115856 210.004683 
L 78.185093 226.389415 
L 78.254331 222.856716 
L 78.323568 228.504532 
L 78.392806 225.57199 
L 78.669756 209.765602 
L 78.738993 217.562273 
L 78.808231 217.10445 
L 78.877468 219.538712 
L 78.946706 219.132569 
L 79.015943 220.039013 
L 79.08518 224.015368 
L 79.154418 214.144634 
L 79.292893 230.458674 
L 79.500605 213.938912 
L 79.569843 237.553753 
L 79.63908 219.894106 
L 79.708318 223.840489 
L 79.777555 231.320604 
L 79.846793 228.672832 
L 79.91603 228.794975 
L 79.985268 229.716239 
L 80.054505 234.748314 
L 80.123743 225.975741 
L 80.19298 239.457826 
L 80.262218 216.713449 
L 80.331455 223.012538 
L 80.400693 228.64975 
L 80.46993 217.885629 
L 80.539168 246.022914 
L 80.74688 203.414644 
L 80.816117 222.298103 
L 80.885355 204.902783 
L 80.954592 229.725479 
L 81.02383 218.845004 
L 81.231542 233.473318 
L 81.370017 223.247606 
L 81.439255 236.330997 
L 81.646967 201.887833 
L 81.716205 224.541038 
L 81.785442 221.850909 
L 81.85468 212.696228 
L 81.923917 232.07784 
L 81.993155 220.680997 
L 82.062392 220.466737 
L 82.13163 223.749947 
L 82.200867 215.795527 
L 82.270105 233.194802 
L 82.339342 224.675633 
L 82.40858 222.354712 
L 82.477817 233.82257 
L 82.685529 213.322524 
L 82.754767 230.095801 
L 82.824004 222.885672 
L 82.893242 222.162216 
L 82.962479 230.515231 
L 83.031717 227.710569 
L 83.100954 219.122719 
L 83.239429 239.74337 
L 83.308667 221.536459 
L 83.377904 224.367634 
L 83.447142 215.619102 
L 83.516379 218.562183 
L 83.585617 242.672049 
L 83.654854 228.292149 
L 83.793329 239.65466 
L 83.862567 218.138283 
L 83.931804 226.122974 
L 84.001042 221.05989 
L 84.070279 224.059827 
L 84.139517 233.363661 
L 84.208754 232.031416 
L 84.277992 235.610198 
L 84.485704 215.660556 
L 84.554941 217.967231 
L 84.693416 230.016893 
L 84.762654 231.566224 
L 84.831891 218.851021 
L 84.970366 229.169566 
L 85.039604 211.20668 
L 85.247316 239.458307 
L 85.316554 234.358512 
L 85.385791 218.408268 
L 85.524266 229.75728 
L 85.662741 225.606459 
L 85.731979 227.143341 
L 85.801216 231.867183 
L 85.870454 213.776371 
L 86.008929 226.527025 
L 86.078166 227.349369 
L 86.147403 244.353861 
L 86.216641 232.186224 
L 86.285878 240.231342 
L 86.424353 218.883242 
L 86.493591 230.510992 
L 86.632066 215.889156 
L 86.701303 234.088618 
L 86.770541 232.72192 
L 86.978253 219.554332 
L 87.047491 236.375521 
L 87.116728 229.683924 
L 87.255203 224.102291 
L 87.393678 234.462731 
L 87.532153 203.249661 
L 87.739866 230.189533 
L 87.809103 229.769063 
L 87.87834 235.114322 
L 88.016815 222.165796 
L 88.086053 231.626222 
L 88.15529 210.456704 
L 88.363003 240.378782 
L 88.43224 211.179195 
L 88.501478 225.378112 
L 88.570715 220.6896 
L 88.639953 233.40271 
L 88.70919 231.428013 
L 88.778428 236.409402 
L 88.916903 226.10816 
L 88.98614 232.108671 
L 89.055378 230.942475 
L 89.124615 229.898132 
L 89.26309 222.032143 
L 89.401565 242.109435 
L 89.54004 224.965907 
L 89.609278 233.260848 
L 89.678515 232.196217 
L 89.955465 226.677792 
L 90.024702 235.356145 
L 90.09394 198.425605 
L 90.163177 243.541796 
L 90.232415 219.71927 
L 90.37089 242.830496 
L 90.64784 213.695244 
L 90.717077 232.564012 
L 90.786315 218.507101 
L 90.855552 223.045597 
L 90.92479 232.04675 
L 90.994027 224.504185 
L 91.063265 242.371857 
L 91.270977 215.11885 
L 91.409452 235.58774 
L 91.478689 231.305208 
L 91.547927 229.671286 
L 91.617164 233.517046 
L 91.755639 227.008772 
L 91.824877 230.986833 
L 91.894114 220.318952 
L 91.963352 224.200429 
L 92.032589 216.895037 
L 92.101827 241.177287 
L 92.171064 234.924652 
L 92.309539 220.355341 
L 92.378777 230.937446 
L 92.448014 229.081486 
L 92.517252 223.948181 
L 92.586489 226.194222 
L 92.655727 236.376755 
L 92.724964 222.416734 
L 92.794202 229.502096 
L 92.863439 235.286846 
L 93.071152 218.388389 
L 93.140389 243.480512 
L 93.278864 222.742958 
L 93.348101 221.462686 
L 93.417339 235.815109 
L 93.555814 210.841899 
L 93.625051 231.764575 
L 93.694289 221.072258 
L 93.763526 229.712272 
L 93.832764 227.23337 
L 93.902001 231.110129 
L 93.971239 230.530611 
L 94.040476 231.233431 
L 94.109714 230.971609 
L 94.248189 218.309107 
L 94.317426 230.887149 
L 94.386664 227.766967 
L 94.455901 229.494046 
L 94.525139 224.810413 
L 94.594376 226.912077 
L 94.663614 228.682185 
L 94.732851 237.576111 
L 94.802089 213.907347 
L 94.871326 219.167015 
L 95.009801 237.393841 
L 95.286751 216.762264 
L 95.355988 233.521997 
L 95.425226 231.36339 
L 95.494463 226.725584 
L 95.563701 213.287516 
L 95.632938 233.804666 
L 95.702176 214.240862 
L 95.771413 234.202723 
L 95.840651 231.517363 
L 95.909888 229.821885 
L 95.979126 234.833525 
L 96.117601 226.180658 
L 96.256076 223.843296 
L 96.325313 224.847627 
L 96.394551 240.79793 
L 96.463788 223.385563 
L 96.602263 238.898395 
L 96.671501 223.025039 
L 96.740738 236.96434 
L 96.879213 216.982145 
L 96.94845 212.474476 
L 97.017688 236.6442 
L 97.086925 221.010486 
L 97.156163 226.861468 
L 97.294638 242.381454 
L 97.640825 210.971758 
L 97.7793 241.752344 
L 97.987013 219.766087 
L 98.125488 229.942347 
L 98.194725 222.720916 
L 98.263963 227.490672 
L 98.3332 222.772307 
L 98.402438 231.196298 
L 98.471675 225.739364 
L 98.61015 234.538099 
L 98.817862 218.788717 
L 99.025575 244.314168 
L 99.094812 227.871351 
L 99.16405 232.670343 
L 99.233287 235.650317 
L 99.371762 220.473234 
L 99.579475 236.720175 
L 99.787187 223.378055 
L 99.856425 231.17062 
L 99.925662 229.307377 
L 99.9949 229.026843 
L 100.064137 236.115671 
L 100.133375 225.296413 
L 100.202612 231.1655 
L 100.271849 242.566456 
L 100.410324 228.168275 
L 100.548799 235.382063 
L 100.756512 211.822054 
L 100.894987 237.410458 
L 101.102699 214.24092 
L 101.171937 232.308675 
L 101.241174 224.022362 
L 101.310412 219.192141 
L 101.587362 240.516463 
L 101.656599 229.000746 
L 101.725837 236.929543 
L 101.795074 234.534886 
L 101.864312 239.029325 
L 102.072024 200.138874 
L 102.210499 236.77669 
L 102.348974 229.050019 
L 102.418211 236.904972 
L 102.487449 219.605642 
L 102.556686 221.340625 
L 102.625924 240.061573 
L 102.695161 226.469678 
L 102.764399 227.63603 
L 102.902874 231.945877 
L 103.110586 225.458931 
L 103.179824 242.630199 
L 103.318299 222.684153 
L 103.387536 232.929338 
L 103.456774 219.694352 
L 103.526011 224.179503 
L 103.733723 214.466486 
L 103.872198 246.345698 
L 103.941436 233.327626 
L 104.010673 236.323622 
L 104.218386 227.71717 
L 104.287623 237.202858 
L 104.356861 232.606619 
L 104.426098 229.3595 
L 104.495336 234.992157 
L 104.564573 216.108315 
L 104.772286 250.76013 
L 104.910761 217.589988 
L 104.979998 233.174669 
L 105.049236 219.100328 
L 105.118473 225.930454 
L 105.326186 238.980874 
L 105.464661 224.612751 
L 105.672373 248.643549 
L 105.810848 204.134965 
L 105.880085 237.139771 
L 105.949323 233.776431 
L 106.087798 228.585932 
L 106.157035 238.247282 
L 106.226273 236.724541 
L 106.433985 232.008051 
L 106.503223 230.252679 
L 106.57246 220.139324 
L 106.641698 236.738933 
L 106.710935 234.569939 
L 106.84941 217.934594 
L 106.987885 235.091711 
L 107.12636 231.72575 
L 107.195598 230.353399 
L 107.264835 231.560412 
L 107.334072 234.84702 
L 107.40331 221.46561 
L 107.472547 223.775388 
L 107.541785 216.937718 
L 107.68026 245.588091 
L 107.818735 219.835327 
L 107.887972 238.456055 
L 107.95721 236.201977 
L 108.095685 209.417371 
L 108.303397 236.406315 
L 108.372635 235.882562 
L 108.51111 228.880894 
L 108.649585 242.004221 
L 108.78806 216.804069 
L 108.857297 235.544142 
L 108.926535 229.274454 
L 108.995772 206.696964 
L 109.203484 239.625633 
L 109.272722 238.121079 
L 109.341959 231.956426 
L 109.411197 240.201161 
L 109.549672 223.384572 
L 109.688147 236.425372 
L 109.757384 223.48592 
L 109.826622 227.961812 
L 109.895859 232.303857 
L 109.965097 231.711468 
L 110.034334 227.234214 
L 110.103572 233.714049 
L 110.172809 224.264325 
L 110.242047 228.041266 
L 110.311284 220.889279 
L 110.449759 231.286333 
L 110.588234 229.244644 
L 110.657472 230.265248 
L 110.726709 229.808649 
L 110.795946 243.711305 
L 111.003659 217.926979 
L 111.142134 231.556738 
L 111.211371 223.072012 
L 111.280609 242.682403 
L 111.419084 226.211859 
L 111.488321 237.22185 
L 111.696034 220.23493 
L 111.765271 245.650506 
L 111.834509 229.440178 
L 111.903746 235.580505 
L 111.972984 225.019599 
L 112.042221 229.375756 
L 112.111459 228.4758 
L 112.180696 239.941386 
L 112.249934 232.668719 
L 112.319171 244.313154 
L 112.388409 230.79124 
L 112.457646 240.456134 
L 112.526884 226.083398 
L 112.596121 232.805633 
L 112.665358 236.620075 
L 112.734596 225.146325 
L 112.803833 251.18821 
L 112.873071 235.779519 
L 112.942308 234.400934 
L 113.011546 227.02384 
L 113.080783 239.484352 
L 113.219258 214.414733 
L 113.288496 236.169051 
L 113.357733 227.683244 
L 113.426971 221.606543 
L 113.565446 244.266182 
L 113.634683 241.145339 
L 113.703921 230.679656 
L 113.773158 246.030591 
L 113.842396 240.46937 
L 113.911633 228.922081 
L 114.050108 242.437124 
L 114.119346 236.798086 
L 114.188583 243.64928 
L 114.327058 216.751384 
L 114.396295 229.923398 
L 114.465533 229.63519 
L 114.53477 230.827944 
L 114.604008 225.730765 
L 114.673245 239.942231 
L 114.742483 236.874561 
L 114.81172 223.838348 
L 115.019433 240.372785 
L 115.08867 240.044676 
L 115.227145 226.1509 
L 115.36562 236.133474 
L 115.434858 248.941419 
L 115.504095 223.499152 
L 115.573333 232.340659 
L 115.64257 233.029029 
L 115.711808 232.855573 
L 115.781045 233.217306 
L 115.850283 239.154236 
L 115.91952 218.64625 
L 116.057995 240.595862 
L 116.127232 228.267927 
L 116.19647 233.21392 
L 116.265707 234.111706 
L 116.404182 241.108901 
L 116.611895 225.456247 
L 116.681132 222.363773 
L 116.75037 231.633869 
L 116.819607 226.226381 
L 116.888845 212.330999 
L 117.02732 237.606548 
L 117.096557 232.378952 
L 117.165795 239.444224 
L 117.235032 232.465641 
L 117.30427 243.993392 
L 117.373507 238.631675 
L 117.58122 219.658362 
L 117.788932 246.069598 
L 117.858169 226.000133 
L 117.927407 232.728817 
L 117.996644 225.722786 
L 118.065882 228.956755 
L 118.135119 234.724079 
L 118.204357 223.33167 
L 118.342832 244.653808 
L 118.412069 233.54876 
L 118.481307 238.204951 
L 118.550544 238.199119 
L 118.619782 227.317083 
L 118.689019 229.703325 
L 118.827494 221.386283 
L 118.965969 243.346355 
L 119.104444 239.785503 
L 119.173682 237.868334 
L 119.312157 224.744636 
L 119.381394 230.63663 
L 119.519869 221.280348 
L 119.727581 242.855218 
L 119.866056 221.999938 
L 119.935294 226.409382 
L 120.004531 243.381861 
L 120.073769 228.19472 
L 120.143006 232.956732 
L 120.212244 237.405692 
L 120.419956 226.422325 
L 120.489194 237.150261 
L 120.558431 236.848542 
L 120.696906 226.200248 
L 120.766144 236.839264 
L 120.904619 223.806949 
L 120.973856 229.305922 
L 121.043094 224.266768 
L 121.250806 239.42736 
L 121.320044 236.996239 
L 121.389281 223.366522 
L 121.458518 225.536413 
L 121.527756 239.202671 
L 121.596993 224.118515 
L 121.666231 242.586832 
L 121.735468 230.180417 
L 121.804706 230.209783 
L 121.873943 246.638577 
L 121.943181 240.077554 
L 122.012418 232.826016 
L 122.081656 243.452313 
L 122.289368 220.349763 
L 122.358606 237.443917 
L 122.427843 215.561593 
L 122.497081 245.892231 
L 122.566318 242.660773 
L 122.635556 225.480928 
L 122.704793 237.163003 
L 122.774031 224.361897 
L 122.981743 240.964001 
L 123.050981 229.912816 
L 123.120218 236.042932 
L 123.189455 236.601785 
L 123.258693 234.111128 
L 123.32793 239.256931 
L 123.397168 224.5832 
L 123.466405 238.916575 
L 123.535643 221.033503 
L 123.674118 245.959796 
L 123.812593 228.365353 
L 123.88183 229.675559 
L 123.951068 238.675562 
L 124.020305 221.050397 
L 124.15878 239.901797 
L 124.228018 231.834394 
L 124.297255 249.462948 
L 124.43573 224.971196 
L 124.504968 231.093804 
L 124.574205 225.524457 
L 124.643443 240.730619 
L 124.71268 227.050021 
L 124.781918 230.888988 
L 124.851155 244.870639 
L 124.920392 229.274656 
L 124.98963 237.659756 
L 125.058867 224.51691 
L 125.128105 232.546027 
L 125.197342 231.806558 
L 125.26658 233.728012 
L 125.474292 247.398309 
L 125.54353 220.696474 
L 125.612767 231.046083 
L 125.682005 229.612959 
L 125.751242 223.005436 
L 125.958955 240.926696 
L 126.166667 223.854803 
L 126.235905 239.373057 
L 126.305142 222.268121 
L 126.37438 226.265249 
L 126.443617 236.212269 
L 126.582092 219.746936 
L 126.65133 235.282109 
L 126.720567 224.036803 
L 126.789804 225.019199 
L 126.859042 230.681501 
L 126.928279 223.818336 
L 126.997517 245.260548 
L 127.066754 233.858449 
L 127.205229 224.534697 
L 127.274467 232.49805 
L 127.343704 225.569413 
L 127.482179 245.759468 
L 127.551417 226.274062 
L 127.620654 235.19338 
L 127.689892 233.064917 
L 127.759129 210.859053 
L 127.828367 235.564479 
L 127.897604 229.818447 
L 128.105317 215.379092 
L 128.174554 230.51578 
L 128.243792 227.020142 
L 128.313029 220.967808 
L 128.451504 240.33892 
L 128.520741 229.754499 
L 128.589979 238.034159 
L 128.659216 232.148851 
L 128.728454 232.217984 
L 128.797691 243.222001 
L 128.866929 239.395291 
L 129.005404 232.927818 
L 129.074641 221.379678 
L 129.143879 228.334802 
L 129.213116 227.254467 
L 129.490066 247.761815 
L 129.697779 223.426861 
L 129.767016 242.844458 
L 129.836254 235.219341 
L 129.974729 232.325481 
L 130.043966 238.648123 
L 130.113204 237.577904 
L 130.251678 231.378337 
L 130.320916 231.913169 
L 130.390153 236.343703 
L 130.459391 234.095203 
L 130.667103 248.085869 
L 130.736341 222.463473 
L 130.805578 231.446015 
L 130.874816 232.129579 
L 130.944053 237.541343 
L 131.151766 226.736626 
L 131.221003 228.932126 
L 131.290241 215.154391 
L 131.359478 231.718174 
L 131.428716 230.780389 
L 131.497953 237.088113 
L 131.567191 232.221216 
L 131.636428 217.152914 
L 131.705666 233.242795 
L 131.774903 230.998499 
L 131.844141 232.51226 
L 131.913378 230.835955 
L 131.982615 249.931789 
L 132.051853 227.886208 
L 132.12109 234.120614 
L 132.190328 244.569331 
L 132.259565 240.184755 
L 132.328803 237.47542 
L 132.39804 239.146903 
L 132.467278 237.969175 
L 132.536515 239.909068 
L 132.605753 225.268311 
L 132.67499 234.096346 
L 132.744228 232.874467 
L 132.882703 221.216153 
L 133.021178 241.883112 
L 133.090415 237.625066 
L 133.159653 242.304729 
L 133.22889 240.542622 
L 133.367365 228.164474 
L 133.436603 228.520119 
L 133.50584 239.949606 
L 133.575078 239.387556 
L 133.644315 241.334577 
L 133.78279 224.76277 
L 133.852027 226.922785 
L 133.921265 240.816642 
L 133.990502 240.013953 
L 134.05974 227.629058 
L 134.128977 241.629958 
L 134.198215 239.181577 
L 134.267452 243.547715 
L 134.33669 230.234109 
L 134.405927 243.203814 
L 134.475165 228.635943 
L 134.544402 230.435735 
L 134.61364 240.375527 
L 134.682877 235.830842 
L 134.752115 238.760123 
L 134.821352 227.104869 
L 134.89059 234.003218 
L 134.959827 228.975643 
L 135.098302 244.24323 
L 135.16754 228.975581 
L 135.236777 230.248676 
L 135.375252 237.678771 
L 135.582964 232.242232 
L 135.652202 222.736734 
L 135.721439 222.830934 
L 135.859914 231.834644 
L 136.067627 227.242219 
L 136.206102 231.370131 
L 136.275339 227.385261 
L 136.344577 238.310941 
L 136.413814 234.500949 
L 136.483052 229.342775 
L 136.621527 238.216058 
L 136.690764 231.045479 
L 136.760002 233.878727 
L 136.829239 230.025187 
L 136.967714 247.303545 
L 137.036952 242.524629 
L 137.106189 230.548651 
L 137.175427 236.099532 
L 137.244664 237.033875 
L 137.383139 244.129073 
L 137.521614 231.653602 
L 137.660089 244.896122 
L 137.867801 218.432728 
L 138.075514 242.578665 
L 138.144751 232.935751 
L 138.213989 237.083542 
L 138.283226 221.711919 
L 138.352464 227.009734 
L 138.421701 237.864981 
L 138.490939 233.161557 
L 138.560176 231.767726 
L 138.629414 243.03824 
L 138.698651 230.608372 
L 138.767889 234.84716 
L 138.837126 235.32753 
L 138.906364 230.50314 
L 138.975601 243.157007 
L 139.044838 227.846827 
L 139.183313 238.813967 
L 139.391026 229.972109 
L 139.529501 243.656292 
L 139.667976 227.823452 
L 139.806451 242.263327 
L 139.875688 236.463714 
L 139.944926 233.451734 
L 140.014163 221.553813 
L 140.152638 245.519214 
L 140.360351 215.239391 
L 140.568063 245.65246 
L 140.637301 231.306524 
L 140.706538 242.308319 
L 140.775775 227.563993 
L 140.91425 239.014586 
L 140.983488 237.052806 
L 141.052725 245.079201 
L 141.121963 224.956401 
L 141.1912 225.911949 
L 141.329675 227.030558 
L 141.398913 228.815312 
L 141.46815 235.748113 
L 141.537388 234.382257 
L 141.606625 236.37325 
L 141.675863 234.671163 
L 141.883575 243.515055 
L 141.952813 229.260803 
L 142.02205 232.240985 
L 142.160525 237.394842 
L 142.229763 213.33114 
L 142.299 233.234072 
L 142.368238 222.635458 
L 142.437475 223.352491 
L 142.506713 244.872215 
L 142.57595 231.626283 
L 142.645187 241.591097 
L 142.714425 238.222169 
L 142.783662 241.602705 
L 142.8529 225.80287 
L 142.922137 235.331201 
L 143.12985 240.424758 
L 143.199087 231.061372 
L 143.268325 235.183494 
L 143.337562 235.175886 
L 143.4068 243.111526 
L 143.614512 216.350956 
L 143.68375 240.903744 
L 143.752987 230.787212 
L 143.822225 238.482392 
L 143.9607 230.338328 
L 144.23765 244.950231 
L 144.306887 235.512246 
L 144.376124 236.207454 
L 144.445362 242.203937 
L 144.514599 238.367192 
L 144.583837 239.445949 
L 144.653074 239.388895 
L 144.722312 232.993124 
L 144.791549 215.311486 
L 144.860787 239.234093 
L 144.930024 229.726235 
L 145.206974 243.215969 
L 145.276212 243.107621 
L 145.414687 224.847049 
L 145.483924 245.158398 
L 145.553162 240.353842 
L 145.622399 248.638556 
L 145.691637 223.181611 
L 145.760874 246.492154 
L 145.830112 236.563944 
L 145.899349 236.673825 
L 145.968587 242.678453 
L 146.037824 236.177923 
L 146.176299 240.529932 
L 146.245536 235.437421 
L 146.314774 246.448104 
L 146.384011 245.248861 
L 146.591724 223.774163 
L 146.660961 240.101308 
L 146.799436 229.438853 
L 146.868674 247.714714 
L 146.937911 245.91881 
L 147.076386 237.361039 
L 147.145624 228.235073 
L 147.214861 245.594465 
L 147.284099 239.548258 
L 147.422574 242.940513 
L 147.491811 242.585675 
L 147.561049 235.581749 
L 147.699524 244.785128 
L 147.837998 236.872989 
L 147.907236 240.199631 
L 147.976473 234.90323 
L 148.045711 243.064471 
L 148.114948 234.117794 
L 148.184186 241.140632 
L 148.322661 231.093781 
L 148.530373 242.805285 
L 148.599611 246.098275 
L 148.668848 216.605019 
L 148.738086 247.977451 
L 148.807323 235.890203 
L 148.876561 230.50799 
L 148.945798 245.283427 
L 149.015036 231.313343 
L 149.084273 235.200427 
L 149.222748 248.259675 
L 149.361223 230.337614 
L 149.499698 238.244075 
L 149.568936 232.18701 
L 149.638173 244.450986 
L 149.70741 227.334944 
L 149.776648 235.65443 
L 149.845885 234.073352 
L 149.98436 237.491452 
L 150.053598 237.075433 
L 150.122835 240.155374 
L 150.330548 220.593973 
L 150.399785 242.21573 
L 150.469023 221.52682 
L 150.53826 244.702033 
L 150.607498 235.829559 
L 150.676735 240.600976 
L 150.745973 233.707045 
L 150.81521 235.496412 
L 150.953685 226.132025 
L 151.022923 226.851072 
L 151.230635 245.256357 
L 151.299873 236.382489 
L 151.36911 249.830311 
L 151.438347 244.972834 
L 151.576822 227.040239 
L 151.64606 239.456387 
L 151.715297 230.640915 
L 151.784535 234.820345 
L 151.853772 236.389221 
L 151.92301 249.158934 
L 151.992247 225.033883 
L 152.061485 234.260202 
L 152.130722 234.663636 
L 152.407672 247.613878 
L 152.47691 237.586137 
L 152.546147 243.996273 
L 152.615385 241.288501 
L 152.75386 225.465863 
L 152.961572 249.508205 
L 153.100047 227.73396 
L 153.307759 247.292962 
L 153.446234 236.530706 
L 153.515472 219.969886 
L 153.584709 247.5104 
L 153.653947 236.091384 
L 153.723184 227.20379 
L 153.792422 242.675054 
L 153.861659 237.320131 
L 153.930897 226.351236 
L 154.069372 242.528784 
L 154.207847 245.536849 
L 154.277084 225.00647 
L 154.346322 231.046395 
L 154.415559 220.237325 
L 154.484797 245.353626 
L 154.554034 223.71759 
L 154.692509 245.248388 
L 154.969459 236.382795 
L 155.038696 238.461295 
L 155.107934 244.688218 
L 155.315646 225.518925 
L 155.384884 230.282489 
L 155.454121 221.120904 
L 155.523359 247.907215 
L 155.592596 237.517517 
L 155.661834 229.44242 
L 155.800309 245.936579 
L 156.008021 230.086045 
L 156.077259 240.811516 
L 156.146496 240.779295 
L 156.215734 222.675502 
L 156.423446 247.879057 
L 156.492684 219.186147 
L 156.561921 237.613283 
L 156.631159 235.633411 
L 156.769633 233.515389 
L 156.908108 222.199365 
L 156.977346 221.965885 
L 157.046583 212.710815 
L 157.185058 241.311365 
L 157.254296 244.172994 
L 157.323533 242.237093 
L 157.462008 232.114096 
L 157.531246 233.886865 
L 157.669721 246.771722 
L 157.738958 247.697024 
L 157.946671 238.520247 
L 158.015908 247.645259 
L 158.085146 227.427598 
L 158.154383 230.490931 
L 158.223621 231.357103 
L 158.292858 220.64695 
L 158.362096 233.426917 
L 158.431333 227.870627 
L 158.50057 228.669044 
L 158.569808 223.991997 
L 158.708283 239.429923 
L 158.77752 229.185361 
L 158.846758 244.722482 
L 158.985233 225.670179 
L 159.05447 234.001487 
L 159.123708 231.91556 
L 159.539133 254.968405 
L 159.60837 229.941964 
L 159.677608 247.252033 
L 159.816083 231.19083 
L 159.88532 246.756961 
L 159.954558 241.241608 
L 160.023795 237.88615 
L 160.093033 239.920263 
L 160.16227 248.016421 
L 160.231507 243.697413 
L 160.300745 241.407394 
L 160.43922 226.351886 
L 160.508457 245.538444 
L 160.577695 237.832517 
L 160.71617 231.170204 
L 160.785407 234.367839 
L 160.854645 246.767221 
L 160.923882 243.876954 
L 160.99312 240.672025 
L 161.131595 231.239831 
L 161.27007 238.624255 
L 161.339307 224.041696 
L 161.408545 244.888609 
L 161.477782 240.100262 
L 161.54702 235.724622 
L 161.616257 246.108255 
L 161.685495 233.397662 
L 161.754732 240.043445 
L 161.82397 241.980314 
L 161.893207 235.576451 
L 161.962444 245.032195 
L 162.170157 229.681345 
L 162.239394 245.591118 
L 162.377869 224.049681 
L 162.447107 248.510741 
L 162.516344 219.119743 
L 162.585582 219.492261 
L 162.724057 239.521118 
L 162.793294 222.774023 
L 163.001007 248.593348 
L 163.139482 230.390493 
L 163.208719 244.643743 
L 163.277957 236.097953 
L 163.347194 235.154811 
L 163.416432 239.371082 
L 163.485669 234.219493 
L 163.554907 247.559046 
L 163.693381 231.193484 
L 163.762619 249.101786 
L 163.831856 229.745656 
L 163.901094 232.126597 
L 164.039569 241.494714 
L 164.108806 237.436113 
L 164.178044 242.140613 
L 164.247281 230.49981 
L 164.316519 239.872851 
L 164.593469 221.39407 
L 164.662706 239.62102 
L 164.731944 236.152034 
L 164.801181 233.379947 
L 164.870419 237.647011 
L 164.939656 223.900844 
L 165.078131 240.778944 
L 165.216606 231.118585 
L 165.285844 233.963311 
L 165.355081 233.105056 
L 165.493556 246.997211 
L 165.562793 228.172811 
L 165.632031 241.093307 
L 165.701268 233.636268 
L 165.770506 238.748216 
L 165.839743 226.969128 
L 165.908981 230.622205 
L 165.978218 239.750394 
L 166.047456 234.465265 
L 166.116693 229.444044 
L 166.393643 242.074037 
L 166.462881 225.429006 
L 166.670593 243.403637 
L 166.739831 221.870649 
L 166.809068 230.987047 
L 166.878306 225.321461 
L 167.016781 239.323888 
L 167.086018 221.684607 
L 167.155256 230.282336 
L 167.224493 239.202882 
L 167.29373 229.938647 
L 167.362968 243.868798 
L 167.432205 237.893216 
L 167.501443 241.837565 
L 167.57068 221.941864 
L 167.778393 243.685838 
L 167.84763 235.23522 
L 167.916868 249.32114 
L 167.986105 245.812029 
L 168.055343 222.924669 
L 168.12458 230.600455 
L 168.193818 233.378124 
L 168.263055 242.148221 
L 168.332293 234.454467 
L 168.40153 239.272948 
L 168.540005 232.417456 
L 168.609243 241.517578 
L 168.67848 240.481997 
L 168.747718 232.427618 
L 168.816955 238.490524 
L 168.886193 235.250629 
L 168.95543 229.462796 
L 169.024667 231.287938 
L 169.163142 239.879998 
L 169.23238 237.885526 
L 169.370855 241.347017 
L 169.440092 240.047106 
L 169.50933 242.704225 
L 169.578567 236.281174 
L 169.717042 245.115382 
L 169.855517 226.381452 
L 169.924755 249.347844 
L 169.993992 235.81942 
L 170.132467 228.666637 
L 170.201705 248.220022 
L 170.270942 239.297488 
L 170.34018 238.216624 
L 170.478655 246.404068 
L 170.686367 221.825196 
L 170.824842 237.583564 
L 170.894079 236.012807 
L 171.032554 230.19786 
L 171.101792 242.051533 
L 171.171029 230.741648 
L 171.240267 244.401169 
L 171.309504 244.020129 
L 171.517217 222.231449 
L 171.586454 222.76028 
L 171.655692 239.031794 
L 171.724929 227.92275 
L 171.794167 238.354604 
L 171.863404 222.514605 
L 171.932642 228.908433 
L 172.001879 244.778247 
L 172.071117 227.05517 
L 172.140354 229.637786 
L 172.209592 228.067273 
L 172.348067 241.048312 
L 172.417304 234.907261 
L 172.486542 236.795312 
L 172.555779 234.108555 
L 172.625016 243.580098 
L 172.694254 232.755629 
L 172.763491 236.336253 
L 172.901966 227.560308 
L 172.971204 252.86954 
L 173.040441 236.92913 
L 173.109679 243.097381 
L 173.317391 248.707747 
L 173.386629 234.903685 
L 173.455866 245.138887 
L 173.525104 241.516363 
L 173.594341 234.400564 
L 173.663579 243.246977 
L 173.732816 236.122779 
L 173.802054 244.760124 
L 173.940529 236.937281 
L 174.009766 241.964691 
L 174.079004 234.28615 
L 174.148241 240.056183 
L 174.217479 236.11483 
L 174.286716 216.587869 
L 174.355953 243.349451 
L 174.425191 232.964119 
L 174.563666 229.91026 
L 174.702141 234.274461 
L 174.771378 229.167272 
L 174.840616 233.693468 
L 174.909853 233.102625 
L 174.979091 232.311141 
L 175.048328 240.696339 
L 175.117566 232.504749 
L 175.186803 232.514489 
L 175.325278 237.233624 
L 175.394516 231.599403 
L 175.463753 249.310944 
L 175.602228 230.616731 
L 175.671466 240.38784 
L 175.740703 234.213986 
L 175.809941 239.473576 
L 176.017653 230.684857 
L 176.08689 244.265109 
L 176.156128 239.475554 
L 176.225365 244.341351 
L 176.36384 235.696358 
L 176.433078 247.151048 
L 176.571553 239.314076 
L 176.64079 249.817968 
L 176.779265 225.09786 
L 177.056215 247.098646 
L 177.125453 244.909939 
L 177.19469 233.769849 
L 177.263928 243.288473 
L 177.333165 231.504284 
L 177.402403 245.993981 
L 177.47164 244.160253 
L 177.540878 235.516404 
L 177.610115 238.502765 
L 177.679353 238.478481 
L 177.74859 238.920204 
L 177.817827 238.875511 
L 177.887065 235.321253 
L 177.956302 244.319151 
L 178.02554 236.698119 
L 178.094777 242.458666 
L 178.164015 240.325022 
L 178.233252 239.211959 
L 178.371727 250.397437 
L 178.440965 233.356462 
L 178.510202 246.435171 
L 178.648677 236.970295 
L 178.717915 234.632198 
L 178.787152 225.43719 
L 178.925627 253.759334 
L 179.064102 232.503222 
L 179.202577 242.510091 
L 179.271815 238.013357 
L 179.341052 250.471696 
L 179.41029 221.546033 
L 179.479527 242.776449 
L 179.548765 238.70444 
L 179.618002 218.363835 
L 179.756477 245.33536 
L 179.825714 233.946369 
L 179.894952 242.724549 
L 179.964189 237.991263 
L 180.033427 227.987032 
L 180.102664 239.995221 
L 180.171902 236.753091 
L 180.241139 240.170259 
L 180.310377 225.787578 
L 180.448852 239.030576 
L 180.518089 230.283743 
L 180.725802 251.001388 
L 180.795039 233.184955 
L 180.864277 245.957309 
L 180.933514 245.711121 
L 181.071989 227.456076 
L 181.141227 236.995992 
L 181.210464 230.576538 
L 181.279702 244.982204 
L 181.418176 227.867492 
L 181.487414 251.419844 
L 181.556651 235.810011 
L 181.625889 243.683403 
L 181.695126 241.172589 
L 181.764364 244.034183 
L 181.833601 226.991424 
L 181.902839 229.720274 
L 181.972076 242.624404 
L 182.041314 235.54513 
L 182.110551 230.343637 
L 182.179789 238.489007 
L 182.249026 236.125616 
L 182.318264 229.153231 
L 182.387501 240.016516 
L 182.456739 225.44143 
L 182.664451 244.351577 
L 182.733689 251.384201 
L 182.802926 238.987261 
L 182.872164 245.904937 
L 183.079876 231.452847 
L 183.149113 244.386601 
L 183.287588 225.013228 
L 183.495301 247.406619 
L 183.564538 242.800884 
L 183.772251 251.61543 
L 183.841488 232.058146 
L 183.910726 235.354657 
L 183.979963 238.316762 
L 184.049201 233.791044 
L 184.256913 244.691392 
L 184.326151 243.838744 
L 184.395388 227.293497 
L 184.533863 244.241663 
L 184.603101 242.116637 
L 184.672338 226.374442 
L 184.741576 247.24684 
L 184.810813 242.910681 
L 184.88005 232.633048 
L 184.949288 233.615788 
L 185.087763 245.260347 
L 185.157 237.255306 
L 185.226238 243.95556 
L 185.295475 235.298509 
L 185.364713 243.504822 
L 185.503188 231.438068 
L 185.572425 236.561546 
L 185.7109 223.819886 
L 185.780138 240.61003 
L 185.849375 232.420227 
L 185.918613 240.16716 
L 185.98785 232.07118 
L 186.057088 239.876828 
L 186.126325 228.222604 
L 186.195563 231.345882 
L 186.334038 248.263633 
L 186.403275 232.131015 
L 186.472513 234.300107 
L 186.610988 231.91965 
L 186.680225 242.816948 
L 186.8187 230.18545 
L 186.957175 246.508563 
L 187.026412 221.139324 
L 187.09565 232.254876 
L 187.164887 244.153192 
L 187.234125 237.154475 
L 187.303362 233.811556 
L 187.580312 249.577799 
L 187.64955 244.278833 
L 187.718787 247.648617 
L 187.788025 236.96457 
L 187.857262 245.258747 
L 187.9265 235.001449 
L 188.064975 247.180009 
L 188.134212 242.996451 
L 188.20345 231.412663 
L 188.272687 249.213727 
L 188.341925 246.506456 
L 188.480399 243.357177 
L 188.549637 225.526507 
L 188.618874 244.592207 
L 188.688112 241.135086 
L 188.757349 249.970267 
L 188.895824 244.443651 
L 188.965062 248.092939 
L 189.034299 245.366096 
L 189.103537 247.647249 
L 189.242012 237.620053 
L 189.380487 242.440477 
L 189.449724 241.906954 
L 189.518962 248.653153 
L 189.657437 237.124528 
L 189.726674 244.359894 
L 189.795912 233.055675 
L 189.865149 236.808112 
L 190.003624 245.404168 
L 190.072862 233.735692 
L 190.142099 237.062026 
L 190.211336 241.379078 
L 190.280574 227.72882 
L 190.488286 247.630344 
L 190.557524 236.898719 
L 190.626761 245.768445 
L 190.695999 240.818881 
L 190.903711 218.366652 
L 191.042186 240.457785 
L 191.111424 242.252918 
L 191.180661 249.657133 
L 191.388374 233.45418 
L 191.457611 239.144405 
L 191.526849 238.657476 
L 191.596086 240.361898 
L 191.665324 223.91148 
L 191.734561 228.560257 
L 191.803799 247.450805 
L 191.942273 223.184265 
L 192.011511 227.984316 
L 192.080748 245.820049 
L 192.149986 235.362187 
L 192.219223 230.640379 
L 192.288461 244.048633 
L 192.357698 237.774501 
L 192.496173 245.11316 
L 192.634648 230.47037 
L 192.703886 240.242803 
L 192.773123 239.462709 
L 192.842361 236.153087 
L 192.911598 251.183434 
L 192.980836 230.260992 
L 193.050073 241.206899 
L 193.119311 228.547701 
L 193.188548 230.108006 
L 193.327023 242.010235 
L 193.396261 240.399044 
L 193.534736 231.381833 
L 193.603973 247.475139 
L 193.67321 222.276438 
L 193.742448 236.472307 
L 193.811685 232.267345 
L 193.95016 247.759026 
L 194.019398 239.008722 
L 194.088635 253.501689 
L 194.157873 231.301323 
L 194.22711 243.691672 
L 194.365585 245.058926 
L 194.434823 244.877128 
L 194.50406 236.955305 
L 194.573298 237.800819 
L 194.642535 237.745097 
L 194.711773 237.195633 
L 194.78101 237.73411 
L 194.919485 239.680072 
L 194.988723 228.155631 
L 195.05796 245.025551 
L 195.127198 235.685026 
L 195.196435 243.18166 
L 195.33491 221.696007 
L 195.542622 241.07926 
L 195.681097 228.551895 
L 195.819572 248.307582 
L 195.958047 235.165769 
L 196.027285 250.912766 
L 196.234997 226.240883 
L 196.581185 248.833842 
L 196.788897 238.458576 
L 196.858135 243.500574 
L 196.927372 240.39731 
L 196.99661 229.041098 
L 197.065847 241.839118 
L 197.135085 226.365696 
L 197.204322 233.833817 
L 197.273559 246.956194 
L 197.342797 243.435682 
L 197.412034 240.877621 
L 197.550509 250.858115 
L 197.758222 226.713086 
L 197.965934 239.501242 
L 198.035172 239.589218 
L 198.104409 251.184722 
L 198.242884 236.795546 
L 198.312122 242.349571 
L 198.381359 226.716724 
L 198.450597 237.30249 
L 198.519834 235.249918 
L 198.589072 236.762298 
L 198.658309 248.235818 
L 198.727547 234.851864 
L 198.796784 241.664122 
L 198.866022 232.75432 
L 198.935259 240.674007 
L 199.004496 235.477829 
L 199.073734 239.676712 
L 199.142971 230.543979 
L 199.212209 235.29487 
L 199.350684 244.051976 
L 199.419921 235.454867 
L 199.489159 248.663737 
L 199.558396 242.644403 
L 199.627634 236.216976 
L 199.696871 248.159265 
L 199.904584 225.679126 
L 199.973821 242.839302 
L 200.043059 235.23793 
L 200.112296 240.000003 
L 200.181534 215.125204 
L 200.250771 246.42191 
L 200.320009 231.825765 
L 200.389246 244.792059 
L 200.458484 225.87034 
L 200.596959 243.75859 
L 200.666196 229.056994 
L 200.735433 244.777802 
L 200.804671 243.296241 
L 200.873908 246.034993 
L 201.012383 239.605461 
L 201.081621 244.420888 
L 201.220096 240.583283 
L 201.427808 251.058865 
L 201.635521 225.781185 
L 201.773996 233.453862 
L 201.912471 248.080311 
L 201.981708 244.349952 
L 202.050946 233.374609 
L 202.120183 233.57375 
L 202.189421 242.995283 
L 202.258658 242.116826 
L 202.327896 243.068578 
L 202.466371 223.283053 
L 202.604845 248.392519 
L 202.74332 235.689152 
L 202.812558 244.92309 
L 202.881795 237.384449 
L 202.951033 251.334386 
L 203.02027 247.937607 
L 203.158745 242.688576 
L 203.227983 230.635106 
L 203.29722 235.363123 
L 203.366458 245.941074 
L 203.504933 232.03508 
L 203.57417 233.050678 
L 203.643408 247.676299 
L 203.712645 239.165057 
L 203.85112 233.161824 
L 204.058833 244.169054 
L 204.197308 231.478918 
L 204.266545 248.370058 
L 204.335782 233.536685 
L 204.40502 240.248515 
L 204.474257 239.584237 
L 204.543495 239.852157 
L 204.68197 231.950363 
L 204.751207 248.858573 
L 204.820445 240.432354 
L 204.95892 232.022352 
L 205.097395 245.965738 
L 205.23587 229.112752 
L 205.305107 241.141821 
L 205.374345 231.355466 
L 205.443582 236.669186 
L 205.51282 237.725033 
L 205.651295 248.825463 
L 205.720532 244.976564 
L 205.78977 231.888153 
L 205.859007 238.191959 
L 205.928245 237.501718 
L 205.997482 240.13441 
L 206.066719 229.637191 
L 206.135957 242.396067 
L 206.205194 241.378253 
L 206.274432 245.13672 
L 206.412907 236.13849 
L 206.482144 239.933437 
L 206.551382 245.307353 
L 206.620619 244.662578 
L 206.689857 223.208137 
L 206.759094 235.789811 
L 206.897569 242.357014 
L 207.036044 232.406108 
L 207.105282 243.394654 
L 207.174519 234.589572 
L 207.243757 243.711119 
L 207.312994 237.275928 
L 207.382232 238.764674 
L 207.520707 238.14459 
L 207.589944 241.377714 
L 207.659182 240.483943 
L 207.728419 242.633627 
L 207.797656 242.085183 
L 207.936131 210.190016 
L 208.074606 239.975556 
L 208.143844 239.432879 
L 208.213081 242.651401 
L 208.282319 237.732271 
L 208.420794 246.411283 
L 208.559269 231.970311 
L 208.697744 241.031409 
L 208.766981 228.895597 
L 208.836219 233.87554 
L 208.905456 233.140002 
L 208.974694 248.000613 
L 209.043931 239.427308 
L 209.113169 233.144781 
L 209.182406 243.61816 
L 209.251644 243.229249 
L 209.390119 247.128871 
L 209.459356 237.921002 
L 209.528594 238.31122 
L 209.736306 249.295377 
L 209.805543 234.479264 
L 209.874781 239.128662 
L 210.013256 235.437259 
L 210.082493 220.867195 
L 210.290206 247.990682 
L 210.359443 250.684189 
L 210.428681 239.328075 
L 210.497918 252.798227 
L 210.705631 234.255047 
L 210.844106 244.77622 
L 210.913343 241.386408 
L 210.982581 230.495973 
L 211.051818 233.94951 
L 211.121056 234.433701 
L 211.190293 252.354217 
L 211.328768 228.525597 
L 211.398005 258.134488 
L 211.467243 230.493559 
L 211.53648 235.539854 
L 211.605718 248.581474 
L 211.674955 246.297719 
L 211.882668 231.984231 
L 211.951905 245.292901 
L 212.021143 236.334999 
L 212.09038 237.479062 
L 212.159618 244.142461 
L 212.228855 240.405223 
L 212.298093 232.698549 
L 212.36733 244.634489 
L 212.436568 228.393165 
L 212.505805 230.260135 
L 212.64428 250.139965 
L 212.782755 235.632293 
L 212.92123 237.301535 
L 212.990468 239.242533 
L 213.128942 251.08435 
L 213.19818 229.74745 
L 213.267417 245.340025 
L 213.336655 244.684338 
L 213.405892 249.994473 
L 213.544367 233.274132 
L 213.682842 250.895738 
L 213.75208 230.939749 
L 213.821317 238.897213 
L 214.02903 242.313718 
L 214.098267 240.389113 
L 214.167505 241.42536 
L 214.236742 240.115167 
L 214.30598 245.177452 
L 214.375217 232.98187 
L 214.58293 246.869052 
L 214.790642 224.635206 
L 214.859879 242.395307 
L 214.929117 235.125612 
L 215.136829 250.310027 
L 215.275304 236.268651 
L 215.483017 247.77951 
L 215.552254 240.1249 
L 215.621492 252.476818 
L 215.759967 226.583877 
L 215.898442 252.179972 
L 216.036917 237.799312 
L 216.106154 240.099934 
L 216.175392 232.266679 
L 216.244629 244.425589 
L 216.313867 236.233603 
L 216.383104 243.693901 
L 216.452342 241.693354 
L 216.521579 228.822605 
L 216.590817 231.239896 
L 216.660054 236.604546 
L 216.729291 251.354345 
L 216.798529 242.406843 
L 216.867766 246.027745 
L 216.937004 247.655978 
L 217.006241 241.383172 
L 217.075479 242.91143 
L 217.144716 243.590184 
L 217.213954 239.047356 
L 217.283191 243.994392 
L 217.352429 240.90787 
L 217.421666 244.864332 
L 217.490904 243.251962 
L 217.560141 231.490766 
L 217.629379 238.067575 
L 217.698616 232.235491 
L 217.767854 232.848471 
L 217.837091 246.422771 
L 217.906329 239.951217 
L 217.975566 250.399393 
L 218.044804 239.633758 
L 218.114041 239.981225 
L 218.252516 247.997653 
L 218.321754 247.076918 
L 218.390991 238.43063 
L 218.460228 246.947301 
L 218.529466 246.275038 
L 218.598703 238.936526 
L 218.667941 252.128439 
L 218.737178 223.178297 
L 218.806416 246.351916 
L 218.875653 239.687745 
L 218.944891 242.768769 
L 219.152603 237.19755 
L 219.291078 243.003715 
L 219.498791 234.839363 
L 219.568028 235.810996 
L 219.637266 247.978593 
L 219.706503 243.732204 
L 219.775741 238.467373 
L 219.844978 250.576133 
L 219.914216 244.761989 
L 219.983453 243.870317 
L 220.260403 230.758366 
L 220.32964 250.427736 
L 220.398878 242.937295 
L 220.468115 226.442051 
L 220.60659 248.804774 
L 220.745065 241.182478 
L 220.814303 252.625527 
L 220.88354 231.581717 
L 220.952778 236.88984 
L 221.091253 243.05658 
L 221.16049 242.205155 
L 221.229728 236.472044 
L 221.298965 242.973327 
L 221.368203 239.06718 
L 221.43744 245.046528 
L 221.506678 235.556884 
L 221.645153 244.957119 
L 221.71439 226.228791 
L 221.922102 249.44623 
L 221.99134 229.788621 
L 222.060577 235.100291 
L 222.129815 232.777694 
L 222.199052 243.450826 
L 222.26829 243.283499 
L 222.337527 235.92154 
L 222.476002 249.641862 
L 222.54524 233.645754 
L 222.614477 249.17292 
L 222.683715 230.356222 
L 222.752952 242.928579 
L 222.82219 238.626395 
L 222.891427 238.275114 
L 222.960665 242.203118 
L 223.168377 230.916017 
L 223.306852 240.214702 
L 223.37609 236.389338 
L 223.514565 245.398795 
L 223.583802 245.734679 
L 223.65304 238.128115 
L 223.722277 238.646278 
L 223.791514 238.119522 
L 223.860752 235.856696 
L 223.999227 249.702687 
L 224.068464 244.17053 
L 224.137702 249.788068 
L 224.345414 235.483751 
L 224.414652 236.600593 
L 224.483889 235.197451 
L 224.553127 246.092754 
L 224.622364 225.199542 
L 224.691602 236.284186 
L 224.760839 236.049378 
L 224.830077 247.081896 
L 224.899314 235.033075 
L 224.968552 246.877086 
L 225.107027 232.843913 
L 225.176264 250.563494 
L 225.245502 239.597002 
L 225.314739 247.743879 
L 225.383977 239.483241 
L 225.453214 247.341882 
L 225.660926 226.854922 
L 225.799401 247.831413 
L 225.868639 238.407655 
L 225.937876 243.133049 
L 226.007114 235.447083 
L 226.076351 244.693598 
L 226.145589 225.453184 
L 226.214826 234.907437 
L 226.284064 233.479478 
L 226.491776 247.612517 
L 226.561014 240.783093 
L 226.630251 242.546158 
L 226.699489 249.402836 
L 226.837964 229.224752 
L 226.976439 244.774873 
L 227.045676 237.748924 
L 227.114914 251.585183 
L 227.184151 222.465728 
L 227.253388 231.709519 
L 227.391863 247.617487 
L 227.461101 228.286909 
L 227.530338 234.820069 
L 227.668813 242.68482 
L 227.738051 233.158481 
L 227.876526 249.334195 
L 227.945763 230.038351 
L 228.015001 232.182007 
L 228.084238 243.34335 
L 228.153476 242.068449 
L 228.291951 230.625841 
L 228.499663 251.449001 
L 228.638138 239.643153 
L 228.845851 244.337351 
L 228.915088 240.913965 
L 228.984325 247.740936 
L 229.053563 228.311245 
L 229.1228 237.692389 
L 229.192038 240.991866 
L 229.330513 226.209052 
L 229.39975 239.815875 
L 229.468988 224.612202 
L 229.6767 247.23403 
L 229.815175 233.446029 
L 229.884413 233.527501 
L 229.95365 240.511252 
L 230.022888 238.752258 
L 230.2306 246.637759 
L 230.299838 228.112004 
L 230.369075 236.667208 
L 230.438313 235.722195 
L 230.50755 236.78386 
L 230.576788 244.749072 
L 230.646025 232.069377 
L 230.715262 234.844113 
L 230.7845 254.166967 
L 230.853737 239.889569 
L 230.922975 255.329558 
L 230.992212 241.285037 
L 231.06145 247.066977 
L 231.130687 240.643245 
L 231.199925 244.380542 
L 231.269162 241.269382 
L 231.3384 249.939867 
L 231.407637 231.995482 
L 231.476875 237.00796 
L 231.546112 248.537441 
L 231.684587 233.764551 
L 231.823062 242.608225 
L 231.8923 235.024943 
L 231.961537 249.553887 
L 232.030775 238.929235 
L 232.100012 248.335156 
L 232.16925 242.758293 
L 232.238487 231.046242 
L 232.307725 235.571828 
L 232.515437 248.689782 
L 232.584674 234.365302 
L 232.653912 239.481565 
L 232.723149 242.600093 
L 232.930862 226.745924 
L 233.138574 245.723295 
L 233.277049 230.381212 
L 233.415524 247.871754 
L 233.484762 227.681168 
L 233.623237 247.389306 
L 233.692474 245.689218 
L 233.969424 220.851646 
L 234.177137 241.597049 
L 234.315611 224.95236 
L 234.384849 249.589774 
L 234.454086 240.44208 
L 234.523324 235.990095 
L 234.661799 244.965466 
L 234.800274 229.354207 
L 234.938749 246.460791 
L 235.077224 230.887704 
L 235.146461 241.770323 
L 235.215699 240.993402 
L 235.284936 239.790389 
L 235.423411 230.605835 
L 235.492649 246.58293 
L 235.561886 232.400562 
L 235.631124 241.206152 
L 235.700361 238.114958 
L 235.769599 236.285242 
L 235.908074 250.418586 
L 235.977311 235.693882 
L 236.046548 237.448722 
L 236.185023 250.657124 
L 236.461973 230.885525 
L 236.531211 240.071842 
L 236.600448 238.722587 
L 236.669686 234.007627 
L 236.738923 238.134064 
L 236.808161 231.363848 
L 236.877398 242.008662 
L 236.946636 232.357315 
L 237.015873 247.492829 
L 237.085111 229.644075 
L 237.223586 244.952103 
L 237.292823 243.669734 
L 237.362061 252.01589 
L 237.569773 228.231044 
L 237.639011 242.050383 
L 237.708248 234.10045 
L 237.777485 235.873868 
L 237.846723 249.649456 
L 237.91596 229.576502 
L 237.985198 241.627583 
L 238.054435 235.504001 
L 238.123673 244.370382 
L 238.19291 241.436834 
L 238.331385 233.612565 
L 238.400623 236.204725 
L 238.46986 234.024562 
L 238.539098 247.628832 
L 238.608335 241.083529 
L 238.677573 228.958684 
L 238.816048 244.395363 
L 238.954523 235.578429 
L 239.02376 237.041156 
L 239.092998 241.182686 
L 239.162235 231.27288 
L 239.369948 250.341023 
L 239.57766 235.890866 
L 239.716135 239.610205 
L 239.785372 237.71694 
L 239.85461 231.555711 
L 240.062322 247.237482 
L 240.13156 230.067043 
L 240.200797 252.787325 
L 240.270035 239.017529 
L 240.339272 252.716423 
L 240.40851 250.431058 
L 240.477747 233.068543 
L 240.546985 249.111226 
L 240.616222 240.07038 
L 240.68546 249.773618 
L 240.754697 232.890042 
L 240.893172 246.909763 
L 241.100885 217.84118 
L 241.23936 254.490958 
L 241.377834 248.616341 
L 241.447072 237.603517 
L 241.516309 241.574749 
L 241.585547 236.603994 
L 241.724022 248.058431 
L 241.793259 238.769629 
L 241.862497 247.279873 
L 241.931734 221.192997 
L 242.000972 236.106809 
L 242.070209 238.119932 
L 242.139447 246.062588 
L 242.277922 230.05039 
L 242.416397 248.080954 
L 242.554872 248.068817 
L 242.624109 241.117397 
L 242.693347 246.803012 
L 242.901059 238.15762 
L 243.039534 249.650671 
L 243.108771 221.027945 
L 243.178009 231.980655 
L 243.316484 247.268528 
L 243.385721 244.428041 
L 243.454959 233.396873 
L 243.593434 247.959822 
L 243.731909 240.845936 
L 243.801146 246.076794 
L 243.870384 244.764094 
L 243.939621 247.100616 
L 244.008859 243.92906 
L 244.078096 247.10843 
L 244.285809 240.057886 
L 244.355046 252.317331 
L 244.424284 231.617369 
L 244.493521 245.470686 
L 244.562759 237.303023 
L 244.701234 246.385969 
L 244.770471 235.501025 
L 244.839708 251.228825 
L 244.908946 239.784174 
L 244.978183 242.229966 
L 245.116658 241.173713 
L 245.185896 232.516425 
L 245.255133 244.383322 
L 245.393608 228.813999 
L 245.532083 249.683383 
L 245.601321 246.117553 
L 245.809033 253.571725 
L 245.878271 251.431023 
L 245.947508 241.489395 
L 246.016746 249.939659 
L 246.085983 249.147216 
L 246.155221 250.264453 
L 246.224458 242.178948 
L 246.293696 246.879691 
L 246.362933 246.641821 
L 246.432171 249.774656 
L 246.501408 249.45618 
L 246.639883 235.936556 
L 246.70912 243.809072 
L 246.778358 237.848536 
L 246.916833 250.095076 
L 246.98607 245.550163 
L 247.055308 231.904521 
L 247.124545 250.416271 
L 247.193783 242.916684 
L 247.401495 241.781817 
L 247.470733 232.090374 
L 247.53997 235.853252 
L 247.609208 250.686734 
L 247.678445 234.77431 
L 247.747683 241.471735 
L 247.81692 236.686687 
L 247.886158 238.009036 
L 248.024633 245.75136 
L 248.09387 241.788763 
L 248.163108 246.731272 
L 248.301583 231.996369 
L 248.578532 249.829871 
L 248.64777 243.465946 
L 248.717007 249.933202 
L 248.786245 230.930773 
L 248.855482 231.949223 
L 249.063195 248.544525 
L 249.132432 237.901572 
L 249.20167 242.994291 
L 249.270907 248.740111 
L 249.47862 225.997982 
L 249.547857 250.241802 
L 249.617095 242.882115 
L 249.686332 241.830538 
L 249.75557 243.426986 
L 249.824807 248.683697 
L 249.894045 238.199496 
L 249.963282 243.429494 
L 250.03252 236.008655 
L 250.101757 245.231466 
L 250.170994 234.04538 
L 250.240232 253.504267 
L 250.309469 248.112277 
L 250.378707 255.554045 
L 250.447944 240.448565 
L 250.517182 243.908085 
L 250.586419 246.454919 
L 250.655657 229.437209 
L 250.863369 250.517346 
L 251.071082 228.355129 
L 251.140319 243.412212 
L 251.209557 236.616528 
L 251.278794 230.913324 
L 251.348032 240.443757 
L 251.417269 239.536312 
L 251.555744 237.677835 
L 251.624982 241.789165 
L 251.694219 235.545513 
L 251.763457 243.467273 
L 251.832694 242.638604 
L 251.971169 245.220439 
L 252.040406 229.91997 
L 252.178881 246.542954 
L 252.248119 233.093646 
L 252.317356 235.426912 
L 252.455831 244.45154 
L 252.525069 240.127811 
L 252.732781 256.98281 
L 252.940494 229.505114 
L 253.009731 244.973346 
L 253.078969 240.189479 
L 253.148206 246.140824 
L 253.355919 233.128287 
L 253.425156 243.841051 
L 253.494394 232.943535 
L 253.563631 239.938914 
L 253.632869 220.990156 
L 253.702106 243.731534 
L 253.771343 236.402151 
L 253.840581 231.55525 
L 253.979056 243.273233 
L 254.048293 221.653237 
L 254.117531 242.985328 
L 254.186768 241.696365 
L 254.256006 221.849256 
L 254.325243 242.823546 
L 254.394481 232.226668 
L 254.671431 253.457882 
L 254.809906 233.251801 
L 254.948381 240.628989 
L 255.086856 231.538454 
L 255.156093 232.239276 
L 255.225331 225.563715 
L 255.294568 239.568127 
L 255.363806 237.167203 
L 255.571518 246.569243 
L 255.709993 238.599509 
L 255.77923 242.544706 
L 255.848468 235.091763 
L 255.917705 237.602601 
L 255.986943 237.837988 
L 256.05618 237.727872 
L 256.125418 248.407606 
L 256.33313 232.483294 
L 256.402368 251.70505 
L 256.471605 244.486893 
L 256.540843 243.275873 
L 256.61008 233.262476 
L 256.679318 244.812563 
L 256.748555 241.229962 
L 256.88703 231.545819 
L 256.956268 247.345104 
L 257.025505 240.10778 
L 257.094743 240.537184 
L 257.16398 249.135365 
L 257.233217 247.007308 
L 257.302455 240.374926 
L 257.371692 242.134148 
L 257.510167 237.100585 
L 257.579405 241.006472 
L 257.648642 231.28671 
L 257.71788 250.385022 
L 257.787117 239.595387 
L 257.856355 230.568527 
L 257.99483 245.831668 
L 258.133305 240.800831 
L 258.202542 253.456709 
L 258.27178 227.083337 
L 258.341017 239.146319 
L 258.410255 231.00602 
L 258.479492 242.922815 
L 258.54873 232.314828 
L 258.617967 246.990467 
L 258.687205 243.60033 
L 258.82568 238.127124 
L 258.894917 238.222062 
L 259.033392 246.242431 
L 259.171867 230.060913 
L 259.241104 251.25847 
L 259.310342 241.823163 
L 259.379579 249.245779 
L 259.448817 247.748765 
L 259.518054 245.39013 
L 259.587292 233.331115 
L 259.656529 242.373605 
L 259.725767 241.512744 
L 259.795004 237.442536 
L 259.864242 250.085767 
L 260.002717 235.82273 
L 260.141192 242.390316 
L 260.210429 242.325758 
L 260.279667 241.840635 
L 260.348904 236.743468 
L 260.418142 244.306881 
L 260.487379 228.417177 
L 260.625854 244.669244 
L 260.695091 228.07185 
L 260.764329 236.028566 
L 260.972041 243.196443 
L 261.041279 237.161398 
L 261.248991 249.310435 
L 261.456704 228.907296 
L 261.595179 250.066559 
L 261.664416 234.324232 
L 261.733654 241.413223 
L 261.802891 230.630317 
L 261.872129 247.205503 
L 261.941366 240.111158 
L 262.010604 242.006622 
L 262.079841 240.253985 
L 262.218316 244.509767 
L 262.356791 236.33806 
L 262.426029 252.445807 
L 262.495266 237.588463 
L 262.564503 251.717418 
L 262.633741 250.182319 
L 262.702978 250.252417 
L 262.772216 226.893384 
L 262.841453 241.924426 
L 262.910691 239.750572 
L 262.979928 238.814403 
L 263.049166 241.438667 
L 263.118403 249.636171 
L 263.187641 245.393486 
L 263.256878 236.935959 
L 263.326116 248.47917 
L 263.395353 233.679726 
L 263.533828 246.777275 
L 263.603066 234.690854 
L 263.672303 243.33095 
L 263.741541 236.552573 
L 263.810778 240.045567 
L 263.880016 235.981658 
L 264.018491 240.630789 
L 264.087728 232.94551 
L 264.156966 237.272579 
L 264.226203 232.45505 
L 264.29544 233.743489 
L 264.364678 231.169431 
L 264.57239 245.116743 
L 264.641628 237.849833 
L 264.84934 256.316213 
L 265.057053 234.672404 
L 265.12629 238.494153 
L 265.195528 249.478113 
L 265.264765 244.579717 
L 265.334003 233.830727 
L 265.40324 234.719076 
L 265.472478 235.086348 
L 265.610953 245.128279 
L 265.68019 242.117527 
L 265.749428 242.132712 
L 265.887903 248.31349 
L 265.95714 230.636665 
L 266.026377 250.986067 
L 266.095615 240.481578 
L 266.23409 252.368002 
L 266.580277 227.462424 
L 266.649515 244.586663 
L 266.718752 236.659339 
L 266.857227 253.815079 
L 266.926465 251.524443 
L 266.995702 254.483931 
L 267.203415 234.221111 
L 267.34189 242.595594 
L 267.411127 237.71683 
L 267.480365 254.386063 
L 267.688077 219.951092 
L 267.826552 243.545181 
L 267.895789 232.237606 
L 267.965027 248.274564 
L 268.034264 234.56839 
L 268.103502 236.541982 
L 268.172739 233.603498 
L 268.311214 245.584079 
L 268.380452 236.64485 
L 268.588164 256.095758 
L 268.795877 222.997184 
L 268.865114 252.296042 
L 268.934352 243.945822 
L 269.003589 251.948308 
L 269.072827 225.067767 
L 269.142064 237.929319 
L 269.211302 243.428194 
L 269.349777 227.967559 
L 269.419014 244.87382 
L 269.488252 244.155274 
L 269.557489 236.123169 
L 269.626726 248.007101 
L 269.695964 247.823613 
L 269.834439 228.788737 
L 269.903676 238.206121 
L 269.972914 228.066035 
L 270.042151 228.300076 
L 270.249864 250.92043 
L 270.319101 239.165233 
L 270.388339 249.94061 
L 270.457576 243.862861 
L 270.596051 237.28099 
L 270.665289 238.911013 
L 270.734526 234.866529 
L 270.803764 251.28817 
L 270.873001 245.521242 
L 270.942239 236.344158 
L 271.011476 247.167928 
L 271.080714 233.732018 
L 271.149951 247.110975 
L 271.288426 231.819511 
L 271.426901 252.543102 
L 271.496138 237.049369 
L 271.565376 238.328016 
L 271.703851 248.755967 
L 271.773088 243.107382 
L 271.842326 250.777723 
L 271.980801 235.980778 
L 272.119276 243.056038 
L 272.188513 231.161095 
L 272.257751 243.666513 
L 272.326988 239.901921 
L 272.396226 241.535407 
L 272.465463 239.766147 
L 272.603938 251.469062 
L 272.673176 241.028001 
L 272.742413 251.94901 
L 272.811651 238.099851 
L 272.880888 253.378346 
L 273.019363 238.8255 
L 273.0886 245.433156 
L 273.157838 239.618583 
L 273.227075 249.495705 
L 273.296313 243.670882 
L 273.36555 231.452681 
L 273.434788 245.721872 
L 273.504025 240.805678 
L 273.573263 233.05317 
L 273.6425 244.796149 
L 273.711738 243.216296 
L 273.850213 251.760025 
L 273.91945 230.451066 
L 274.057925 252.9142 
L 274.127163 231.775049 
L 274.1964 238.440026 
L 274.265638 225.344208 
L 274.47335 249.487665 
L 274.542588 236.516688 
L 274.611825 242.846427 
L 274.681063 240.028572 
L 274.7503 245.135498 
L 274.819537 239.75182 
L 274.888775 241.955023 
L 275.096487 251.262321 
L 275.165725 250.065808 
L 275.234962 252.465837 
L 275.3042 222.861793 
L 275.442675 247.736608 
L 275.511912 245.034204 
L 275.58115 246.190503 
L 275.650387 232.510889 
L 275.719625 238.089514 
L 275.788862 238.316902 
L 275.8581 242.927448 
L 275.996575 233.177736 
L 276.13505 242.452406 
L 276.204287 239.193354 
L 276.273525 241.420799 
L 276.342762 238.476119 
L 276.412 238.772695 
L 276.481237 240.361967 
L 276.550475 236.333602 
L 276.758187 250.402312 
L 276.827424 244.751931 
L 276.896662 248.197512 
L 276.965899 248.18621 
L 277.035137 242.039129 
L 277.173612 249.146066 
L 277.242849 236.376778 
L 277.312087 242.12535 
L 277.381324 234.010723 
L 277.450562 245.395151 
L 277.519799 244.466492 
L 277.589037 246.301096 
L 277.658274 241.482498 
L 277.865987 249.186431 
L 277.935224 247.116754 
L 278.004462 236.922675 
L 278.073699 243.241993 
L 278.142937 235.668165 
L 278.212174 239.633215 
L 278.489124 244.813952 
L 278.627599 240.315068 
L 278.696836 233.49682 
L 278.766074 247.270367 
L 278.835311 243.244253 
L 278.904549 238.706603 
L 278.973786 239.601985 
L 279.043024 243.826936 
L 279.112261 224.596296 
L 279.181499 251.252258 
L 279.250736 248.989147 
L 279.319974 235.357197 
L 279.389211 242.698481 
L 279.458449 237.846392 
L 279.596924 247.331953 
L 279.666161 244.459988 
L 279.735399 247.6179 
L 279.873874 229.324871 
L 279.943111 252.146818 
L 280.012349 247.606058 
L 280.081586 252.625202 
L 280.220061 228.784267 
L 280.289298 240.887871 
L 280.358536 240.171039 
L 280.566248 243.995792 
L 280.635486 238.307266 
L 280.704723 248.932132 
L 280.773961 241.880211 
L 280.843198 252.798088 
L 280.912436 246.351682 
L 281.120148 232.597003 
L 281.189386 235.154493 
L 281.327861 251.813691 
L 281.397098 233.555843 
L 281.466336 243.29478 
L 281.535573 249.528019 
L 281.674048 224.994684 
L 281.743286 236.813193 
L 281.812523 232.239997 
L 281.88176 248.932329 
L 281.950998 243.524176 
L 282.020235 226.386303 
L 282.15871 245.221406 
L 282.297185 243.444415 
L 282.366423 248.718098 
L 282.43566 232.517101 
L 282.504898 241.19945 
L 282.574135 240.774526 
L 282.643373 246.562966 
L 282.71261 245.840357 
L 282.781848 239.462166 
L 282.851085 255.153469 
L 282.98956 238.259107 
L 283.058798 239.025141 
L 283.128035 248.377907 
L 283.26651 225.228865 
L 283.335748 239.507447 
L 283.404985 231.53195 
L 283.612698 260.880206 
L 283.681935 244.977337 
L 283.751172 245.040263 
L 283.82041 250.379135 
L 283.889647 233.802707 
L 284.09736 253.883699 
L 284.166597 228.82242 
L 284.235835 241.01974 
L 284.305072 253.294685 
L 284.37431 238.124587 
L 284.443547 240.423543 
L 284.512785 234.693849 
L 284.582022 252.011202 
L 284.65126 231.327917 
L 284.720497 243.103321 
L 284.789735 243.762487 
L 284.858972 252.447737 
L 284.92821 249.094856 
L 284.997447 245.139634 
L 285.066685 251.134742 
L 285.135922 249.281692 
L 285.20516 227.241179 
L 285.274397 233.845395 
L 285.343635 242.380905 
L 285.412872 241.88359 
L 285.482109 243.846192 
L 285.551347 252.295963 
L 285.620584 241.949419 
L 285.689822 249.077388 
L 285.897534 229.215396 
L 286.105247 249.130634 
L 286.243722 231.839702 
L 286.382197 250.33772 
L 286.451434 248.903633 
L 286.520672 257.369407 
L 286.589909 253.715559 
L 286.659147 232.940624 
L 286.728384 235.245298 
L 286.936097 261.216 
L 287.074572 238.058963 
L 287.143809 243.014459 
L 287.213046 231.829384 
L 287.282284 248.721865 
L 287.351521 240.887039 
L 287.420759 244.31944 
L 287.489996 240.489645 
L 287.559234 249.188194 
L 287.628471 240.189121 
L 287.697709 240.251159 
L 287.766946 241.168697 
L 287.905421 232.369264 
L 287.974659 239.18327 
L 288.113134 234.006503 
L 288.182371 248.595934 
L 288.251609 244.448467 
L 288.320846 248.025388 
L 288.528559 237.061025 
L 288.597796 240.774354 
L 288.667034 251.136584 
L 288.736271 245.559162 
L 288.805509 250.689808 
L 288.874746 233.597569 
L 288.943983 253.737477 
L 289.013221 245.358741 
L 289.082458 245.660377 
L 289.151696 247.413185 
L 289.220933 246.524389 
L 289.290171 240.653306 
L 289.428646 251.069027 
L 289.497883 239.626601 
L 289.636358 258.213085 
L 289.705596 231.272867 
L 289.774833 246.79001 
L 289.844071 239.370984 
L 290.051783 253.610257 
L 290.121021 243.404314 
L 290.190258 250.123764 
L 290.259496 235.06359 
L 290.328733 247.104015 
L 290.397971 222.615634 
L 290.467208 247.389176 
L 290.536446 244.467582 
L 290.605683 241.434866 
L 290.67492 241.559636 
L 290.744158 240.385039 
L 290.813395 234.900082 
L 290.882633 252.641173 
L 290.95187 241.191425 
L 291.021108 252.760877 
L 291.22882 232.885688 
L 291.367295 248.874154 
L 291.436533 238.660205 
L 291.50577 243.079154 
L 291.644245 251.368189 
L 291.713483 247.190094 
L 291.851958 235.727793 
L 292.05967 240.776361 
L 292.128908 235.915351 
L 292.198145 236.444754 
L 292.267383 251.553788 
L 292.33662 250.348797 
L 292.405858 234.096613 
L 292.475095 241.460196 
L 292.544332 244.728704 
L 292.682807 231.620497 
L 292.821282 245.211666 
L 292.89052 222.787102 
L 292.959757 237.878171 
L 293.028995 237.436689 
L 293.236707 247.836954 
L 293.305945 241.662803 
L 293.375182 255.215893 
L 293.44442 244.082118 
L 293.513657 245.014041 
L 293.582895 247.716764 
L 293.72137 230.321159 
L 293.859845 242.281029 
L 293.929082 239.533856 
L 293.99832 241.044674 
L 294.136795 250.863113 
L 294.206032 239.279211 
L 294.275269 241.868317 
L 294.344507 240.057428 
L 294.413744 229.498246 
L 294.482982 236.054621 
L 294.552219 232.787252 
L 294.621457 236.19865 
L 294.690694 249.875435 
L 294.829169 232.033154 
L 294.967644 243.47143 
L 295.036882 242.556177 
L 295.106119 239.945665 
L 295.244594 253.331396 
L 295.383069 245.27879 
L 295.452307 234.504367 
L 295.521544 241.228276 
L 295.590782 221.651743 
L 295.798494 243.086412 
L 295.867732 243.546453 
L 295.936969 248.004555 
L 296.075444 226.447346 
L 296.144681 233.645371 
L 296.213919 240.292012 
L 296.283156 236.053728 
L 296.352394 238.62994 
L 296.421631 238.388936 
L 296.490869 224.906845 
L 296.560106 242.660845 
L 296.629344 242.294268 
L 296.837056 256.57843 
L 297.044769 219.505789 
L 297.183244 248.248189 
L 297.321719 243.361894 
L 297.390956 246.703545 
L 297.460194 235.251289 
L 297.529431 238.70328 
L 297.598669 254.99241 
L 297.737143 232.850196 
L 297.806381 248.973133 
L 297.875618 240.474707 
L 297.944856 235.872468 
L 298.083331 250.255675 
L 298.152568 239.74925 
L 298.221806 257.243873 
L 298.360281 238.620821 
L 298.498756 247.710565 
L 298.567993 241.865566 
L 298.637231 245.056988 
L 298.775706 240.618681 
L 298.844943 234.402942 
L 298.914181 250.228609 
L 299.052656 236.04135 
L 299.121893 257.014545 
L 299.191131 234.573474 
L 299.260368 244.69952 
L 299.329606 252.525316 
L 299.468081 237.394799 
L 299.606555 253.407348 
L 299.74503 237.981484 
L 299.883505 250.968761 
L 299.952743 238.270361 
L 300.02198 244.834601 
L 300.091218 248.663998 
L 300.229693 231.266214 
L 300.29893 232.161895 
L 300.368168 243.159003 
L 300.437405 239.333163 
L 300.57588 244.961253 
L 300.645118 229.818766 
L 300.783593 243.509978 
L 300.922068 249.877249 
L 301.060543 232.652547 
L 301.12978 250.634107 
L 301.199018 244.713432 
L 301.268255 239.054315 
L 301.337492 248.555389 
L 301.40673 247.986715 
L 301.475967 235.386624 
L 301.545205 246.268669 
L 301.614442 241.493356 
L 301.68368 243.594628 
L 301.752917 233.303117 
L 301.96063 254.490324 
L 302.029867 245.026779 
L 302.099105 253.307079 
L 302.306817 234.617023 
L 302.445292 245.804951 
L 302.51453 235.64213 
L 302.583767 243.671014 
L 302.653005 234.284639 
L 302.860717 250.063948 
L 302.929955 236.557476 
L 303.068429 248.137506 
L 303.137667 231.886276 
L 303.206904 239.894858 
L 303.276142 232.323204 
L 303.345379 257.094383 
L 303.414617 235.325925 
L 303.483854 242.187154 
L 303.622329 246.752535 
L 303.760804 236.592948 
L 303.830042 244.461168 
L 303.899279 238.424974 
L 304.037754 246.941308 
L 304.106992 242.332145 
L 304.176229 246.336127 
L 304.245467 243.359839 
L 304.314704 234.031869 
L 304.383942 236.718037 
L 304.453179 239.360254 
L 304.522417 248.317825 
L 304.660892 235.475483 
L 304.730129 246.143223 
L 304.799366 233.769622 
L 304.868604 246.433151 
L 304.937841 240.18469 
L 305.007079 236.323187 
L 305.145554 248.04233 
L 305.214791 238.303573 
L 305.284029 248.722558 
L 305.353266 244.933976 
L 305.491741 241.727212 
L 305.560979 256.624406 
L 305.630216 252.798497 
L 305.699454 225.823097 
L 305.768691 228.786313 
L 305.837929 251.984889 
L 305.907166 240.61796 
L 305.976404 237.824372 
L 306.045641 246.47047 
L 306.114879 244.011474 
L 306.184116 237.70875 
L 306.253354 240.339083 
L 306.391829 233.795202 
L 306.530304 253.877517 
L 306.599541 249.118078 
L 306.668778 235.703135 
L 306.738016 256.622843 
L 306.807253 247.95083 
L 306.876491 228.538205 
L 307.014966 253.488085 
L 307.153441 245.347117 
L 307.222678 252.572275 
L 307.361153 242.379115 
L 307.430391 250.775766 
L 307.568866 232.356942 
L 307.638103 252.268711 
L 307.707341 240.911232 
L 307.776578 243.103818 
L 307.845816 237.93518 
L 307.915053 247.316692 
L 307.984291 236.043959 
L 308.122766 247.958531 
L 308.261241 238.514733 
L 308.330478 255.490923 
L 308.399715 243.50731 
L 308.468953 245.296183 
L 308.607428 236.350057 
L 308.81514 250.090271 
L 309.022853 242.197722 
L 309.230565 249.743192 
L 309.299803 242.11459 
L 309.36904 248.938248 
L 309.438278 243.473254 
L 309.507515 244.235362 
L 309.576753 249.013995 
L 309.64599 238.770438 
L 309.715228 240.349976 
L 309.784465 235.044289 
L 309.92294 245.474214 
L 309.992178 238.57245 
L 310.061415 246.774808 
L 310.130652 243.911982 
L 310.338365 238.686702 
L 310.407602 240.230396 
L 310.47684 245.785284 
L 310.546077 244.396814 
L 310.75379 238.187548 
L 310.823027 247.260477 
L 310.892265 240.395948 
L 311.03074 250.204482 
L 311.169215 239.854584 
L 311.238452 249.987698 
L 311.30769 243.549636 
L 311.446165 257.67193 
L 311.58464 236.66519 
L 311.653877 240.039573 
L 311.723115 235.632287 
L 311.792352 242.205032 
L 311.861589 234.794277 
L 311.930827 245.314625 
L 312.000064 243.657798 
L 312.138539 255.899023 
L 312.207777 252.284886 
L 312.277014 253.318396 
L 312.484727 228.270948 
L 312.553964 237.149715 
L 312.623202 248.858872 
L 312.692439 237.986425 
L 312.761677 239.828207 
L 312.969389 248.690835 
L 313.038627 247.130711 
L 313.107864 247.252611 
L 313.177102 235.344644 
L 313.246339 248.588251 
L 313.315577 231.770809 
L 313.454052 248.60743 
L 313.523289 241.57729 
L 313.592527 248.890305 
L 313.731001 233.233907 
L 313.869476 240.923584 
L 313.938714 247.23648 
L 314.007951 233.649838 
L 314.077189 249.864265 
L 314.146426 245.184781 
L 314.215664 227.526099 
L 314.354139 244.302791 
L 314.492614 230.62753 
L 314.561851 249.813018 
L 314.631089 231.626819 
L 314.700326 239.24049 
L 314.769564 246.043212 
L 314.838801 241.058598 
L 314.908039 242.109392 
L 314.977276 248.78867 
L 315.046514 245.799491 
L 315.115751 246.417618 
L 315.184989 246.014898 
L 315.254226 246.863652 
L 315.392701 217.18852 
L 315.531176 251.525899 
L 315.600413 228.899441 
L 315.669651 244.466741 
L 315.738888 243.853579 
L 315.808126 243.539835 
L 315.946601 248.627244 
L 316.015838 250.577233 
L 316.223551 234.808991 
L 316.292788 239.502944 
L 316.362026 224.295441 
L 316.431263 243.151503 
L 316.500501 231.742052 
L 316.638976 247.275313 
L 316.708213 228.450603 
L 316.777451 246.603074 
L 316.846688 242.141087 
L 316.915926 247.705109 
L 316.985163 239.288632 
L 317.054401 240.330785 
L 317.192875 249.07845 
L 317.33135 248.603863 
L 317.400588 238.84125 
L 317.469825 255.564064 
L 317.539063 242.096326 
L 317.6083 242.682988 
L 317.677538 241.336923 
L 317.746775 231.952283 
L 317.816013 233.989697 
L 317.88525 241.922805 
L 317.954488 237.977365 
L 318.092963 243.81203 
L 318.1622 243.569468 
L 318.231438 240.398304 
L 318.300675 240.460094 
L 318.369913 244.178403 
L 318.508388 236.931696 
L 318.646863 253.553713 
L 318.7161 243.351998 
L 318.785338 243.918326 
L 318.854575 247.860148 
L 318.923812 237.2668 
L 319.062287 247.885824 
L 319.131525 245.963495 
L 319.200762 249.140943 
L 319.27 236.768536 
L 319.408475 251.460978 
L 319.477712 250.605664 
L 319.54695 247.90274 
L 319.616187 252.145344 
L 319.754662 241.095013 
L 319.893137 255.262115 
L 319.962375 255.48246 
L 320.10085 223.651225 
L 320.308562 245.16007 
L 320.3778 246.652134 
L 320.447037 240.858658 
L 320.516275 244.941435 
L 320.654749 238.036725 
L 320.723987 244.228749 
L 320.793224 241.589713 
L 320.862462 241.948174 
L 320.931699 241.905502 
L 321.000937 251.108332 
L 321.070174 236.855049 
L 321.139412 248.026312 
L 321.208649 245.570212 
L 321.277887 245.196332 
L 321.347124 250.87229 
L 321.416362 224.708549 
L 321.485599 228.802317 
L 321.624074 241.076872 
L 321.693312 243.490706 
L 321.762549 230.324122 
L 321.831787 238.054658 
L 321.901024 254.493865 
L 321.970262 245.306409 
L 322.039499 248.733555 
L 322.177974 236.189807 
L 322.316449 249.808101 
L 322.385687 252.528144 
L 322.454924 227.157369 
L 322.524161 228.302026 
L 322.593399 242.854349 
L 322.662636 237.865566 
L 322.801111 252.209805 
L 323.008824 226.396221 
L 323.078061 244.185638 
L 323.147299 241.052214 
L 323.285774 257.131863 
L 323.355011 245.98052 
L 323.424249 248.521842 
L 323.493486 256.424082 
L 323.631961 219.888457 
L 323.701199 251.619997 
L 323.770436 238.09887 
L 323.839674 246.000976 
L 323.908911 241.827435 
L 323.978149 234.657675 
L 324.047386 242.870209 
L 324.116624 240.410935 
L 324.393573 249.994755 
L 324.462811 247.360253 
L 324.532048 256.639973 
L 324.601286 239.64878 
L 324.670523 255.754651 
L 324.739761 244.655784 
L 324.808998 251.049249 
L 325.016711 231.45389 
L 325.155186 246.608426 
L 325.224423 241.9806 
L 325.293661 243.47621 
L 325.362898 242.236886 
L 325.501373 247.209411 
L 325.639848 233.044736 
L 325.709086 254.351716 
L 325.847561 236.107127 
L 325.916798 248.189083 
L 325.986035 245.070205 
L 326.055273 242.233721 
L 326.12451 232.15581 
L 326.193748 234.519435 
L 326.262985 248.722487 
L 326.332223 241.474217 
L 326.470698 252.302072 
L 326.539935 237.635985 
L 326.67841 250.504197 
L 326.747648 245.29927 
L 326.816885 251.897964 
L 326.886123 240.46643 
L 326.95536 245.09498 
L 327.024598 246.87328 
L 327.093835 252.401496 
L 327.163073 242.286451 
L 327.23231 242.611347 
L 327.301548 240.802761 
L 327.370785 251.644648 
L 327.50926 222.41791 
L 327.647735 252.936513 
L 327.716972 252.093643 
L 327.924685 238.392107 
L 327.993922 245.933792 
L 328.132397 236.662517 
L 328.34011 247.58601 
L 328.409347 237.560835 
L 328.478585 246.167211 
L 328.547822 242.762146 
L 328.61706 236.414086 
L 328.686297 251.679291 
L 328.755535 246.243675 
L 328.824772 246.340844 
L 328.89401 250.575415 
L 328.963247 237.777165 
L 329.101722 250.363264 
L 329.17096 232.290031 
L 329.240197 242.878535 
L 329.309435 232.876361 
L 329.44791 240.146972 
L 329.517147 236.869223 
L 329.586384 243.964687 
L 329.655622 241.029593 
L 329.724859 244.522244 
L 329.794097 243.422746 
L 329.863334 238.303137 
L 330.001809 251.174588 
L 330.140284 240.66148 
L 330.209522 247.425652 
L 330.278759 240.128987 
L 330.417234 249.850099 
L 330.486472 249.901679 
L 330.555709 255.911483 
L 330.624947 245.336094 
L 330.694184 248.936775 
L 330.763422 247.631941 
L 330.832659 256.096385 
L 330.901897 250.882452 
L 330.971134 223.818547 
L 331.040372 244.576951 
L 331.109609 231.001218 
L 331.248084 245.843461 
L 331.525034 231.243242 
L 331.732746 245.835818 
L 331.801984 245.241597 
L 331.940459 237.596942 
L 332.078934 250.156761 
L 332.286646 240.714489 
L 332.494359 248.968268 
L 332.563596 248.54367 
L 332.632834 236.770849 
L 332.702071 251.695294 
L 332.771309 244.550152 
L 332.840546 244.647975 
L 332.909784 243.888976 
L 332.979021 244.614275 
L 333.048258 242.417557 
L 333.117496 246.739889 
L 333.255971 240.620565 
L 333.394446 245.670538 
L 333.463683 243.401574 
L 333.532921 248.817714 
L 333.602158 235.797478 
L 333.671396 257.636162 
L 333.740633 253.991064 
L 333.809871 232.530148 
L 333.879108 237.978196 
L 333.948346 236.509709 
L 334.017583 228.279928 
L 334.086821 249.944853 
L 334.156058 248.106915 
L 334.225296 247.262359 
L 334.294533 240.873232 
L 334.363771 241.902855 
L 334.433008 240.108624 
L 334.502246 241.525726 
L 334.571483 240.913201 
L 334.640721 236.655506 
L 334.709958 240.681957 
L 334.848433 237.425 
L 334.91767 253.243709 
L 334.986908 245.176565 
L 335.056145 249.118356 
L 335.19462 233.115841 
L 335.540808 249.874151 
L 335.610045 251.349993 
L 335.74852 243.367293 
L 335.817758 247.450636 
L 335.886995 232.144926 
L 335.956233 236.69989 
L 336.02547 253.116526 
L 336.094708 252.192276 
L 336.163945 234.480102 
L 336.233183 245.626852 
L 336.30242 227.16258 
L 336.371658 228.993884 
L 336.440895 246.241485 
L 336.510133 245.455771 
L 336.57937 242.095862 
L 336.648607 245.530794 
L 336.717845 241.200636 
L 336.787082 249.992582 
L 336.994795 228.093158 
L 337.13327 245.832808 
L 337.202507 239.385958 
L 337.271745 250.248427 
L 337.340982 245.764765 
L 337.41022 235.699607 
L 337.479457 236.625192 
L 337.617932 244.53102 
L 337.68717 245.731979 
L 337.756407 240.433104 
L 337.825645 249.523321 
L 337.894882 242.667868 
L 337.96412 250.761663 
L 338.033357 249.097354 
L 338.102595 242.953493 
L 338.171832 254.854357 
L 338.24107 237.639997 
L 338.310307 250.450118 
L 338.379544 242.08351 
L 338.448782 246.564104 
L 338.518019 246.736868 
L 338.587257 237.922042 
L 338.725732 247.633647 
L 338.794969 246.201357 
L 338.864207 246.207845 
L 338.933444 248.470845 
L 339.002682 237.613783 
L 339.141157 253.819939 
L 339.348869 243.375646 
L 339.418107 250.929926 
L 339.487344 238.698261 
L 339.556582 244.303346 
L 339.625819 239.996166 
L 339.695057 250.300477 
L 339.764294 245.204038 
L 339.833532 249.805463 
L 339.902769 243.247323 
L 339.972007 252.875726 
L 340.110481 234.366566 
L 340.179719 255.085964 
L 340.248956 247.207192 
L 340.318194 248.036016 
L 340.387431 251.54287 
L 340.595144 219.52113 
L 340.664381 250.127799 
L 340.733619 235.860649 
L 340.802856 255.569074 
L 341.010569 226.992964 
L 341.079806 248.392454 
L 341.149044 229.979253 
L 341.218281 238.997936 
L 341.287519 249.23641 
L 341.356756 231.40483 
L 341.495231 248.960468 
L 341.564469 247.749157 
L 341.633706 250.956148 
L 341.702944 239.503156 
L 341.772181 240.647657 
L 341.841418 236.85439 
L 341.910656 246.495276 
L 341.979893 245.593929 
L 342.049131 235.905628 
L 342.187606 256.035148 
L 342.326081 243.322685 
L 342.395318 250.356446 
L 342.464556 225.807555 
L 342.533793 230.048626 
L 342.603031 241.38694 
L 342.672268 230.600147 
L 342.810743 253.411194 
L 342.949218 243.775295 
L 343.018456 247.936805 
L 343.087693 241.348384 
L 343.156931 253.390214 
L 343.226168 248.031081 
L 343.295406 248.379184 
L 343.364643 249.6234 
L 343.433881 245.849237 
L 343.503118 256.009218 
L 343.572356 253.734624 
L 343.71083 246.049388 
L 343.780068 246.52425 
L 343.849305 245.037799 
L 344.057018 230.517239 
L 344.126255 246.895659 
L 344.195493 236.709639 
L 344.26473 243.477045 
L 344.333968 243.206926 
L 344.403205 243.85387 
L 344.472443 252.196909 
L 344.54168 251.181345 
L 344.610918 240.573485 
L 344.749393 255.20177 
L 344.81863 240.334664 
L 344.887868 243.072816 
L 344.957105 235.397787 
L 345.164818 246.307542 
L 345.234055 240.086497 
L 345.303293 241.195275 
L 345.37253 239.650518 
L 345.511005 253.255665 
L 345.580242 245.522649 
L 345.64948 254.348946 
L 345.718717 253.671953 
L 345.787955 251.946859 
L 345.857192 244.702271 
L 345.92643 249.260445 
L 345.995667 229.583967 
L 346.064905 234.313261 
L 346.20338 237.72156 
L 346.272617 247.176196 
L 346.341855 243.668805 
L 346.411092 239.548807 
L 346.48033 225.588526 
L 346.549567 243.785453 
L 346.618805 241.437582 
L 346.688042 244.685034 
L 346.75728 243.159891 
L 346.826517 241.577901 
L 346.895755 245.023527 
L 346.964992 245.012578 
L 347.03423 239.23524 
L 347.103467 250.482903 
L 347.172704 245.374843 
L 347.241942 243.882644 
L 347.311179 247.632068 
L 347.380417 245.790854 
L 347.449654 243.89362 
L 347.518892 250.531934 
L 347.588129 239.491749 
L 347.657367 243.761686 
L 347.726604 251.544522 
L 347.795842 249.487442 
L 348.003554 245.747523 
L 348.072792 235.436135 
L 348.142029 243.223654 
L 348.280504 236.047347 
L 348.349742 236.598075 
L 348.488217 242.780497 
L 348.557454 256.790263 
L 348.626692 249.381209 
L 348.695929 249.217999 
L 348.834404 239.135315 
L 348.903641 243.659487 
L 348.972879 243.590163 
L 349.111354 234.556525 
L 349.249829 260.307648 
L 349.388304 235.524299 
L 349.457541 247.633958 
L 349.526779 247.390239 
L 349.596016 247.459833 
L 349.665254 251.436621 
L 349.734491 233.674665 
L 349.803729 247.437696 
L 349.872966 244.123763 
L 349.942204 231.149747 
L 350.011441 254.389266 
L 350.080679 242.948052 
L 350.149916 248.382389 
L 350.219154 240.341954 
L 350.357629 251.579946 
L 350.426866 237.904609 
L 350.496104 248.413757 
L 350.565341 246.116419 
L 350.634578 247.909472 
L 350.703816 235.194397 
L 350.773053 237.092661 
L 350.911528 249.827834 
L 350.980766 243.843981 
L 351.050003 250.064205 
L 351.119241 239.052505 
L 351.188478 241.964437 
L 351.257716 250.82583 
L 351.396191 226.734839 
L 351.534666 254.374257 
L 351.742378 237.241693 
L 351.880853 252.08563 
L 351.950091 228.974018 
L 352.019328 240.982542 
L 352.088566 233.738434 
L 352.157803 237.273966 
L 352.296278 249.716055 
L 352.573228 220.428746 
L 352.711703 252.324014 
L 352.78094 241.795461 
L 352.850178 247.366288 
L 352.919415 238.505306 
L 352.988653 250.388899 
L 353.05789 245.411572 
L 353.127128 250.859822 
L 353.196365 242.277238 
L 353.265603 208.999715 
L 353.404078 248.759176 
L 353.542553 243.90297 
L 353.61179 252.989529 
L 353.681028 239.490577 
L 353.88874 253.035661 
L 353.957978 258.5653 
L 354.027215 255.528054 
L 354.096453 238.144359 
L 354.16569 249.775026 
L 354.234927 244.862347 
L 354.304165 238.410043 
L 354.373402 256.227266 
L 354.44264 246.926132 
L 354.511877 245.0054 
L 354.581115 255.035915 
L 354.650352 241.952115 
L 354.71959 244.087832 
L 354.788827 240.675313 
L 354.858065 244.942023 
L 354.927302 235.854487 
L 354.99654 249.779454 
L 355.065777 244.177677 
L 355.135015 242.599496 
L 355.204252 247.176487 
L 355.27349 247.171851 
L 355.342727 234.403241 
L 355.481202 249.358079 
L 355.55044 239.381471 
L 355.619677 253.725725 
L 355.688915 248.615974 
L 355.758152 249.474714 
L 355.896627 236.092842 
L 355.965864 239.122843 
L 356.035102 234.996065 
L 356.242814 250.136533 
L 356.381289 242.77271 
L 356.450527 248.20566 
L 356.519764 246.215535 
L 356.589002 245.701358 
L 356.658239 245.779636 
L 356.727477 247.460944 
L 356.796714 242.899883 
L 356.935189 254.786693 
L 357.004427 245.366847 
L 357.073664 249.317976 
L 357.142902 248.872776 
L 357.212139 252.98603 
L 357.281377 244.831952 
L 357.350614 247.59519 
L 357.419852 243.639868 
L 357.627564 254.856207 
L 357.835276 239.964543 
L 357.904514 248.119588 
L 358.042989 237.748618 
L 358.112226 238.922358 
L 358.319939 249.706419 
L 358.389176 236.428972 
L 358.527651 247.338084 
L 358.735364 242.848948 
L 358.804601 244.620672 
L 358.873839 249.370673 
L 359.012314 236.030493 
L 359.150789 245.476504 
L 359.220026 227.367834 
L 359.289264 250.539005 
L 359.358501 249.079236 
L 359.496976 245.931982 
L 359.566213 247.236574 
L 359.635451 239.779226 
L 359.704688 246.11262 
L 359.773926 242.621022 
L 359.912401 248.113276 
L 359.981638 230.512759 
L 360.050876 252.030478 
L 360.120113 247.365841 
L 360.189351 235.754679 
L 360.258588 256.138121 
L 360.327826 234.903649 
L 360.397063 242.374014 
L 360.466301 235.416474 
L 360.535538 253.007504 
L 360.674013 225.31228 
L 360.743251 247.313111 
L 360.812488 236.384637 
L 360.881726 238.163734 
L 360.950963 244.354899 
L 361.020201 225.957841 
L 361.227913 256.820819 
L 361.435625 235.905011 
L 361.504863 247.051962 
L 361.643338 233.829762 
L 361.781813 254.789888 
L 361.85105 248.324612 
L 361.920288 250.135014 
L 361.989525 244.241984 
L 362.058763 246.475071 
L 362.197238 242.788495 
L 362.335713 251.774956 
L 362.40495 235.936062 
L 362.543425 249.914751 
L 362.612663 250.751431 
L 362.6819 233.603306 
L 362.751138 243.535725 
L 362.820375 238.479524 
L 362.889613 256.335888 
L 362.95885 243.074414 
L 363.028087 248.564238 
L 363.097325 243.471748 
L 363.2358 249.65392 
L 363.305037 234.774924 
L 363.443512 246.553711 
L 363.51275 246.798356 
L 363.581987 248.733559 
L 363.651225 239.183172 
L 363.720462 240.201596 
L 363.7897 237.9248 
L 363.858937 245.110554 
L 363.928175 237.072834 
L 363.997412 238.173091 
L 364.06665 240.179898 
L 364.135887 251.651173 
L 364.205125 238.274103 
L 364.274362 245.985245 
L 364.3436 242.651732 
L 364.412837 244.830374 
L 364.482075 243.969156 
L 364.551312 224.987332 
L 364.689787 248.620565 
L 364.897499 241.833312 
L 364.966737 243.685726 
L 365.105212 241.726835 
L 365.243687 250.291501 
L 365.312924 237.75791 
L 365.382162 247.675078 
L 365.451399 246.309962 
L 365.589874 256.629923 
L 365.797587 239.963968 
L 365.866824 246.39739 
L 365.936062 239.190989 
L 366.005299 249.559505 
L 366.074537 243.324157 
L 366.143774 229.254835 
L 366.351487 253.252583 
L 366.420724 249.05944 
L 366.489962 252.175402 
L 366.559199 240.497279 
L 366.628436 255.181306 
L 366.766911 236.056928 
L 366.974624 249.765514 
L 367.113099 234.330001 
L 367.182336 248.279084 
L 367.251574 246.090908 
L 367.320811 250.11904 
L 367.390049 237.526633 
L 367.459286 244.492586 
L 367.528524 245.66365 
L 367.666999 232.343859 
L 367.736236 248.130962 
L 367.805474 246.992091 
L 367.874711 246.226496 
L 367.943949 244.182177 
L 368.013186 251.777669 
L 368.082424 249.138342 
L 368.290136 233.49323 
L 368.428611 244.553362 
L 368.497848 237.563915 
L 368.567086 252.767743 
L 368.636323 244.786845 
L 368.705561 248.574249 
L 368.913273 235.762846 
L 368.982511 249.606134 
L 369.051748 235.937631 
L 369.120986 242.110698 
L 369.190223 239.489547 
L 369.259461 245.999725 
L 369.328698 231.707807 
L 369.397936 254.634841 
L 369.467173 245.167071 
L 369.536411 247.837798 
L 369.605648 241.382581 
L 369.674886 251.800767 
L 369.744123 235.111022 
L 369.882598 247.896059 
L 370.021073 234.246678 
L 370.09031 248.975085 
L 370.159548 246.364265 
L 370.228785 240.14362 
L 370.36726 251.817206 
L 370.436498 248.300055 
L 370.505735 223.484825 
L 370.574973 249.645793 
L 370.64421 247.555698 
L 370.713448 254.401445 
L 370.990398 237.776353 
L 370.990398 237.776353 
" clip-path="url(#pc46e73e864)" style="fill: none; stroke: #1f77b4; stroke-width: 1.5; stroke-linecap: square"/>
   </g>
   <g id="patch_3">
    <path d="M 30.103125 273.312 
L 30.103125 7.2 
" style="fill: none; stroke: #000000; stroke-width: 0.8; stroke-linejoin: miter; stroke-linecap: square"/>
   </g>
   <g id="patch_4">
    <path d="M 387.223125 273.312 
L 387.223125 7.2 
" style="fill: none; stroke: #000000; stroke-width: 0.8; stroke-linejoin: miter; stroke-linecap: square"/>
   </g>
   <g id="patch_5">
    <path d="M 30.103125 273.312 
L 387.223125 273.312 
" style="fill: none; stroke: #000000; stroke-width: 0.8; stroke-linejoin: miter; stroke-linecap: square"/>
   </g>
   <g id="patch_6">
    <path d="M 30.103125 7.2 
L 387.223125 7.2 
" style="fill: none; stroke: #000000; stroke-width: 0.8; stroke-linejoin: miter; stroke-linecap: square"/>
   </g>
  </g>
 </g>
 <defs>
  <clipPath id="pc46e73e864">
   <rect x="30.103125" y="7.2" width="357.12" height="266.112"/>
  </clipPath>
 </defs>
</svg>
