<?xml version="1.0" encoding="utf-8" standalone="no"?>
<!DOCTYPE svg PUBLIC "-//W3C//DTD SVG 1.1//EN"
  "http://www.w3.org/Graphics/SVG/1.1/DTD/svg11.dtd">
<svg xmlns:xlink="http://www.w3.org/1999/xlink" width="398.105362pt" height="297.190125pt" viewBox="0 0 398.105362 297.190125" xmlns="http://www.w3.org/2000/svg" version="1.1">
 <metadata>
  <rdf:RDF xmlns:dc="http://purl.org/dc/elements/1.1/" xmlns:cc="http://creativecommons.org/ns#" xmlns:rdf="http://www.w3.org/1999/02/22-rdf-syntax-ns#">
   <cc:Work>
    <dc:type rdf:resource="http://purl.org/dc/dcmitype/StillImage"/>
    <dc:date>2026-03-21T11:32:12.663409</dc:date>
    <dc:format>image/svg+xml</dc:format>
    <dc:creator>
     <cc:Agent>
      <dc:title>Matplotlib v3.10.0, https://matplotlib.org/</dc:title>
     </cc:Agent>
    </dc:creator>
   </cc:Work>
  </rdf:RDF>
 </metadata>
 <defs>
  <style type="text/css">*{stroke-linejoin: round; stroke-linecap: butt}</style>
 </defs>
 <g id="figure_1">
  <g id="patch_1">
   <path d="M 0 297.190125 
L 398.105362 297.190125 
L 398.105362 0 
L 0 0 
z
" style="fill: #ffffff"/>
  </g>
  <g id="axes_1">
   <g id="patch_2">
    <path d="M 30.103125 273.312 
L 387.223125 273.312 
L 387.223125 7.2 
L 30.103125 7.2 
z
" style="fill: #ffffff"/>
   </g>
   <g id="matplotlib.axis_1">
    <g id="xtick_1">
     <g id="line2d_1">
      <defs>
       <path id="m3842de8dd0" d="M 0 0 
L 0 3.5 
" style="stroke: #000000; stroke-width: 0.8"/>
      </defs>
      <g>
       <use xlink:href="#m3842de8dd0" x="46.335852" y="273.312" style="stroke: #000000; stroke-width: 0.8"/>
      </g>
     </g>
     <g id="text_1">
      <!-- 0 -->
      <g transform="translate(43.154602 287.910437) scale(0.1 -0.1)">
       <defs>
        <path id="DejaVuSans-30" d="M 2034 4250 
Q 1547 4250 1301 3770 
Q 1056 3291 1056 2328 
Q 1056 1369 1301 889 
Q 1547 409 2034 409 
Q 2525 409 2770 889 
Q 3016 1369 3016 2328 
Q 3016 3291 2770 3770 
Q 2525 4250 2034 4250 
z
M 2034 4750 
Q 2819 4750 3233 4129 
Q 3647 3509 3647 2328 
Q 3647 1150 3233 529 
Q 2819 -91 2034 -91 
Q 1250 -91 836 529 
Q 422 1150 422 2328 
Q 422 3509 836 4129 
Q 1250 4750 2034 4750 
z
" transform="scale(0.015625)"/>
       </defs>
       <use xlink:href="#DejaVuSans-30"/>
      </g>
     </g>
    </g>
    <g id="xtick_2">
     <g id="line2d_2">
      <g>
       <use xlink:href="#m3842de8dd0" x="101.643271" y="273.312" style="stroke: #000000; stroke-width: 0.8"/>
      </g>
     </g>
     <g id="text_2">
      <!-- 200 -->
      <g transform="translate(92.099521 287.910437) scale(0.1 -0.1)">
       <defs>
        <path id="DejaVuSans-32" d="M 1228 531 
L 3431 531 
L 3431 0 
L 469 0 
L 469 531 
Q 828 903 1448 1529 
Q 2069 2156 2228 2338 
Q 2531 2678 2651 2914 
Q 2772 3150 2772 3378 
Q 2772 3750 2511 3984 
Q 2250 4219 1831 4219 
Q 1534 4219 1204 4116 
Q 875 4013 500 3803 
L 500 4441 
Q 881 4594 1212 4672 
Q 1544 4750 1819 4750 
Q 2544 4750 2975 4387 
Q 3406 4025 3406 3419 
Q 3406 3131 3298 2873 
Q 3191 2616 2906 2266 
Q 2828 2175 2409 1742 
Q 1991 1309 1228 531 
z
" transform="scale(0.015625)"/>
       </defs>
       <use xlink:href="#DejaVuSans-32"/>
       <use xlink:href="#DejaVuSans-30" transform="translate(63.623047 0)"/>
       <use xlink:href="#DejaVuSans-30" transform="translate(127.246094 0)"/>
      </g>
     </g>
    </g>
    <g id="xtick_3">
     <g id="line2d_3">
      <g>
       <use xlink:href="#m3842de8dd0" x="156.950689" y="273.312" style="stroke: #000000; stroke-width: 0.8"/>
      </g>
     </g>
     <g id="text_3">
      <!-- 400 -->
      <g transform="translate(147.406939 287.910437) scale(0.1 -0.1)">
       <defs>
        <path id="DejaVuSans-34" d="M 2419 4116 
L 825 1625 
L 2419 1625 
L 2419 4116 
z
M 2253 4666 
L 3047 4666 
L 3047 1625 
L 3713 1625 
L 3713 1100 
L 3047 1100 
L 3047 0 
L 2419 0 
L 2419 1100 
L 313 1100 
L 313 1709 
L 2253 4666 
z
" transform="scale(0.015625)"/>
       </defs>
       <use xlink:href="#DejaVuSans-34"/>
       <use xlink:href="#DejaVuSans-30" transform="translate(63.623047 0)"/>
       <use xlink:href="#DejaVuSans-30" transform="translate(127.246094 0)"/>
      </g>
     </g>
    </g>
    <g id="xtick_4">
     <g id="line2d_4">
      <g>
       <use xlink:href="#m3842de8dd0" x="212.258107" y="273.312" style="stroke: #000000; stroke-width: 0.8"/>
      </g>
     </g>
     <g id="text_4">
      <!-- 600 -->
      <g transform="translate(202.714357 287.910437) scale(0.1 -0.1)">
       <defs>
        <path id="DejaVuSans-36" d="M 2113 2584 
Q 1688 2584 1439 2293 
Q 1191 2003 1191 1497 
Q 1191 994 1439 701 
Q 1688 409 2113 409 
Q 2538 409 2786 701 
Q 3034 994 3034 1497 
Q 3034 2003 2786 2293 
Q 2538 2584 2113 2584 
z
M 3366 4563 
L 3366 3988 
Q 3128 4100 2886 4159 
Q 2644 4219 2406 4219 
Q 1781 4219 1451 3797 
Q 1122 3375 1075 2522 
Q 1259 2794 1537 2939 
Q 1816 3084 2150 3084 
Q 2853 3084 3261 2657 
Q 3669 2231 3669 1497 
Q 3669 778 3244 343 
Q 2819 -91 2113 -91 
Q 1303 -91 875 529 
Q 447 1150 447 2328 
Q 447 3434 972 4092 
Q 1497 4750 2381 4750 
Q 2619 4750 2861 4703 
Q 3103 4656 3366 4563 
z
" transform="scale(0.015625)"/>
       </defs>
       <use xlink:href="#DejaVuSans-36"/>
       <use xlink:href="#DejaVuSans-30" transform="translate(63.623047 0)"/>
       <use xlink:href="#DejaVuSans-30" transform="translate(127.246094 0)"/>
      </g>
     </g>
    </g>
    <g id="xtick_5">
     <g id="line2d_5">
      <g>
       <use xlink:href="#m3842de8dd0" x="267.565525" y="273.312" style="stroke: #000000; stroke-width: 0.8"/>
      </g>
     </g>
     <g id="text_5">
      <!-- 800 -->
      <g transform="translate(258.021775 287.910437) scale(0.1 -0.1)">
       <defs>
        <path id="DejaVuSans-38" d="M 2034 2216 
Q 1584 2216 1326 1975 
Q 1069 1734 1069 1313 
Q 1069 891 1326 650 
Q 1584 409 2034 409 
Q 2484 409 2743 651 
Q 3003 894 3003 1313 
Q 3003 1734 2745 1975 
Q 2488 2216 2034 2216 
z
M 1403 2484 
Q 997 2584 770 2862 
Q 544 3141 544 3541 
Q 544 4100 942 4425 
Q 1341 4750 2034 4750 
Q 2731 4750 3128 4425 
Q 3525 4100 3525 3541 
Q 3525 3141 3298 2862 
Q 3072 2584 2669 2484 
Q 3125 2378 3379 2068 
Q 3634 1759 3634 1313 
Q 3634 634 3220 271 
Q 2806 -91 2034 -91 
Q 1263 -91 848 271 
Q 434 634 434 1313 
Q 434 1759 690 2068 
Q 947 2378 1403 2484 
z
M 1172 3481 
Q 1172 3119 1398 2916 
Q 1625 2713 2034 2713 
Q 2441 2713 2670 2916 
Q 2900 3119 2900 3481 
Q 2900 3844 2670 4047 
Q 2441 4250 2034 4250 
Q 1625 4250 1398 4047 
Q 1172 3844 1172 3481 
z
" transform="scale(0.015625)"/>
       </defs>
       <use xlink:href="#DejaVuSans-38"/>
       <use xlink:href="#DejaVuSans-30" transform="translate(63.623047 0)"/>
       <use xlink:href="#DejaVuSans-30" transform="translate(127.246094 0)"/>
      </g>
     </g>
    </g>
    <g id="xtick_6">
     <g id="line2d_6">
      <g>
       <use xlink:href="#m3842de8dd0" x="322.872944" y="273.312" style="stroke: #000000; stroke-width: 0.8"/>
      </g>
     </g>
     <g id="text_6">
      <!-- 1000 -->
      <g transform="translate(310.147944 287.910437) scale(0.1 -0.1)">
       <defs>
        <path id="DejaVuSans-31" d="M 794 531 
L 1825 531 
L 1825 4091 
L 703 3866 
L 703 4441 
L 1819 4666 
L 2450 4666 
L 2450 531 
L 3481 531 
L 3481 0 
L 794 0 
L 794 531 
z
" transform="scale(0.015625)"/>
       </defs>
       <use xlink:href="#DejaVuSans-31"/>
       <use xlink:href="#DejaVuSans-30" transform="translate(63.623047 0)"/>
       <use xlink:href="#DejaVuSans-30" transform="translate(127.246094 0)"/>
       <use xlink:href="#DejaVuSans-30" transform="translate(190.869141 0)"/>
      </g>
     </g>
    </g>
    <g id="xtick_7">
     <g id="line2d_7">
      <g>
       <use xlink:href="#m3842de8dd0" x="378.180362" y="273.312" style="stroke: #000000; stroke-width: 0.8"/>
      </g>
     </g>
     <g id="text_7">
      <!-- 1200 -->
      <g transform="translate(365.455362 287.910437) scale(0.1 -0.1)">
       <use xlink:href="#DejaVuSans-31"/>
       <use xlink:href="#DejaVuSans-32" transform="translate(63.623047 0)"/>
       <use xlink:href="#DejaVuSans-30" transform="translate(127.246094 0)"/>
       <use xlink:href="#DejaVuSans-30" transform="translate(190.869141 0)"/>
      </g>
     </g>
    </g>
   </g>
   <g id="matplotlib.axis_2">
    <g id="ytick_1">
     <g id="line2d_8">
      <defs>
       <path id="m3c7c13010f" d="M 0 0 
L -3.5 0 
" style="stroke: #000000; stroke-width: 0.8"/>
      </defs>
      <g>
       <use xlink:href="#m3c7c13010f" x="30.103125" y="261.50879" style="stroke: #000000; stroke-width: 0.8"/>
      </g>
     </g>
     <g id="text_8">
      <!-- 0.0 -->
      <g transform="translate(7.2 265.308008) scale(0.1 -0.1)">
       <defs>
        <path id="DejaVuSans-2e" d="M 684 794 
L 1344 794 
L 1344 0 
L 684 0 
L 684 794 
z
" transform="scale(0.015625)"/>
       </defs>
       <use xlink:href="#DejaVuSans-30"/>
       <use xlink:href="#DejaVuSans-2e" transform="translate(63.623047 0)"/>
       <use xlink:href="#DejaVuSans-30" transform="translate(95.410156 0)"/>
      </g>
     </g>
    </g>
    <g id="ytick_2">
     <g id="line2d_9">
      <g>
       <use xlink:href="#m3c7c13010f" x="30.103125" y="227.67161" style="stroke: #000000; stroke-width: 0.8"/>
      </g>
     </g>
     <g id="text_9">
      <!-- 0.5 -->
      <g transform="translate(7.2 231.470829) scale(0.1 -0.1)">
       <defs>
        <path id="DejaVuSans-35" d="M 691 4666 
L 3169 4666 
L 3169 4134 
L 1269 4134 
L 1269 2991 
Q 1406 3038 1543 3061 
Q 1681 3084 1819 3084 
Q 2600 3084 3056 2656 
Q 3513 2228 3513 1497 
Q 3513 744 3044 326 
Q 2575 -91 1722 -91 
Q 1428 -91 1123 -41 
Q 819 9 494 109 
L 494 744 
Q 775 591 1075 516 
Q 1375 441 1709 441 
Q 2250 441 2565 725 
Q 2881 1009 2881 1497 
Q 2881 1984 2565 2268 
Q 2250 2553 1709 2553 
Q 1456 2553 1204 2497 
Q 953 2441 691 2322 
L 691 4666 
z
" transform="scale(0.015625)"/>
       </defs>
       <use xlink:href="#DejaVuSans-30"/>
       <use xlink:href="#DejaVuSans-2e" transform="translate(63.623047 0)"/>
       <use xlink:href="#DejaVuSans-35" transform="translate(95.410156 0)"/>
      </g>
     </g>
    </g>
    <g id="ytick_3">
     <g id="line2d_10">
      <g>
       <use xlink:href="#m3c7c13010f" x="30.103125" y="193.834431" style="stroke: #000000; stroke-width: 0.8"/>
      </g>
     </g>
     <g id="text_10">
      <!-- 1.0 -->
      <g transform="translate(7.2 197.63365) scale(0.1 -0.1)">
       <use xlink:href="#DejaVuSans-31"/>
       <use xlink:href="#DejaVuSans-2e" transform="translate(63.623047 0)"/>
       <use xlink:href="#DejaVuSans-30" transform="translate(95.410156 0)"/>
      </g>
     </g>
    </g>
    <g id="ytick_4">
     <g id="line2d_11">
      <g>
       <use xlink:href="#m3c7c13010f" x="30.103125" y="159.997252" style="stroke: #000000; stroke-width: 0.8"/>
      </g>
     </g>
     <g id="text_11">
      <!-- 1.5 -->
      <g transform="translate(7.2 163.79647) scale(0.1 -0.1)">
       <use xlink:href="#DejaVuSans-31"/>
       <use xlink:href="#DejaVuSans-2e" transform="translate(63.623047 0)"/>
       <use xlink:href="#DejaVuSans-35" transform="translate(95.410156 0)"/>
      </g>
     </g>
    </g>
    <g id="ytick_5">
     <g id="line2d_12">
      <g>
       <use xlink:href="#m3c7c13010f" x="30.103125" y="126.160072" style="stroke: #000000; stroke-width: 0.8"/>
      </g>
     </g>
     <g id="text_12">
      <!-- 2.0 -->
      <g transform="translate(7.2 129.959291) scale(0.1 -0.1)">
       <use xlink:href="#DejaVuSans-32"/>
       <use xlink:href="#DejaVuSans-2e" transform="translate(63.623047 0)"/>
       <use xlink:href="#DejaVuSans-30" transform="translate(95.410156 0)"/>
      </g>
     </g>
    </g>
    <g id="ytick_6">
     <g id="line2d_13">
      <g>
       <use xlink:href="#m3c7c13010f" x="30.103125" y="92.322893" style="stroke: #000000; stroke-width: 0.8"/>
      </g>
     </g>
     <g id="text_13">
      <!-- 2.5 -->
      <g transform="translate(7.2 96.122112) scale(0.1 -0.1)">
       <use xlink:href="#DejaVuSans-32"/>
       <use xlink:href="#DejaVuSans-2e" transform="translate(63.623047 0)"/>
       <use xlink:href="#DejaVuSans-35" transform="translate(95.410156 0)"/>
      </g>
     </g>
    </g>
    <g id="ytick_7">
     <g id="line2d_14">
      <g>
       <use xlink:href="#m3c7c13010f" x="30.103125" y="58.485714" style="stroke: #000000; stroke-width: 0.8"/>
      </g>
     </g>
     <g id="text_14">
      <!-- 3.0 -->
      <g transform="translate(7.2 62.284932) scale(0.1 -0.1)">
       <defs>
        <path id="DejaVuSans-33" d="M 2597 2516 
Q 3050 2419 3304 2112 
Q 3559 1806 3559 1356 
Q 3559 666 3084 287 
Q 2609 -91 1734 -91 
Q 1441 -91 1130 -33 
Q 819 25 488 141 
L 488 750 
Q 750 597 1062 519 
Q 1375 441 1716 441 
Q 2309 441 2620 675 
Q 2931 909 2931 1356 
Q 2931 1769 2642 2001 
Q 2353 2234 1838 2234 
L 1294 2234 
L 1294 2753 
L 1863 2753 
Q 2328 2753 2575 2939 
Q 2822 3125 2822 3475 
Q 2822 3834 2567 4026 
Q 2313 4219 1838 4219 
Q 1578 4219 1281 4162 
Q 984 4106 628 3988 
L 628 4550 
Q 988 4650 1302 4700 
Q 1616 4750 1894 4750 
Q 2613 4750 3031 4423 
Q 3450 4097 3450 3541 
Q 3450 3153 3228 2886 
Q 3006 2619 2597 2516 
z
" transform="scale(0.015625)"/>
       </defs>
       <use xlink:href="#DejaVuSans-33"/>
       <use xlink:href="#DejaVuSans-2e" transform="translate(63.623047 0)"/>
       <use xlink:href="#DejaVuSans-30" transform="translate(95.410156 0)"/>
      </g>
     </g>
    </g>
    <g id="ytick_8">
     <g id="line2d_15">
      <g>
       <use xlink:href="#m3c7c13010f" x="30.103125" y="24.648534" style="stroke: #000000; stroke-width: 0.8"/>
      </g>
     </g>
     <g id="text_15">
      <!-- 3.5 -->
      <g transform="translate(7.2 28.447753) scale(0.1 -0.1)">
       <use xlink:href="#DejaVuSans-33"/>
       <use xlink:href="#DejaVuSans-2e" transform="translate(63.623047 0)"/>
       <use xlink:href="#DejaVuSans-35" transform="translate(95.410156 0)"/>
      </g>
     </g>
    </g>
   </g>
   <g id="line2d_16">
    <path d="M 46.335852 104.569354 
L 46.888926 111.306353 
L 47.165464 118.80014 
L 47.442001 130.439447 
L 47.718538 151.159305 
L 47.995075 156.565407 
L 48.271612 116.28969 
L 48.548149 134.240199 
L 48.824686 133.475505 
L 49.101223 149.386039 
L 49.37776 110.903499 
L 49.654297 19.296 
L 49.930834 143.310649 
L 50.207372 176.718367 
L 50.483909 190.3344 
L 50.760446 210.425306 
L 51.036983 212.950237 
L 51.31352 209.148025 
L 51.590057 210.343801 
L 51.866594 212.776501 
L 52.143131 212.558854 
L 52.419668 205.92945 
L 52.696205 218.077166 
L 53.24928 205.008317 
L 53.525817 223.333363 
L 53.802354 217.507421 
L 54.078891 218.683848 
L 54.355428 229.513106 
L 54.631965 224.957741 
L 54.908502 227.671211 
L 55.185039 237.151998 
L 55.461576 234.624255 
L 55.738113 229.324569 
L 56.01465 239.711069 
L 56.291188 237.74442 
L 56.567725 236.973024 
L 57.120799 240.600415 
L 57.397336 237.504019 
L 57.673873 237.120063 
L 57.95041 235.364892 
L 58.226947 222.823491 
L 58.503484 219.112703 
L 58.780021 222.632983 
L 59.056558 235.223283 
L 59.609633 246.609475 
L 59.88617 245.576345 
L 60.162707 242.474799 
L 60.439244 234.68727 
L 60.992318 243.426786 
L 61.268855 239.087922 
L 61.545392 239.369903 
L 62.375004 249.052606 
L 62.651541 233.168781 
L 62.928078 242.229131 
L 63.204615 243.01672 
L 63.481152 239.98904 
L 63.757689 239.330082 
L 64.034226 231.573317 
L 64.310763 235.61117 
L 64.5873 232.027077 
L 64.863837 232.070936 
L 65.140374 233.959079 
L 65.693449 242.716447 
L 65.969986 252.017201 
L 66.246523 245.443113 
L 66.52306 249.334435 
L 66.799597 237.994578 
L 67.076134 246.74906 
L 67.352671 244.014167 
L 67.629208 240.126805 
L 67.905745 241.612873 
L 68.182283 241.584702 
L 68.45882 226.365984 
L 68.735357 230.081282 
L 69.011894 239.941196 
L 69.288431 243.625777 
L 69.564968 241.946989 
L 69.841505 241.539706 
L 70.118042 247.188323 
L 70.394579 245.473077 
L 70.671116 242.027659 
L 71.224191 250.209076 
L 71.500728 244.146738 
L 71.777265 246.485703 
L 72.053802 243.488599 
L 72.330339 249.200853 
L 72.606876 247.577958 
L 72.883413 242.718002 
L 73.15995 247.754433 
L 73.436487 248.066751 
L 73.713024 246.291615 
L 73.989561 247.685263 
L 74.266099 251.048001 
L 74.542636 246.241182 
L 74.819173 248.045285 
L 75.09571 253.187137 
L 75.372247 248.804792 
L 75.648784 249.326816 
L 76.201858 248.306644 
L 76.478395 252.459024 
L 76.754932 253.172844 
L 77.031469 243.331821 
L 77.308007 250.10062 
L 77.584544 250.38214 
L 77.861081 248.245888 
L 78.137618 254.475343 
L 78.414155 247.541989 
L 78.690692 250.473354 
L 78.967229 249.525415 
L 79.243766 247.985594 
L 79.520303 252.443098 
L 79.79684 250.655055 
L 80.073377 250.569748 
L 80.349915 250.83516 
L 80.626452 255.174683 
L 80.902989 251.657507 
L 81.179526 251.205282 
L 81.456063 248.076506 
L 81.7326 250.738115 
L 82.009137 247.099464 
L 82.285674 252.885926 
L 82.562211 249.190293 
L 82.838748 253.544688 
L 83.115285 251.038654 
L 83.391823 250.368842 
L 83.66836 246.608624 
L 83.944897 249.723777 
L 84.221434 250.271619 
L 84.497971 246.289491 
L 84.774508 238.047995 
L 85.051045 247.660964 
L 85.327582 248.672162 
L 85.604119 253.764839 
L 85.880656 248.697129 
L 86.157193 250.273323 
L 86.433731 256.230716 
L 86.710268 251.118804 
L 86.986805 254.831352 
L 87.263342 252.611424 
L 87.816416 250.900691 
L 88.092953 249.353109 
L 88.646027 250.614725 
L 88.922564 252.943855 
L 89.199101 253.491418 
L 89.475639 251.346534 
L 89.752176 252.257115 
L 90.028713 255.929605 
L 90.30525 254.754149 
L 90.581787 254.101402 
L 90.858324 248.566196 
L 91.134861 248.425608 
L 91.411398 252.206128 
L 91.687935 243.11219 
L 91.964472 241.226799 
L 92.241009 248.729166 
L 92.517547 250.734264 
L 92.794084 254.854626 
L 93.070621 250.717587 
L 93.347158 249.996407 
L 93.900232 252.739693 
L 94.176769 250.051675 
L 94.453306 250.612049 
L 94.729843 253.919544 
L 95.282917 250.401615 
L 95.559455 250.052715 
L 95.835992 248.563818 
L 96.112529 251.867177 
L 96.389066 253.772275 
L 96.665603 251.56258 
L 96.94214 254.031317 
L 97.218677 250.318371 
L 97.495214 249.813252 
L 97.771751 252.287436 
L 98.048288 248.369852 
L 98.324825 249.210953 
L 98.601363 247.624531 
L 98.8779 251.469086 
L 99.154437 252.900406 
L 99.707511 254.371107 
L 99.984048 253.636919 
L 100.260585 254.231371 
L 100.537122 253.771255 
L 100.813659 249.755355 
L 101.090196 252.120221 
L 101.366733 252.273732 
L 101.643271 249.270144 
L 101.919808 249.481983 
L 102.196345 255.47035 
L 102.472882 254.545234 
L 102.749419 251.326993 
L 103.025956 253.660373 
L 103.302493 251.808013 
L 103.855567 255.643142 
L 104.132104 255.179705 
L 104.408641 252.913248 
L 104.685179 253.256816 
L 104.961716 256.223236 
L 105.238253 251.840549 
L 105.51479 251.474988 
L 105.791327 251.372414 
L 106.067864 253.32833 
L 106.344401 257.224671 
L 106.620938 250.482955 
L 106.897475 251.828205 
L 107.174012 254.131966 
L 107.45055 255.437295 
L 107.727087 254.045826 
L 108.003624 256.444202 
L 108.280161 256.023733 
L 108.556698 251.591278 
L 109.109772 255.006858 
L 109.386309 252.643401 
L 109.662846 251.287088 
L 109.939383 255.485574 
L 110.21592 250.165112 
L 110.492458 254.177177 
L 111.045532 254.794591 
L 111.322069 249.39288 
L 111.598606 254.396266 
L 112.15168 253.563667 
L 112.428217 256.445967 
L 112.981291 253.699528 
L 113.257828 254.357578 
L 113.534366 251.759086 
L 113.810903 257.787534 
L 114.08744 258.941236 
L 114.363977 250.242119 
L 114.640514 255.967936 
L 114.917051 258.639577 
L 115.193588 252.528011 
L 115.470125 257.627751 
L 115.746662 254.40887 
L 116.023199 257.658361 
L 116.299736 254.053221 
L 116.576274 253.434213 
L 116.852811 255.335492 
L 117.129348 255.608199 
L 117.405885 252.972687 
L 117.682422 255.054725 
L 117.958959 259.65319 
L 118.235496 255.320452 
L 118.512033 259.838134 
L 118.78857 256.839256 
L 119.065107 257.272749 
L 119.341644 255.145184 
L 119.618182 256.830352 
L 119.894719 255.638717 
L 120.171256 258.625104 
L 120.447793 258.043126 
L 120.72433 253.680833 
L 121.000867 253.448961 
L 121.277404 255.391748 
L 121.553941 254.277148 
L 121.830478 258.295793 
L 122.107015 256.609906 
L 122.383552 255.77666 
L 122.66009 255.630869 
L 122.936627 256.128436 
L 123.213164 257.170072 
L 123.489701 256.15965 
L 123.766238 255.817325 
L 124.042775 251.996371 
L 124.319312 253.458179 
L 124.595849 254.193417 
L 124.872386 252.372928 
L 125.148923 247.34068 
L 125.42546 244.349097 
L 125.701998 220.863372 
L 126.255072 248.93771 
L 126.531609 254.966561 
L 126.808146 252.475218 
L 127.36122 256.430124 
L 127.637757 256.225412 
L 127.914294 253.366433 
L 128.190831 254.003769 
L 128.467368 253.237168 
L 129.020443 256.531597 
L 129.29698 256.662181 
L 129.573517 257.145886 
L 129.850054 257.347453 
L 130.126591 253.859085 
L 130.403128 257.358074 
L 130.679665 253.955111 
L 130.956202 258.494875 
L 131.232739 255.511553 
L 131.509276 257.401556 
L 131.785814 251.594207 
L 132.062351 257.672818 
L 132.338888 256.476745 
L 132.615425 259.429982 
L 132.891962 257.140633 
L 133.168499 258.020943 
L 133.445036 257.062964 
L 133.721573 256.507713 
L 133.99811 256.36901 
L 134.274647 255.835351 
L 134.551184 258.328338 
L 134.827722 256.618284 
L 135.104259 256.044078 
L 135.657333 258.890631 
L 136.210407 254.616445 
L 136.486944 255.106171 
L 136.763481 255.148891 
L 137.040018 253.645386 
L 137.316555 255.979572 
L 137.593092 252.648996 
L 137.86963 256.910144 
L 138.422704 253.283995 
L 138.699241 256.677347 
L 138.975778 256.748495 
L 139.528852 256.656424 
L 139.805389 255.375217 
L 140.081926 258.849011 
L 140.358463 256.878985 
L 140.635 258.635745 
L 140.911538 257.817727 
L 141.188075 258.54199 
L 141.464612 255.212667 
L 141.741149 254.987597 
L 142.017686 253.10238 
L 142.294223 256.385522 
L 142.57076 252.110432 
L 142.847297 254.80474 
L 143.123834 259.409913 
L 143.400371 255.085873 
L 143.676908 256.45913 
L 143.953446 254.599048 
L 144.229983 256.324573 
L 144.50652 253.822487 
L 144.783057 257.372039 
L 145.059594 255.81693 
L 145.336131 257.925768 
L 145.612668 257.466426 
L 145.889205 257.830735 
L 146.165742 255.383032 
L 146.442279 257.76773 
L 146.718816 255.76162 
L 146.995354 257.681045 
L 147.271891 257.335593 
L 147.824965 254.82583 
L 148.378039 256.479012 
L 148.654576 256.251183 
L 148.931113 256.94594 
L 149.20765 254.744947 
L 149.484187 255.345422 
L 149.760725 256.362786 
L 150.037262 259.025909 
L 150.313799 256.891026 
L 150.590336 258.830876 
L 150.866873 255.717743 
L 151.419947 260.409374 
L 151.696484 255.76658 
L 152.249558 256.499434 
L 152.526095 257.87167 
L 152.802633 256.268617 
L 153.07917 250.069341 
L 153.355707 257.071716 
L 153.632244 258.573924 
L 154.185318 255.258685 
L 154.461855 255.89367 
L 154.738392 257.509172 
L 155.014929 255.688113 
L 155.291466 254.624781 
L 155.568003 254.784243 
L 155.844541 257.608571 
L 156.121078 253.541665 
L 156.397615 256.345801 
L 156.674152 256.838111 
L 156.950689 255.57828 
L 157.227226 258.455665 
L 157.503763 258.244369 
L 157.7803 257.249442 
L 158.056837 256.938542 
L 158.333374 258.27385 
L 158.609911 254.55938 
L 158.886449 257.007986 
L 159.162986 254.889989 
L 159.439523 258.190358 
L 159.71606 259.847477 
L 159.992597 256.90703 
L 160.269134 260.337722 
L 160.822208 254.906015 
L 161.098745 257.182542 
L 161.375282 258.128497 
L 162.204894 254.412207 
L 162.481431 255.771087 
L 162.757968 251.840902 
L 163.034505 257.14754 
L 163.311042 258.338686 
L 163.587579 254.154468 
L 163.864116 255.005534 
L 164.140653 254.894961 
L 164.41719 255.590597 
L 164.693727 259.086321 
L 164.970265 256.021512 
L 165.246802 257.288324 
L 165.799876 256.429269 
L 166.076413 257.683124 
L 166.629487 253.529764 
L 166.906024 257.244234 
L 167.182561 257.607042 
L 167.459098 255.190922 
L 167.735635 255.053985 
L 168.28871 257.357688 
L 168.565247 259.686063 
L 168.841784 254.659215 
L 169.118321 256.340689 
L 169.394858 256.203802 
L 169.671395 257.234926 
L 169.947932 254.92855 
L 170.224469 256.847695 
L 170.501006 257.416509 
L 170.777543 258.490596 
L 171.054081 255.544276 
L 171.330618 256.564074 
L 171.607155 255.363128 
L 171.883692 257.898703 
L 172.160229 257.833647 
L 172.436766 255.605535 
L 172.98984 259.170464 
L 173.266377 256.473795 
L 173.542914 252.676503 
L 173.819451 258.251848 
L 174.095989 257.33423 
L 174.372526 254.83899 
L 174.649063 254.616638 
L 175.202137 257.626079 
L 175.478674 252.642187 
L 175.755211 254.949508 
L 176.031748 258.485911 
L 176.584822 253.015907 
L 176.861359 257.775579 
L 177.137897 258.261662 
L 177.414434 256.728838 
L 177.690971 257.5209 
L 177.967508 256.983458 
L 178.520582 259.573919 
L 178.797119 258.886476 
L 179.073656 256.713924 
L 179.350193 259.549025 
L 179.62673 259.529622 
L 179.903267 258.848886 
L 180.179805 249.476174 
L 180.456342 258.2778 
L 180.732879 254.444335 
L 181.009416 258.069265 
L 181.285953 258.129073 
L 181.56249 255.898969 
L 181.839027 256.988464 
L 182.115564 260.508612 
L 182.392101 257.79039 
L 182.668638 258.665959 
L 182.945175 258.672716 
L 183.221713 257.165766 
L 183.774787 259.622337 
L 184.051324 257.010524 
L 184.327861 259.197563 
L 184.604398 257.954051 
L 184.880935 254.371793 
L 185.434009 258.644798 
L 185.710546 255.611683 
L 185.987083 257.891002 
L 186.263621 257.937714 
L 186.816695 260.202401 
L 187.093232 258.270843 
L 187.369769 260.012109 
L 187.646306 258.282273 
L 187.922843 258.91361 
L 188.475917 254.115787 
L 189.028992 258.893969 
L 189.305529 258.634485 
L 189.582066 257.166717 
L 189.858603 257.756452 
L 190.13514 257.717676 
L 190.411677 257.419902 
L 190.964751 256.426474 
L 191.241288 258.931893 
L 191.517825 254.951651 
L 191.794362 257.889615 
L 192.0709 253.756669 
L 192.347437 251.742068 
L 192.623974 258.413725 
L 192.900511 256.807615 
L 193.177048 258.612446 
L 193.453585 255.710728 
L 193.730122 258.528764 
L 194.006659 256.063999 
L 194.283196 257.344725 
L 194.83627 258.723697 
L 195.112808 257.745605 
L 195.389345 259.456163 
L 195.665882 259.858313 
L 195.942419 256.742584 
L 196.218956 258.168211 
L 196.495493 256.590032 
L 196.77203 255.843977 
L 197.048567 256.506918 
L 197.325104 258.809582 
L 197.601641 259.760624 
L 197.878178 258.717605 
L 198.154716 258.551466 
L 198.431253 254.525748 
L 198.70779 258.350233 
L 198.984327 255.244826 
L 199.260864 259.314457 
L 199.537401 256.513753 
L 199.813938 258.220691 
L 200.090475 257.335221 
L 200.367012 257.703856 
L 200.643549 254.837465 
L 200.920086 258.070345 
L 201.196624 259.367142 
L 201.473161 258.139308 
L 201.749698 258.823638 
L 202.026235 258.287892 
L 202.302772 259.929679 
L 202.579309 258.430346 
L 202.855846 258.153392 
L 203.132383 258.244464 
L 203.40892 258.471793 
L 203.685457 259.14178 
L 203.961994 260.189097 
L 204.515069 256.189409 
L 204.791606 257.983505 
L 205.068143 257.894425 
L 205.34468 258.414602 
L 205.621217 257.623021 
L 205.897754 259.148877 
L 206.174291 254.901507 
L 206.450828 257.64145 
L 206.727365 256.403692 
L 207.003902 258.316081 
L 207.28044 254.97945 
L 207.556977 256.569746 
L 207.833514 257.424403 
L 208.110051 257.604272 
L 208.386588 259.016004 
L 208.939662 257.710562 
L 209.216199 258.715556 
L 209.492736 260.349594 
L 209.769273 258.740662 
L 210.04581 259.259137 
L 210.322348 256.661858 
L 210.875422 258.647478 
L 211.151959 256.71873 
L 211.428496 260.360425 
L 211.705033 259.665842 
L 211.98157 257.644603 
L 212.258107 260.483741 
L 212.534644 257.401677 
L 212.811181 257.387691 
L 213.087718 258.588889 
L 213.640793 256.88762 
L 214.193867 259.763821 
L 214.470404 256.693225 
L 214.746941 259.371603 
L 215.023478 258.026646 
L 215.300015 259.690349 
L 215.576552 259.230013 
L 215.853089 258.373255 
L 216.129626 259.811955 
L 216.406164 255.68288 
L 216.682701 256.194737 
L 216.959238 253.777384 
L 217.235775 256.233079 
L 217.512312 253.099939 
L 217.788849 258.61402 
L 218.065386 258.954251 
L 218.341923 259.069261 
L 218.61846 257.774439 
L 218.894997 255.501022 
L 219.171534 258.932947 
L 219.448072 257.430312 
L 219.724609 256.650499 
L 220.001146 260.05884 
L 220.277683 258.288979 
L 220.55422 255.279384 
L 220.830757 260.171928 
L 221.383831 255.17543 
L 221.660368 258.020375 
L 221.936905 256.175337 
L 222.213442 259.413572 
L 222.48998 254.682436 
L 222.766517 255.574485 
L 223.043054 255.334548 
L 223.319591 257.556495 
L 223.596128 257.277053 
L 223.872665 254.202455 
L 224.149202 258.401793 
L 224.425739 258.093911 
L 224.702276 258.636568 
L 224.978813 260.276953 
L 225.25535 258.475601 
L 225.531888 257.918511 
L 226.084962 258.092947 
L 226.361499 259.35684 
L 226.638036 256.457861 
L 226.914573 260.137238 
L 227.19111 258.972485 
L 227.467647 256.30538 
L 227.744184 258.954032 
L 228.297258 256.806222 
L 228.573796 257.64346 
L 228.850333 255.764122 
L 229.12687 259.617552 
L 229.403407 259.729976 
L 229.679944 257.368819 
L 229.956481 258.546265 
L 230.233018 258.678276 
L 230.509555 257.861525 
L 230.786092 259.401757 
L 231.062629 255.257069 
L 231.339167 258.158154 
L 231.615704 259.798601 
L 231.892241 258.626514 
L 232.168778 256.214145 
L 232.445315 259.31367 
L 232.721852 260.668452 
L 232.998389 259.606742 
L 233.274926 256.763754 
L 233.551463 259.239058 
L 233.828 258.15578 
L 234.104537 257.833488 
L 234.381075 254.944811 
L 234.657612 257.574051 
L 234.934149 258.990217 
L 235.210686 259.157995 
L 235.487223 259.511072 
L 235.76376 254.225526 
L 236.040297 254.753172 
L 236.316834 253.900235 
L 236.593371 253.516535 
L 236.869908 258.784056 
L 237.146445 259.44637 
L 237.422983 257.992385 
L 237.69952 257.868254 
L 237.976057 258.357509 
L 238.252594 258.39888 
L 238.529131 258.982999 
L 238.805668 258.178372 
L 239.082205 259.176832 
L 239.358742 259.222 
L 239.635279 256.838825 
L 239.911816 257.249909 
L 240.188353 258.972971 
L 240.464891 254.684333 
L 240.741428 258.691355 
L 241.017965 257.652829 
L 241.294502 257.222849 
L 241.571039 255.675713 
L 241.847576 257.545359 
L 242.124113 258.153839 
L 242.40065 257.742395 
L 242.677187 259.6705 
L 243.230261 259.429693 
L 243.506799 259.676179 
L 243.783336 258.229963 
L 244.059873 258.228305 
L 244.33641 257.413972 
L 244.612947 259.984054 
L 244.889484 259.266327 
L 245.166021 259.343889 
L 245.442558 260.222756 
L 245.719095 256.142796 
L 245.995632 259.675607 
L 246.272169 258.923405 
L 246.548707 260.173279 
L 246.825244 258.165705 
L 247.101781 259.706817 
L 247.378318 256.594214 
L 247.931392 258.649598 
L 248.207929 259.016423 
L 248.761003 260.049872 
L 249.03754 257.088151 
L 249.314077 260.084342 
L 249.590615 260.098761 
L 249.867152 258.899272 
L 250.143689 258.396418 
L 250.420226 254.674904 
L 250.696763 259.358439 
L 250.9733 260.472117 
L 251.249837 260.667721 
L 251.526374 256.32722 
L 251.802911 259.945599 
L 252.079448 260.236665 
L 252.355985 258.924372 
L 252.632523 258.672509 
L 252.90906 258.633052 
L 253.185597 258.429904 
L 253.462134 258.629814 
L 253.738671 256.278322 
L 254.291745 260.611701 
L 254.568282 259.061099 
L 254.844819 259.200101 
L 255.121356 257.671785 
L 255.397893 258.299543 
L 255.674431 259.840645 
L 255.950968 259.104952 
L 256.227505 259.348411 
L 256.504042 260.059986 
L 256.780579 259.504414 
L 257.057116 259.811047 
L 257.333653 260.694849 
L 257.61019 258.658663 
L 257.886727 259.560995 
L 258.163264 259.18357 
L 258.439801 255.735002 
L 258.716339 258.877384 
L 258.992876 258.803687 
L 259.269413 259.982538 
L 259.54595 257.41216 
L 259.822487 258.259679 
L 260.099024 257.211392 
L 260.375561 258.658097 
L 260.652098 256.496309 
L 260.928635 257.636702 
L 261.481709 256.742538 
L 261.758247 260.751226 
L 262.034784 258.744147 
L 262.311321 260.020897 
L 262.587858 259.774512 
L 262.864395 258.66108 
L 263.140932 258.209114 
L 263.417469 260.023049 
L 263.694006 258.576763 
L 263.970543 258.174378 
L 264.523617 259.083854 
L 264.800155 260.468999 
L 265.076692 260.312021 
L 265.353229 258.531315 
L 265.629766 260.821449 
L 265.906303 258.931392 
L 266.459377 260.230205 
L 266.735914 258.496744 
L 267.012451 260.444374 
L 267.288988 253.474593 
L 267.565525 259.395346 
L 267.842063 258.095363 
L 268.1186 260.815308 
L 268.395137 259.184803 
L 268.671674 258.585585 
L 268.948211 258.279606 
L 269.224748 257.556359 
L 269.501285 255.613288 
L 269.777822 258.480966 
L 270.054359 257.143393 
L 270.330896 254.800781 
L 270.607434 258.087742 
L 270.883971 254.878124 
L 271.160508 257.477856 
L 271.437045 256.224099 
L 271.713582 259.442808 
L 271.990119 258.528263 
L 272.266656 259.032894 
L 272.543193 256.608192 
L 272.81973 258.230718 
L 273.096267 255.612527 
L 273.372804 259.179301 
L 273.649342 259.397241 
L 273.925879 260.122673 
L 274.202416 259.912729 
L 274.478953 257.048109 
L 274.75549 258.080985 
L 275.032027 257.425101 
L 275.308564 257.817485 
L 275.585101 257.119657 
L 275.861638 259.987661 
L 276.414712 259.319202 
L 276.69125 260.594886 
L 277.244324 258.68704 
L 277.520861 258.826545 
L 277.797398 257.850704 
L 278.073935 258.907633 
L 278.627009 258.277577 
L 278.903546 259.485984 
L 279.180083 259.334675 
L 279.45662 258.382066 
L 279.733158 260.910841 
L 280.009695 259.62862 
L 280.286232 257.296204 
L 280.562769 260.536403 
L 280.839306 257.969286 
L 281.115843 260.334867 
L 281.39238 258.078329 
L 281.945454 257.031102 
L 282.221991 259.755355 
L 282.498528 258.208309 
L 282.775066 255.922414 
L 283.051603 255.892221 
L 283.32814 255.725005 
L 283.604677 260.452209 
L 283.881214 255.715747 
L 284.157751 259.17701 
L 284.434288 256.930166 
L 284.710825 259.992051 
L 284.987362 256.069975 
L 285.263899 255.546013 
L 285.540436 256.156588 
L 285.816974 254.653329 
L 286.370048 259.820115 
L 286.646585 257.375396 
L 286.923122 258.712626 
L 287.199659 257.416589 
L 287.476196 258.315305 
L 287.752733 259.926959 
L 288.02927 259.669059 
L 288.305807 257.734706 
L 288.582344 258.423142 
L 288.858882 259.571961 
L 289.411956 257.056196 
L 289.96503 258.739112 
L 290.241567 257.225756 
L 290.794641 259.341398 
L 291.071178 258.891316 
L 291.347715 258.675185 
L 291.624252 257.723922 
L 291.90079 259.627063 
L 292.177327 258.195716 
L 292.453864 257.564575 
L 292.730401 259.877994 
L 293.283475 257.688261 
L 293.560012 255.927676 
L 293.836549 258.378299 
L 294.113086 259.404888 
L 294.389623 259.100357 
L 294.66616 259.766245 
L 294.942698 259.335476 
L 295.219235 259.570185 
L 295.495772 260.62348 
L 295.772309 260.600472 
L 296.048846 260.1482 
L 296.325383 257.554983 
L 296.60192 259.07213 
L 297.154994 260.653086 
L 297.984606 259.089769 
L 298.53768 256.309177 
L 299.090754 258.843926 
L 299.367291 258.765844 
L 299.920365 260.432168 
L 300.196902 258.654776 
L 300.473439 259.44653 
L 301.303051 260.083838 
L 301.579588 258.092891 
L 301.856125 258.541314 
L 302.132662 259.817548 
L 302.409199 256.926153 
L 302.685736 255.684582 
L 303.23881 259.338152 
L 303.515347 259.143469 
L 303.791884 256.401876 
L 304.068422 260.4321 
L 304.344959 259.198946 
L 304.621496 260.490075 
L 304.898033 258.217119 
L 305.17457 259.295033 
L 305.451107 259.547812 
L 305.727644 259.440541 
L 306.004181 259.595548 
L 306.280718 260.307706 
L 306.557255 257.871364 
L 306.833792 259.251962 
L 307.11033 259.482479 
L 307.386867 259.175417 
L 307.663404 260.283176 
L 307.939941 258.596092 
L 308.216478 254.967318 
L 308.493015 258.780089 
L 309.046089 260.321069 
L 309.322626 260.128021 
L 309.599163 259.749091 
L 309.8757 260.713995 
L 310.152238 259.01671 
L 310.428775 258.502512 
L 310.981849 259.262323 
L 311.258386 258.986976 
L 311.534923 259.829643 
L 311.81146 258.497918 
L 312.087997 257.937178 
L 312.364534 259.787668 
L 312.641071 259.090211 
L 312.917609 258.781288 
L 313.194146 255.969688 
L 313.470683 255.357555 
L 313.74722 260.040717 
L 314.023757 260.878878 
L 314.300294 259.61547 
L 314.576831 260.637279 
L 314.853368 260.141763 
L 315.129905 260.553369 
L 315.406442 257.386437 
L 315.959517 259.364936 
L 316.236054 258.406643 
L 316.512591 259.057233 
L 316.789128 257.133165 
L 317.065665 259.424155 
L 317.342202 258.984515 
L 317.618739 259.95874 
L 317.895276 259.237846 
L 318.171813 257.880266 
L 318.44835 260.666709 
L 318.724887 257.399856 
L 319.554499 261.006974 
L 319.831036 258.954427 
L 320.107573 259.339616 
L 320.38411 261.056186 
L 320.660647 258.6055 
L 320.937184 258.317915 
L 321.490258 259.724008 
L 321.766795 260.187836 
L 322.043333 260.069516 
L 322.31987 261.061275 
L 322.596407 259.479289 
L 322.872944 256.832031 
L 323.149481 260.543025 
L 323.426018 259.753264 
L 323.702555 258.184158 
L 323.979092 258.276867 
L 324.255629 256.024424 
L 325.085241 260.138599 
L 325.361778 260.449053 
L 325.638315 260.433685 
L 325.914852 259.235575 
L 326.191389 258.863201 
L 326.744463 260.608368 
L 327.021 260.281087 
L 327.297537 260.825913 
L 327.574074 258.66431 
L 327.850611 260.906273 
L 328.127149 259.344359 
L 328.403686 254.796675 
L 328.680223 260.118051 
L 328.95676 259.413402 
L 329.233297 256.84824 
L 329.509834 260.439502 
L 329.786371 258.676949 
L 330.062908 259.460989 
L 330.339445 259.773219 
L 330.615982 259.363492 
L 330.892519 257.651812 
L 331.169057 259.155462 
L 331.445594 259.560852 
L 331.722131 257.894169 
L 331.998668 260.269157 
L 332.275205 259.501576 
L 332.551742 260.469723 
L 332.828279 259.657393 
L 333.104816 261.005054 
L 333.934427 259.063772 
L 334.210965 260.124611 
L 334.487502 256.575899 
L 334.764039 259.592989 
L 335.040576 256.177899 
L 335.317113 259.139323 
L 335.59365 257.150234 
L 335.870187 260.488095 
L 336.146724 258.385148 
L 336.423261 259.193807 
L 336.976335 258.913674 
L 337.252873 259.713966 
L 337.52941 258.935385 
L 337.805947 259.966149 
L 338.082484 256.284293 
L 338.635558 255.029289 
L 338.912095 259.494911 
L 339.188632 256.919394 
L 339.465169 256.429184 
L 339.741706 258.294396 
L 340.018243 259.152334 
L 340.294781 257.637457 
L 340.571318 261.002531 
L 340.847855 259.688039 
L 341.124392 259.040384 
L 341.677466 260.063197 
L 341.954003 257.467386 
L 342.23054 260.791827 
L 342.507077 261.058363 
L 342.783614 260.67091 
L 343.060151 258.971237 
L 343.336689 257.975756 
L 343.613226 260.426575 
L 343.889763 260.005771 
L 344.1663 255.94127 
L 344.442837 259.930996 
L 344.995911 260.677439 
L 345.272448 260.435586 
L 345.548985 261.216 
L 346.102059 256.923619 
L 346.378597 259.279271 
L 346.655134 260.122132 
L 346.931671 258.987982 
L 347.208208 258.502085 
L 347.761282 260.519303 
L 348.314356 258.994985 
L 348.590893 259.819333 
L 348.86743 257.016866 
L 349.143967 255.96486 
L 349.420505 259.090853 
L 349.697042 260.25061 
L 349.973579 260.113552 
L 350.250116 259.057787 
L 350.526653 258.573272 
L 350.80319 258.55087 
L 351.079727 258.835075 
L 351.356264 261.079807 
L 351.632801 258.370486 
L 351.909338 260.632172 
L 352.185876 260.498335 
L 352.462413 257.197436 
L 352.73895 258.878658 
L 353.015487 258.793609 
L 353.292024 261.05071 
L 353.568561 258.898791 
L 353.845098 260.53875 
L 354.121635 260.07927 
L 354.398172 257.514059 
L 354.674709 259.756182 
L 354.951246 257.964763 
L 355.227784 260.196702 
L 355.504321 259.706227 
L 355.780858 259.758977 
L 356.057395 259.338943 
L 356.333932 258.39586 
L 356.610469 259.604501 
L 356.887006 257.44244 
L 357.163543 257.714752 
L 357.716617 256.884126 
L 357.993154 260.471461 
L 358.269692 257.681699 
L 358.546229 257.690763 
L 358.822766 260.264169 
L 359.099303 258.744804 
L 359.37584 258.075564 
L 359.652377 258.576082 
L 359.928914 258.618842 
L 360.205451 258.840051 
L 360.481988 258.095233 
L 360.758525 260.352519 
L 361.3116 258.886136 
L 361.588137 259.844053 
L 361.864674 258.790769 
L 362.141211 260.05221 
L 362.417748 260.403472 
L 362.694285 259.021421 
L 362.970822 258.735038 
L 363.247359 260.016013 
L 363.523896 256.821589 
L 363.800433 260.408465 
L 364.07697 260.039014 
L 364.353508 258.930436 
L 364.630045 258.524271 
L 364.906582 259.387313 
L 365.183119 258.145917 
L 365.736193 260.246574 
L 366.01273 259.313665 
L 366.289267 257.576801 
L 366.565804 257.655847 
L 367.118878 260.772491 
L 367.395416 255.721293 
L 367.671953 259.409253 
L 367.94849 259.343856 
L 368.225027 256.976516 
L 368.501564 258.582684 
L 368.778101 257.740153 
L 369.054638 257.950367 
L 369.331175 260.153236 
L 369.607712 259.47554 
L 369.884249 260.735511 
L 370.160786 259.990026 
L 370.437324 259.784885 
L 370.990398 260.384898 
L 370.990398 260.384898 
" clip-path="url(#p230b310d26)" style="fill: none; stroke: #1f77b4; stroke-width: 1.5; stroke-linecap: square"/>
   </g>
   <g id="patch_3">
    <path d="M 30.103125 273.312 
L 30.103125 7.2 
" style="fill: none; stroke: #000000; stroke-width: 0.8; stroke-linejoin: miter; stroke-linecap: square"/>
   </g>
   <g id="patch_4">
    <path d="M 387.223125 273.312 
L 387.223125 7.2 
" style="fill: none; stroke: #000000; stroke-width: 0.8; stroke-linejoin: miter; stroke-linecap: square"/>
   </g>
   <g id="patch_5">
    <path d="M 30.103125 273.312 
L 387.223125 273.312 
" style="fill: none; stroke: #000000; stroke-width: 0.8; stroke-linejoin: miter; stroke-linecap: square"/>
   </g>
   <g id="patch_6">
    <path d="M 30.103125 7.2 
L 387.223125 7.2 
" style="fill: none; stroke: #000000; stroke-width: 0.8; stroke-linejoin: miter; stroke-linecap: square"/>
   </g>
  </g>
 </g>
 <defs>
  <clipPath id="p230b310d26">
   <rect x="30.103125" y="7.2" width="357.12" height="266.112"/>
  </clipPath>
 </defs>
</svg>
